<?xml version="1.0" encoding="utf-8"?>
<!-- Generator: Adobe Illustrator 26.2.1, SVG Export Plug-In . SVG Version: 6.00 Build 0)  -->
<svg version="1.1" id="Layer_2" xmlns="http://www.w3.org/2000/svg" xmlns:xlink="http://www.w3.org/1999/xlink" x="0px" y="0px"
	 viewBox="0 0 919.3 1165.3" style="enable-background:new 0 0 919.3 1165.3;" xml:space="preserve">
<style type="text/css">
	.st0{fill:#B4C7E7;stroke:#000000;stroke-miterlimit:10;enable-background:new    ;}
	.st1{fill:none;stroke:#000000;stroke-miterlimit:10;}
	.st2{fill:#F95D3F;}
	.st3{fill:#F9C750;}
	.st4{fill:#FED3CE;}
	.st5{fill:#F97D29;}
	.st6{fill:#FAB7AF;}
	.st7{fill:#F85C3F;}
	.st8{fill:#FEFEFD;}
	.st9{fill:none;stroke:#000000;stroke-width:8;stroke-miterlimit:10;}
</style>
<g>
	<rect x="528.3" y="161.3" class="st0" width="159.7" height="49.3"/>
	<g>
		<path d="M214.2,94.4h-9.8l-2.2,6.1H199l9-23.5h2.7l9,23.5h-3.2L214.2,94.4z M205.3,91.9h8l-4-11L205.3,91.9z"/>
		<path d="M225.9,98h11.1v2.5h-14.2V77.1h3.1V98z"/>
		<path d="M240.6,100.6V77.1h7.7c2.5,0,4.5,0.5,5.7,1.6c1.3,1.1,1.9,2.6,1.9,4.7c0,1.1-0.3,2.1-0.9,2.9c-0.6,0.8-1.5,1.5-2.5,2
			c1.3,0.4,2.3,1,3,2c0.7,1,1.1,2.2,1.1,3.6c0,2.1-0.7,3.8-2,5c-1.4,1.2-3.3,1.8-5.8,1.8H240.6z M243.7,87.1h4.7
			c1.4,0,2.4-0.3,3.2-1c0.8-0.7,1.2-1.6,1.2-2.8c0-1.3-0.4-2.2-1.1-2.8c-0.8-0.6-1.9-0.9-3.4-0.9h-4.6V87.1z M243.7,89.6V98h5.1
			c1.4,0,2.6-0.4,3.4-1.1c0.8-0.7,1.2-1.8,1.2-3.1c0-2.8-1.5-4.2-4.6-4.2H243.7z"/>
		<path d="M274.1,94.4h-9.8l-2.2,6.1h-3.2l9-23.5h2.7l9,23.5h-3.2L274.1,94.4z M265.2,91.9h8l-4-11L265.2,91.9z"/>
		<path d="M291.3,91.1h-5.5v9.5h-3.1V77.1h7.8c2.6,0,4.7,0.6,6.1,1.8c1.4,1.2,2.1,3,2.1,5.3c0,1.5-0.4,2.7-1.2,3.8s-1.9,1.9-3.3,2.4
			l5.5,10v0.2h-3.3L291.3,91.1z M285.8,88.5h4.8c1.5,0,2.8-0.4,3.7-1.2s1.4-1.9,1.4-3.2c0-1.5-0.4-2.6-1.3-3.3
			c-0.9-0.8-2.1-1.2-3.7-1.2h-4.7V88.5z"/>
		<path d="M316,94.4h-9.8l-2.2,6.1h-3.2l9-23.5h2.7l9,23.5h-3.2L316,94.4z M307.1,91.9h8l-4-11L307.1,91.9z"/>
		<path d="M342.6,100.6h-3.1l-11.8-18.1v18.1h-3.1V77.1h3.1l11.9,18.2V77.1h3.1V100.6z"/>
		<path d="M374.4,89.6c0,2.3-0.4,4.3-1.2,6s-1.9,3-3.3,3.9c-1.4,0.9-3.1,1.4-5,1.4c-1.8,0-3.5-0.5-4.9-1.4s-2.5-2.2-3.3-3.9
			s-1.2-3.6-1.2-5.8v-1.7c0-2.3,0.4-4.3,1.2-6s1.9-3.1,3.3-4c1.4-0.9,3.1-1.4,4.9-1.4c1.9,0,3.5,0.5,5,1.4c1.4,0.9,2.5,2.2,3.3,4
			s1.2,3.7,1.2,6V89.6z M371.3,88.1c0-2.8-0.6-4.9-1.7-6.4s-2.7-2.2-4.7-2.2c-2,0-3.5,0.7-4.6,2.2s-1.7,3.6-1.7,6.2v1.7
			c0,2.7,0.6,4.8,1.7,6.4c1.1,1.5,2.7,2.3,4.7,2.3c2,0,3.5-0.7,4.6-2.2s1.7-3.5,1.7-6.3V88.1z"/>
		<path d="M405.2,100.6h-3.1l-11.8-18.1v18.1h-3.1V77.1h3.1l11.9,18.2V77.1h3.1V100.6z"/>
		<path d="M428.8,89.6c0,2.3-0.4,4.3-1.2,6s-1.9,3-3.3,3.9c-1.4,0.9-3.1,1.4-5,1.4c-1.8,0-3.5-0.5-4.9-1.4s-2.5-2.2-3.3-3.9
			s-1.2-3.6-1.2-5.8v-1.7c0-2.3,0.4-4.3,1.2-6s1.9-3.1,3.3-4c1.4-0.9,3.1-1.4,4.9-1.4c1.9,0,3.5,0.5,5,1.4c1.4,0.9,2.5,2.2,3.3,4
			s1.2,3.7,1.2,6V89.6z M425.7,88.1c0-2.8-0.6-4.9-1.7-6.4s-2.7-2.2-4.7-2.2c-2,0-3.5,0.7-4.6,2.2s-1.7,3.6-1.7,6.2v1.7
			c0,2.7,0.6,4.8,1.7,6.4c1.1,1.5,2.7,2.3,4.7,2.3c2,0,3.5-0.7,4.6-2.2s1.7-3.5,1.7-6.3V88.1z"/>
		<path d="M449.2,79.6h-7.5v20.9h-3.1V79.6h-7.5v-2.5h18.2V79.6z"/>
		<path d="M464.4,94.4h-9.8l-2.2,6.1h-3.2l9-23.5h2.7l9,23.5h-3.2L464.4,94.4z M455.5,91.9h8l-4-11L455.5,91.9z"/>
		<path d="M481.2,100.6V77.1h6.6c2,0,3.8,0.5,5.4,1.4c1.6,0.9,2.8,2.2,3.6,3.9c0.9,1.7,1.3,3.6,1.3,5.7v1.5c0,2.2-0.4,4.2-1.3,5.8
			s-2.1,2.9-3.7,3.8s-3.4,1.3-5.5,1.4H481.2z M484.3,79.6V98h3.3c2.4,0,4.2-0.7,5.6-2.2c1.3-1.5,2-3.6,2-6.3v-1.4
			c0-2.7-0.6-4.7-1.9-6.2c-1.3-1.5-3-2.2-5.3-2.3H484.3z"/>
		<path d="M516.1,89.7h-10.2V98h11.8v2.5h-14.9V77.1h14.8v2.5h-11.7v7.6h10.2V89.7z"/>
		<path d="M543,89.7h-10.2V98h11.8v2.5h-14.9V77.1h14.8v2.5h-11.7v7.6H543V89.7z"/>
		<path d="M566.6,100.6h-3.1l-11.8-18.1v18.1h-3.1V77.1h3.1l11.9,18.2V77.1h3.1V100.6z"/>
		<path d="M587.8,79.6h-7.5v20.9h-3.1V79.6h-7.5v-2.5h18.2V79.6z"/>
		<path d="M599.9,91.1h-5.5v9.5h-3.1V77.1h7.8c2.6,0,4.7,0.6,6.1,1.8c1.4,1.2,2.1,3,2.1,5.3c0,1.5-0.4,2.7-1.2,3.8s-1.9,1.9-3.3,2.4
			l5.5,10v0.2H605L599.9,91.1z M594.4,88.5h4.8c1.5,0,2.8-0.4,3.7-1.2s1.4-1.9,1.4-3.2c0-1.5-0.4-2.6-1.3-3.3
			c-0.9-0.8-2.1-1.2-3.7-1.2h-4.7V88.5z"/>
		<path d="M624.9,89.7h-10.2V98h11.8v2.5h-14.9V77.1h14.8v2.5h-11.7v7.6h10.2V89.7z"/>
		<path d="M647.8,97.5c-0.8,1.1-1.9,2-3.3,2.6s-3.1,0.8-5,0.8c-1.9,0-3.6-0.4-5.1-1.3c-1.5-0.9-2.6-2.2-3.4-3.8
			c-0.8-1.7-1.2-3.6-1.2-5.8v-2c0-3.5,0.8-6.3,2.5-8.2c1.6-1.9,4-2.9,7-2.9c2.5,0,4.4,0.6,5.9,1.9c1.5,1.3,2.4,3,2.7,5.3h-3.1
			c-0.6-3.1-2.4-4.7-5.5-4.7c-2.1,0-3.6,0.7-4.7,2.2c-1.1,1.5-1.6,3.6-1.6,6.3v1.9c0,2.6,0.6,4.7,1.8,6.3c1.2,1.6,2.8,2.3,4.9,2.3
			c1.2,0,2.2-0.1,3-0.4c0.9-0.3,1.6-0.7,2.2-1.3v-5.3h-5.4v-2.5h8.5V97.5z"/>
		<path d="M665.9,94.4h-9.8l-2.2,6.1h-3.2l9-23.5h2.7l9,23.5h-3.2L665.9,94.4z M657,91.9h8l-4-11L657,91.9z"/>
	</g>
	<g>
		<path d="M249,192.9c-1.5-0.4-2.6-1-3.3-1.6c-0.7-0.6-1-1.4-1-2.3c0-1.1,0.4-1.9,1.3-2.6s1.9-1,3.3-1c0.9,0,1.7,0.2,2.5,0.5
			c0.7,0.4,1.3,0.8,1.7,1.5s0.6,1.3,0.6,2h-1.8c0-0.8-0.3-1.4-0.8-1.9c-0.5-0.5-1.2-0.7-2.2-0.7c-0.9,0-1.5,0.2-2,0.6
			c-0.5,0.4-0.7,0.9-0.7,1.6c0,0.5,0.2,1,0.7,1.4s1.2,0.7,2.4,1s2,0.7,2.6,1c0.6,0.4,1.1,0.8,1.4,1.3c0.3,0.5,0.5,1.1,0.5,1.8
			c0,1.1-0.4,2-1.3,2.6c-0.8,0.7-2,1-3.4,1c-0.9,0-1.8-0.2-2.6-0.5c-0.8-0.4-1.4-0.8-1.8-1.4c-0.4-0.6-0.6-1.3-0.6-2.1h1.8
			c0,0.8,0.3,1.4,0.9,1.9c0.6,0.5,1.4,0.7,2.4,0.7c0.9,0,1.6-0.2,2.1-0.6s0.7-0.9,0.7-1.6s-0.2-1.2-0.7-1.5S250.2,193.2,249,192.9z"
			/>
		<path d="M260.1,199c-1.3,0-2.4-0.4-3.3-1.3c-0.8-0.9-1.3-2.1-1.3-3.5v-0.3c0-1,0.2-1.9,0.6-2.6c0.4-0.8,0.9-1.4,1.6-1.8
			c0.7-0.4,1.4-0.7,2.2-0.7c1.3,0,2.3,0.4,3,1.3c0.7,0.9,1.1,2.1,1.1,3.7v0.7h-6.7c0,1,0.3,1.8,0.9,2.4s1.2,0.9,2.1,0.9
			c0.6,0,1.1-0.1,1.5-0.4c0.4-0.2,0.8-0.6,1.1-1l1,0.8C263,198.4,261.8,199,260.1,199z M259.9,190.1c-0.7,0-1.3,0.2-1.7,0.7
			c-0.5,0.5-0.8,1.2-0.9,2.1h5v-0.1c0-0.9-0.3-1.5-0.7-2C261.2,190.3,260.6,190.1,259.9,190.1z"/>
		<path d="M270.7,190.4c-0.3,0-0.5-0.1-0.8-0.1c-1.1,0-1.9,0.5-2.3,1.4v7h-1.7v-9.9h1.7l0,1.1c0.6-0.9,1.3-1.3,2.4-1.3
			c0.3,0,0.6,0,0.8,0.1V190.4z"/>
		<path d="M275.7,196.5l2.5-7.6h1.7l-3.6,9.9h-1.3l-3.6-9.9h1.7L275.7,196.5z"/>
		<path d="M281.6,186.3c0-0.3,0.1-0.5,0.3-0.7c0.2-0.2,0.4-0.3,0.7-0.3c0.3,0,0.6,0.1,0.8,0.3c0.2,0.2,0.3,0.4,0.3,0.7
			c0,0.3-0.1,0.5-0.3,0.7c-0.2,0.2-0.4,0.3-0.8,0.3c-0.3,0-0.6-0.1-0.7-0.3C281.7,186.8,281.6,186.5,281.6,186.3z M283.4,198.8h-1.7
			v-9.9h1.7V198.8z"/>
		<path d="M290.1,197.6c0.6,0,1.1-0.2,1.6-0.6c0.5-0.4,0.7-0.8,0.8-1.4h1.6c0,0.6-0.2,1.1-0.6,1.6c-0.4,0.5-0.8,0.9-1.4,1.2
			c-0.6,0.3-1.2,0.5-1.9,0.5c-1.4,0-2.4-0.5-3.2-1.4s-1.2-2.1-1.2-3.7v-0.3c0-1,0.2-1.8,0.5-2.6c0.4-0.8,0.9-1.3,1.5-1.8
			c0.7-0.4,1.4-0.6,2.4-0.6c1.1,0,2,0.3,2.8,1c0.7,0.7,1.1,1.5,1.2,2.6h-1.6c0-0.6-0.3-1.2-0.7-1.6s-1-0.6-1.6-0.6
			c-0.9,0-1.5,0.3-2,0.9c-0.5,0.6-0.7,1.5-0.7,2.7v0.3c0,1.1,0.2,2,0.7,2.6C288.6,197.3,289.2,197.6,290.1,197.6z"/>
		<path d="M296,186.3c0-0.3,0.1-0.5,0.3-0.7c0.2-0.2,0.4-0.3,0.7-0.3c0.3,0,0.6,0.1,0.8,0.3c0.2,0.2,0.3,0.4,0.3,0.7
			c0,0.3-0.1,0.5-0.3,0.7c-0.2,0.2-0.4,0.3-0.8,0.3c-0.3,0-0.6-0.1-0.7-0.3C296.1,186.8,296,186.5,296,186.3z M297.8,198.8h-1.7
			v-9.9h1.7V198.8z"/>
		<path d="M300.1,193.8c0-1,0.2-1.8,0.6-2.6c0.4-0.8,0.9-1.4,1.6-1.8c0.7-0.4,1.5-0.6,2.3-0.6c1.4,0,2.4,0.5,3.3,1.4
			s1.3,2.2,1.3,3.7v0.1c0,1-0.2,1.8-0.6,2.6c-0.4,0.8-0.9,1.4-1.6,1.8c-0.7,0.4-1.5,0.6-2.4,0.6c-1.3,0-2.4-0.5-3.3-1.4
			c-0.8-0.9-1.3-2.2-1.3-3.7V193.8z M301.8,194c0,1.1,0.3,2,0.8,2.7c0.5,0.7,1.2,1,2.1,1c0.9,0,1.5-0.3,2.1-1
			c0.5-0.7,0.8-1.6,0.8-2.8c0-1.1-0.3-2-0.8-2.6c-0.5-0.7-1.2-1-2.1-1c-0.8,0-1.5,0.3-2,1C302,191.8,301.8,192.7,301.8,194z"/>
		<path d="M317,196.2c0-0.5-0.2-0.8-0.5-1.1c-0.3-0.3-0.9-0.5-1.8-0.7s-1.5-0.4-2-0.7c-0.5-0.3-0.9-0.6-1.1-0.9
			c-0.2-0.4-0.4-0.8-0.4-1.3c0-0.8,0.3-1.5,1-2.1c0.7-0.6,1.6-0.8,2.6-0.8c1.1,0,2,0.3,2.7,0.9c0.7,0.6,1.1,1.3,1.1,2.2h-1.7
			c0-0.5-0.2-0.9-0.6-1.2c-0.4-0.3-0.9-0.5-1.5-0.5c-0.6,0-1.1,0.1-1.5,0.4c-0.3,0.3-0.5,0.6-0.5,1.1c0,0.4,0.2,0.7,0.5,0.9
			s0.9,0.4,1.8,0.6c0.8,0.2,1.5,0.4,2.1,0.7c0.5,0.3,0.9,0.6,1.2,1c0.3,0.4,0.4,0.8,0.4,1.4c0,0.9-0.4,1.6-1.1,2.1
			c-0.7,0.5-1.6,0.8-2.8,0.8c-0.8,0-1.5-0.1-2.1-0.4c-0.6-0.3-1.1-0.7-1.4-1.2c-0.3-0.5-0.5-1.1-0.5-1.6h1.7c0,0.6,0.3,1,0.7,1.4
			c0.4,0.3,1,0.5,1.7,0.5c0.6,0,1.2-0.1,1.5-0.4C316.8,197,317,196.6,317,196.2z"/>
		<path d="M327.6,193.6v5.2h-1.8v-13.4h4.9c1.5,0,2.6,0.4,3.4,1.1c0.8,0.7,1.2,1.7,1.2,3c0,1.3-0.4,2.3-1.2,3
			c-0.8,0.7-2,1.1-3.5,1.1H327.6z M327.6,192.2h3.2c0.9,0,1.7-0.2,2.2-0.7s0.8-1.1,0.8-1.9c0-0.8-0.3-1.4-0.8-1.9s-1.2-0.7-2.1-0.7
			h-3.3V192.2z"/>
		<path d="M336.9,193.8c0-1,0.2-1.8,0.6-2.6c0.4-0.8,0.9-1.4,1.6-1.8c0.7-0.4,1.5-0.6,2.3-0.6c1.4,0,2.4,0.5,3.3,1.4
			s1.3,2.2,1.3,3.7v0.1c0,1-0.2,1.8-0.6,2.6c-0.4,0.8-0.9,1.4-1.6,1.8c-0.7,0.4-1.5,0.6-2.4,0.6c-1.3,0-2.4-0.5-3.3-1.4
			c-0.8-0.9-1.3-2.2-1.3-3.7V193.8z M338.6,194c0,1.1,0.3,2,0.8,2.7c0.5,0.7,1.2,1,2.1,1c0.9,0,1.5-0.3,2.1-1
			c0.5-0.7,0.8-1.6,0.8-2.8c0-1.1-0.3-2-0.8-2.6c-0.5-0.7-1.2-1-2.1-1c-0.8,0-1.5,0.3-2,1C338.8,191.8,338.6,192.7,338.6,194z"/>
		<path d="M353.8,196.2c0-0.5-0.2-0.8-0.5-1.1c-0.3-0.3-0.9-0.5-1.8-0.7s-1.5-0.4-2-0.7c-0.5-0.3-0.9-0.6-1.1-0.9
			c-0.2-0.4-0.4-0.8-0.4-1.3c0-0.8,0.3-1.5,1-2.1c0.7-0.6,1.6-0.8,2.6-0.8c1.1,0,2,0.3,2.7,0.9c0.7,0.6,1.1,1.3,1.1,2.2h-1.7
			c0-0.5-0.2-0.9-0.6-1.2c-0.4-0.3-0.9-0.5-1.5-0.5c-0.6,0-1.1,0.1-1.5,0.4c-0.3,0.3-0.5,0.6-0.5,1.1c0,0.4,0.2,0.7,0.5,0.9
			s0.9,0.4,1.8,0.6c0.8,0.2,1.5,0.4,2.1,0.7c0.5,0.3,0.9,0.6,1.2,1c0.3,0.4,0.4,0.8,0.4,1.4c0,0.9-0.4,1.6-1.1,2.1
			c-0.7,0.5-1.6,0.8-2.8,0.8c-0.8,0-1.5-0.1-2.1-0.4c-0.6-0.3-1.1-0.7-1.4-1.2c-0.3-0.5-0.5-1.1-0.5-1.6h1.7c0,0.6,0.3,1,0.7,1.4
			c0.4,0.3,1,0.5,1.7,0.5c0.6,0,1.2-0.1,1.5-0.4C353.6,197,353.8,196.6,353.8,196.2z"/>
		<path d="M360,186.5v2.4h1.9v1.3H360v6.2c0,0.4,0.1,0.7,0.2,0.9c0.2,0.2,0.4,0.3,0.8,0.3c0.2,0,0.5,0,0.8-0.1v1.4
			c-0.4,0.1-0.9,0.2-1.3,0.2c-0.8,0-1.3-0.2-1.7-0.7c-0.4-0.5-0.6-1.1-0.6-2v-6.2h-1.8v-1.3h1.8v-2.4H360z"/>
		<path d="M370,198.8c-0.1-0.2-0.2-0.5-0.2-1c-0.8,0.8-1.7,1.2-2.8,1.2c-1,0-1.8-0.3-2.4-0.8s-0.9-1.3-0.9-2.1c0-1,0.4-1.8,1.2-2.4
			c0.8-0.6,1.9-0.9,3.3-0.9h1.7V192c0-0.6-0.2-1.1-0.5-1.4c-0.4-0.4-0.9-0.5-1.6-0.5c-0.6,0-1.1,0.2-1.5,0.5
			c-0.4,0.3-0.6,0.7-0.6,1.1h-1.7c0-0.5,0.2-1,0.5-1.4c0.4-0.5,0.8-0.8,1.4-1.1c0.6-0.3,1.3-0.4,2-0.4c1.1,0,2,0.3,2.7,0.9
			c0.6,0.6,1,1.4,1,2.4v4.6c0,0.9,0.1,1.6,0.3,2.2v0.1H370z M367.2,197.5c0.5,0,1-0.1,1.5-0.4s0.8-0.6,1-1.1v-2h-1.3
			c-2.1,0-3.1,0.6-3.1,1.8c0,0.5,0.2,0.9,0.5,1.2C366.2,197.4,366.6,197.5,367.2,197.5z"/>
		<path d="M376,198.8h-1.7v-14.1h1.7V198.8z"/>
		<path d="M382.8,199c-1.3,0-2.4-0.4-3.3-1.3c-0.8-0.9-1.3-2.1-1.3-3.5v-0.3c0-1,0.2-1.9,0.6-2.6c0.4-0.8,0.9-1.4,1.6-1.8
			c0.7-0.4,1.4-0.7,2.2-0.7c1.3,0,2.3,0.4,3,1.3c0.7,0.9,1.1,2.1,1.1,3.7v0.7h-6.7c0,1,0.3,1.8,0.9,2.4s1.2,0.9,2.1,0.9
			c0.6,0,1.1-0.1,1.5-0.4c0.4-0.2,0.8-0.6,1.1-1l1,0.8C385.7,198.4,384.5,199,382.8,199z M382.6,190.1c-0.7,0-1.3,0.2-1.7,0.7
			c-0.5,0.5-0.8,1.2-0.9,2.1h5v-0.1c0-0.9-0.3-1.5-0.7-2C383.8,190.3,383.3,190.1,382.6,190.1z"/>
		<path d="M394.4,196.2c0-0.5-0.2-0.8-0.5-1.1c-0.3-0.3-0.9-0.5-1.8-0.7s-1.5-0.4-2-0.7c-0.5-0.3-0.9-0.6-1.1-0.9
			c-0.2-0.4-0.4-0.8-0.4-1.3c0-0.8,0.3-1.5,1-2.1c0.7-0.6,1.6-0.8,2.6-0.8c1.1,0,2,0.3,2.7,0.9c0.7,0.6,1.1,1.3,1.1,2.2h-1.7
			c0-0.5-0.2-0.9-0.6-1.2c-0.4-0.3-0.9-0.5-1.5-0.5c-0.6,0-1.1,0.1-1.5,0.4c-0.3,0.3-0.5,0.6-0.5,1.1c0,0.4,0.2,0.7,0.5,0.9
			s0.9,0.4,1.8,0.6c0.8,0.2,1.5,0.4,2.1,0.7c0.5,0.3,0.9,0.6,1.2,1c0.3,0.4,0.4,0.8,0.4,1.4c0,0.9-0.4,1.6-1.1,2.1
			c-0.7,0.5-1.6,0.8-2.8,0.8c-0.8,0-1.5-0.1-2.1-0.4c-0.6-0.3-1.1-0.7-1.4-1.2c-0.3-0.5-0.5-1.1-0.5-1.6h1.7c0,0.6,0.3,1,0.7,1.4
			c0.4,0.3,1,0.5,1.7,0.5c0.6,0,1.2-0.1,1.5-0.4C394.2,197,394.4,196.6,394.4,196.2z"/>
		<path d="M413.1,197.1c-0.5,0.6-1.1,1.1-1.9,1.5s-1.8,0.5-2.8,0.5c-1.1,0-2.1-0.3-2.9-0.8s-1.5-1.2-2-2.2c-0.5-0.9-0.7-2-0.7-3.3
			v-1.2c0-2,0.5-3.6,1.4-4.7c0.9-1.1,2.3-1.7,4-1.7c1.4,0,2.5,0.4,3.4,1.1c0.9,0.7,1.4,1.7,1.6,3h-1.8c-0.3-1.8-1.4-2.7-3.2-2.7
			c-1.2,0-2.1,0.4-2.7,1.2s-0.9,2-0.9,3.6v1.1c0,1.5,0.3,2.7,1,3.6s1.6,1.3,2.8,1.3c0.7,0,1.2-0.1,1.7-0.2s0.9-0.4,1.2-0.7v-3h-3.1
			v-1.4h4.8V197.1z"/>
		<path d="M418.3,185.5l4.4,10.9l4.4-10.9h2.3v13.4h-1.8v-5.2l0.2-5.6l-4.4,10.8H422l-4.4-10.8l0.2,5.6v5.2H416v-13.4H418.3z"/>
		<path d="M436.4,192.9c-1.5-0.4-2.6-1-3.3-1.6s-1-1.4-1-2.3c0-1.1,0.4-1.9,1.3-2.6s1.9-1,3.3-1c0.9,0,1.7,0.2,2.5,0.5
			s1.3,0.8,1.7,1.5s0.6,1.3,0.6,2h-1.8c0-0.8-0.3-1.4-0.8-1.9c-0.5-0.5-1.2-0.7-2.2-0.7c-0.9,0-1.5,0.2-2,0.6
			c-0.5,0.4-0.7,0.9-0.7,1.6c0,0.5,0.2,1,0.7,1.4c0.5,0.4,1.2,0.7,2.4,1s2,0.7,2.6,1c0.6,0.4,1.1,0.8,1.4,1.3s0.5,1.1,0.5,1.8
			c0,1.1-0.4,2-1.3,2.6c-0.8,0.7-2,1-3.4,1c-0.9,0-1.8-0.2-2.6-0.5c-0.8-0.4-1.4-0.8-1.8-1.4c-0.4-0.6-0.6-1.3-0.6-2.1h1.8
			c0,0.8,0.3,1.4,0.9,1.9c0.6,0.5,1.4,0.7,2.4,0.7c0.9,0,1.6-0.2,2.1-0.6c0.5-0.4,0.7-0.9,0.7-1.6s-0.2-1.2-0.7-1.5
			C438.4,193.6,437.6,193.2,436.4,192.9z"/>
		<path d="M251.8,222.3h1.9v1.4h-1.9v3.1h-1.7v-3.1H244v-1l6-9.3h1.8V222.3z M246,222.3h4.2v-6.6l-0.2,0.4L246,222.3z"/>
		<path d="M257.7,219.3h1.3c0.8,0,1.4-0.2,1.9-0.6c0.5-0.4,0.7-1,0.7-1.7c0-1.6-0.8-2.3-2.3-2.3c-0.7,0-1.3,0.2-1.8,0.6
			c-0.4,0.4-0.7,1-0.7,1.7h-1.7c0-1.1,0.4-1.9,1.2-2.6c0.8-0.7,1.8-1.1,3-1.1c1.3,0,2.2,0.3,3,1c0.7,0.7,1.1,1.6,1.1,2.8
			c0,0.6-0.2,1.1-0.6,1.7c-0.4,0.5-0.9,1-1.5,1.2c0.7,0.2,1.3,0.6,1.7,1.2c0.4,0.5,0.6,1.2,0.6,2c0,1.2-0.4,2.2-1.2,2.9
			s-1.8,1.1-3.1,1.1c-1.3,0-2.3-0.3-3.1-1c-0.8-0.7-1.2-1.6-1.2-2.7h1.7c0,0.7,0.2,1.3,0.7,1.7c0.5,0.4,1.1,0.6,1.8,0.6
			c0.8,0,1.4-0.2,1.9-0.6c0.4-0.4,0.7-1,0.7-1.8c0-0.8-0.2-1.4-0.7-1.8s-1.2-0.6-2.1-0.6h-1.3V219.3z"/>
		<path d="M266.6,220.1l0.7-6.7h6.8v1.6h-5.4l-0.4,3.6c0.7-0.4,1.4-0.6,2.2-0.6c1.2,0,2.2,0.4,2.9,1.2c0.7,0.8,1.1,1.9,1.1,3.3
			c0,1.4-0.4,2.5-1.1,3.3c-0.7,0.8-1.8,1.2-3.1,1.2c-1.2,0-2.1-0.3-2.9-1c-0.7-0.7-1.2-1.6-1.3-2.7h1.6c0.1,0.8,0.4,1.3,0.8,1.7
			c0.4,0.4,1,0.6,1.7,0.6c0.8,0,1.4-0.3,1.9-0.8c0.4-0.5,0.7-1.3,0.7-2.2c0-0.9-0.2-1.6-0.7-2.2s-1.1-0.8-1.9-0.8
			c-0.7,0-1.3,0.2-1.7,0.5l-0.4,0.4L266.6,220.1z"/>
		<path d="M283,213.5v1.4h-0.3c-1.3,0-2.4,0.4-3.2,1.2c-0.8,0.8-1.2,1.8-1.4,3.2c0.7-0.8,1.7-1.2,2.9-1.2c1.2,0,2.1,0.4,2.8,1.2
			s1,1.9,1,3.2c0,1.4-0.4,2.5-1.1,3.3c-0.7,0.8-1.8,1.2-3,1.2c-1.3,0-2.3-0.5-3.1-1.5s-1.2-2.2-1.2-3.8v-0.7c0-2.5,0.5-4.3,1.6-5.6
			c1-1.3,2.6-2,4.7-2H283z M280.8,219.5c-0.6,0-1.1,0.2-1.6,0.5c-0.5,0.3-0.8,0.8-1,1.3v0.6c0,1.1,0.2,2,0.7,2.7s1.1,1,1.9,1
			c0.8,0,1.4-0.3,1.8-0.8c0.4-0.6,0.7-1.3,0.7-2.2c0-0.9-0.2-1.7-0.7-2.2C282.1,219.8,281.5,219.5,280.8,219.5z"/>
		<path d="M295.5,214.4l-5.5,12.4h-1.8l5.5-12h-7.2v-1.4h9V214.4z"/>
		<path d="M305.5,217c0,0.7-0.2,1.3-0.5,1.8c-0.4,0.5-0.8,0.9-1.4,1.2c0.7,0.3,1.2,0.7,1.7,1.3c0.4,0.6,0.6,1.2,0.6,2
			c0,1.2-0.4,2.1-1.2,2.8c-0.8,0.7-1.8,1-3.1,1c-1.3,0-2.3-0.3-3.1-1c-0.8-0.7-1.2-1.6-1.2-2.8c0-0.7,0.2-1.4,0.6-2
			c0.4-0.6,0.9-1,1.6-1.3c-0.6-0.3-1.1-0.7-1.4-1.2c-0.3-0.5-0.5-1.1-0.5-1.8c0-1.1,0.4-2,1.1-2.7c0.7-0.7,1.7-1,2.9-1
			c1.2,0,2.1,0.3,2.8,1C305.2,214.9,305.5,215.8,305.5,217z M304.1,223.2c0-0.7-0.2-1.4-0.7-1.8s-1.1-0.7-1.9-0.7s-1.4,0.2-1.8,0.7
			s-0.7,1.1-0.7,1.8c0,0.8,0.2,1.4,0.7,1.8c0.4,0.4,1.1,0.7,1.9,0.7c0.8,0,1.4-0.2,1.9-0.7C303.9,224.5,304.1,223.9,304.1,223.2z
			 M301.6,214.7c-0.7,0-1.2,0.2-1.6,0.6c-0.4,0.4-0.6,1-0.6,1.7c0,0.7,0.2,1.2,0.6,1.6c0.4,0.4,0.9,0.6,1.6,0.6
			c0.7,0,1.2-0.2,1.6-0.6c0.4-0.4,0.6-1,0.6-1.6s-0.2-1.2-0.6-1.7C302.8,214.9,302.2,214.7,301.6,214.7z"/>
		<path d="M316.3,221.8h-4.5v-1.4h4.5V221.8z"/>
		<path d="M332.7,222.6c-0.2,1.4-0.7,2.5-1.6,3.3c-0.9,0.8-2,1.2-3.5,1.2c-1.6,0-2.8-0.6-3.8-1.7s-1.4-2.6-1.4-4.5v-1.3
			c0-1.2,0.2-2.3,0.7-3.3c0.4-0.9,1.1-1.7,1.9-2.2c0.8-0.5,1.8-0.8,2.8-0.8c1.4,0,2.6,0.4,3.4,1.2c0.9,0.8,1.4,1.9,1.5,3.3H331
			c-0.2-1.1-0.5-1.8-1-2.3c-0.5-0.5-1.2-0.7-2.1-0.7c-1.1,0-2,0.4-2.6,1.2c-0.6,0.8-1,2-1,3.6v1.3c0,1.5,0.3,2.6,0.9,3.5
			c0.6,0.9,1.5,1.3,2.5,1.3c1,0,1.7-0.2,2.3-0.7c0.5-0.4,0.9-1.2,1-2.3H332.7z"/>
		<path d="M334.4,221.8c0-1,0.2-1.8,0.6-2.6c0.4-0.8,0.9-1.4,1.6-1.8c0.7-0.4,1.5-0.6,2.3-0.6c1.4,0,2.4,0.5,3.3,1.4
			s1.3,2.2,1.3,3.7v0.1c0,1-0.2,1.8-0.6,2.6c-0.4,0.8-0.9,1.4-1.6,1.8c-0.7,0.4-1.5,0.6-2.4,0.6c-1.3,0-2.4-0.5-3.3-1.4
			c-0.8-0.9-1.3-2.2-1.3-3.7V221.8z M336.1,222c0,1.1,0.3,2,0.8,2.7c0.5,0.7,1.2,1,2.1,1c0.9,0,1.5-0.3,2.1-1
			c0.5-0.7,0.8-1.6,0.8-2.8c0-1.1-0.3-2-0.8-2.6c-0.5-0.7-1.2-1-2.1-1c-0.8,0-1.5,0.3-2,1C336.4,219.8,336.1,220.7,336.1,222z"/>
		<path d="M347.4,226.8h-1.7v-14.1h1.7V226.8z"/>
		<path d="M349.7,221.8c0-1,0.2-1.8,0.6-2.6c0.4-0.8,0.9-1.4,1.6-1.8c0.7-0.4,1.5-0.6,2.3-0.6c1.4,0,2.4,0.5,3.3,1.4
			s1.3,2.2,1.3,3.7v0.1c0,1-0.2,1.8-0.6,2.6c-0.4,0.8-0.9,1.4-1.6,1.8c-0.7,0.4-1.5,0.6-2.4,0.6c-1.3,0-2.4-0.5-3.3-1.4
			c-0.8-0.9-1.3-2.2-1.3-3.7V221.8z M351.4,222c0,1.1,0.3,2,0.8,2.7c0.5,0.7,1.2,1,2.1,1c0.9,0,1.5-0.3,2.1-1
			c0.5-0.7,0.8-1.6,0.8-2.8c0-1.1-0.3-2-0.8-2.6c-0.5-0.7-1.2-1-2.1-1c-0.8,0-1.5,0.3-2,1C351.7,219.8,351.4,220.7,351.4,222z"/>
		<path d="M362.5,216.9l0,1.1c0.7-0.9,1.7-1.3,2.9-1.3c1.4,0,2.3,0.5,2.8,1.6c0.3-0.5,0.8-0.9,1.3-1.2c0.5-0.3,1.2-0.4,1.9-0.4
			c2.2,0,3.3,1.2,3.3,3.5v6.7h-1.7v-6.6c0-0.7-0.2-1.2-0.5-1.6c-0.3-0.4-0.9-0.5-1.6-0.5c-0.6,0-1.2,0.2-1.6,0.6
			c-0.4,0.4-0.7,0.9-0.7,1.5v6.6H367v-6.5c0-1.4-0.7-2.2-2.1-2.2c-1.1,0-1.9,0.5-2.3,1.4v7.2h-1.7v-9.9H362.5z"/>
		<path d="M385.8,222c0,1.5-0.3,2.7-1,3.7c-0.7,0.9-1.6,1.4-2.8,1.4c-1.3,0-2.2-0.4-2.9-1.3l-0.1,1.1h-1.6v-14.1h1.7v5.3
			c0.7-0.9,1.6-1.3,2.8-1.3c1.2,0,2.2,0.5,2.8,1.4c0.7,0.9,1,2.2,1,3.7V222z M384.1,221.8c0-1.2-0.2-2-0.7-2.7
			c-0.4-0.6-1.1-0.9-1.9-0.9c-1.1,0-1.9,0.5-2.4,1.6v4.3c0.5,1,1.3,1.6,2.4,1.6c0.8,0,1.4-0.3,1.9-0.9
			C383.8,224,384.1,223,384.1,221.8z"/>
		<path d="M387.9,214.3c0-0.3,0.1-0.5,0.3-0.7c0.2-0.2,0.4-0.3,0.7-0.3c0.3,0,0.6,0.1,0.8,0.3c0.2,0.2,0.3,0.4,0.3,0.7
			c0,0.3-0.1,0.5-0.3,0.7c-0.2,0.2-0.4,0.3-0.8,0.3c-0.3,0-0.6-0.1-0.7-0.3C388,214.8,387.9,214.5,387.9,214.3z M389.7,226.8H388
			v-9.9h1.7V226.8z"/>
		<path d="M398.6,226.8c-0.1-0.2-0.2-0.5-0.2-1c-0.8,0.8-1.7,1.2-2.8,1.2c-1,0-1.8-0.3-2.4-0.8s-0.9-1.3-0.9-2.1
			c0-1,0.4-1.8,1.2-2.4c0.8-0.6,1.9-0.9,3.3-0.9h1.7V220c0-0.6-0.2-1.1-0.5-1.4c-0.4-0.4-0.9-0.5-1.6-0.5c-0.6,0-1.1,0.2-1.5,0.5
			c-0.4,0.3-0.6,0.7-0.6,1.1h-1.7c0-0.5,0.2-1,0.5-1.4c0.4-0.5,0.8-0.8,1.4-1.1c0.6-0.3,1.3-0.4,2-0.4c1.1,0,2,0.3,2.7,0.9
			c0.6,0.6,1,1.4,1,2.4v4.6c0,0.9,0.1,1.6,0.3,2.2v0.1H398.6z M395.8,225.5c0.5,0,1-0.1,1.5-0.4s0.8-0.6,1-1.1v-2H397
			c-2.1,0-3.1,0.6-3.1,1.8c0,0.5,0.2,0.9,0.5,1.2C394.8,225.4,395.2,225.5,395.8,225.5z"/>
		<path d="M253.6,252.5l1.9-7.6h1.7l-2.9,9.9H253l-2.4-7.5l-2.3,7.5h-1.4l-2.9-9.9h1.7l2,7.4l2.3-7.4h1.4L253.6,252.5z"/>
		<path d="M267.8,252.5l1.9-7.6h1.7l-2.9,9.9h-1.4l-2.4-7.5l-2.3,7.5H261l-2.9-9.9h1.7l2,7.4l2.3-7.4h1.4L267.8,252.5z"/>
		<path d="M281.9,252.5l1.9-7.6h1.7l-2.9,9.9h-1.4l-2.4-7.5l-2.3,7.5h-1.4l-2.9-9.9h1.7l2,7.4l2.3-7.4h1.4L281.9,252.5z"/>
		<path d="M286.1,253.9c0-0.3,0.1-0.5,0.3-0.7c0.2-0.2,0.4-0.3,0.8-0.3s0.6,0.1,0.8,0.3c0.2,0.2,0.3,0.4,0.3,0.7
			c0,0.3-0.1,0.5-0.3,0.7c-0.2,0.2-0.4,0.3-0.8,0.3s-0.6-0.1-0.8-0.3S286.1,254.2,286.1,253.9z"/>
		<path d="M296.8,252.2c0-0.5-0.2-0.8-0.5-1.1c-0.3-0.3-0.9-0.5-1.8-0.7s-1.5-0.4-2-0.7c-0.5-0.3-0.9-0.6-1.1-0.9
			c-0.2-0.4-0.4-0.8-0.4-1.3c0-0.8,0.3-1.5,1-2.1c0.7-0.6,1.6-0.8,2.6-0.8c1.1,0,2,0.3,2.7,0.9c0.7,0.6,1.1,1.3,1.1,2.2h-1.7
			c0-0.5-0.2-0.9-0.6-1.2c-0.4-0.3-0.9-0.5-1.5-0.5c-0.6,0-1.1,0.1-1.5,0.4c-0.3,0.3-0.5,0.6-0.5,1.1c0,0.4,0.2,0.7,0.5,0.9
			s0.9,0.4,1.8,0.6c0.8,0.2,1.5,0.4,2.1,0.7c0.5,0.3,0.9,0.6,1.2,1c0.3,0.4,0.4,0.8,0.4,1.4c0,0.9-0.4,1.6-1.1,2.1
			c-0.7,0.5-1.6,0.8-2.8,0.8c-0.8,0-1.5-0.1-2.1-0.4c-0.6-0.3-1.1-0.7-1.4-1.2c-0.3-0.5-0.5-1.1-0.5-1.6h1.7c0,0.6,0.3,1,0.7,1.4
			c0.4,0.3,1,0.5,1.7,0.5c0.6,0,1.2-0.1,1.5-0.4C296.6,253,296.8,252.6,296.8,252.2z"/>
		<path d="M304.8,255c-1.3,0-2.4-0.4-3.3-1.3c-0.8-0.9-1.3-2.1-1.3-3.5v-0.3c0-1,0.2-1.9,0.6-2.6c0.4-0.8,0.9-1.4,1.6-1.8
			c0.7-0.4,1.4-0.7,2.2-0.7c1.3,0,2.3,0.4,3,1.3c0.7,0.9,1.1,2.1,1.1,3.7v0.7H302c0,1,0.3,1.8,0.9,2.4s1.2,0.9,2.1,0.9
			c0.6,0,1.1-0.1,1.5-0.4c0.4-0.2,0.8-0.6,1.1-1l1,0.8C307.7,254.4,306.5,255,304.8,255z M304.6,246.1c-0.7,0-1.3,0.2-1.7,0.7
			c-0.5,0.5-0.8,1.2-0.9,2.1h5v-0.1c0-0.9-0.3-1.5-0.7-2C305.9,246.3,305.3,246.1,304.6,246.1z"/>
		<path d="M315.5,246.4c-0.3,0-0.5-0.1-0.8-0.1c-1.1,0-1.9,0.5-2.3,1.4v7h-1.7v-9.9h1.7l0,1.1c0.6-0.9,1.3-1.3,2.4-1.3
			c0.3,0,0.6,0,0.8,0.1V246.4z"/>
		<path d="M320.5,252.5l2.5-7.6h1.7l-3.6,9.9h-1.3l-3.6-9.9h1.7L320.5,252.5z"/>
		<path d="M326.3,242.3c0-0.3,0.1-0.5,0.3-0.7c0.2-0.2,0.4-0.3,0.7-0.3c0.3,0,0.6,0.1,0.8,0.3c0.2,0.2,0.3,0.4,0.3,0.7
			c0,0.3-0.1,0.5-0.3,0.7c-0.2,0.2-0.4,0.3-0.8,0.3c-0.3,0-0.6-0.1-0.7-0.3C326.4,242.8,326.3,242.5,326.3,242.3z M328.1,254.8h-1.7
			v-9.9h1.7V254.8z"/>
		<path d="M334.8,253.6c0.6,0,1.1-0.2,1.6-0.6c0.5-0.4,0.7-0.8,0.8-1.4h1.6c0,0.6-0.2,1.1-0.6,1.6c-0.4,0.5-0.8,0.9-1.4,1.2
			c-0.6,0.3-1.2,0.5-1.9,0.5c-1.4,0-2.4-0.5-3.2-1.4s-1.2-2.1-1.2-3.7v-0.3c0-1,0.2-1.8,0.5-2.6c0.4-0.8,0.9-1.3,1.5-1.8
			c0.7-0.4,1.4-0.6,2.4-0.6c1.1,0,2,0.3,2.8,1c0.7,0.7,1.1,1.5,1.2,2.6h-1.6c0-0.6-0.3-1.2-0.7-1.6s-1-0.6-1.6-0.6
			c-0.9,0-1.5,0.3-2,0.9c-0.5,0.6-0.7,1.5-0.7,2.7v0.3c0,1.1,0.2,2,0.7,2.6C333.3,253.3,334,253.6,334.8,253.6z"/>
		<path d="M340.7,242.3c0-0.3,0.1-0.5,0.3-0.7c0.2-0.2,0.4-0.3,0.7-0.3c0.3,0,0.6,0.1,0.8,0.3c0.2,0.2,0.3,0.4,0.3,0.7
			c0,0.3-0.1,0.5-0.3,0.7c-0.2,0.2-0.4,0.3-0.8,0.3c-0.3,0-0.6-0.1-0.7-0.3C340.8,242.8,340.7,242.5,340.7,242.3z M342.5,254.8h-1.7
			v-9.9h1.7V254.8z"/>
		<path d="M344.8,249.8c0-1,0.2-1.8,0.6-2.6c0.4-0.8,0.9-1.4,1.6-1.8c0.7-0.4,1.5-0.6,2.3-0.6c1.4,0,2.4,0.5,3.3,1.4
			s1.3,2.2,1.3,3.7v0.1c0,1-0.2,1.8-0.6,2.6c-0.4,0.8-0.9,1.4-1.6,1.8c-0.7,0.4-1.5,0.6-2.4,0.6c-1.3,0-2.4-0.5-3.3-1.4
			c-0.8-0.9-1.3-2.2-1.3-3.7V249.8z M346.5,250c0,1.1,0.3,2,0.8,2.7c0.5,0.7,1.2,1,2.1,1c0.9,0,1.5-0.3,2.1-1
			c0.5-0.7,0.8-1.6,0.8-2.8c0-1.1-0.3-2-0.8-2.6c-0.5-0.7-1.2-1-2.1-1c-0.8,0-1.5,0.3-2,1C346.8,247.8,346.5,248.7,346.5,250z"/>
		<path d="M361.8,252.2c0-0.5-0.2-0.8-0.5-1.1c-0.3-0.3-0.9-0.5-1.8-0.7s-1.5-0.4-2-0.7c-0.5-0.3-0.9-0.6-1.1-0.9
			c-0.2-0.4-0.4-0.8-0.4-1.3c0-0.8,0.3-1.5,1-2.1c0.7-0.6,1.6-0.8,2.6-0.8c1.1,0,2,0.3,2.7,0.9c0.7,0.6,1.1,1.3,1.1,2.2h-1.7
			c0-0.5-0.2-0.9-0.6-1.2c-0.4-0.3-0.9-0.5-1.5-0.5c-0.6,0-1.1,0.1-1.5,0.4c-0.3,0.3-0.5,0.6-0.5,1.1c0,0.4,0.2,0.7,0.5,0.9
			s0.9,0.4,1.8,0.6c0.8,0.2,1.5,0.4,2.1,0.7c0.5,0.3,0.9,0.6,1.2,1c0.3,0.4,0.4,0.8,0.4,1.4c0,0.9-0.4,1.6-1.1,2.1
			c-0.7,0.5-1.6,0.8-2.8,0.8c-0.8,0-1.5-0.1-2.1-0.4c-0.6-0.3-1.1-0.7-1.4-1.2c-0.3-0.5-0.5-1.1-0.5-1.6h1.7c0,0.6,0.3,1,0.7,1.4
			c0.4,0.3,1,0.5,1.7,0.5c0.6,0,1.2-0.1,1.5-0.4C361.6,253,361.8,252.6,361.8,252.2z"/>
		<path d="M374.1,250c0,1.5-0.3,2.7-1,3.7s-1.6,1.4-2.8,1.4c-1.2,0-2.2-0.4-2.8-1.1v4.8h-1.7v-13.7h1.6l0.1,1.1
			c0.7-0.9,1.7-1.3,2.9-1.3c1.2,0,2.1,0.4,2.8,1.3c0.7,0.9,1,2.2,1,3.8V250z M372.4,249.8c0-1.1-0.2-2-0.7-2.7c-0.5-0.6-1.1-1-2-1
			c-1,0-1.8,0.5-2.3,1.4v4.7c0.5,0.9,1.3,1.4,2.3,1.4c0.8,0,1.5-0.3,1.9-1C372.1,252,372.4,251.1,372.4,249.8z"/>
		<path d="M375.8,249.8c0-1,0.2-1.8,0.6-2.6c0.4-0.8,0.9-1.4,1.6-1.8c0.7-0.4,1.5-0.6,2.3-0.6c1.4,0,2.4,0.5,3.3,1.4
			s1.3,2.2,1.3,3.7v0.1c0,1-0.2,1.8-0.6,2.6c-0.4,0.8-0.9,1.4-1.6,1.8c-0.7,0.4-1.5,0.6-2.4,0.6c-1.3,0-2.4-0.5-3.3-1.4
			c-0.8-0.9-1.3-2.2-1.3-3.7V249.8z M377.5,250c0,1.1,0.3,2,0.8,2.7c0.5,0.7,1.2,1,2.1,1c0.9,0,1.5-0.3,2.1-1
			c0.5-0.7,0.8-1.6,0.8-2.8c0-1.1-0.3-2-0.8-2.6c-0.5-0.7-1.2-1-2.1-1c-0.8,0-1.5,0.3-2,1C377.7,247.8,377.5,248.7,377.5,250z"/>
		<path d="M392.7,252.2c0-0.5-0.2-0.8-0.5-1.1c-0.3-0.3-0.9-0.5-1.8-0.7s-1.5-0.4-2-0.7c-0.5-0.3-0.9-0.6-1.1-0.9
			c-0.2-0.4-0.4-0.8-0.4-1.3c0-0.8,0.3-1.5,1-2.1c0.7-0.6,1.6-0.8,2.6-0.8c1.1,0,2,0.3,2.7,0.9c0.7,0.6,1.1,1.3,1.1,2.2h-1.7
			c0-0.5-0.2-0.9-0.6-1.2c-0.4-0.3-0.9-0.5-1.5-0.5c-0.6,0-1.1,0.1-1.5,0.4c-0.3,0.3-0.5,0.6-0.5,1.1c0,0.4,0.2,0.7,0.5,0.9
			s0.9,0.4,1.8,0.6c0.8,0.2,1.5,0.4,2.1,0.7c0.5,0.3,0.9,0.6,1.2,1c0.3,0.4,0.4,0.8,0.4,1.4c0,0.9-0.4,1.6-1.1,2.1
			c-0.7,0.5-1.6,0.8-2.8,0.8c-0.8,0-1.5-0.1-2.1-0.4c-0.6-0.3-1.1-0.7-1.4-1.2c-0.3-0.5-0.5-1.1-0.5-1.6h1.7c0,0.6,0.3,1,0.7,1.4
			c0.4,0.3,1,0.5,1.7,0.5c0.6,0,1.2-0.1,1.5-0.4C392.5,253,392.7,252.6,392.7,252.2z"/>
		<path d="M398.9,242.5v2.4h1.9v1.3h-1.9v6.2c0,0.4,0.1,0.7,0.2,0.9c0.2,0.2,0.4,0.3,0.8,0.3c0.2,0,0.5,0,0.8-0.1v1.4
			c-0.4,0.1-0.9,0.2-1.3,0.2c-0.8,0-1.3-0.2-1.7-0.7c-0.4-0.5-0.6-1.1-0.6-2v-6.2h-1.8v-1.3h1.8v-2.4H398.9z"/>
		<path d="M408.9,254.8c-0.1-0.2-0.2-0.5-0.2-1c-0.8,0.8-1.7,1.2-2.8,1.2c-1,0-1.8-0.3-2.4-0.8s-0.9-1.3-0.9-2.1
			c0-1,0.4-1.8,1.2-2.4c0.8-0.6,1.9-0.9,3.3-0.9h1.7V248c0-0.6-0.2-1.1-0.5-1.4c-0.4-0.4-0.9-0.5-1.6-0.5c-0.6,0-1.1,0.2-1.5,0.5
			c-0.4,0.3-0.6,0.7-0.6,1.1h-1.7c0-0.5,0.2-1,0.5-1.4c0.4-0.5,0.8-0.8,1.4-1.1c0.6-0.3,1.3-0.4,2-0.4c1.1,0,2,0.3,2.7,0.9
			c0.6,0.6,1,1.4,1,2.4v4.6c0,0.9,0.1,1.6,0.3,2.2v0.1H408.9z M406.1,253.5c0.5,0,1-0.1,1.5-0.4s0.8-0.6,1-1.1v-2h-1.3
			c-2.1,0-3.1,0.6-3.1,1.8c0,0.5,0.2,0.9,0.5,1.2C405.1,253.4,405.5,253.5,406.1,253.5z"/>
		<path d="M414.8,254.8h-1.7v-14.1h1.7V254.8z"/>
		<path d="M421.7,255c-1.3,0-2.4-0.4-3.3-1.3c-0.8-0.9-1.3-2.1-1.3-3.5v-0.3c0-1,0.2-1.9,0.6-2.6c0.4-0.8,0.9-1.4,1.6-1.8
			c0.7-0.4,1.4-0.7,2.2-0.7c1.3,0,2.3,0.4,3,1.3c0.7,0.9,1.1,2.1,1.1,3.7v0.7h-6.7c0,1,0.3,1.8,0.9,2.4s1.2,0.9,2.1,0.9
			c0.6,0,1.1-0.1,1.5-0.4c0.4-0.2,0.8-0.6,1.1-1l1,0.8C424.6,254.4,423.3,255,421.7,255z M421.5,246.1c-0.7,0-1.3,0.2-1.7,0.7
			c-0.5,0.5-0.8,1.2-0.9,2.1h5v-0.1c0-0.9-0.3-1.5-0.7-2C422.7,246.3,422.2,246.1,421.5,246.1z"/>
		<path d="M433.3,252.2c0-0.5-0.2-0.8-0.5-1.1s-0.9-0.5-1.8-0.7s-1.5-0.4-2-0.7c-0.5-0.3-0.9-0.6-1.1-0.9c-0.2-0.4-0.4-0.8-0.4-1.3
			c0-0.8,0.3-1.5,1-2.1c0.7-0.6,1.6-0.8,2.6-0.8c1.1,0,2,0.3,2.7,0.9c0.7,0.6,1.1,1.3,1.1,2.2h-1.7c0-0.5-0.2-0.9-0.6-1.2
			s-0.9-0.5-1.5-0.5c-0.6,0-1.1,0.1-1.5,0.4c-0.3,0.3-0.5,0.6-0.5,1.1c0,0.4,0.2,0.7,0.5,0.9s0.9,0.4,1.8,0.6
			c0.8,0.2,1.5,0.4,2.1,0.7c0.5,0.3,0.9,0.6,1.2,1s0.4,0.8,0.4,1.4c0,0.9-0.4,1.6-1.1,2.1c-0.7,0.5-1.6,0.8-2.8,0.8
			c-0.8,0-1.5-0.1-2.1-0.4c-0.6-0.3-1.1-0.7-1.4-1.2c-0.3-0.5-0.5-1.1-0.5-1.6h1.7c0,0.6,0.3,1,0.7,1.4c0.4,0.3,1,0.5,1.7,0.5
			c0.6,0,1.2-0.1,1.5-0.4C433.1,253,433.3,252.6,433.3,252.2z"/>
		<path d="M437.2,253.9c0-0.3,0.1-0.5,0.3-0.7c0.2-0.2,0.4-0.3,0.8-0.3c0.3,0,0.6,0.1,0.8,0.3c0.2,0.2,0.3,0.4,0.3,0.7
			c0,0.3-0.1,0.5-0.3,0.7s-0.4,0.3-0.8,0.3c-0.3,0-0.6-0.1-0.8-0.3S437.2,254.2,437.2,253.9z"/>
		<path d="M446.1,253.6c0.6,0,1.1-0.2,1.6-0.6c0.5-0.4,0.7-0.8,0.8-1.4h1.6c0,0.6-0.2,1.1-0.6,1.6c-0.4,0.5-0.8,0.9-1.4,1.2
			c-0.6,0.3-1.2,0.5-1.9,0.5c-1.4,0-2.4-0.5-3.2-1.4c-0.8-0.9-1.2-2.1-1.2-3.7v-0.3c0-1,0.2-1.8,0.5-2.6c0.4-0.8,0.9-1.3,1.5-1.8
			s1.4-0.6,2.4-0.6c1.1,0,2,0.3,2.8,1c0.7,0.7,1.1,1.5,1.2,2.6h-1.6c0-0.6-0.3-1.2-0.7-1.6s-1-0.6-1.6-0.6c-0.9,0-1.5,0.3-2,0.9
			c-0.5,0.6-0.7,1.5-0.7,2.7v0.3c0,1.1,0.2,2,0.7,2.6C444.6,253.3,445.2,253.6,446.1,253.6z"/>
		<path d="M451.5,249.8c0-1,0.2-1.8,0.6-2.6c0.4-0.8,0.9-1.4,1.6-1.8c0.7-0.4,1.5-0.6,2.3-0.6c1.4,0,2.4,0.5,3.3,1.4
			c0.8,0.9,1.3,2.2,1.3,3.7v0.1c0,1-0.2,1.8-0.6,2.6c-0.4,0.8-0.9,1.4-1.6,1.8s-1.5,0.6-2.4,0.6c-1.3,0-2.4-0.5-3.3-1.4
			s-1.3-2.2-1.3-3.7V249.8z M453.2,250c0,1.1,0.3,2,0.8,2.7c0.5,0.7,1.2,1,2.1,1c0.9,0,1.5-0.3,2.1-1c0.5-0.7,0.8-1.6,0.8-2.8
			c0-1.1-0.3-2-0.8-2.6c-0.5-0.7-1.2-1-2.1-1c-0.8,0-1.5,0.3-2,1C453.5,247.8,453.2,248.7,453.2,250z"/>
		<path d="M464.3,244.9l0,1.1c0.7-0.9,1.7-1.3,2.9-1.3c1.4,0,2.3,0.5,2.8,1.6c0.3-0.5,0.8-0.9,1.3-1.2c0.5-0.3,1.2-0.4,1.9-0.4
			c2.2,0,3.3,1.2,3.3,3.5v6.7h-1.7v-6.6c0-0.7-0.2-1.2-0.5-1.6c-0.3-0.4-0.9-0.5-1.6-0.5c-0.6,0-1.2,0.2-1.6,0.6
			c-0.4,0.4-0.7,0.9-0.7,1.5v6.6h-1.7v-6.5c0-1.4-0.7-2.2-2.1-2.2c-1.1,0-1.9,0.5-2.3,1.4v7.2h-1.7v-9.9H464.3z"/>
	</g>
	<g>
		<path d="M556.7,189.3h-5.6l-1.3,3.5H548l5.1-13.4h1.5l5.1,13.4H558L556.7,189.3z M551.6,187.9h4.5l-2.3-6.2L551.6,187.9z"/>
		<path d="M563.4,191.4h6.3v1.4h-8.1v-13.4h1.8V191.4z"/>
		<path d="M571.7,192.8v-13.4h4.4c1.5,0,2.5,0.3,3.3,0.9c0.7,0.6,1.1,1.5,1.1,2.7c0,0.6-0.2,1.2-0.5,1.7c-0.4,0.5-0.8,0.9-1.5,1.1
			c0.7,0.2,1.3,0.6,1.7,1.2s0.6,1.2,0.6,2c0,1.2-0.4,2.1-1.2,2.8s-1.9,1-3.3,1H571.7z M573.5,185.2h2.7c0.8,0,1.4-0.2,1.8-0.6
			c0.5-0.4,0.7-0.9,0.7-1.6c0-0.7-0.2-1.3-0.6-1.6c-0.4-0.3-1.1-0.5-2-0.5h-2.6V185.2z M573.5,186.6v4.8h2.9c0.8,0,1.5-0.2,1.9-0.6
			c0.5-0.4,0.7-1,0.7-1.8c0-1.6-0.9-2.4-2.6-2.4H573.5z"/>
		<path d="M590.8,189.3h-5.6l-1.3,3.5h-1.8l5.1-13.4h1.5l5.1,13.4h-1.8L590.8,189.3z M585.7,187.9h4.5l-2.3-6.2L585.7,187.9z"/>
		<path d="M600.6,187.4h-3.1v5.4h-1.8v-13.4h4.4c1.5,0,2.7,0.3,3.5,1c0.8,0.7,1.2,1.7,1.2,3c0,0.8-0.2,1.6-0.7,2.2
			c-0.4,0.6-1.1,1.1-1.9,1.4l3.1,5.7v0.1h-1.9L600.6,187.4z M597.4,186h2.7c0.9,0,1.6-0.2,2.1-0.7c0.5-0.5,0.8-1.1,0.8-1.8
			c0-0.8-0.2-1.5-0.7-1.9c-0.5-0.4-1.2-0.7-2.1-0.7h-2.7V186z"/>
		<path d="M614.6,189.3H609l-1.3,3.5h-1.8l5.1-13.4h1.5l5.1,13.4h-1.8L614.6,189.3z M609.6,187.9h4.5l-2.3-6.2L609.6,187.9z"/>
		<path d="M629.8,192.8H628l-6.7-10.3v10.3h-1.8v-13.4h1.8l6.7,10.3v-10.3h1.8V192.8z"/>
	</g>
	<g>
		<path d="M720.8,192.8H719l-6.7-10.3v10.3h-1.8v-13.4h1.8l6.7,10.3v-10.3h1.8V192.8z"/>
		<path d="M723.5,182.5c0-1,0.3-1.7,0.9-2.3c0.6-0.6,1.3-0.9,2.3-0.9c0.9,0,1.7,0.3,2.3,0.9c0.6,0.6,0.9,1.4,0.9,2.4v0.7
			c0,1-0.3,1.8-0.9,2.3c-0.6,0.6-1.3,0.9-2.3,0.9c-0.9,0-1.7-0.3-2.3-0.9s-0.9-1.4-0.9-2.4V182.5z M725,183.3c0,0.6,0.1,1.1,0.4,1.4
			c0.3,0.4,0.7,0.5,1.2,0.5c0.5,0,0.9-0.2,1.2-0.5c0.3-0.4,0.4-0.8,0.4-1.5v-0.7c0-0.6-0.1-1.1-0.4-1.4s-0.7-0.5-1.2-0.5
			c-0.5,0-0.9,0.2-1.2,0.5c-0.3,0.3-0.4,0.8-0.5,1.4V183.3z"/>
	</g>
	<g>
		<path d="M546,257.1h-5.6v5.9h-1.8v-13.4h8.3v1.4h-6.5v4.6h5.6V257.1z"/>
		<path d="M556.6,256.8h-5.8v4.7h6.7v1.4h-8.5v-13.4h8.4v1.4h-6.6v4.3h5.8V256.8z"/>
		<path d="M569.6,258.7c-0.2,1.4-0.7,2.5-1.6,3.3c-0.9,0.8-2,1.2-3.5,1.2c-1.6,0-2.8-0.6-3.8-1.7s-1.4-2.6-1.4-4.5v-1.3
			c0-1.2,0.2-2.3,0.7-3.3c0.4-0.9,1.1-1.7,1.9-2.2c0.8-0.5,1.8-0.8,2.8-0.8c1.4,0,2.6,0.4,3.4,1.2c0.9,0.8,1.4,1.9,1.5,3.3h-1.8
			c-0.2-1.1-0.5-1.8-1-2.3c-0.5-0.5-1.2-0.7-2.1-0.7c-1.1,0-2,0.4-2.6,1.2c-0.6,0.8-1,2-1,3.6v1.3c0,1.5,0.3,2.6,0.9,3.5
			c0.6,0.9,1.5,1.3,2.5,1.3c1,0,1.7-0.2,2.3-0.7c0.5-0.4,0.9-1.2,1-2.3H569.6z"/>
		<path d="M582.2,263h-1.8v-6.2h-6.7v6.2H572v-13.4h1.8v5.7h6.7v-5.7h1.8V263z"/>
		<path d="M592.9,259.5h-5.6l-1.3,3.5h-1.8l5.1-13.4h1.5L596,263h-1.8L592.9,259.5z M587.8,258h4.5l-2.3-6.2L587.8,258z"/>
	</g>
	<g>
		<path d="M106.7,335.5h-1.8l-6.7-10.3v10.3h-1.8v-13.4h1.8l6.7,10.3v-10.3h1.8V335.5z"/>
		<path d="M111.7,335.5H110v-13.4h1.8V335.5z"/>
		<path d="M123.9,323.6h-4.3v11.9h-1.8v-11.9h-4.3v-1.4h10.3V323.6z"/>
		<path d="M125.6,334.6c0-0.3,0.1-0.5,0.3-0.7c0.2-0.2,0.4-0.3,0.8-0.3s0.6,0.1,0.8,0.3c0.2,0.2,0.3,0.4,0.3,0.7
			c0,0.3-0.1,0.5-0.3,0.7c-0.2,0.2-0.4,0.3-0.8,0.3s-0.6-0.1-0.8-0.3S125.6,334.9,125.6,334.6z M125.6,326.5c0-0.3,0.1-0.5,0.3-0.7
			s0.4-0.3,0.8-0.3s0.6,0.1,0.8,0.3c0.2,0.2,0.3,0.4,0.3,0.7c0,0.3-0.1,0.5-0.3,0.7c-0.2,0.2-0.4,0.3-0.8,0.3s-0.6-0.1-0.8-0.3
			S125.6,326.8,125.6,326.5z"/>
	</g>
	<g>
		<path d="M106.3,383.3c-0.2,1.4-0.7,2.5-1.6,3.3c-0.9,0.8-2,1.2-3.5,1.2c-1.6,0-2.8-0.6-3.8-1.7s-1.4-2.6-1.4-4.5v-1.3
			c0-1.2,0.2-2.3,0.7-3.3c0.4-0.9,1.1-1.7,1.9-2.2c0.8-0.5,1.8-0.8,2.8-0.8c1.4,0,2.6,0.4,3.4,1.2c0.9,0.8,1.4,1.9,1.5,3.3h-1.8
			c-0.2-1.1-0.5-1.8-1-2.3c-0.5-0.5-1.2-0.7-2.1-0.7c-1.1,0-2,0.4-2.6,1.2c-0.6,0.8-1,2-1,3.6v1.3c0,1.5,0.3,2.6,0.9,3.5
			c0.6,0.9,1.5,1.3,2.5,1.3c1,0,1.7-0.2,2.3-0.7c0.5-0.4,0.9-1.2,1-2.3H106.3z"/>
		<path d="M110.4,386.1h6.3v1.4h-8.1v-13.4h1.8V386.1z"/>
		<path d="M120.7,387.5h-1.8v-13.4h1.8V387.5z"/>
		<path d="M131.4,381.3h-5.8v4.7h6.7v1.4h-8.5v-13.4h8.4v1.4h-6.6v4.3h5.8V381.3z"/>
		<path d="M144.8,387.5h-1.8l-6.7-10.3v10.3h-1.8v-13.4h1.8l6.7,10.3v-10.3h1.8V387.5z"/>
		<path d="M156.9,375.6h-4.3v11.9h-1.8v-11.9h-4.3v-1.4h10.3V375.6z"/>
		<path d="M166.5,381.3h-5.8v4.7h6.7v1.4h-8.5v-13.4h8.4v1.4h-6.6v4.3h5.8V381.3z"/>
		<path d="M169.3,386.6c0-0.3,0.1-0.5,0.3-0.7c0.2-0.2,0.4-0.3,0.8-0.3s0.6,0.1,0.8,0.3c0.2,0.2,0.3,0.4,0.3,0.7
			c0,0.3-0.1,0.5-0.3,0.7c-0.2,0.2-0.4,0.3-0.8,0.3s-0.6-0.1-0.8-0.3S169.3,386.9,169.3,386.6z M169.3,378.5c0-0.3,0.1-0.5,0.3-0.7
			s0.4-0.3,0.8-0.3s0.6,0.1,0.8,0.3c0.2,0.2,0.3,0.4,0.3,0.7c0,0.3-0.1,0.5-0.3,0.7c-0.2,0.2-0.4,0.3-0.8,0.3s-0.6-0.1-0.8-0.3
			S169.3,378.8,169.3,378.5z"/>
	</g>
	<g>
		<path d="M590.2,330.3v5.2h-1.8v-13.4h4.9c1.5,0,2.6,0.4,3.4,1.1c0.8,0.7,1.2,1.7,1.2,3c0,1.3-0.4,2.3-1.2,3
			c-0.8,0.7-2,1.1-3.5,1.1H590.2z M590.2,328.8h3.2c0.9,0,1.7-0.2,2.2-0.7s0.8-1.1,0.8-1.9c0-0.8-0.2-1.4-0.8-1.9s-1.2-0.7-2.1-0.7
			h-3.3V328.8z"/>
		<path d="M606.4,332h-5.6l-1.3,3.5h-1.8l5.1-13.4h1.5l5.1,13.4h-1.8L606.4,332z M601.3,330.6h4.5l-2.3-6.2L601.3,330.6z"/>
		<path d="M621.1,333.7c-0.5,0.6-1.1,1.1-1.9,1.5s-1.8,0.5-2.8,0.5c-1.1,0-2.1-0.3-2.9-0.8c-0.8-0.5-1.5-1.2-2-2.2
			c-0.5-0.9-0.7-2-0.7-3.3v-1.2c0-2,0.5-3.6,1.4-4.7c0.9-1.1,2.3-1.7,4-1.7c1.4,0,2.5,0.4,3.4,1.1c0.8,0.7,1.4,1.7,1.6,3h-1.8
			c-0.3-1.8-1.4-2.7-3.2-2.7c-1.2,0-2.1,0.4-2.7,1.2s-0.9,2-0.9,3.6v1.1c0,1.5,0.3,2.7,1,3.6s1.6,1.3,2.8,1.3c0.7,0,1.2-0.1,1.7-0.2
			c0.5-0.1,0.9-0.4,1.2-0.7v-3h-3.1v-1.4h4.8V333.7z"/>
		<path d="M634.3,329.2c0,1.3-0.2,2.5-0.7,3.4c-0.4,1-1.1,1.7-1.9,2.2c-0.8,0.5-1.8,0.8-2.8,0.8c-1.1,0-2-0.3-2.8-0.8
			c-0.8-0.5-1.4-1.3-1.9-2.2c-0.5-1-0.7-2.1-0.7-3.3v-1c0-1.3,0.2-2.4,0.7-3.4c0.4-1,1.1-1.7,1.9-2.3c0.8-0.5,1.8-0.8,2.8-0.8
			c1.1,0,2,0.3,2.8,0.8s1.4,1.3,1.9,2.2s0.7,2.1,0.7,3.4V329.2z M632.5,328.4c0-1.6-0.3-2.8-1-3.6c-0.6-0.8-1.5-1.3-2.7-1.3
			c-1.1,0-2,0.4-2.6,1.3c-0.6,0.8-1,2-1,3.5v1c0,1.5,0.3,2.7,1,3.6c0.6,0.9,1.5,1.3,2.7,1.3c1.1,0,2-0.4,2.6-1.2s0.9-2,1-3.6V328.4z
			"/>
		<path d="M636.6,334.6c0-0.3,0.1-0.5,0.3-0.7c0.2-0.2,0.4-0.3,0.8-0.3s0.6,0.1,0.8,0.3c0.2,0.2,0.3,0.4,0.3,0.7
			c0,0.3-0.1,0.5-0.3,0.7s-0.4,0.3-0.8,0.3s-0.6-0.1-0.8-0.3C636.7,335.1,636.6,334.9,636.6,334.6z M636.6,326.5
			c0-0.3,0.1-0.5,0.3-0.7s0.4-0.3,0.8-0.3c0.3,0,0.6,0.1,0.8,0.3c0.2,0.2,0.3,0.4,0.3,0.7c0,0.3-0.1,0.5-0.3,0.7
			c-0.2,0.2-0.4,0.3-0.8,0.3c-0.3,0-0.6-0.1-0.8-0.3S636.6,326.8,636.6,326.5z"/>
	</g>
	<rect x="79.4" y="308" class="st1" width="760.4" height="49.3"/>
	<rect x="528.3" y="232.8" class="st1" width="311.6" height="49.3"/>
	<rect x="221.2" y="161.3" class="st1" width="270.7" height="120.8"/>
	<rect x="701" y="161.3" class="st1" width="138.9" height="49.3"/>
	<rect x="79.4" y="357.3" class="st1" width="760.4" height="49.3"/>
	<rect x="79.4" y="308" class="st1" width="481.8" height="49.3"/>
	<g>
		<path d="M96.4,434.2v-13.4h3.8c1.2,0,2.2,0.3,3.1,0.8c0.9,0.5,1.6,1.2,2.1,2.2s0.7,2,0.7,3.3v0.9c0,1.3-0.2,2.4-0.7,3.3
			c-0.5,0.9-1.2,1.7-2.1,2.2c-0.9,0.5-2,0.8-3.2,0.8H96.4z M98.2,422.2v10.5h1.9c1.4,0,2.4-0.4,3.2-1.3c0.8-0.8,1.1-2,1.1-3.6v-0.8
			c0-1.5-0.4-2.7-1.1-3.5c-0.7-0.8-1.7-1.3-3-1.3H98.2z"/>
		<path d="M119,427.9c0,1.3-0.2,2.5-0.7,3.4c-0.4,1-1.1,1.7-1.9,2.2c-0.8,0.5-1.8,0.8-2.8,0.8c-1.1,0-2-0.3-2.8-0.8
			c-0.8-0.5-1.4-1.3-1.9-2.2c-0.4-1-0.7-2.1-0.7-3.3v-1c0-1.3,0.2-2.4,0.7-3.4c0.4-1,1.1-1.7,1.9-2.3c0.8-0.5,1.8-0.8,2.8-0.8
			c1.1,0,2,0.3,2.8,0.8c0.8,0.5,1.4,1.3,1.9,2.2s0.7,2.1,0.7,3.4V427.9z M117.3,427c0-1.6-0.3-2.8-1-3.6c-0.6-0.8-1.5-1.3-2.7-1.3
			c-1.1,0-2,0.4-2.6,1.3c-0.6,0.8-1,2-1,3.5v1c0,1.5,0.3,2.7,1,3.6c0.6,0.9,1.5,1.3,2.7,1.3c1.1,0,2-0.4,2.6-1.2s0.9-2,1-3.6V427z"
			/>
		<path d="M124,420.8l4.4,10.9l4.4-10.9h2.3v13.4h-1.8V429l0.2-5.6l-4.4,10.8h-1.3l-4.4-10.8l0.2,5.6v5.2h-1.8v-13.4H124z"/>
		<path d="M140,434.2h-1.8v-13.4h1.8V434.2z"/>
		<path d="M153,429.9c-0.2,1.4-0.7,2.5-1.6,3.3c-0.9,0.8-2,1.2-3.5,1.2c-1.6,0-2.8-0.6-3.8-1.7s-1.4-2.6-1.4-4.5v-1.3
			c0-1.2,0.2-2.3,0.7-3.3c0.4-0.9,1.1-1.7,1.9-2.2c0.8-0.5,1.8-0.8,2.8-0.8c1.4,0,2.6,0.4,3.4,1.2c0.9,0.8,1.4,1.9,1.5,3.3h-1.8
			c-0.2-1.1-0.5-1.8-1-2.3c-0.5-0.5-1.2-0.7-2.1-0.7c-1.1,0-2,0.4-2.6,1.2c-0.6,0.8-1,2-1,3.6v1.3c0,1.5,0.3,2.6,0.9,3.5
			c0.6,0.9,1.5,1.3,2.5,1.3c1,0,1.7-0.2,2.3-0.7c0.5-0.4,0.9-1.2,1-2.3H153z"/>
		<path d="M157.3,434.2h-1.8v-13.4h1.8V434.2z"/>
		<path d="M162.3,432.7h6.3v1.4h-8.1v-13.4h1.8V432.7z"/>
		<path d="M172.6,434.2h-1.8v-13.4h1.8V434.2z"/>
		<path d="M186.1,427.9c0,1.3-0.2,2.5-0.7,3.4c-0.4,1-1.1,1.7-1.9,2.2c-0.8,0.5-1.8,0.8-2.8,0.8c-1.1,0-2-0.3-2.8-0.8
			c-0.8-0.5-1.4-1.3-1.9-2.2c-0.4-1-0.7-2.1-0.7-3.3v-1c0-1.3,0.2-2.4,0.7-3.4c0.4-1,1.1-1.7,1.9-2.3c0.8-0.5,1.8-0.8,2.8-0.8
			c1.1,0,2,0.3,2.8,0.8c0.8,0.5,1.4,1.3,1.9,2.2s0.7,2.1,0.7,3.4V427.9z M184.3,427c0-1.6-0.3-2.8-1-3.6c-0.6-0.8-1.5-1.3-2.7-1.3
			c-1.1,0-2,0.4-2.6,1.3c-0.6,0.8-1,2-1,3.5v1c0,1.5,0.3,2.7,1,3.6c0.6,0.9,1.5,1.3,2.7,1.3c1.1,0,2-0.4,2.6-1.2s0.9-2,1-3.6V427z"
			/>
		<path d="M188.4,433.3c0-0.3,0.1-0.5,0.3-0.7c0.2-0.2,0.4-0.3,0.8-0.3s0.6,0.1,0.8,0.3c0.2,0.2,0.3,0.4,0.3,0.7
			c0,0.3-0.1,0.5-0.3,0.7c-0.2,0.2-0.4,0.3-0.8,0.3s-0.6-0.1-0.8-0.3S188.4,433.5,188.4,433.3z M188.4,425.2c0-0.3,0.1-0.5,0.3-0.7
			s0.4-0.3,0.8-0.3s0.6,0.1,0.8,0.3c0.2,0.2,0.3,0.4,0.3,0.7c0,0.3-0.1,0.5-0.3,0.7c-0.2,0.2-0.4,0.3-0.8,0.3s-0.6-0.1-0.8-0.3
			S188.4,425.4,188.4,425.2z"/>
	</g>
	<g>
		<path d="M535.6,429.9c-0.2,1.4-0.7,2.5-1.6,3.3c-0.9,0.8-2,1.2-3.5,1.2c-1.6,0-2.8-0.6-3.8-1.7s-1.4-2.6-1.4-4.5v-1.3
			c0-1.2,0.2-2.3,0.7-3.3c0.4-0.9,1.1-1.7,1.9-2.2s1.8-0.8,2.8-0.8c1.4,0,2.6,0.4,3.4,1.2c0.9,0.8,1.4,1.9,1.5,3.3h-1.8
			c-0.2-1.1-0.5-1.8-1-2.3c-0.5-0.5-1.2-0.7-2.1-0.7c-1.1,0-2,0.4-2.6,1.2c-0.6,0.8-1,2-1,3.6v1.3c0,1.5,0.3,2.6,0.9,3.5
			c0.6,0.9,1.5,1.3,2.5,1.3c1,0,1.7-0.2,2.3-0.7c0.5-0.4,0.9-1.2,1-2.3H535.6z"/>
		<path d="M539.8,432.7h6.3v1.4H538v-13.4h1.8V432.7z"/>
		<path d="M550,434.2h-1.8v-13.4h1.8V434.2z"/>
		<path d="M560.8,428H555v4.7h6.7v1.4h-8.5v-13.4h8.4v1.4H555v4.3h5.8V428z"/>
		<path d="M574.2,434.2h-1.8l-6.7-10.3v10.3h-1.8v-13.4h1.8l6.7,10.3v-10.3h1.8V434.2z"/>
		<path d="M586.3,422.2H582v11.9h-1.8v-11.9h-4.3v-1.4h10.3V422.2z"/>
		<path d="M595.8,428H590v4.7h6.7v1.4h-8.5v-13.4h8.4v1.4H590v4.3h5.8V428z"/>
		<path d="M598.6,433.3c0-0.3,0.1-0.5,0.3-0.7c0.2-0.2,0.4-0.3,0.8-0.3s0.6,0.1,0.8,0.3c0.2,0.2,0.3,0.4,0.3,0.7
			c0,0.3-0.1,0.5-0.3,0.7c-0.2,0.2-0.4,0.3-0.8,0.3s-0.6-0.1-0.8-0.3C598.7,433.8,598.6,433.5,598.6,433.3z M598.6,425.2
			c0-0.3,0.1-0.5,0.3-0.7c0.2-0.2,0.4-0.3,0.8-0.3s0.6,0.1,0.8,0.3s0.3,0.4,0.3,0.7c0,0.3-0.1,0.5-0.3,0.7s-0.4,0.3-0.8,0.3
			s-0.6-0.1-0.8-0.3C598.7,425.7,598.6,425.4,598.6,425.2z"/>
	</g>
	<rect x="79.4" y="406.7" class="st1" width="760.4" height="49.3"/>
	<rect x="79.4" y="406.7" class="st1" width="423.1" height="49.3"/>
	<g>
		<path d="M106.3,479.3c-0.2,1.4-0.7,2.5-1.6,3.3c-0.9,0.8-2,1.2-3.5,1.2c-1.6,0-2.8-0.6-3.8-1.7s-1.4-2.6-1.4-4.5v-1.3
			c0-1.2,0.2-2.3,0.7-3.3c0.4-0.9,1.1-1.7,1.9-2.2c0.8-0.5,1.8-0.8,2.8-0.8c1.4,0,2.6,0.4,3.4,1.2c0.9,0.8,1.4,1.9,1.5,3.3h-1.8
			c-0.2-1.1-0.5-1.8-1-2.3c-0.5-0.5-1.2-0.7-2.1-0.7c-1.1,0-2,0.4-2.6,1.2c-0.6,0.8-1,2-1,3.6v1.3c0,1.5,0.3,2.6,0.9,3.5
			c0.6,0.9,1.5,1.3,2.5,1.3c1,0,1.7-0.2,2.3-0.7c0.5-0.4,0.9-1.2,1-2.3H106.3z"/>
		<path d="M116.1,480h-5.6l-1.3,3.5h-1.8l5.1-13.4h1.5l5.1,13.4h-1.8L116.1,480z M111,478.6h4.5l-2.3-6.2L111,478.6z"/>
		<path d="M131.2,483.5h-1.8l-6.7-10.3v10.3h-1.8v-13.4h1.8l6.7,10.3v-10.3h1.8V483.5z"/>
		<path d="M143.3,471.6H139v11.9h-1.8v-11.9H133v-1.4h10.3V471.6z"/>
		<path d="M147.2,483.5h-1.8v-13.4h1.8V483.5z"/>
		<path d="M150.4,483.5v-13.4h3.8c1.2,0,2.2,0.3,3.1,0.8c0.9,0.5,1.6,1.2,2.1,2.2s0.7,2,0.7,3.3v0.9c0,1.3-0.2,2.4-0.7,3.3
			c-0.5,0.9-1.2,1.7-2.1,2.2c-0.9,0.5-2,0.8-3.2,0.8H150.4z M152.2,471.6v10.5h1.9c1.4,0,2.4-0.4,3.2-1.3c0.8-0.8,1.1-2,1.1-3.6
			v-0.8c0-1.5-0.4-2.7-1.1-3.5c-0.7-0.8-1.7-1.3-3-1.3H152.2z"/>
		<path d="M169.9,480h-5.6l-1.3,3.5h-1.8l5.1-13.4h1.5l5.1,13.4h-1.8L169.9,480z M164.8,478.6h4.5l-2.3-6.2L164.8,478.6z"/>
		<path d="M174.8,483.5v-13.4h3.8c1.2,0,2.2,0.3,3.1,0.8c0.9,0.5,1.6,1.2,2.1,2.2s0.7,2,0.7,3.3v0.9c0,1.3-0.2,2.4-0.7,3.3
			c-0.5,0.9-1.2,1.7-2.1,2.2c-0.9,0.5-2,0.8-3.2,0.8H174.8z M176.5,471.6v10.5h1.9c1.4,0,2.4-0.4,3.2-1.3c0.8-0.8,1.1-2,1.1-3.6
			v-0.8c0-1.5-0.4-2.7-1.1-3.5c-0.7-0.8-1.7-1.3-3-1.3H176.5z"/>
	</g>
	<g>
		<path d="M106.7,917.2c0,1.3-0.2,2.5-0.7,3.4c-0.4,1-1.1,1.7-1.9,2.2c-0.8,0.5-1.8,0.8-2.8,0.8c-1.1,0-2-0.3-2.8-0.8
			c-0.8-0.5-1.4-1.3-1.9-2.2c-0.4-1-0.7-2.1-0.7-3.3v-1c0-1.3,0.2-2.4,0.7-3.4c0.4-1,1.1-1.7,1.9-2.3c0.8-0.5,1.8-0.8,2.8-0.8
			c1.1,0,2,0.3,2.8,0.8c0.8,0.5,1.4,1.3,1.9,2.2s0.7,2.1,0.7,3.4V917.2z M105,916.4c0-1.6-0.3-2.8-1-3.6c-0.6-0.8-1.5-1.3-2.7-1.3
			c-1.1,0-2,0.4-2.6,1.3c-0.6,0.8-1,2-1,3.5v1c0,1.5,0.3,2.7,1,3.6c0.6,0.9,1.5,1.3,2.7,1.3c1.1,0,2-0.4,2.6-1.2s0.9-2,1-3.6V916.4z
			"/>
		<path d="M109.4,923.5v-13.4h4.4c1.5,0,2.5,0.3,3.3,0.9c0.7,0.6,1.1,1.5,1.1,2.7c0,0.6-0.2,1.2-0.5,1.7c-0.4,0.5-0.8,0.9-1.4,1.1
			c0.7,0.2,1.3,0.6,1.7,1.2s0.6,1.2,0.6,2c0,1.2-0.4,2.1-1.2,2.8c-0.8,0.7-1.9,1-3.3,1H109.4z M111.1,915.8h2.7
			c0.8,0,1.4-0.2,1.8-0.6c0.5-0.4,0.7-0.9,0.7-1.6c0-0.7-0.2-1.3-0.6-1.6s-1.1-0.5-2-0.5h-2.6V915.8z M111.1,917.2v4.8h2.9
			c0.8,0,1.5-0.2,1.9-0.6c0.5-0.4,0.7-1,0.7-1.8c0-1.6-0.9-2.4-2.6-2.4H111.1z"/>
		<path d="M125,917.5c-1.5-0.4-2.6-1-3.3-1.6c-0.7-0.6-1-1.4-1-2.3c0-1.1,0.4-1.9,1.3-2.6s1.9-1,3.3-1c0.9,0,1.7,0.2,2.5,0.5
			c0.7,0.4,1.3,0.8,1.7,1.5s0.6,1.3,0.6,2h-1.8c0-0.8-0.3-1.4-0.8-1.9c-0.5-0.5-1.2-0.7-2.2-0.7c-0.9,0-1.5,0.2-2,0.6
			c-0.5,0.4-0.7,0.9-0.7,1.6c0,0.5,0.2,1,0.7,1.4s1.2,0.7,2.4,1s2,0.7,2.6,1c0.6,0.4,1.1,0.8,1.4,1.3c0.3,0.5,0.5,1.1,0.5,1.8
			c0,1.1-0.4,2-1.3,2.6c-0.8,0.7-2,1-3.4,1c-0.9,0-1.8-0.2-2.6-0.5c-0.8-0.4-1.4-0.8-1.8-1.4c-0.4-0.6-0.6-1.3-0.6-2.1h1.8
			c0,0.8,0.3,1.4,0.9,1.9c0.6,0.5,1.4,0.7,2.4,0.7c0.9,0,1.6-0.2,2.1-0.6s0.7-0.9,0.7-1.6s-0.2-1.2-0.7-1.5S126.2,917.9,125,917.5z"
			/>
		<path d="M139.8,917.3H134v4.7h6.7v1.4h-8.5v-13.4h8.4v1.4H134v4.3h5.8V917.3z"/>
		<path d="M147.8,918.1h-3.1v5.4h-1.8v-13.4h4.4c1.5,0,2.7,0.3,3.5,1c0.8,0.7,1.2,1.7,1.2,3c0,0.8-0.2,1.6-0.7,2.2
			c-0.4,0.6-1.1,1.1-1.9,1.4l3.1,5.7v0.1h-1.9L147.8,918.1z M144.7,916.6h2.7c0.9,0,1.6-0.2,2.1-0.7c0.5-0.5,0.8-1.1,0.8-1.8
			c0-0.8-0.2-1.5-0.7-1.9c-0.5-0.4-1.2-0.7-2.1-0.7h-2.7V916.6z"/>
		<path d="M158.7,921.2l3.8-11h1.9l-5,13.4h-1.6l-4.9-13.4h1.9L158.7,921.2z"/>
		<path d="M172.9,920h-5.6l-1.3,3.5h-1.8l5.1-13.4h1.5l5.1,13.4h-1.8L172.9,920z M167.9,918.6h4.5l-2.3-6.2L167.9,918.6z"/>
		<path d="M187.5,919.3c-0.2,1.4-0.7,2.5-1.6,3.3c-0.9,0.8-2,1.2-3.5,1.2c-1.6,0-2.8-0.6-3.8-1.7s-1.4-2.6-1.4-4.5v-1.3
			c0-1.2,0.2-2.3,0.7-3.3c0.4-0.9,1.1-1.7,1.9-2.2c0.8-0.5,1.8-0.8,2.8-0.8c1.4,0,2.6,0.4,3.4,1.2c0.9,0.8,1.4,1.9,1.5,3.3h-1.8
			c-0.2-1.1-0.5-1.8-1-2.3c-0.5-0.5-1.2-0.7-2.1-0.7c-1.1,0-2,0.4-2.6,1.2c-0.6,0.8-1,2-1,3.6v1.3c0,1.5,0.3,2.6,0.9,3.5
			c0.6,0.9,1.5,1.3,2.5,1.3c1,0,1.7-0.2,2.3-0.7c0.5-0.4,0.9-1.2,1-2.3H187.5z"/>
		<path d="M191.8,923.5h-1.8v-13.4h1.8V923.5z"/>
		<path d="M205.3,917.2c0,1.3-0.2,2.5-0.7,3.4c-0.4,1-1.1,1.7-1.9,2.2c-0.8,0.5-1.8,0.8-2.8,0.8c-1.1,0-2-0.3-2.8-0.8
			c-0.8-0.5-1.4-1.3-1.9-2.2c-0.4-1-0.7-2.1-0.7-3.3v-1c0-1.3,0.2-2.4,0.7-3.4c0.4-1,1.1-1.7,1.9-2.3c0.8-0.5,1.8-0.8,2.8-0.8
			c1.1,0,2,0.3,2.8,0.8c0.8,0.5,1.4,1.3,1.9,2.2s0.7,2.1,0.7,3.4V917.2z M203.6,916.4c0-1.6-0.3-2.8-1-3.6c-0.6-0.8-1.5-1.3-2.7-1.3
			c-1.1,0-2,0.4-2.6,1.3c-0.6,0.8-1,2-1,3.5v1c0,1.5,0.3,2.7,1,3.6c0.6,0.9,1.5,1.3,2.7,1.3c1.1,0,2-0.4,2.6-1.2s0.9-2,1-3.6V916.4z
			"/>
		<path d="M218.3,923.5h-1.8l-6.7-10.3v10.3H208v-13.4h1.8l6.7,10.3v-10.3h1.8V923.5z"/>
		<path d="M228.9,917.3h-5.8v4.7h6.7v1.4h-8.5v-13.4h8.4v1.4h-6.6v4.3h5.8V917.3z"/>
		<path d="M236,917.5c-1.5-0.4-2.6-1-3.3-1.6c-0.7-0.6-1-1.4-1-2.3c0-1.1,0.4-1.9,1.3-2.6s1.9-1,3.3-1c0.9,0,1.7,0.2,2.5,0.5
			c0.7,0.4,1.3,0.8,1.7,1.5s0.6,1.3,0.6,2h-1.8c0-0.8-0.3-1.4-0.8-1.9c-0.5-0.5-1.2-0.7-2.2-0.7c-0.9,0-1.5,0.2-2,0.6
			c-0.5,0.4-0.7,0.9-0.7,1.6c0,0.5,0.2,1,0.7,1.4s1.2,0.7,2.4,1s2,0.7,2.6,1c0.6,0.4,1.1,0.8,1.4,1.3c0.3,0.5,0.5,1.1,0.5,1.8
			c0,1.1-0.4,2-1.3,2.6c-0.8,0.7-2,1-3.4,1c-0.9,0-1.8-0.2-2.6-0.5c-0.8-0.4-1.4-0.8-1.8-1.4c-0.4-0.6-0.6-1.3-0.6-2.1h1.8
			c0,0.8,0.3,1.4,0.9,1.9c0.6,0.5,1.4,0.7,2.4,0.7c0.9,0,1.6-0.2,2.1-0.6s0.7-0.9,0.7-1.6s-0.2-1.2-0.7-1.5S237.2,917.9,236,917.5z"
			/>
		<path d="M242.9,922.6c0-0.3,0.1-0.5,0.3-0.7c0.2-0.2,0.4-0.3,0.8-0.3s0.6,0.1,0.8,0.3c0.2,0.2,0.3,0.4,0.3,0.7
			c0,0.3-0.1,0.5-0.3,0.7c-0.2,0.2-0.4,0.3-0.8,0.3s-0.6-0.1-0.8-0.3S242.9,922.9,242.9,922.6z M242.9,914.5c0-0.3,0.1-0.5,0.3-0.7
			s0.4-0.3,0.8-0.3s0.6,0.1,0.8,0.3c0.2,0.2,0.3,0.4,0.3,0.7c0,0.3-0.1,0.5-0.3,0.7c-0.2,0.2-0.4,0.3-0.8,0.3s-0.6-0.1-0.8-0.3
			S242.9,914.8,242.9,914.5z"/>
	</g>
	<g>
		<path d="M387.1,923.5v-13.4h4.4c1.5,0,2.5,0.3,3.3,0.9c0.7,0.6,1.1,1.5,1.1,2.7c0,0.6-0.2,1.2-0.5,1.7c-0.4,0.5-0.8,0.9-1.4,1.1
			c0.7,0.2,1.3,0.6,1.7,1.2s0.6,1.2,0.6,2c0,1.2-0.4,2.1-1.2,2.8c-0.8,0.7-1.9,1-3.3,1H387.1z M388.9,915.8h2.7
			c0.8,0,1.4-0.2,1.8-0.6c0.5-0.4,0.7-0.9,0.7-1.6c0-0.7-0.2-1.3-0.6-1.6s-1.1-0.5-2-0.5h-2.6V915.8z M388.9,917.2v4.8h2.9
			c0.8,0,1.5-0.2,1.9-0.6c0.5-0.4,0.7-1,0.7-1.8c0-1.6-0.9-2.4-2.6-2.4H388.9z"/>
		<path d="M408.2,910.1v9.1c0,1.3-0.4,2.3-1.2,3.1c-0.8,0.8-1.9,1.3-3.2,1.3l-0.5,0c-1.5,0-2.6-0.4-3.5-1.2
			c-0.9-0.8-1.3-1.9-1.3-3.3v-9.1h1.7v9c0,1,0.3,1.7,0.8,2.3c0.5,0.5,1.3,0.8,2.3,0.8c1,0,1.8-0.3,2.3-0.8s0.8-1.3,0.8-2.2v-9.1
			H408.2z"/>
		<path d="M412.8,922.1h6.3v1.4H411v-13.4h1.8V922.1z"/>
		<path d="M427.8,911.6h-4.3v11.9h-1.8v-11.9h-4.3v-1.4h10.3V911.6z"/>
		<path d="M439.8,917.2c0,1.3-0.2,2.5-0.7,3.4c-0.4,1-1.1,1.7-1.9,2.2c-0.8,0.5-1.8,0.8-2.8,0.8c-1.1,0-2-0.3-2.8-0.8
			c-0.8-0.5-1.4-1.3-1.9-2.2c-0.4-1-0.7-2.1-0.7-3.3v-1c0-1.3,0.2-2.4,0.7-3.4c0.4-1,1.1-1.7,1.9-2.3c0.8-0.5,1.8-0.8,2.8-0.8
			c1.1,0,2,0.3,2.8,0.8c0.8,0.5,1.4,1.3,1.9,2.2s0.7,2.1,0.7,3.4V917.2z M438.1,916.4c0-1.6-0.3-2.8-1-3.6c-0.6-0.8-1.5-1.3-2.7-1.3
			c-1.1,0-2,0.4-2.6,1.3c-0.6,0.8-1,2-1,3.5v1c0,1.5,0.3,2.7,1,3.6c0.6,0.9,1.5,1.3,2.7,1.3c1.1,0,2-0.4,2.6-1.2s0.9-2,1-3.6V916.4z
			"/>
		<path d="M446.4,917.5c-1.5-0.4-2.6-1-3.3-1.6c-0.7-0.6-1-1.4-1-2.3c0-1.1,0.4-1.9,1.3-2.6s1.9-1,3.3-1c0.9,0,1.7,0.2,2.5,0.5
			c0.7,0.4,1.3,0.8,1.7,1.5s0.6,1.3,0.6,2h-1.8c0-0.8-0.3-1.4-0.8-1.9c-0.5-0.5-1.2-0.7-2.2-0.7c-0.9,0-1.5,0.2-2,0.6
			c-0.5,0.4-0.7,0.9-0.7,1.6c0,0.5,0.2,1,0.7,1.4s1.2,0.7,2.4,1s2,0.7,2.6,1c0.6,0.4,1.1,0.8,1.4,1.3c0.3,0.5,0.5,1.1,0.5,1.8
			c0,1.1-0.4,2-1.3,2.6c-0.8,0.7-2,1-3.4,1c-0.9,0-1.8-0.2-2.6-0.5c-0.8-0.4-1.4-0.8-1.8-1.4c-0.4-0.6-0.6-1.3-0.6-2.1h1.8
			c0,0.8,0.3,1.4,0.9,1.9c0.6,0.5,1.4,0.7,2.4,0.7c0.9,0,1.6-0.2,2.1-0.6s0.7-0.9,0.7-1.6s-0.2-1.2-0.7-1.5S447.6,917.9,446.4,917.5
			z"/>
	</g>
	<g>
		<path d="M535.6,919.3c-0.2,1.4-0.7,2.5-1.6,3.3c-0.9,0.8-2,1.2-3.5,1.2c-1.6,0-2.8-0.6-3.8-1.7s-1.4-2.6-1.4-4.5v-1.3
			c0-1.2,0.2-2.3,0.7-3.3c0.4-0.9,1.1-1.7,1.9-2.2c0.8-0.5,1.8-0.8,2.8-0.8c1.4,0,2.6,0.4,3.4,1.2c0.9,0.8,1.4,1.9,1.5,3.3h-1.8
			c-0.2-1.1-0.5-1.8-1-2.3c-0.5-0.5-1.2-0.7-2.1-0.7c-1.1,0-2,0.4-2.6,1.2c-0.6,0.8-1,2-1,3.6v1.3c0,1.5,0.3,2.6,0.9,3.5
			c0.6,0.9,1.5,1.3,2.5,1.3c1,0,1.7-0.2,2.3-0.7c0.5-0.4,0.9-1.2,1-2.3H535.6z"/>
		<path d="M548.3,917.2c0,1.3-0.2,2.5-0.7,3.4c-0.4,1-1.1,1.7-1.9,2.2c-0.8,0.5-1.8,0.8-2.8,0.8c-1.1,0-2-0.3-2.8-0.8
			s-1.4-1.3-1.9-2.2c-0.5-1-0.7-2.1-0.7-3.3v-1c0-1.3,0.2-2.4,0.7-3.4c0.4-1,1.1-1.7,1.9-2.3c0.8-0.5,1.8-0.8,2.8-0.8
			c1.1,0,2,0.3,2.8,0.8c0.8,0.5,1.4,1.3,1.9,2.2s0.7,2.1,0.7,3.4V917.2z M546.5,916.4c0-1.6-0.3-2.8-1-3.6c-0.6-0.8-1.5-1.3-2.7-1.3
			c-1.1,0-2,0.4-2.6,1.3c-0.6,0.8-1,2-1,3.5v1c0,1.5,0.3,2.7,1,3.6c0.6,0.9,1.5,1.3,2.7,1.3c1.1,0,2-0.4,2.6-1.2s0.9-2,1-3.6V916.4z
			"/>
		<path d="M561.2,923.5h-1.8l-6.7-10.3v10.3h-1.8v-13.4h1.8l6.7,10.3v-10.3h1.8V923.5z"/>
		<path d="M571.7,917.6h-5.6v5.9h-1.8v-13.4h8.3v1.4h-6.5v4.6h5.6V917.6z"/>
		<path d="M585,917.2c0,1.3-0.2,2.5-0.7,3.4c-0.4,1-1.1,1.7-1.9,2.2c-0.8,0.5-1.8,0.8-2.8,0.8c-1.1,0-2-0.3-2.8-0.8
			c-0.8-0.5-1.4-1.3-1.9-2.2c-0.4-1-0.7-2.1-0.7-3.3v-1c0-1.3,0.2-2.4,0.7-3.4c0.4-1,1.1-1.7,1.9-2.3c0.8-0.5,1.8-0.8,2.8-0.8
			c1.1,0,2,0.3,2.8,0.8s1.4,1.3,1.9,2.2s0.7,2.1,0.7,3.4V917.2z M583.2,916.4c0-1.6-0.3-2.8-1-3.6c-0.6-0.8-1.5-1.3-2.7-1.3
			c-1.1,0-2,0.4-2.6,1.3c-0.6,0.8-1,2-1,3.5v1c0,1.5,0.3,2.7,1,3.6c0.6,0.9,1.5,1.3,2.7,1.3c1.1,0,2-0.4,2.6-1.2s0.9-2,1-3.6V916.4z
			"/>
		<path d="M592.5,918.1h-3.1v5.4h-1.8v-13.4h4.4c1.5,0,2.7,0.3,3.5,1c0.8,0.7,1.2,1.7,1.2,3c0,0.8-0.2,1.6-0.7,2.2
			c-0.4,0.6-1.1,1.1-1.9,1.4l3.1,5.7v0.1h-1.9L592.5,918.1z M589.4,916.6h2.7c0.9,0,1.6-0.2,2.1-0.7c0.5-0.5,0.8-1.1,0.8-1.8
			c0-0.8-0.2-1.5-0.7-1.9c-0.5-0.4-1.2-0.7-2.1-0.7h-2.7V916.6z"/>
		<path d="M601.5,910.1l4.4,10.9l4.4-10.9h2.3v13.4h-1.8v-5.2l0.2-5.6l-4.4,10.8h-1.3l-4.4-10.8l0.2,5.6v5.2h-1.8v-13.4H601.5z"/>
		<path d="M623.2,917.3h-5.8v4.7h6.7v1.4h-8.5v-13.4h8.4v1.4h-6.6v4.3h5.8V917.3z"/>
		<path d="M640.8,919.3c-0.2,1.4-0.7,2.5-1.6,3.3c-0.9,0.8-2,1.2-3.5,1.2c-1.6,0-2.8-0.6-3.8-1.7s-1.4-2.6-1.4-4.5v-1.3
			c0-1.2,0.2-2.3,0.7-3.3c0.4-0.9,1.1-1.7,1.9-2.2c0.8-0.5,1.8-0.8,2.8-0.8c1.4,0,2.6,0.4,3.4,1.2c0.9,0.8,1.4,1.9,1.5,3.3H639
			c-0.2-1.1-0.5-1.8-1-2.3c-0.5-0.5-1.2-0.7-2.1-0.7c-1.1,0-2,0.4-2.6,1.2c-0.6,0.8-1,2-1,3.6v1.3c0,1.5,0.3,2.6,0.9,3.5
			c0.6,0.9,1.5,1.3,2.5,1.3c1,0,1.7-0.2,2.3-0.7c0.5-0.4,0.9-1.2,1-2.3H640.8z"/>
		<path d="M645,922.1h6.3v1.4h-8.1v-13.4h1.8V922.1z"/>
		<path d="M655.2,923.5h-1.8v-13.4h1.8V923.5z"/>
		<path d="M666,917.3h-5.8v4.7h6.7v1.4h-8.5v-13.4h8.4v1.4h-6.6v4.3h5.8V917.3z"/>
		<path d="M679.4,923.5h-1.8l-6.7-10.3v10.3h-1.8v-13.4h1.8l6.7,10.3v-10.3h1.8V923.5z"/>
		<path d="M691.5,911.6h-4.3v11.9h-1.8v-11.9h-4.3v-1.4h10.3V911.6z"/>
		<path d="M701,917.3h-5.8v4.7h6.7v1.4h-8.5v-13.4h8.4v1.4h-6.6v4.3h5.8V917.3z"/>
		<path d="M703.8,922.6c0-0.3,0.1-0.5,0.3-0.7c0.2-0.2,0.4-0.3,0.8-0.3s0.6,0.1,0.8,0.3c0.2,0.2,0.3,0.4,0.3,0.7
			c0,0.3-0.1,0.5-0.3,0.7s-0.4,0.3-0.8,0.3s-0.6-0.1-0.8-0.3C703.9,923.1,703.8,922.9,703.8,922.6z M703.8,914.5
			c0-0.3,0.1-0.5,0.3-0.7c0.2-0.2,0.4-0.3,0.8-0.3s0.6,0.1,0.8,0.3c0.2,0.2,0.3,0.4,0.3,0.7c0,0.3-0.1,0.5-0.3,0.7
			c-0.2,0.2-0.4,0.3-0.8,0.3s-0.6-0.1-0.8-0.3C703.9,915,703.8,914.8,703.8,914.5z"/>
	</g>
	<g>
		<path d="M388.9,1032.1v5.2h-1.8V1024h4.9c1.5,0,2.6,0.4,3.4,1.1s1.2,1.7,1.2,3c0,1.3-0.4,2.3-1.2,3c-0.8,0.7-2,1.1-3.5,1.1H388.9z
			 M388.9,1030.7h3.2c0.9,0,1.7-0.2,2.2-0.7s0.8-1.1,0.8-1.9c0-0.8-0.3-1.4-0.8-1.9c-0.5-0.5-1.2-0.7-2.1-0.7h-3.3V1030.7z"/>
		<path d="M409.2,1031.1c0,1.3-0.2,2.5-0.7,3.4s-1.1,1.7-1.9,2.2c-0.8,0.5-1.8,0.8-2.8,0.8c-1.1,0-2-0.3-2.8-0.8
			c-0.8-0.5-1.4-1.3-1.9-2.2s-0.7-2.1-0.7-3.3v-1c0-1.3,0.2-2.4,0.7-3.4c0.4-1,1.1-1.7,1.9-2.3c0.8-0.5,1.8-0.8,2.8-0.8
			c1.1,0,2,0.3,2.8,0.8c0.8,0.5,1.4,1.3,1.9,2.2c0.4,1,0.7,2.1,0.7,3.4V1031.1z M407.5,1030.2c0-1.6-0.3-2.8-1-3.6
			c-0.6-0.8-1.5-1.3-2.7-1.3c-1.1,0-2,0.4-2.6,1.3c-0.6,0.8-1,2-1,3.5v1c0,1.5,0.3,2.7,1,3.6c0.6,0.9,1.5,1.3,2.7,1.3
			c1.1,0,2-0.4,2.6-1.2s0.9-2,1-3.6V1030.2z"/>
		<path d="M416.8,1031.9h-3.1v5.4h-1.8V1024h4.4c1.5,0,2.7,0.3,3.5,1s1.2,1.7,1.2,3c0,0.8-0.2,1.6-0.7,2.2c-0.4,0.6-1.1,1.1-1.9,1.4
			l3.1,5.7v0.1h-1.9L416.8,1031.9z M413.6,1030.5h2.7c0.9,0,1.6-0.2,2.1-0.7c0.5-0.5,0.8-1.1,0.8-1.8c0-0.8-0.2-1.5-0.7-1.9
			c-0.5-0.4-1.2-0.7-2.1-0.7h-2.7V1030.5z"/>
		<path d="M432,1025.4h-4.3v11.9h-1.8v-11.9h-4.3v-1.4H432V1025.4z"/>
		<path d="M441.5,1031.2h-5.8v4.7h6.7v1.4h-8.5V1024h8.4v1.4h-6.6v4.3h5.8V1031.2z"/>
		<path d="M448.6,1031.4c-1.5-0.4-2.6-1-3.3-1.6c-0.7-0.6-1-1.4-1-2.3c0-1.1,0.4-1.9,1.3-2.6s1.9-1,3.3-1c0.9,0,1.7,0.2,2.5,0.5
			c0.7,0.4,1.3,0.8,1.7,1.5s0.6,1.3,0.6,2h-1.8c0-0.8-0.3-1.4-0.8-1.9c-0.5-0.5-1.2-0.7-2.2-0.7c-0.9,0-1.5,0.2-2,0.6
			c-0.5,0.4-0.7,0.9-0.7,1.6c0,0.5,0.2,1,0.7,1.4s1.2,0.7,2.4,1s2,0.7,2.6,1c0.6,0.4,1.1,0.8,1.4,1.3c0.3,0.5,0.5,1.1,0.5,1.8
			c0,1.1-0.4,2-1.3,2.6s-2,1-3.4,1c-0.9,0-1.8-0.2-2.6-0.5c-0.8-0.4-1.4-0.8-1.8-1.4c-0.4-0.6-0.6-1.3-0.6-2.1h1.8
			c0,0.8,0.3,1.4,0.9,1.9c0.6,0.5,1.4,0.7,2.4,0.7c0.9,0,1.6-0.2,2.1-0.6c0.5-0.4,0.7-0.9,0.7-1.6c0-0.7-0.2-1.2-0.7-1.5
			C450.6,1032.1,449.8,1031.7,448.6,1031.4z"/>
	</g>
	<g>
		<path d="M247.5,478.3v5.2h-1.8v-13.4h4.9c1.5,0,2.6,0.4,3.4,1.1c0.8,0.7,1.2,1.7,1.2,3c0,1.3-0.4,2.3-1.2,3
			c-0.8,0.7-2,1.1-3.5,1.1H247.5z M247.5,476.8h3.2c0.9,0,1.7-0.2,2.2-0.7s0.8-1.1,0.8-1.9c0-0.8-0.3-1.4-0.8-1.9s-1.2-0.7-2.1-0.7
			h-3.3V476.8z"/>
		<path d="M262.5,478.1h-3.1v5.4h-1.8v-13.4h4.4c1.5,0,2.7,0.3,3.5,1c0.8,0.7,1.2,1.7,1.2,3c0,0.8-0.2,1.6-0.7,2.2
			c-0.4,0.6-1.1,1.1-1.9,1.4l3.1,5.7v0.1h-1.9L262.5,478.1z M259.4,476.6h2.7c0.9,0,1.6-0.2,2.1-0.7c0.5-0.5,0.8-1.1,0.8-1.8
			c0-0.8-0.2-1.5-0.7-1.9c-0.5-0.4-1.2-0.7-2.1-0.7h-2.7V476.6z"/>
		<path d="M279.5,477.2c0,1.3-0.2,2.5-0.7,3.4c-0.4,1-1.1,1.7-1.9,2.2c-0.8,0.5-1.8,0.8-2.8,0.8c-1.1,0-2-0.3-2.8-0.8
			c-0.8-0.5-1.4-1.3-1.9-2.2c-0.4-1-0.7-2.1-0.7-3.3v-1c0-1.3,0.2-2.4,0.7-3.4c0.4-1,1.1-1.7,1.9-2.3c0.8-0.5,1.8-0.8,2.8-0.8
			c1.1,0,2,0.3,2.8,0.8c0.8,0.5,1.4,1.3,1.9,2.2s0.7,2.1,0.7,3.4V477.2z M277.7,476.4c0-1.6-0.3-2.8-1-3.6c-0.6-0.8-1.5-1.3-2.7-1.3
			c-1.1,0-2,0.4-2.6,1.3c-0.6,0.8-1,2-1,3.5v1c0,1.5,0.3,2.7,1,3.6c0.6,0.9,1.5,1.3,2.7,1.3c1.1,0,2-0.4,2.6-1.2s0.9-2,1-3.6V476.4z
			"/>
		<path d="M282.1,483.5v-13.4h3.8c1.2,0,2.2,0.3,3.1,0.8c0.9,0.5,1.6,1.2,2.1,2.2s0.7,2,0.7,3.3v0.9c0,1.3-0.2,2.4-0.7,3.3
			c-0.5,0.9-1.2,1.7-2.1,2.2c-0.9,0.5-2,0.8-3.2,0.8H282.1z M283.9,471.6v10.5h1.9c1.4,0,2.4-0.4,3.2-1.3c0.8-0.8,1.1-2,1.1-3.6
			v-0.8c0-1.5-0.4-2.7-1.1-3.5c-0.7-0.8-1.7-1.3-3-1.3H283.9z"/>
		<path d="M303.9,470.1v9.1c0,1.3-0.4,2.3-1.2,3.1c-0.8,0.8-1.9,1.3-3.2,1.3l-0.5,0c-1.5,0-2.6-0.4-3.5-1.2
			c-0.9-0.8-1.3-1.9-1.3-3.3v-9.1h1.7v9c0,1,0.3,1.7,0.8,2.3c0.5,0.5,1.3,0.8,2.3,0.8c1,0,1.8-0.3,2.3-0.8s0.8-1.3,0.8-2.2v-9.1
			H303.9z"/>
		<path d="M316.5,479.3c-0.2,1.4-0.7,2.5-1.6,3.3c-0.9,0.8-2,1.2-3.5,1.2c-1.6,0-2.8-0.6-3.8-1.7s-1.4-2.6-1.4-4.5v-1.3
			c0-1.2,0.2-2.3,0.7-3.3c0.4-0.9,1.1-1.7,1.9-2.2c0.8-0.5,1.8-0.8,2.8-0.8c1.4,0,2.6,0.4,3.4,1.2c0.9,0.8,1.4,1.9,1.5,3.3h-1.8
			c-0.2-1.1-0.5-1.8-1-2.3c-0.5-0.5-1.2-0.7-2.1-0.7c-1.1,0-2,0.4-2.6,1.2c-0.6,0.8-1,2-1,3.6v1.3c0,1.5,0.3,2.6,0.9,3.5
			c0.6,0.9,1.5,1.3,2.5,1.3c1,0,1.7-0.2,2.3-0.7c0.5-0.4,0.9-1.2,1-2.3H316.5z"/>
		<path d="M327.8,471.6h-4.3v11.9h-1.8v-11.9h-4.3v-1.4h10.3V471.6z"/>
		<path d="M339.8,477.2c0,1.3-0.2,2.5-0.7,3.4c-0.4,1-1.1,1.7-1.9,2.2c-0.8,0.5-1.8,0.8-2.8,0.8c-1.1,0-2-0.3-2.8-0.8
			c-0.8-0.5-1.4-1.3-1.9-2.2c-0.4-1-0.7-2.1-0.7-3.3v-1c0-1.3,0.2-2.4,0.7-3.4c0.4-1,1.1-1.7,1.9-2.3c0.8-0.5,1.8-0.8,2.8-0.8
			c1.1,0,2,0.3,2.8,0.8c0.8,0.5,1.4,1.3,1.9,2.2s0.7,2.1,0.7,3.4V477.2z M338.1,476.4c0-1.6-0.3-2.8-1-3.6c-0.6-0.8-1.5-1.3-2.7-1.3
			c-1.1,0-2,0.4-2.6,1.3c-0.6,0.8-1,2-1,3.5v1c0,1.5,0.3,2.7,1,3.6c0.6,0.9,1.5,1.3,2.7,1.3c1.1,0,2-0.4,2.6-1.2s0.9-2,1-3.6V476.4z
			"/>
	</g>
	<g>
		<path d="M406,478.3v5.2h-1.8v-13.4h4.9c1.5,0,2.6,0.4,3.4,1.1c0.8,0.7,1.2,1.7,1.2,3c0,1.3-0.4,2.3-1.2,3c-0.8,0.7-2,1.1-3.5,1.1
			H406z M406,476.8h3.2c0.9,0,1.7-0.2,2.2-0.7s0.8-1.1,0.8-1.9c0-0.8-0.3-1.4-0.8-1.9s-1.2-0.7-2.1-0.7H406V476.8z"/>
		<path d="M421,478.1h-3.1v5.4h-1.8v-13.4h4.4c1.5,0,2.7,0.3,3.5,1c0.8,0.7,1.2,1.7,1.2,3c0,0.8-0.2,1.6-0.7,2.2
			c-0.4,0.6-1.1,1.1-1.9,1.4l3.1,5.7v0.1h-1.9L421,478.1z M417.8,476.6h2.7c0.9,0,1.6-0.2,2.1-0.7c0.5-0.5,0.8-1.1,0.8-1.8
			c0-0.8-0.2-1.5-0.7-1.9c-0.5-0.4-1.2-0.7-2.1-0.7h-2.7V476.6z"/>
		<path d="M435.2,477.3h-5.8v4.7h6.7v1.4h-8.5v-13.4h8.4v1.4h-6.6v4.3h5.8V477.3z"/>
		<path d="M448.2,479.3c-0.2,1.4-0.7,2.5-1.6,3.3c-0.9,0.8-2,1.2-3.5,1.2c-1.6,0-2.8-0.6-3.8-1.7s-1.4-2.6-1.4-4.5v-1.3
			c0-1.2,0.2-2.3,0.7-3.3c0.4-0.9,1.1-1.7,1.9-2.2c0.8-0.5,1.8-0.8,2.8-0.8c1.4,0,2.6,0.4,3.4,1.2c0.9,0.8,1.4,1.9,1.5,3.3h-1.8
			c-0.2-1.1-0.5-1.8-1-2.3c-0.5-0.5-1.2-0.7-2.1-0.7c-1.1,0-2,0.4-2.6,1.2c-0.6,0.8-1,2-1,3.6v1.3c0,1.5,0.3,2.6,0.9,3.5
			c0.6,0.9,1.5,1.3,2.5,1.3c1,0,1.7-0.2,2.3-0.7c0.5-0.4,0.9-1.2,1-2.3H448.2z"/>
		<path d="M452.5,483.5h-1.8v-13.4h1.8V483.5z"/>
		<path d="M466,477.2c0,1.3-0.2,2.5-0.7,3.4c-0.4,1-1.1,1.7-1.9,2.2c-0.8,0.5-1.8,0.8-2.8,0.8c-1.1,0-2-0.3-2.8-0.8
			c-0.8-0.5-1.4-1.3-1.9-2.2c-0.4-1-0.7-2.1-0.7-3.3v-1c0-1.3,0.2-2.4,0.7-3.4c0.4-1,1.1-1.7,1.9-2.3c0.8-0.5,1.8-0.8,2.8-0.8
			c1.1,0,2,0.3,2.8,0.8s1.4,1.3,1.9,2.2s0.7,2.1,0.7,3.4V477.2z M464.2,476.4c0-1.6-0.3-2.8-1-3.6c-0.6-0.8-1.5-1.3-2.7-1.3
			c-1.1,0-2,0.4-2.6,1.3c-0.6,0.8-1,2-1,3.5v1c0,1.5,0.3,2.7,1,3.6c0.6,0.9,1.5,1.3,2.7,1.3c1.1,0,2-0.4,2.6-1.2s0.9-2,1-3.6V476.4z
			"/>
	</g>
	<g>
		<path d="M535.7,483.5h-1.8v-13.4h1.8V483.5z"/>
		<path d="M543.3,481.2l3.8-11h1.9l-5,13.4h-1.6l-4.9-13.4h1.9L543.3,481.2z"/>
		<path d="M557.5,480h-5.6l-1.3,3.5h-1.8l5.1-13.4h1.5l5.1,13.4h-1.8L557.5,480z M552.5,478.6h4.5l-2.3-6.2L552.5,478.6z"/>
	</g>
	<g>
		<path d="M641.7,471.6h-4.3v11.9h-1.8v-11.9h-4.3v-1.4h10.3V471.6z"/>
		<path d="M653.7,477.2c0,1.3-0.2,2.5-0.7,3.4c-0.4,1-1.1,1.7-1.9,2.2c-0.8,0.5-1.8,0.8-2.8,0.8c-1.1,0-2-0.3-2.8-0.8
			c-0.8-0.5-1.4-1.3-1.9-2.2c-0.4-1-0.7-2.1-0.7-3.3v-1c0-1.3,0.2-2.4,0.7-3.4c0.4-1,1.1-1.7,1.9-2.3c0.8-0.5,1.8-0.8,2.8-0.8
			c1.1,0,2,0.3,2.8,0.8s1.4,1.3,1.9,2.2s0.7,2.1,0.7,3.4V477.2z M651.9,476.4c0-1.6-0.3-2.8-1-3.6c-0.6-0.8-1.5-1.3-2.7-1.3
			c-1.1,0-2,0.4-2.6,1.3c-0.6,0.8-1,2-1,3.5v1c0,1.5,0.3,2.7,1,3.6c0.6,0.9,1.5,1.3,2.7,1.3c1.1,0,2-0.4,2.6-1.2s0.9-2,1-3.6V476.4z
			"/>
		<path d="M665.3,471.6H661v11.9h-1.8v-11.9H655v-1.4h10.3V471.6z"/>
		<path d="M673.9,480h-5.6l-1.3,3.5h-1.8l5.1-13.4h1.5l5.1,13.4h-1.8L673.9,480z M668.9,478.6h4.5l-2.3-6.2L668.9,478.6z"/>
		<path d="M680.6,482.1h6.3v1.4h-8.1v-13.4h1.8V482.1z"/>
	</g>
	<rect x="79.4" y="456" class="st1" width="760.4" height="49.3"/>
	<rect x="79.4" y="456" class="st1" width="423.1" height="49.3"/>
	<rect x="79.4" y="456" class="st1" width="141.8" height="49.3"/>
	<rect x="79.4" y="456" class="st1" width="295.1" height="49.3"/>
	<rect x="598.6" y="456" class="st1" width="241.3" height="49.3"/>
	<rect x="79.4" y="505.3" class="st1" width="760.4" height="49.3"/>
	<rect x="79.4" y="505.3" class="st1" width="423.1" height="49.3"/>
	<rect x="79.4" y="505.3" class="st1" width="141.8" height="49.3"/>
	<rect x="79.4" y="505.3" class="st1" width="295.1" height="49.3"/>
	<rect x="598.6" y="505.3" class="st1" width="241.3" height="49.3"/>
	<rect x="79.4" y="554.7" class="st1" width="760.4" height="49.3"/>
	<rect x="79.4" y="554.7" class="st1" width="423.1" height="49.3"/>
	<rect x="79.4" y="554.7" class="st1" width="141.8" height="49.3"/>
	<rect x="79.4" y="554.7" class="st1" width="295.1" height="49.3"/>
	<rect x="598.6" y="554.7" class="st1" width="241.3" height="49.3"/>
	<rect x="79.4" y="604" class="st1" width="760.4" height="49.3"/>
	<rect x="79.4" y="604" class="st1" width="423.1" height="49.3"/>
	<rect x="79.4" y="604" class="st1" width="141.8" height="49.3"/>
	<rect x="79.4" y="604" class="st1" width="295.1" height="49.3"/>
	<rect x="598.6" y="604" class="st1" width="241.3" height="49.3"/>
	<rect x="79.4" y="653.3" class="st1" width="760.4" height="49.3"/>
	<rect x="79.4" y="653.3" class="st1" width="423.1" height="49.3"/>
	<rect x="79.4" y="653.3" class="st1" width="141.8" height="49.3"/>
	<rect x="79.4" y="653.3" class="st1" width="295.1" height="49.3"/>
	<rect x="598.6" y="653.3" class="st1" width="241.3" height="49.3"/>
	<rect x="79.4" y="702.7" class="st1" width="760.4" height="49.3"/>
	<rect x="79.4" y="702.7" class="st1" width="423.1" height="49.3"/>
	<rect x="79.4" y="702.7" class="st1" width="141.8" height="49.3"/>
	<rect x="79.4" y="702.7" class="st1" width="295.1" height="49.3"/>
	<rect x="598.6" y="702.7" class="st1" width="241.3" height="49.3"/>
	<rect x="79.4" y="752" class="st1" width="760.4" height="49.3"/>
	<rect x="79.4" y="752" class="st1" width="423.1" height="49.3"/>
	<rect x="79.4" y="752" class="st1" width="141.8" height="49.3"/>
	<rect x="79.4" y="752" class="st1" width="295.1" height="49.3"/>
	<rect x="598.6" y="752" class="st1" width="241.3" height="49.3"/>
	<rect x="79.4" y="801.3" class="st1" width="760.4" height="49.3"/>
	<rect x="79.4" y="801.3" class="st1" width="423.1" height="49.3"/>
	<rect x="79.4" y="801.3" class="st1" width="141.8" height="49.3"/>
	<rect x="79.4" y="801.3" class="st1" width="295.1" height="49.3"/>
	<rect x="598.6" y="801.3" class="st1" width="241.3" height="49.3"/>
	<rect x="79.4" y="850.7" class="st1" width="760.4" height="49.3"/>
	<rect x="79.4" y="850.7" class="st1" width="423.1" height="49.3"/>
	<rect x="79.4" y="850.7" class="st1" width="141.8" height="49.3"/>
	<rect x="79.4" y="850.7" class="st1" width="295.1" height="49.3"/>
	<rect x="598.6" y="850.7" class="st1" width="241.3" height="49.3"/>
	<rect x="79.4" y="900" class="st1" width="760.4" height="188"/>
	<rect x="79.4" y="900" class="st1" width="423.1" height="188"/>
	<rect x="79.4" y="900" class="st1" width="295.1" height="188"/>
	<rect x="79.4" y="1005.3" class="st1" width="295.1" height="82.7"/>
	<rect x="79.4" y="1005.3" class="st1" width="423.1" height="82.7"/>
	<rect x="79.4" y="1005.3" class="st1" width="141.8" height="82.7"/>
	<polyline class="st1" points="618.9,263 664.5,263 680.4,247.1 	"/>
	<polyline class="st1" points="684,263 729.6,263 745.5,247.1 	"/>
	<line class="st1" x1="745.5" y1="263" x2="816.2" y2="263"/>
	<g>
		<path d="M172.8,245.9c1.3-1.2,1.3-1.2,2.6,0.1c1.9,1.9,3.9,3.9,5.8,5.8c3.2,3.2,4.8,7.1,4.8,11.6c0,3.8,0,7.5,0,11.3
			c0,5.5-3.9,9.3-9.4,9.3c-29.3,0-58.5,0-87.8,0c-5.5,0-9.4-3.9-9.4-9.4c0-3.8,0-7.5,0-11.3c0-5.1,2.1-9.2,5.8-12.5
			c0.4-0.4,0.6-0.3,1,0c0.3,0.3,0.6,0.6,1,0.9c1.4,0.6,1.7,1.4,0.6,2.5c-1.1,1.2-2.2,2.3-2.9,3.8c-0.9,1.7-1.3,3.6-1.3,5.5
			c0,3.7,0,7.4,0,11.2c0,3.3,2,5.3,5.2,5.3c0.9,0,1.7,0,2.6,0c0.6,0,0.9-0.3,0.9-0.9c0-2.3,0-4.6,0-6.9c0-0.6-0.3-1-0.9-1
			c-0.1,0-0.2,0-0.2,0c-0.8-0.1-1.8,0.3-2.3-0.5c-0.6-0.9-0.3-2.1-0.2-3.1c0.1-0.8,0.7-0.9,1.3-0.9c1.6,0,3.2,0,4.9,0
			c1,0,1.3-0.3,1.3-1.3c0-6.4,0-12.8,0-19.5c-1,1-1.8,1.8-2.6,2.6c-1.3,1.3-1.9,1.2-2.8-0.4c-1.3-1.4-1.3-1.4,0.1-2.8
			c1.7-1.7,3.3-3.3,5-5c0.5-0.5,0.7-1,0.7-1.7c0-1.8,0-3.6,0-5.4c0-1.7,0.7-2.4,2.4-2.4c3,0,6,0,9,0c0.6,0,1.1-0.1,1.5-0.4
			c3.1-2,6.3-4,9.4-6c0.5-0.3,0.8-0.7,0.9-1.3c0.3-1.5,0.7-3,1.1-4.5c0.2-0.7,0.1-1-0.6-1.4c-3.2-1.7-4.8-4.5-4.8-8.1
			c0-0.8-0.1-1.1-1-1.1c-3.7,0-6.5-2.9-6.6-6.7c0-1-0.1-2,0.1-3c0.5-3.1,2.7-5,6.1-5.6c-0.7-4.7-1.2-9.3,0.4-13.9
			c1.8-5.3,7-8.8,12.6-8.9c3.6,0,7.3,0,10.9,0c7.4,0.1,13.5,6.2,13.6,13.6c0,1.9,0,3.9,0,5.8c0,1.2-0.3,2.3-0.7,3.4
			c3.4,0.5,5.6,2.2,6.3,5.5c0.3,1.4,0.3,2.9,0,4.3c-0.6,3.2-3.2,5.4-6.5,5.5c-0.8,0-1,0.2-1,1c0,3.7-1.6,6.5-4.8,8.3
			c-0.6,0.3-0.8,0.6-0.6,1.3c0.4,1.6,0.8,3.1,1.2,4.7c0.1,0.6,0.5,0.9,1,1.2c3.1,2,6.3,4,9.4,6c0.5,0.3,0.9,0.4,1.4,0.4
			c2.2,0,4.4,0,6.5,0c5.1-0.1,5-0.1,4.9,5c0,2.2,0,4.4,0,6.5c0.4,0.6,0.3,1.2,0.3,1.8c0,6.9,0,13.8,0,20.7c0,1.8,0,1.8,1.8,1.8
			c1.5,0,2.9,0,4.4,0c0.9,0,1.4,0.4,1.4,1.4c0,0.2,0,0.5,0,0.7c0,2.3-0.1,2.4-2.4,2.4c-1.3,0-1.4,0.1-1.4,1.4c0,2,0,4,0,6.1
			c0,1,0.4,1.4,1.3,1.3c0.9,0,1.7,0,2.6,0c2.7-0.1,4.8-2.2,4.9-4.9c0.1-4,0.1-8.1,0-12.1c-0.1-3.1-1.3-5.8-3.5-8
			c-2.1-2.1-4.3-4.2-6.4-6.4C170.9,247.3,171.2,246.4,172.8,245.9z"/>
		<path class="st2" d="M90.8,247.9c1.5,1.2,1.5,1.2,2.8-0.1c0.9-0.9,1.8-1.8,2.6-2.7c0.4,0.3,0.3,0.6,0.3,0.9c0,6.6,0,13.2,0,19.8
			c0,0.9-0.2,1.2-1.1,1.1c-1.9-0.1-3.8,0-5.7,0c-0.7,0-0.8,0.2-0.9,0.9c-0.1,2.9-0.1,3,2.8,2.9c0.8,0,1.1,0.2,1,1.1
			c-0.1,2.5,0,5,0,7.5c0,0.7-0.1,1.1-1,1c-1.1-0.1-2.2,0-3.3,0c-3-0.1-5.2-2.3-5.2-5.2c0-4-0.1-8.1,0-12.1c0.1-3.3,1.4-6.1,3.7-8.5
			c1.3-1.4,1.3-1.4,0.2-2.8C88.4,250.5,89.6,249.2,90.8,247.9z"/>
		<path class="st2" d="M172.8,245.9c-1.4,1.4-1.4,1.4,0.1,2.9c1.9,1.9,3.8,3.8,5.6,5.6c2.5,2.5,3.8,5.6,3.8,9.2c0,3.7,0,7.4,0,11.1
			c0,3.4-2.2,5.6-5.6,5.6c-1,0-2.1,0-3.1,0c-0.6,0-0.9-0.1-0.8-0.8c0-2.7,0-5.4,0-8.1c0-0.5,0.1-0.7,0.7-0.7c0.7,0,1.4-0.1,2,0
			c1,0.1,1.2-0.3,1.1-1.2c0-2.6,0-2.6-2.7-2.6c-1.4,0-2.8,0-4.2,0c-0.6,0-0.8-0.1-0.8-0.8c0-8,0-15.9,0-23.9
			C170.2,243.5,171.5,244.7,172.8,245.9z"/>
		<path class="st3" d="M165.1,250.8c0,5,0,10,0,15c0,1-0.3,1.2-1.2,1.1c-8.3-0.3-14.7,5.7-15.7,12.7c-0.1,0.6-0.4,0.7-0.9,0.6
			c-1.4,0-2.8,0-4.2,0c-0.7,0-0.9-0.2-0.9-0.9c0-2.7,0-5.4,0-8.1c0-1.8-0.6-2.4-2.4-2.4c-4.7,0-9.4,0-14.2,0c-1.8,0-2.4,0.6-2.4,2.4
			c0,2.7,0,5.4,0,8.1c0,0.7-0.2,1-0.9,0.9c-1.4-0.1-2.8,0-4.2,0c-0.6,0-0.8-0.1-0.9-0.8c-1.5-7.6-7.5-12.5-15.3-12.6
			c-1.5,0-1.5,0-1.5-1.6c0-9.9,0-19.7,0-29.6c0-0.9,0.2-1.2,1.1-1.2c6.9,0,13.8,0,20.7,0c0.8,0,1.1,0.2,1.1,1c0,4.5,0,9,0,13.6
			c0,1.9,0.6,2.6,2.5,2.6c4.7,0,9.4,0,14,0c1.8,0,2.4-0.6,2.4-2.4c0-4.6,0-9.1,0-13.7c0-0.8,0.2-1.1,1-1.1c6.9,0,13.9,0,20.8,0
			c0.8,0,1,0.2,1,1C165.1,240.7,165.1,245.8,165.1,250.8z"/>
		<path class="st4" d="M119.4,196.1c2,0.2,3.7-0.4,5.2-1.4c1.3-0.9,2.5-1.7,3.9-2.6c2.8-1.8,5.7-1.8,8.5,0c1.4,0.9,2.8,1.9,4.3,2.8
			c1.3,0.9,2.6,1.3,4.1,1.2c0.6,0,0.7,0.2,0.7,0.7c0,4.2,0,8.3,0,12.5c0,1.9-0.9,3.4-2.6,4.3c-3.1,1.7-6.3,3.2-9.5,4.8
			c-0.9,0.5-1.8,0.4-2.7-0.1c-2.9-1.5-5.9-2.9-8.8-4.4c-2-1-3-2.7-3-5C119.4,204.7,119.4,200.5,119.4,196.1z"/>
		<path class="st3" d="M132.4,182.1c3.4,0,6,0.7,8.5,2.1c2,1.1,4.1,2.3,6.1,3.4c0.9,0.4,1,1,1,1.9c-0.1,2.4-2.4,3.7-4.5,2.4
			c-1.4-0.9-2.8-1.9-4.3-2.8c-4.3-2.7-8.6-2.8-12.9,0c-1.4,0.9-2.7,1.8-4.1,2.7c-1.3,0.9-2.5,0.9-3.5,0.1c-1-0.7-1.5-2.2-1.2-3.4
			c0.1-0.3,0.2-0.4,0.4-0.5c3.3-1.7,6.4-4,10-5.1C129.6,182.3,131.2,182.1,132.4,182.1z"/>
		<path class="st2" d="M117.6,183.7c-0.2-4.7,3.3-9.2,7.9-9.8c4.8-0.6,9.7-0.6,14.5,0c4.6,0.6,8.1,5.1,7.9,9.8
			c-1.5-0.8-2.9-1.6-4.4-2.4c-2.9-1.7-6-2.7-9.3-2.9c-4.2-0.3-8.2,0.6-11.9,2.7C120.8,181.9,119.3,182.8,117.6,183.7z"/>
		<path class="st5" d="M127,241.2c0-1.9,0-3.8,0-5.7c0-0.6,0.1-0.9,0.8-0.9c3.3,0,6.6,0,9.9,0c0.5,0,0.8,0.1,0.8,0.7
			c0,4,0,7.9,0,11.9c0,0.6-0.2,0.7-0.8,0.7c-3.3,0-6.6,0-9.9,0c-0.7,0-0.8-0.3-0.8-0.9C127.1,245.1,127,243.1,127,241.2z"/>
		<path class="st4" d="M113.4,280.3c-2.7,0-5.4,0-8.1,0c-2.7,0-5.3,0-8,0c-0.6,0-0.8-0.1-0.8-0.7c0-2.7,0-5.4,0-8.1
			c0-0.4-0.1-0.7,0.5-0.7c2.6,0.1,5.2-0.3,7.7,0.3C109.3,272,113.1,276.1,113.4,280.3z"/>
		<path class="st4" d="M160.4,280.3c-2.5,0-5.1,0-7.6,0c-0.7,0-0.9-0.2-0.7-0.9c1.1-4.8,5.6-8.5,10.6-8.6c1.8-0.1,3.6,0,5.5,0
			c0.6,0,0.8,0.2,0.8,0.8c0,2.7,0,5.3,0,8c0,0.6-0.2,0.8-0.8,0.8C165.6,280.2,163,280.3,160.4,280.3z"/>
		<path class="st4" d="M141.3,221.5c0.9,1.9,0.9,3.7-1.2,4.9c-0.3,0.2-0.6,0.6-0.8,0.8c-1.2,1.2-2.2,2.8-3.6,3.4
			c-1.5,0.6-3.4,0.1-5.2,0.2c-0.6,0-1-0.2-1.3-0.6c-1.7-1.7-3.3-3.4-5-5c-0.5-0.5-0.7-0.9-0.5-1.6c0.3-0.7,0.4-1.4,0.6-2.1
			c0.5-0.4,1,0,1.4,0.2c1.3,0.6,2.5,1.3,3.8,1.8c2.5,1,4.9,0.9,7.2-0.2c1.1-0.5,2.2-1.1,3.3-1.6
			C140.4,221.4,140.8,221.1,141.3,221.5z"/>
		<path class="st5" d="M132.8,280.3c-1.6,0-3.3,0-4.9,0c-0.7,0-0.9-0.2-0.8-0.9c0-2,0-4,0-5.9c0-0.6,0.1-0.8,0.8-0.8
			c3.3,0,6.6,0,9.9,0c0.6,0,0.8,0.2,0.8,0.8c0,2,0,4,0,5.9c0,0.7-0.1,0.9-0.8,0.9C136,280.2,134.4,280.3,132.8,280.3z"/>
		<path class="st6" d="M141.3,221.5c-1.3,0.2-2.4,0.9-3.4,1.5c-3.4,1.9-6.8,1.9-10.2,0c-1.1-0.6-2.1-1.3-3.4-1.5
			c0.2-0.7,0.3-1.4,0.5-2.1c1.6,0.8,3.1,1.5,4.5,2.3c2.3,1.2,4.6,1.2,6.9,0c1.5-0.8,3-1.5,4.6-2.3
			C141,220.1,141.1,220.8,141.3,221.5z"/>
		<path class="st4" d="M115.6,200.4c0,0.9-0.1,1.8,0,2.7c0.1,1.1-0.4,1.1-1.2,1c-2-0.2-2.9-1.8-2.6-4.9c0.1-1.6,1.5-2.8,3.1-2.7
			c0.5,0,0.7,0.1,0.7,0.7C115.6,198.2,115.6,199.3,115.6,200.4z"/>
		<path class="st4" d="M149.9,200.3c0-1,0-2.1,0-3.1c0-0.6,0.2-0.7,0.7-0.7c1.8,0,3,1.2,3.1,2.9c0,0.6,0,1.3,0,1.9
			c-0.1,1.7-1.4,2.9-3.1,2.8c-0.5,0-0.7-0.2-0.7-0.7C149.9,202.4,149.9,201.3,149.9,200.3z"/>
		<path class="st7" d="M149.5,230.7c-2.9,0-5.5,0-8.4,0c1.1-1.1,2.1-2,3-2.9c0.4-0.4,0.6-0.1,0.9,0.1
			C146.5,228.8,147.8,229.7,149.5,230.7z"/>
		<path class="st7" d="M124.4,230.7c-2.9,0-5.5,0-8.4,0c1.7-1.1,3.2-2.1,4.7-3c0.4-0.2,0.6,0,0.8,0.2
			C122.4,228.8,123.3,229.6,124.4,230.7z"/>
		<path d="M155.9,238.4c1.1,0,2.3,0,3.4,0c1.3,0,2,0.8,2,2c0,1.7,0.1,3.3,0,5c-0.1,3.4-3,6.2-6.4,6.3c-2.3,0.1-4.5,0-6.8,0
			c-1.3,0-2-0.7-2.1-2.1c0-1.6,0-3.2,0-4.9c0.1-3.4,2.9-6.2,6.3-6.4C153.6,238.4,154.7,238.4,155.9,238.4
			C155.9,238.4,155.9,238.4,155.9,238.4z"/>
		<path d="M111.7,249.8c-2.2,0-4.4,0-6.6,0c-0.7,0-0.8-0.2-0.9-0.9c0-3-0.1-3,2.9-3c3.8,0,7.6,0,11.4,0c0.8,0,1,0.2,1,1
			c0,2.8,0,2.8-2.8,2.8C115,249.8,113.3,249.8,111.7,249.8z"/>
		<path d="M115.7,238.4c0.3,0,0.6,0,0.8,0c3.2,0,3.2,0,2.9,3.2c0,0.5-0.2,0.6-0.6,0.6c-2.1,0-4.3,0-6.4,0c-0.5,0-0.6-0.2-0.6-0.6
			c-0.3-3.2-0.3-3.2,2.9-3.2C115,238.4,115.4,238.4,115.7,238.4z"/>
		<path d="M106.2,238.4c1.8,0,1.8,0,1.8,1.9c0,1.9,0,1.9-2,1.9c-1.8,0-1.8,0-1.8-1.9C104.2,238.4,104.2,238.4,106.2,238.4z"/>
		<path d="M128.9,208.9c0.9,0,1.8,0,2.6,0.6c0.8,0.6,1.9,0.4,2.8-0.2c1.2-0.9,2.6-0.3,3.9-0.4c0.4,0,0.2,0.5,0.1,0.8
			c-0.6,2.3-2.2,3.4-4.4,3.8c-2.8,0.6-5.8-0.8-6.7-3.1c-0.5-1.4-0.4-1.5,1-1.5C128.5,208.9,128.7,208.9,128.9,208.9z"/>
		<path d="M127,198.3c0,2,0,2-1.9,2c-1.9,0-1.9,0-1.9-1.8c0-2,0-2,1.9-2C127,196.5,127,196.5,127,198.3z"/>
		<path d="M138.5,198.3c0-1.8,0-1.8,1.9-1.8c1.9,0,1.9,0,1.9,1.9c0,1.9,0,1.9-1.9,1.9C138.5,200.3,138.5,200.3,138.5,198.3z"/>
		<path class="st8" d="M152.7,247.9c-0.1,0-0.2,0-0.2,0c-2.6,0-2.6,0-2.6-1c0-3.4,0.7-4.7,3-4.7c1.3,0,2.5,0,3.8,0
			c0.7,0,0.8,0.2,0.8,0.9C157.7,246.7,157,248.2,152.7,247.9z"/>
	</g>
	<rect x="48.8" y="40.4" class="st9" width="821.8" height="1084.4"/>
</g>
</svg>
