<svg xmlns="http://www.w3.org/2000/svg" width="320.16" height="249.828" viewBox="0 0 320.16 249.828">
  <g id="Grupo_638506" data-name="Grupo 638506" transform="translate(-1017.501 -3995)">
    <g id="Grupo_593753" data-name="Grupo 593753" transform="translate(1336.513 3765.465)">
      <g id="Grupo_593752" data-name="Grupo 593752" transform="translate(-302.27 229.535)">
        <g id="Grupo_593750" data-name="Grupo 593750" transform="translate(23.088)">
          <line id="Línea_1944" data-name="Línea 1944" y2="113.994" fill="none" stroke="#000" stroke-miterlimit="10" stroke-width="1.407"/>
          <line id="Línea_1945" data-name="Línea 1945" y2="113.994" transform="translate(4.897)" fill="none" stroke="#000" stroke-miterlimit="10" stroke-width="1.407"/>
          <line id="Línea_1946" data-name="Línea 1946" y2="98.486" transform="translate(13.059)" fill="none" stroke="#000" stroke-miterlimit="10" stroke-width="3.753"/>
          <line id="Línea_1947" data-name="Línea 1947" y2="98.486" transform="translate(94.677)" fill="none" stroke="#000" stroke-miterlimit="10" stroke-width="3.753"/>
          <line id="Línea_1948" data-name="Línea 1948" y2="98.486" transform="translate(22.037)" fill="none" stroke="#000" stroke-miterlimit="10" stroke-width="2.815"/>
          <line id="Línea_1949" data-name="Línea 1949" y2="98.486" transform="translate(106.104)" fill="none" stroke="#000" stroke-miterlimit="10" stroke-width="2.815"/>
          <line id="Línea_1950" data-name="Línea 1950" y2="98.486" transform="translate(77.537)" fill="none" stroke="#000" stroke-miterlimit="10" stroke-width="2.815"/>
          <line id="Línea_1951" data-name="Línea 1951" y2="98.486" transform="translate(34.008)" fill="none" stroke="#000" stroke-miterlimit="10" stroke-width="1.407"/>
          <line id="Línea_1952" data-name="Línea 1952" y2="98.486" transform="translate(41.897)" fill="none" stroke="#000" stroke-miterlimit="10" stroke-width="1.407"/>
          <line id="Línea_1953" data-name="Línea 1953" y2="98.486" transform="translate(115.626)" fill="none" stroke="#000" stroke-miterlimit="10" stroke-width="1.407"/>
          <line id="Línea_1954" data-name="Línea 1954" y2="113.994" transform="translate(120.795)" fill="none" stroke="#000" stroke-miterlimit="10" stroke-width="1.407"/>
          <line id="Línea_1955" data-name="Línea 1955" y2="113.994" transform="translate(126.236)" fill="none" stroke="#000" stroke-miterlimit="10" stroke-width="1.407"/>
          <line id="Línea_1956" data-name="Línea 1956" y2="98.5" transform="translate(241.59)" fill="none" stroke="#000" stroke-miterlimit="10" stroke-width="1.407"/>
          <line id="Línea_1957" data-name="Línea 1957" y2="113.994" transform="translate(247.031)" fill="none" stroke="#000" stroke-miterlimit="10" stroke-width="1.407"/>
          <line id="Línea_1958" data-name="Línea 1958" y2="98.486" transform="translate(131.677)" fill="none" stroke="#000" stroke-miterlimit="10" stroke-width="1.407"/>
          <line id="Línea_1959" data-name="Línea 1959" y2="98.486" transform="translate(143.92)" fill="none" stroke="#000" stroke-miterlimit="10" stroke-width="1.407"/>
          <line id="Línea_1960" data-name="Línea 1960" y2="98.486" transform="translate(149.906)" fill="none" stroke="#000" stroke-miterlimit="10" stroke-width="1.407"/>
          <line id="Línea_1961" data-name="Línea 1961" y2="98.486" transform="translate(160.244)" fill="none" stroke="#000" stroke-miterlimit="10" stroke-width="1.407"/>
          <line id="Línea_1962" data-name="Línea 1962" y2="98.486" transform="translate(179.832)" fill="none" stroke="#000" stroke-miterlimit="10" stroke-width="1.407"/>
          <line id="Línea_1963" data-name="Línea 1963" y2="98.486" transform="translate(186.634)" fill="none" stroke="#000" stroke-miterlimit="10" stroke-width="1.407"/>
          <line id="Línea_1964" data-name="Línea 1964" y2="98.486" transform="translate(191.803)" fill="none" stroke="#000" stroke-miterlimit="10" stroke-width="1.407"/>
          <line id="Línea_1965" data-name="Línea 1965" y2="98.486" transform="translate(223.09)" fill="none" stroke="#000" stroke-miterlimit="10" stroke-width="1.407"/>
          <line id="Línea_1966" data-name="Línea 1966" y2="98.486" transform="translate(206.222)" fill="none" stroke="#000" stroke-miterlimit="10" stroke-width="2.815"/>
          <line id="Línea_1967" data-name="Línea 1967" y2="98.486" transform="translate(214.112)" fill="none" stroke="#000" stroke-miterlimit="10" stroke-width="2.815"/>
          <line id="Línea_1968" data-name="Línea 1968" y2="98.486" transform="translate(170.854)" fill="none" stroke="#000" stroke-miterlimit="10" stroke-width="4.691"/>
          <line id="Línea_1969" data-name="Línea 1969" y2="98.486" transform="translate(231.524)" fill="none" stroke="#000" stroke-miterlimit="10" stroke-width="4.691"/>
          <line id="Línea_1970" data-name="Línea 1970" y2="98.486" transform="translate(47.339)" fill="none" stroke="#000" stroke-miterlimit="10" stroke-width="1.407"/>
          <line id="Línea_1971" data-name="Línea 1971" y2="98.486" transform="translate(83.795)" fill="none" stroke="#000" stroke-miterlimit="10" stroke-width="1.407"/>
          <line id="Línea_1972" data-name="Línea 1972" y2="98.486" transform="translate(68.287)" fill="none" stroke="#000" stroke-miterlimit="10" stroke-width="1.407"/>
          <line id="Línea_1973" data-name="Línea 1973" y2="98.486" transform="translate(57.405)" fill="none" stroke="#000" stroke-miterlimit="10" stroke-width="3.753"/>
        </g>
        <g id="Grupo_593751" data-name="Grupo 593751" transform="translate(0 91.484)">
          <path id="Trazado_373250" data-name="Trazado 373250" d="M7.65.33c3.72,0,6.63-2.28,6.63-5.67,0-2.37-1.5-4.08-3.93-5.04v-.09a4.954,4.954,0,0,0,3.21-4.56c0-2.43-1.89-4.8-5.67-4.8-3.42,0-6.03,2.1-6.03,5.19a4.83,4.83,0,0,0,3.09,4.38l.03.09C2.58-9.15,1.11-7.41,1.11-4.95,1.11-2.1,3.57.33,7.65.33Zm.06-1.92a3.606,3.606,0,0,1-3.9-3.72c0-1.86,1.23-3.36,3.51-4.02,2.64.75,4.29,1.89,4.29,4.26C11.61-3.06,10.08-1.59,7.71-1.59Zm.03-16.35a3.031,3.031,0,0,1,3.3,3.18c0,1.77-1.29,2.97-2.97,3.54-2.25-.6-3.72-1.65-3.72-3.6A3.1,3.1,0,0,1,7.74-17.94Z" transform="translate(-5 32)"/>
          <path id="Trazado_373251" data-name="Trazado 373251" d="M12,0V-5.31h2.73V-7.38H12V-19.5H9.15L.45-7.05v1.74H9.51V0ZM3.12-7.38v-.06l4.77-6.63c.54-.9,1.02-1.74,1.62-2.88H9.6q-.09,1.53-.09,3.06v6.51ZM29.49,0h2.55V-19.5H29.79l-4.26,2.28.51,2.01,3.39-1.83h.06ZM50.13,0V-5.31h2.73V-7.38H50.13V-19.5H47.28L38.58-7.05v1.74h9.06V0ZM41.25-7.38v-.06l4.77-6.63c.54-.9,1.02-1.74,1.62-2.88h.09q-.09,1.53-.09,3.06v6.51ZM67.65,0V-2.19H58.89v-.06l1.56-1.44c4.11-3.96,6.72-6.87,6.72-10.47,0-2.79-1.77-5.67-5.97-5.67a8.556,8.556,0,0,0-5.52,1.98l.84,1.86a6.641,6.641,0,0,1,4.14-1.65c2.91,0,3.87,1.83,3.87,3.81-.03,2.94-2.28,5.46-7.26,10.2L55.2-1.62V0Zm3.18-.99A9.912,9.912,0,0,0,75.9.33c4.68,0,7.11-2.73,7.11-5.85a5.08,5.08,0,0,0-4.35-5.01v-.06c2.4-.87,3.6-2.58,3.6-4.59,0-2.37-1.74-4.65-5.58-4.65a9.27,9.27,0,0,0-5.1,1.5l.69,1.92a7.162,7.162,0,0,1,3.9-1.29c2.43,0,3.42,1.38,3.42,2.94,0,2.31-2.43,3.3-4.35,3.3H73.77v1.98h1.47c2.55,0,5.01,1.17,5.04,3.9.03,1.62-1.02,3.78-4.41,3.78a8.824,8.824,0,0,1-4.32-1.23ZM87-19.5v2.19h9.54v.06L88.08,0h2.73L99.3-17.76V-19.5Z" transform="translate(28.131 32)"/>
          <path id="Trazado_373252" data-name="Trazado 373252" d="M7.86-19.83c-3.96,0-6.78,3.6-6.78,10.14C1.14-3.24,3.72.33,7.53.33c4.32,0,6.78-3.66,6.78-10.29C14.31-16.17,11.97-19.83,7.86-19.83Zm-.15,2.04c2.73,0,3.96,3.15,3.96,7.95,0,4.98-1.29,8.13-3.99,8.13-2.4,0-3.96-2.88-3.96-7.95C3.72-14.97,5.4-17.79,7.71-17.79Zm18.84-2.04c-3.96,0-6.78,3.6-6.78,10.14C19.83-3.24,22.41.33,26.22.33,30.54.33,33-3.33,33-9.96,33-16.17,30.66-19.83,26.55-19.83Zm-.15,2.04c2.73,0,3.96,3.15,3.96,7.95,0,4.98-1.29,8.13-3.99,8.13-2.4,0-3.96-2.88-3.96-7.95C22.41-14.97,24.09-17.79,26.4-17.79Zm18.84-2.04c-3.96,0-6.78,3.6-6.78,10.14C38.52-3.24,41.1.33,44.91.33c4.32,0,6.78-3.66,6.78-10.29C51.69-16.17,49.35-19.83,45.24-19.83Zm-.15,2.04c2.73,0,3.96,3.15,3.96,7.95,0,4.98-1.29,8.13-3.99,8.13-2.4,0-3.96-2.88-3.96-7.95C41.1-14.97,42.78-17.79,45.09-17.79ZM63.15,0H65.7V-19.5H63.45l-4.26,2.28.51,2.01,3.39-1.83h.06Zm24.6-19.5H78.42l-1.26,9.36a20.173,20.173,0,0,1,2.7-.21c3.9,0,5.58,1.8,5.61,4.32,0,2.61-2.13,4.23-4.62,4.23a8.732,8.732,0,0,1-4.17-1.08L76.02-.87A9.546,9.546,0,0,0,80.88.33c4.23,0,7.26-2.85,7.26-6.66a5.558,5.558,0,0,0-2.79-5.01,8.242,8.242,0,0,0-4.2-1.05,10.426,10.426,0,0,0-1.59.12l.75-5.01h7.44ZM94.71-.99A9.912,9.912,0,0,0,99.78.33c4.68,0,7.11-2.73,7.11-5.85a5.08,5.08,0,0,0-4.35-5.01v-.06c2.4-.87,3.6-2.58,3.6-4.59,0-2.37-1.74-4.65-5.58-4.65a9.27,9.27,0,0,0-5.1,1.5l.69,1.92a7.162,7.162,0,0,1,3.9-1.29c2.43,0,3.42,1.38,3.42,2.94,0,2.31-2.43,3.3-4.35,3.3H97.65v1.98h1.47c2.55,0,5.01,1.17,5.04,3.9.03,1.62-1.02,3.78-4.41,3.78a8.824,8.824,0,0,1-4.32-1.23Z" transform="translate(155.308 32)"/>
        </g>
      </g>
    </g>
    <g id="Grupo_593758" data-name="Grupo 593758">
      <g id="Grupo_593754" data-name="Grupo 593754">
        <line id="Línea_1974" data-name="Línea 1974" y2="12" transform="translate(1025.5 4121.5)" fill="none" stroke="#f11" stroke-width="1"/>
        <line id="Línea_1975" data-name="Línea 1975" y2="12" transform="translate(1077.5 4121.5)" fill="none" stroke="#f11" stroke-width="1"/>
        <line id="Línea_1977" data-name="Línea 1977" y2="14" transform="translate(1051.5 4133.5)" fill="none" stroke="#f11" stroke-width="1"/>
        <line id="Línea_1976" data-name="Línea 1976" x2="52" transform="translate(1025.5 4133.5)" fill="none" stroke="#f11" stroke-linecap="round" stroke-width="1"/>
      </g>
      <g id="Grupo_593755" data-name="Grupo 593755" transform="translate(59)">
        <line id="Línea_1974-2" data-name="Línea 1974" y2="12" transform="translate(1025.5 4121.5)" fill="none" stroke="#f11" stroke-width="1"/>
        <line id="Línea_1975-2" data-name="Línea 1975" y2="12" transform="translate(1112.053 4121.5)" fill="none" stroke="#f11" stroke-width="1"/>
        <line id="Línea_1977-2" data-name="Línea 1977" y2="66" transform="translate(1068.777 4133.5)" fill="none" stroke="#f11" stroke-width="1"/>
        <line id="Línea_1976-2" data-name="Línea 1976" x2="86.553" transform="translate(1025.5 4133.5)" fill="none" stroke="#f11" stroke-linecap="round" stroke-width="1"/>
      </g>
      <g id="Grupo_593756" data-name="Grupo 593756" transform="translate(164)">
        <line id="Línea_1974-3" data-name="Línea 1974" y2="12" transform="translate(1025.5 4121.5)" fill="none" stroke="#f11" stroke-width="1"/>
        <line id="Línea_1975-3" data-name="Línea 1975" y2="12" transform="translate(1115.533 4121.5)" fill="none" stroke="#f11" stroke-width="1"/>
        <line id="Línea_1977-3" data-name="Línea 1977" y2="14" transform="translate(1070.517 4133.5)" fill="none" stroke="#f11" stroke-width="1"/>
        <line id="Línea_1976-3" data-name="Línea 1976" x2="90.033" transform="translate(1025.5 4133.5)" fill="none" stroke="#f11" stroke-linecap="round" stroke-width="1"/>
      </g>
      <g id="Grupo_593757" data-name="Grupo 593757" transform="translate(260)">
        <line id="Línea_1974-4" data-name="Línea 1974" y2="12" transform="translate(1025.5 4121.5)" fill="none" stroke="#f11" stroke-width="1"/>
        <line id="Línea_1975-4" data-name="Línea 1975" y2="12" transform="translate(1044.362 4121.5)" fill="none" stroke="#f11" stroke-width="1"/>
        <line id="Línea_1977-4" data-name="Línea 1977" y2="87" transform="translate(1034.931 4133.5)" fill="none" stroke="#f11" stroke-width="1"/>
        <line id="Línea_1976-4" data-name="Línea 1976" x2="18.862" transform="translate(1025.5 4133.5)" fill="none" stroke="#f11" stroke-linecap="round" stroke-width="1"/>
      </g>
    </g>
    <path id="Trazado_373249" data-name="Trazado 373249" d="M12.063,10.992V15H9.719V3.625h4.438a5.134,5.134,0,0,1,2.254.469,3.454,3.454,0,0,1,1.5,1.332,3.714,3.714,0,0,1,.523,1.965,3.266,3.266,0,0,1-1.145,2.637,4.767,4.767,0,0,1-3.168.965Zm0-1.9h2.094a2.059,2.059,0,0,0,1.418-.437,1.591,1.591,0,0,0,.488-1.25,1.876,1.876,0,0,0-.492-1.352,1.839,1.839,0,0,0-1.359-.531H12.063Zm12.578-.43a6.134,6.134,0,0,0-.812-.062,1.654,1.654,0,0,0-1.68.867V15H19.891V6.547h2.133l.063,1.008a2.092,2.092,0,0,1,1.883-1.164,2.366,2.366,0,0,1,.7.1Zm4.828,6.492a4.15,4.15,0,0,1-3.027-1.141,4.054,4.054,0,0,1-1.168-3.039v-.219a5.106,5.106,0,0,1,.492-2.277A3.612,3.612,0,0,1,27.16,6.934a3.914,3.914,0,0,1,2.059-.543,3.508,3.508,0,0,1,2.73,1.094,4.444,4.444,0,0,1,1,3.1v.922H27.563a2.1,2.1,0,0,0,.66,1.328,2,2,0,0,0,1.395.5,2.437,2.437,0,0,0,2.039-.945l1.109,1.242a3.389,3.389,0,0,1-1.375,1.121A4.511,4.511,0,0,1,29.469,15.156Zm-.258-6.945a1.411,1.411,0,0,0-1.09.455,2.357,2.357,0,0,0-.535,1.3h3.141V9.788a1.681,1.681,0,0,0-.406-1.165A1.456,1.456,0,0,0,29.211,8.211ZM34.773,15V8.2H33.516V6.547h1.258V6.156a3.17,3.17,0,0,1,.98-2.457,3.945,3.945,0,0,1,2.723-.863,9.031,9.031,0,0,1,2.563.461l-.328,1.867a10,10,0,0,0-1.187-.293,5.835,5.835,0,0,0-.906-.066q-1.578,0-1.578,1.4v.344H38.7V8.2H37.039V15Zm7.32,0H39.828V6.547h2.266Zm4.258-8.453v8.914a3.024,3.024,0,0,1-.742,2.176,2.821,2.821,0,0,1-2.141.777,4.591,4.591,0,0,1-1.117-.133V16.492a4.238,4.238,0,0,0,.711.07q1.023,0,1.023-1.086V6.547ZM43.906,4.359a1.112,1.112,0,0,1,.34-.836,1.47,1.47,0,0,1,1.852,0,1.112,1.112,0,0,1,.34.836,1.108,1.108,0,0,1-.348.844,1.448,1.448,0,0,1-1.836,0A1.108,1.108,0,0,1,43.906,4.359ZM47.766,10.7a5.013,5.013,0,0,1,.484-2.242A3.546,3.546,0,0,1,49.645,6.93a4.069,4.069,0,0,1,2.113-.539,3.849,3.849,0,0,1,2.793,1.047,4.2,4.2,0,0,1,1.207,2.844l.016.578a4.418,4.418,0,0,1-1.086,3.121,4.209,4.209,0,0,1-5.832,0,4.5,4.5,0,0,1-1.09-3.187Zm2.258.16a3.16,3.16,0,0,0,.453,1.843,1.628,1.628,0,0,0,2.578.008,3.457,3.457,0,0,0,.461-2.015,3.128,3.128,0,0,0-.461-1.831,1.5,1.5,0,0,0-1.3-.649,1.474,1.474,0,0,0-1.281.646A3.516,3.516,0,0,0,50.023,10.856ZM10.539,34.563A4.068,4.068,0,0,1,8.75,35.738a7.492,7.492,0,0,1-2.562.418,5.076,5.076,0,0,1-2.59-.645,4.3,4.3,0,0,1-1.719-1.871,6.585,6.585,0,0,1-.621-2.883v-.773a6.994,6.994,0,0,1,.574-2.949,4.248,4.248,0,0,1,1.656-1.906,4.771,4.771,0,0,1,2.535-.66,4.751,4.751,0,0,1,3.164.965,4.123,4.123,0,0,1,1.352,2.809H8.258a2.268,2.268,0,0,0-.691-1.43,2.208,2.208,0,0,0-1.473-.453,2.078,2.078,0,0,0-1.82.9,4.724,4.724,0,0,0-.633,2.672v.727a4.5,4.5,0,0,0,.68,2.7,2.327,2.327,0,0,0,1.992.914A2.6,2.6,0,0,0,8.2,33.711V31.75H6.063V30.023h4.477Zm7.8-1.547A1.2,1.2,0,0,0,17.867,32a6.148,6.148,0,0,0-1.687-.75,11.963,11.963,0,0,1-1.93-.777,3.153,3.153,0,0,1-1.937-2.82A2.747,2.747,0,0,1,12.832,26a3.389,3.389,0,0,1,1.492-1.129,5.616,5.616,0,0,1,2.184-.406,5.112,5.112,0,0,1,2.172.441,3.458,3.458,0,0,1,1.48,1.246,3.261,3.261,0,0,1,.527,1.828H18.344a1.534,1.534,0,0,0-.492-1.215,2.023,2.023,0,0,0-1.383-.434,2.162,2.162,0,0,0-1.336.363,1.146,1.146,0,0,0-.477.957,1.1,1.1,0,0,0,.559.93,6.311,6.311,0,0,0,1.645.7,7.106,7.106,0,0,1,2.914,1.492A2.972,2.972,0,0,1,20.688,33a2.737,2.737,0,0,1-1.117,2.316,4.891,4.891,0,0,1-3.008.84,5.808,5.808,0,0,1-2.391-.48,3.783,3.783,0,0,1-1.645-1.316,3.371,3.371,0,0,1-.566-1.937h2.352q0,1.883,2.25,1.883a2.189,2.189,0,0,0,1.3-.34A1.106,1.106,0,0,0,18.336,33.016ZM27.516,36H25.258V27.285l-2.7.832V26.3l4.711-1.687h.242ZM42.9,31.852a5.07,5.07,0,0,1-.887,3.129,2.843,2.843,0,0,1-2.395,1.176,2.633,2.633,0,0,1-2.07-.891V39.25H35.289v-11.7h2.094l.078.828a2.654,2.654,0,0,1,2.141-.984,2.862,2.862,0,0,1,2.43,1.156,5.207,5.207,0,0,1,.867,3.188Zm-2.258-.172a3.345,3.345,0,0,0-.418-1.826,1.36,1.36,0,0,0-1.215-.643,1.478,1.478,0,0,0-1.461.815V33.5a1.5,1.5,0,0,0,1.477.839Q40.641,34.336,40.641,31.679ZM49.2,36a2.507,2.507,0,0,1-.227-.758,2.732,2.732,0,0,1-2.133.914,3,3,0,0,1-2.059-.719,2.312,2.312,0,0,1-.816-1.812,2.389,2.389,0,0,1,1-2.062,4.915,4.915,0,0,1,2.879-.727h1.039v-.484a1.393,1.393,0,0,0-.3-.937,1.183,1.183,0,0,0-.949-.352,1.345,1.345,0,0,0-.895.273.929.929,0,0,0-.324.75H44.148a2.268,2.268,0,0,1,.453-1.359,3,3,0,0,1,1.281-.98,4.669,4.669,0,0,1,1.859-.355,3.689,3.689,0,0,1,2.48.785,2.747,2.747,0,0,1,.918,2.207v3.664a4.041,4.041,0,0,0,.336,1.82V36Zm-1.867-1.57a1.945,1.945,0,0,0,.922-.223,1.462,1.462,0,0,0,.625-.6V32.156h-.844q-1.7,0-1.8,1.172l-.008.133a.9.9,0,0,0,.3.7A1.153,1.153,0,0,0,47.328,34.43ZM55.258,36H52.992V27.547h2.266Zm-2.4-10.641a1.112,1.112,0,0,1,.34-.836,1.465,1.465,0,0,1,1.848,0,1.193,1.193,0,0,1,0,1.68,1.448,1.448,0,0,1-1.836,0A1.108,1.108,0,0,1,52.859,25.359Zm8.836,8.3a.727.727,0,0,0-.41-.652,4.659,4.659,0,0,0-1.316-.426q-3.016-.633-3.016-2.562a2.323,2.323,0,0,1,.934-1.879,3.766,3.766,0,0,1,2.441-.754,4.053,4.053,0,0,1,2.574.758,2.388,2.388,0,0,1,.965,1.969H61.609a1.092,1.092,0,0,0-.312-.8A1.322,1.322,0,0,0,60.32,29a1.351,1.351,0,0,0-.883.258.814.814,0,0,0-.312.656.7.7,0,0,0,.355.605,3.657,3.657,0,0,0,1.2.4A9.8,9.8,0,0,1,62.1,31.3a2.336,2.336,0,0,1,1.789,2.273,2.205,2.205,0,0,1-.992,1.871,4.28,4.28,0,0,1-2.562.715,4.47,4.47,0,0,1-1.887-.379,3.166,3.166,0,0,1-1.293-1.039,2.414,2.414,0,0,1-.469-1.426h2.141a1.179,1.179,0,0,0,.445.922,1.766,1.766,0,0,0,1.109.32,1.635,1.635,0,0,0,.98-.246A.766.766,0,0,0,61.7,33.664Z" transform="translate(1016.243 4148.5)" fill="#12263f"/>
    <path id="Trazado_373246" data-name="Trazado 373246" d="M13.645,11.211A4.025,4.025,0,0,1,12.289,14.1a4.76,4.76,0,0,1-3.223,1.055,4.28,4.28,0,0,1-3.441-1.473A6.038,6.038,0,0,1,4.371,9.641v-.7a6.819,6.819,0,0,1,.578-2.891A4.332,4.332,0,0,1,6.6,4.137a4.629,4.629,0,0,1,2.5-.668A4.637,4.637,0,0,1,12.27,4.523,4.326,4.326,0,0,1,13.66,7.484H11.316a2.376,2.376,0,0,0-.613-1.6,2.271,2.271,0,0,0-1.605-.5,1.991,1.991,0,0,0-1.754.84,4.707,4.707,0,0,0-.6,2.605V9.7a5.038,5.038,0,0,0,.559,2.7,1.954,1.954,0,0,0,1.762.852,2.314,2.314,0,0,0,1.621-.5,2.241,2.241,0,0,0,.613-1.535Zm1.039-.516a5.013,5.013,0,0,1,.484-2.242A3.546,3.546,0,0,1,16.563,6.93a4.069,4.069,0,0,1,2.113-.539,3.849,3.849,0,0,1,2.793,1.047,4.2,4.2,0,0,1,1.207,2.844l.016.578a4.418,4.418,0,0,1-1.086,3.121,3.775,3.775,0,0,1-2.914,1.176,3.793,3.793,0,0,1-2.918-1.172,4.5,4.5,0,0,1-1.09-3.187Zm2.258.16a3.16,3.16,0,0,0,.453,1.843,1.628,1.628,0,0,0,2.578.008,3.457,3.457,0,0,0,.461-2.015,3.128,3.128,0,0,0-.461-1.831,1.5,1.5,0,0,0-1.3-.649,1.474,1.474,0,0,0-1.281.646A3.516,3.516,0,0,0,16.941,10.856ZM19.121,3h2.461L19.418,5.422H17.582Zm4.609,7.711a5.094,5.094,0,0,1,.887-3.148,2.877,2.877,0,0,1,2.426-1.172,2.589,2.589,0,0,1,2.039.922V3h2.266V15H29.309l-.109-.9a2.657,2.657,0,0,1-2.172,1.055,2.869,2.869,0,0,1-2.395-1.176A5.258,5.258,0,0,1,23.73,10.711Zm2.258.161A3.355,3.355,0,0,0,26.4,12.7a1.348,1.348,0,0,0,1.2.636,1.51,1.51,0,0,0,1.477-.887V9.1a1.489,1.489,0,0,0-1.461-.887Q25.988,8.211,25.988,10.872ZM35.48,15H33.215V6.547H35.48Zm-2.4-10.641a1.112,1.112,0,0,1,.34-.836,1.465,1.465,0,0,1,1.848,0,1.105,1.105,0,0,1,.344.836,1.108,1.108,0,0,1-.348.844,1.448,1.448,0,0,1-1.836,0A1.108,1.108,0,0,1,33.082,4.359Zm3.93,6.352a4.954,4.954,0,0,1,.926-3.133,3,3,0,0,1,2.5-1.187,2.631,2.631,0,0,1,2.164.953l.094-.8h2.047v8.172a3.613,3.613,0,0,1-.5,1.93,3.236,3.236,0,0,1-1.418,1.25,4.985,4.985,0,0,1-2.141.43,4.635,4.635,0,0,1-1.812-.371A3.217,3.217,0,0,1,37.527,17l1-1.375a2.645,2.645,0,0,0,2.047.945,1.936,1.936,0,0,0,1.4-.48,1.8,1.8,0,0,0,.5-1.363v-.453a2.612,2.612,0,0,1-2.055.883,2.992,2.992,0,0,1-2.465-1.191,4.953,4.953,0,0,1-.941-3.16Zm2.258.161a3.1,3.1,0,0,0,.461,1.809A1.465,1.465,0,0,0,41,13.336a1.567,1.567,0,0,0,1.477-.777V8.988a1.563,1.563,0,0,0-1.461-.777,1.474,1.474,0,0,0-1.277.667A3.5,3.5,0,0,0,39.27,10.872Zm6.852-.176a5.013,5.013,0,0,1,.484-2.242A3.546,3.546,0,0,1,48,6.93a4.069,4.069,0,0,1,2.113-.539,3.849,3.849,0,0,1,2.793,1.047,4.2,4.2,0,0,1,1.207,2.844l.016.578a4.418,4.418,0,0,1-1.086,3.121,4.209,4.209,0,0,1-5.832,0,4.5,4.5,0,0,1-1.09-3.187Zm2.258.16a3.16,3.16,0,0,0,.453,1.843,1.628,1.628,0,0,0,2.578.008,3.457,3.457,0,0,0,.461-2.015A3.128,3.128,0,0,0,51.41,8.86a1.5,1.5,0,0,0-1.3-.649,1.474,1.474,0,0,0-1.281.646A3.516,3.516,0,0,0,48.379,10.856Zm10.773-.145a5.094,5.094,0,0,1,.887-3.148,2.877,2.877,0,0,1,2.426-1.172,2.589,2.589,0,0,1,2.039.922V3H66.77V15H64.73l-.109-.9a2.657,2.657,0,0,1-2.172,1.055,2.869,2.869,0,0,1-2.395-1.176A5.258,5.258,0,0,1,59.152,10.711Zm2.258.161a3.355,3.355,0,0,0,.414,1.829,1.348,1.348,0,0,0,1.2.636,1.51,1.51,0,0,0,1.477-.887V9.1a1.489,1.489,0,0,0-1.461-.887Q61.41,8.211,61.41,10.872Zm11,4.285a4.15,4.15,0,0,1-3.027-1.141,4.054,4.054,0,0,1-1.168-3.039v-.219a5.106,5.106,0,0,1,.492-2.277A3.612,3.612,0,0,1,70.1,6.934a3.914,3.914,0,0,1,2.059-.543,3.508,3.508,0,0,1,2.73,1.094,4.444,4.444,0,0,1,1,3.1v.922H70.5a2.1,2.1,0,0,0,.66,1.328,2,2,0,0,0,1.395.5,2.437,2.437,0,0,0,2.039-.945l1.109,1.242a3.389,3.389,0,0,1-1.375,1.121A4.511,4.511,0,0,1,72.41,15.156Zm-.258-6.945a1.411,1.411,0,0,0-1.09.455,2.357,2.357,0,0,0-.535,1.3h3.141V9.788a1.681,1.681,0,0,0-.406-1.165A1.456,1.456,0,0,0,72.152,8.211ZM16.406,31.852a5.07,5.07,0,0,1-.887,3.129,2.843,2.843,0,0,1-2.395,1.176,2.633,2.633,0,0,1-2.07-.891V39.25H8.8v-11.7h2.094l.078.828a2.654,2.654,0,0,1,2.141-.984,2.862,2.862,0,0,1,2.43,1.156,5.207,5.207,0,0,1,.867,3.188Zm-2.258-.172a3.345,3.345,0,0,0-.418-1.826,1.36,1.36,0,0,0-1.215-.643,1.478,1.478,0,0,0-1.461.815V33.5a1.5,1.5,0,0,0,1.477.839Q14.148,34.336,14.148,31.679Zm8.406-2.015a6.134,6.134,0,0,0-.812-.062,1.654,1.654,0,0,0-1.68.867V36H17.8V27.547h2.133L20,28.555a2.092,2.092,0,0,1,1.883-1.164,2.366,2.366,0,0,1,.7.1Zm.453,2.031a5.013,5.013,0,0,1,.484-2.242,3.546,3.546,0,0,1,1.395-1.523A4.069,4.069,0,0,1,27,27.391a3.849,3.849,0,0,1,2.793,1.047A4.2,4.2,0,0,1,31,31.281l.016.578A4.418,4.418,0,0,1,29.93,34.98a3.775,3.775,0,0,1-2.914,1.176A3.793,3.793,0,0,1,24.1,34.984a4.5,4.5,0,0,1-1.09-3.187Zm2.258.16a3.16,3.16,0,0,0,.453,1.843,1.628,1.628,0,0,0,2.578.008,3.457,3.457,0,0,0,.461-2.015A3.128,3.128,0,0,0,28.3,29.86a1.5,1.5,0,0,0-1.3-.649,1.474,1.474,0,0,0-1.281.646A3.516,3.516,0,0,0,25.266,31.856Zm6.789-.145a5.094,5.094,0,0,1,.887-3.148,2.877,2.877,0,0,1,2.426-1.172,2.589,2.589,0,0,1,2.039.922V24h2.266V36H37.633l-.109-.9a2.657,2.657,0,0,1-2.172,1.055,2.869,2.869,0,0,1-2.395-1.176A5.258,5.258,0,0,1,32.055,31.711Zm2.258.161a3.355,3.355,0,0,0,.414,1.829,1.348,1.348,0,0,0,1.2.636,1.51,1.51,0,0,0,1.477-.887V30.1a1.489,1.489,0,0,0-1.461-.887Q34.312,29.211,34.313,31.872Zm12.172,3.269a2.831,2.831,0,0,1-2.312,1.016,2.67,2.67,0,0,1-2.074-.781,3.335,3.335,0,0,1-.73-2.289V27.547h2.258v5.467q0,1.322,1.2,1.322a1.63,1.63,0,0,0,1.578-.8V27.547h2.266V36H46.547Zm7.406-.8a1.481,1.481,0,0,0,1.016-.344,1.2,1.2,0,0,0,.406-.914H57.43a2.9,2.9,0,0,1-.469,1.574A3.093,3.093,0,0,1,55.7,35.762a3.949,3.949,0,0,1-1.77.395A3.67,3.67,0,0,1,51.07,35a4.56,4.56,0,0,1-1.047-3.184v-.148a4.508,4.508,0,0,1,1.039-3.117,3.627,3.627,0,0,1,2.852-1.164,3.555,3.555,0,0,1,2.543.9,3.2,3.2,0,0,1,.973,2.4H55.313a1.551,1.551,0,0,0-.406-1.072,1.51,1.51,0,0,0-2.223.163,3.333,3.333,0,0,0-.4,1.866v.235a3.375,3.375,0,0,0,.4,1.878A1.377,1.377,0,0,0,53.891,34.336Zm7.531-8.867v2.078h1.445V29.2H61.422v4.219a1.007,1.007,0,0,0,.18.672.9.9,0,0,0,.688.2,3.6,3.6,0,0,0,.664-.055v1.711a4.648,4.648,0,0,1-1.367.2,2.156,2.156,0,0,1-2.422-2.4V29.2H57.93V27.547h1.234V25.469ZM63.539,31.7a5.013,5.013,0,0,1,.484-2.242,3.546,3.546,0,0,1,1.395-1.523,4.069,4.069,0,0,1,2.113-.539,3.849,3.849,0,0,1,2.793,1.047,4.2,4.2,0,0,1,1.207,2.844l.016.578a4.418,4.418,0,0,1-1.086,3.121,4.209,4.209,0,0,1-5.832,0,4.5,4.5,0,0,1-1.09-3.187Zm2.258.16A3.16,3.16,0,0,0,66.25,33.7a1.628,1.628,0,0,0,2.578.008,3.457,3.457,0,0,0,.461-2.015,3.128,3.128,0,0,0-.461-1.831,1.5,1.5,0,0,0-1.3-.649,1.474,1.474,0,0,0-1.281.646A3.516,3.516,0,0,0,65.8,31.856Z" transform="translate(1197.243 4148.5)" fill="#12263f"/>
    <path id="Trazado_373247" data-name="Trazado 373247" d="M9.605,15V3.625h3.5a5.315,5.315,0,0,1,2.684.676,4.712,4.712,0,0,1,1.848,1.922A5.928,5.928,0,0,1,18.3,9.055v.523a5.945,5.945,0,0,1-.652,2.82,4.672,4.672,0,0,1-1.84,1.914,5.355,5.355,0,0,1-2.68.688Zm2.344-9.477v7.594h1.133a2.545,2.545,0,0,0,2.1-.9,4.06,4.06,0,0,0,.742-2.57v-.6a4.124,4.124,0,0,0-.719-2.629,2.537,2.537,0,0,0-2.1-.895ZM22.238,15H19.973V6.547h2.266ZM19.84,4.359a1.112,1.112,0,0,1,.34-.836,1.465,1.465,0,0,1,1.848,0,1.105,1.105,0,0,1,.344.836,1.108,1.108,0,0,1-.348.844,1.448,1.448,0,0,1-1.836,0A1.108,1.108,0,0,1,19.84,4.359Zm3.93,6.352A4.954,4.954,0,0,1,24.7,7.578a3,3,0,0,1,2.5-1.187,2.631,2.631,0,0,1,2.164.953l.094-.8H31.5v8.172a3.613,3.613,0,0,1-.5,1.93,3.236,3.236,0,0,1-1.418,1.25,4.985,4.985,0,0,1-2.141.43,4.635,4.635,0,0,1-1.812-.371A3.217,3.217,0,0,1,24.285,17l1-1.375a2.645,2.645,0,0,0,2.047.945,1.936,1.936,0,0,0,1.4-.48,1.8,1.8,0,0,0,.5-1.363v-.453a2.612,2.612,0,0,1-2.055.883,2.992,2.992,0,0,1-2.465-1.191,4.953,4.953,0,0,1-.941-3.16Zm2.258.161a3.1,3.1,0,0,0,.461,1.809,1.465,1.465,0,0,0,1.266.655,1.567,1.567,0,0,0,1.477-.777V8.988a1.563,1.563,0,0,0-1.461-.777,1.474,1.474,0,0,0-1.277.667A3.5,3.5,0,0,0,26.027,10.872ZM35.613,15H33.348V6.547h2.266Zm-2.4-10.641a1.112,1.112,0,0,1,.34-.836,1.465,1.465,0,0,1,1.848,0,1.105,1.105,0,0,1,.344.836A1.108,1.108,0,0,1,35.4,5.2a1.448,1.448,0,0,1-1.836,0A1.108,1.108,0,0,1,33.215,4.359Zm6.961.109V6.547h1.445V8.2H40.176v4.219a1.007,1.007,0,0,0,.18.672.9.9,0,0,0,.688.2,3.6,3.6,0,0,0,.664-.055v1.711a4.648,4.648,0,0,1-1.367.2,2.156,2.156,0,0,1-2.422-2.4V8.2H36.684V6.547h1.234V4.469ZM42.293,10.7a5.013,5.013,0,0,1,.484-2.242A3.546,3.546,0,0,1,44.172,6.93a4.069,4.069,0,0,1,2.113-.539,3.849,3.849,0,0,1,2.793,1.047,4.2,4.2,0,0,1,1.207,2.844l.016.578a4.418,4.418,0,0,1-1.086,3.121,4.209,4.209,0,0,1-5.832,0,4.5,4.5,0,0,1-1.09-3.187Zm2.258.16A3.16,3.16,0,0,0,45,12.7a1.628,1.628,0,0,0,2.578.008,3.457,3.457,0,0,0,.461-2.015,3.128,3.128,0,0,0-.461-1.831,1.5,1.5,0,0,0-1.3-.649A1.474,1.474,0,0,0,45,8.856,3.516,3.516,0,0,0,44.551,10.856Zm14.641,2.48a1.481,1.481,0,0,0,1.016-.344,1.2,1.2,0,0,0,.406-.914H62.73a2.9,2.9,0,0,1-.469,1.574A3.093,3.093,0,0,1,61,14.762a3.949,3.949,0,0,1-1.77.395A3.67,3.67,0,0,1,56.371,14a4.56,4.56,0,0,1-1.047-3.184v-.148a4.508,4.508,0,0,1,1.039-3.117,3.627,3.627,0,0,1,2.852-1.164,3.555,3.555,0,0,1,2.543.9,3.2,3.2,0,0,1,.973,2.4H60.613a1.551,1.551,0,0,0-.406-1.072,1.51,1.51,0,0,0-2.223.163,3.333,3.333,0,0,0-.4,1.866v.235a3.375,3.375,0,0,0,.4,1.878A1.377,1.377,0,0,0,59.191,13.336ZM63.668,10.7a5.013,5.013,0,0,1,.484-2.242A3.546,3.546,0,0,1,65.547,6.93a4.069,4.069,0,0,1,2.113-.539,3.849,3.849,0,0,1,2.793,1.047,4.2,4.2,0,0,1,1.207,2.844l.016.578A4.418,4.418,0,0,1,70.59,13.98a4.209,4.209,0,0,1-5.832,0,4.5,4.5,0,0,1-1.09-3.187Zm2.258.16a3.16,3.16,0,0,0,.453,1.843,1.628,1.628,0,0,0,2.578.008,3.457,3.457,0,0,0,.461-2.015,3.128,3.128,0,0,0-.461-1.831,1.5,1.5,0,0,0-1.3-.649,1.474,1.474,0,0,0-1.281.646A3.516,3.516,0,0,0,65.926,10.856Zm9.219-4.309.07.977a2.951,2.951,0,0,1,2.43-1.133,2.453,2.453,0,0,1,2,.789,3.682,3.682,0,0,1,.672,2.359V15H78.059V9.581a1.47,1.47,0,0,0-.312-1.045,1.4,1.4,0,0,0-1.039-.325,1.553,1.553,0,0,0-1.43.814V15H73.02V6.547ZM84.73,4.469V6.547h1.445V8.2H84.73v4.219a1.007,1.007,0,0,0,.18.672.9.9,0,0,0,.688.2,3.6,3.6,0,0,0,.664-.055v1.711a4.648,4.648,0,0,1-1.367.2,2.156,2.156,0,0,1-2.422-2.4V8.2H81.238V6.547h1.234V4.469Zm7.453,4.2a6.134,6.134,0,0,0-.812-.062,1.654,1.654,0,0,0-1.68.867V15H87.434V6.547h2.133l.063,1.008a2.092,2.092,0,0,1,1.883-1.164,2.366,2.366,0,0,1,.7.1Zm.453,2.031a5.013,5.013,0,0,1,.484-2.242A3.546,3.546,0,0,1,94.516,6.93a4.069,4.069,0,0,1,2.113-.539,3.849,3.849,0,0,1,2.793,1.047,4.2,4.2,0,0,1,1.207,2.844l.016.578a4.418,4.418,0,0,1-1.086,3.121,4.209,4.209,0,0,1-5.832,0,4.5,4.5,0,0,1-1.09-3.187Zm2.258.16a3.16,3.16,0,0,0,.453,1.843,1.628,1.628,0,0,0,2.578.008,3.457,3.457,0,0,0,.461-2.015,3.128,3.128,0,0,0-.461-1.831,1.5,1.5,0,0,0-1.3-.649,1.474,1.474,0,0,0-1.281.646A3.516,3.516,0,0,0,94.895,10.856ZM104.418,15h-2.266V3h2.266Z" transform="translate(1233.243 4226.5)" fill="#12263f"/>
    <path id="Trazado_373248" data-name="Trazado 373248" d="M13.238,10.992V15H10.895V3.625h4.438a5.134,5.134,0,0,1,2.254.469,3.454,3.454,0,0,1,1.5,1.332,3.714,3.714,0,0,1,.523,1.965,3.266,3.266,0,0,1-1.145,2.637,4.767,4.767,0,0,1-3.168.965Zm0-1.9h2.094a2.059,2.059,0,0,0,1.418-.437,1.591,1.591,0,0,0,.488-1.25,1.876,1.876,0,0,0-.492-1.352,1.839,1.839,0,0,0-1.359-.531H13.238Zm12.578-.43A6.134,6.134,0,0,0,25,8.6a1.654,1.654,0,0,0-1.68.867V15H21.066V6.547H23.2l.063,1.008a2.092,2.092,0,0,1,1.883-1.164,2.366,2.366,0,0,1,.7.1Zm4.828,6.492a4.15,4.15,0,0,1-3.027-1.141,4.054,4.054,0,0,1-1.168-3.039v-.219a5.106,5.106,0,0,1,.492-2.277,3.612,3.612,0,0,1,1.395-1.547,3.914,3.914,0,0,1,2.059-.543,3.508,3.508,0,0,1,2.73,1.094,4.444,4.444,0,0,1,1,3.1v.922H28.738a2.1,2.1,0,0,0,.66,1.328,2,2,0,0,0,1.395.5,2.437,2.437,0,0,0,2.039-.945l1.109,1.242a3.389,3.389,0,0,1-1.375,1.121A4.511,4.511,0,0,1,30.645,15.156Zm-.258-6.945a1.411,1.411,0,0,0-1.09.455,2.357,2.357,0,0,0-.535,1.3H31.9V9.788A1.681,1.681,0,0,0,31.5,8.623,1.456,1.456,0,0,0,30.387,8.211ZM35.949,15V8.2H34.691V6.547h1.258V6.156A3.17,3.17,0,0,1,36.93,3.7a3.945,3.945,0,0,1,2.723-.863,9.031,9.031,0,0,1,2.563.461l-.328,1.867A10,10,0,0,0,40.7,4.871a5.835,5.835,0,0,0-.906-.066q-1.578,0-1.578,1.4v.344h1.664V8.2H38.215V15Zm7.32,0H41V6.547H43.27Zm4.258-8.453v8.914a3.024,3.024,0,0,1-.742,2.176,2.821,2.821,0,0,1-2.141.777,4.591,4.591,0,0,1-1.117-.133V16.492a4.238,4.238,0,0,0,.711.07q1.023,0,1.023-1.086V6.547ZM45.082,4.359a1.112,1.112,0,0,1,.34-.836,1.47,1.47,0,0,1,1.852,0,1.112,1.112,0,0,1,.34.836,1.108,1.108,0,0,1-.348.844,1.448,1.448,0,0,1-1.836,0A1.108,1.108,0,0,1,45.082,4.359ZM48.941,10.7a5.013,5.013,0,0,1,.484-2.242A3.546,3.546,0,0,1,50.82,6.93a4.069,4.069,0,0,1,2.113-.539,3.849,3.849,0,0,1,2.793,1.047,4.2,4.2,0,0,1,1.207,2.844l.016.578a4.418,4.418,0,0,1-1.086,3.121,4.209,4.209,0,0,1-5.832,0,4.5,4.5,0,0,1-1.09-3.187Zm2.258.16a3.16,3.16,0,0,0,.453,1.843,1.628,1.628,0,0,0,2.578.008,3.457,3.457,0,0,0,.461-2.015A3.128,3.128,0,0,0,54.23,8.86a1.5,1.5,0,0,0-1.3-.649,1.474,1.474,0,0,0-1.281.646A3.516,3.516,0,0,0,51.2,10.856Zm10.773-.145a5.094,5.094,0,0,1,.887-3.148,2.877,2.877,0,0,1,2.426-1.172,2.589,2.589,0,0,1,2.039.922V3H69.59V15H67.551l-.109-.9a2.657,2.657,0,0,1-2.172,1.055,2.869,2.869,0,0,1-2.395-1.176A5.258,5.258,0,0,1,61.973,10.711Zm2.258.161a3.355,3.355,0,0,0,.414,1.829,1.348,1.348,0,0,0,1.2.636,1.51,1.51,0,0,0,1.477-.887V9.1a1.489,1.489,0,0,0-1.461-.887Q64.23,8.211,64.23,10.872Zm11,4.285A4.15,4.15,0,0,1,72.2,14.016a4.054,4.054,0,0,1-1.168-3.039v-.219a5.106,5.106,0,0,1,.492-2.277,3.612,3.612,0,0,1,1.395-1.547,3.914,3.914,0,0,1,2.059-.543,3.508,3.508,0,0,1,2.73,1.094,4.444,4.444,0,0,1,1,3.1v.922H73.324a2.1,2.1,0,0,0,.66,1.328,2,2,0,0,0,1.395.5,2.437,2.437,0,0,0,2.039-.945l1.109,1.242a3.389,3.389,0,0,1-1.375,1.121A4.511,4.511,0,0,1,75.23,15.156Zm-.258-6.945a1.411,1.411,0,0,0-1.09.455,2.357,2.357,0,0,0-.535,1.3h3.141V9.788a1.681,1.681,0,0,0-.406-1.165A1.456,1.456,0,0,0,74.973,8.211ZM19.926,36.156A4.15,4.15,0,0,1,16.9,35.016a4.054,4.054,0,0,1-1.168-3.039v-.219a5.106,5.106,0,0,1,.492-2.277,3.612,3.612,0,0,1,1.395-1.547,3.914,3.914,0,0,1,2.059-.543,3.508,3.508,0,0,1,2.73,1.094,4.444,4.444,0,0,1,1,3.1v.922H18.02a2.1,2.1,0,0,0,.66,1.328,2,2,0,0,0,1.395.5,2.437,2.437,0,0,0,2.039-.945l1.109,1.242a3.389,3.389,0,0,1-1.375,1.121A4.511,4.511,0,0,1,19.926,36.156Zm-.258-6.945a1.411,1.411,0,0,0-1.09.455,2.357,2.357,0,0,0-.535,1.3h3.141v-.181a1.681,1.681,0,0,0-.406-1.165A1.456,1.456,0,0,0,19.668,29.211ZM26.8,27.547l.07.945a2.971,2.971,0,0,1,2.43-1.1,2.255,2.255,0,0,1,2.242,1.289,2.9,2.9,0,0,1,2.539-1.289,2.521,2.521,0,0,1,2.047.8A3.681,3.681,0,0,1,36.8,30.6V36H34.535V30.6a1.616,1.616,0,0,0-.281-1.053,1.245,1.245,0,0,0-.992-.333,1.409,1.409,0,0,0-1.406.971L31.863,36H29.605V30.6a1.6,1.6,0,0,0-.289-1.065,1.257,1.257,0,0,0-.984-.329,1.463,1.463,0,0,0-1.391.8V36H24.684V27.547Zm19.344,4.3a5.07,5.07,0,0,1-.887,3.129,2.843,2.843,0,0,1-2.395,1.176,2.633,2.633,0,0,1-2.07-.891V39.25H38.535v-11.7h2.094l.078.828a2.654,2.654,0,0,1,2.141-.984,2.862,2.862,0,0,1,2.43,1.156,5.207,5.207,0,0,1,.867,3.188Zm-2.258-.172a3.345,3.345,0,0,0-.418-1.826,1.36,1.36,0,0,0-1.215-.643,1.478,1.478,0,0,0-1.461.815V33.5a1.5,1.5,0,0,0,1.477.839Q43.887,34.336,43.887,31.679Zm8.406-2.015a6.134,6.134,0,0,0-.812-.062,1.654,1.654,0,0,0-1.68.867V36H47.543V27.547h2.133l.063,1.008a2.092,2.092,0,0,1,1.883-1.164,2.366,2.366,0,0,1,.7.1Zm4.828,6.492a4.15,4.15,0,0,1-3.027-1.141,4.054,4.054,0,0,1-1.168-3.039v-.219a5.106,5.106,0,0,1,.492-2.277,3.612,3.612,0,0,1,1.395-1.547,3.914,3.914,0,0,1,2.059-.543,3.508,3.508,0,0,1,2.73,1.094,4.444,4.444,0,0,1,1,3.1v.922H55.215a2.1,2.1,0,0,0,.66,1.328,2,2,0,0,0,1.395.5,2.437,2.437,0,0,0,2.039-.945l1.109,1.242a3.389,3.389,0,0,1-1.375,1.121A4.511,4.511,0,0,1,57.121,36.156Zm-.258-6.945a1.411,1.411,0,0,0-1.09.455,2.357,2.357,0,0,0-.535,1.3h3.141v-.181a1.681,1.681,0,0,0-.406-1.165A1.456,1.456,0,0,0,56.863,29.211Zm9.594,4.453a.727.727,0,0,0-.41-.652,4.659,4.659,0,0,0-1.316-.426q-3.016-.633-3.016-2.562a2.323,2.323,0,0,1,.934-1.879,3.766,3.766,0,0,1,2.441-.754,4.053,4.053,0,0,1,2.574.758,2.388,2.388,0,0,1,.965,1.969H66.371a1.092,1.092,0,0,0-.312-.8A1.322,1.322,0,0,0,65.082,29a1.351,1.351,0,0,0-.883.258.814.814,0,0,0-.312.656.7.7,0,0,0,.355.605,3.657,3.657,0,0,0,1.2.4,9.8,9.8,0,0,1,1.422.379,2.336,2.336,0,0,1,1.789,2.273,2.2,2.2,0,0,1-.992,1.871,4.28,4.28,0,0,1-2.562.715,4.47,4.47,0,0,1-1.887-.379,3.166,3.166,0,0,1-1.293-1.039,2.414,2.414,0,0,1-.469-1.426H63.59a1.179,1.179,0,0,0,.445.922,1.766,1.766,0,0,0,1.109.32,1.635,1.635,0,0,0,.98-.246A.766.766,0,0,0,66.457,33.664ZM75,36a2.507,2.507,0,0,1-.227-.758,2.732,2.732,0,0,1-2.133.914,3,3,0,0,1-2.059-.719,2.312,2.312,0,0,1-.816-1.812,2.389,2.389,0,0,1,1-2.062,4.915,4.915,0,0,1,2.879-.727h1.039v-.484a1.393,1.393,0,0,0-.3-.937,1.183,1.183,0,0,0-.949-.352,1.345,1.345,0,0,0-.895.273.929.929,0,0,0-.324.75H69.957a2.268,2.268,0,0,1,.453-1.359,3,3,0,0,1,1.281-.98,4.669,4.669,0,0,1,1.859-.355,3.689,3.689,0,0,1,2.48.785,2.747,2.747,0,0,1,.918,2.207v3.664a4.041,4.041,0,0,0,.336,1.82V36Zm-1.867-1.57a1.945,1.945,0,0,0,.922-.223,1.462,1.462,0,0,0,.625-.6V32.156H73.84q-1.7,0-1.8,1.172l-.008.133a.9.9,0,0,0,.3.7A1.153,1.153,0,0,0,73.137,34.43Z" transform="translate(1078.243 4202.5)" fill="#12263f"/>
  </g>
</svg>
