<svg xmlns="http://www.w3.org/2000/svg" width="369.721" height="168.088" viewBox="0 0 369.721 168.088">
  <g id="Grupo_638510" data-name="Grupo 638510" transform="translate(2117.007 4816.5)">
    <path id="Trazado_373294" data-name="Trazado 373294" d="M25.011,6.5V9h-.844V2.6h2.36a2.371,2.371,0,0,1,1.646.536,1.818,1.818,0,0,1,.6,1.419,1.794,1.794,0,0,1-.582,1.435,2.477,2.477,0,0,1-1.668.5Zm0-.69h1.516a1.516,1.516,0,0,0,1.037-.319,1.167,1.167,0,0,0,.36-.922,1.206,1.206,0,0,0-.36-.916,1.42,1.42,0,0,0-.989-.357H25.011Zm7-.831a2.436,2.436,0,0,0-.4-.031,1.071,1.071,0,0,0-1.085.681V9h-.813V4.245h.791l.013.549a1.266,1.266,0,0,1,1.134-.637.831.831,0,0,1,.36.062Zm2.637,4.113a2.078,2.078,0,0,1-1.573-.635,2.357,2.357,0,0,1-.606-1.7V6.6a2.853,2.853,0,0,1,.27-1.263,2.108,2.108,0,0,1,.756-.87,1.9,1.9,0,0,1,1.052-.314,1.781,1.781,0,0,1,1.441.611,2.645,2.645,0,0,1,.514,1.749v.338H33.286A1.69,1.69,0,0,0,33.7,7.991a1.292,1.292,0,0,0,1,.433,1.416,1.416,0,0,0,.729-.176,1.833,1.833,0,0,0,.523-.466l.5.387A2,2,0,0,1,34.653,9.088Zm-.1-4.263a1.084,1.084,0,0,0-.826.358,1.741,1.741,0,0,0-.413,1h2.382V6.126a1.548,1.548,0,0,0-.334-.96A1.021,1.021,0,0,0,34.552,4.825ZM37.72,9V4.874h-.751V4.245h.751v-.4A1.652,1.652,0,0,1,38.175,2.6a1.764,1.764,0,0,1,1.285-.444,3.871,3.871,0,0,1,1.244.268l-.136.686a2.817,2.817,0,0,0-1.046-.22,1.023,1.023,0,0,0-.754.235.969.969,0,0,0-.231.705v.413h.971v.628h-.971V9Zm3.388,0h-.817V4.245h.817ZM43.27,4.245v5.3q0,1.371-1.244,1.371a1.517,1.517,0,0,1-.5-.079V10.2a1.572,1.572,0,0,0,.369.035.552.552,0,0,0,.415-.147.729.729,0,0,0,.143-.512V4.245Zm-.9-1.261a.487.487,0,0,1,.121-.332.444.444,0,0,1,.354-.138.461.461,0,0,1,.36.136.48.48,0,0,1,.123.334.464.464,0,0,1-.123.33.469.469,0,0,1-.36.132.455.455,0,0,1-.356-.132A.474.474,0,0,1,42.374,2.984Zm1.991,3.595a2.808,2.808,0,0,1,.275-1.257A2.049,2.049,0,0,1,45.4,4.46a2.081,2.081,0,0,1,1.118-.3,2.005,2.005,0,0,1,1.571.672,2.587,2.587,0,0,1,.6,1.789v.057a2.833,2.833,0,0,1-.266,1.246,2.019,2.019,0,0,1-.76.859,2.105,2.105,0,0,1-1.136.308,2,2,0,0,1-1.567-.672,2.574,2.574,0,0,1-.6-1.78Zm.817.1a2.034,2.034,0,0,0,.367,1.27,1.243,1.243,0,0,0,1.967-.007,2.224,2.224,0,0,0,.365-1.36,2.031,2.031,0,0,0-.371-1.268,1.181,1.181,0,0,0-.987-.486,1.167,1.167,0,0,0-.971.479A2.208,2.208,0,0,0,45.182,6.675Zm11.61,1.485a1.949,1.949,0,0,1-.907.7,3.666,3.666,0,0,1-1.356.231,2.629,2.629,0,0,1-1.389-.367A2.445,2.445,0,0,1,52.2,7.677a3.6,3.6,0,0,1-.341-1.569V5.55a3.365,3.365,0,0,1,.675-2.241,2.35,2.35,0,0,1,1.9-.8,2.428,2.428,0,0,1,1.613.512,2.23,2.23,0,0,1,.747,1.452h-.844A1.4,1.4,0,0,0,54.437,3.2a1.494,1.494,0,0,0-1.285.6,2.91,2.91,0,0,0-.442,1.726v.523A2.727,2.727,0,0,0,53.2,7.762a1.6,1.6,0,0,0,1.332.636,2.941,2.941,0,0,0,.831-.105,1.284,1.284,0,0,0,.589-.355V6.5H54.472v-.69h2.32Zm3.292-2.013a3.967,3.967,0,0,1-1.58-.767,1.465,1.465,0,0,1-.494-1.123,1.548,1.548,0,0,1,.6-1.25,2.4,2.4,0,0,1,1.571-.494,2.621,2.621,0,0,1,1.176.255,1.933,1.933,0,0,1,.8.7,1.8,1.8,0,0,1,.283.98H61.6a1.17,1.17,0,0,0-.369-.915A1.5,1.5,0,0,0,60.185,3.2a1.537,1.537,0,0,0-.973.275.918.918,0,0,0-.349.764.826.826,0,0,0,.332.663,3.254,3.254,0,0,0,1.129.5,5.24,5.24,0,0,1,1.248.495,1.894,1.894,0,0,1,.668.631,1.61,1.61,0,0,1,.218.848A1.5,1.5,0,0,1,61.85,8.62a2.586,2.586,0,0,1-1.622.468A3.008,3.008,0,0,1,59,8.835a2.071,2.071,0,0,1-.881-.692,1.689,1.689,0,0,1-.31-1h.848a1.1,1.1,0,0,0,.428.916,1.8,1.8,0,0,0,1.145.336,1.658,1.658,0,0,0,1.024-.272.885.885,0,0,0,.356-.743.869.869,0,0,0-.33-.727A3.8,3.8,0,0,0,60.084,6.148ZM66,9h-.817V3.582l-1.639.6V3.445l2.329-.875H66Zm8.438-2.958H71.663V8.31h3.221V9H70.82V2.6h4.021v.69H71.663V5.353h2.773Zm2.136-1.8.022.527A1.756,1.756,0,0,1,78,4.157a1.359,1.359,0,0,1,1.358.765,1.8,1.8,0,0,1,.617-.554,1.824,1.824,0,0,1,.9-.211q1.564,0,1.591,1.657V9h-.813V5.862a1.092,1.092,0,0,0-.233-.762,1.026,1.026,0,0,0-.782-.253,1.078,1.078,0,0,0-.751.27,1.1,1.1,0,0,0-.347.727V9h-.817V5.884A.907.907,0,0,0,77.71,4.847a1.088,1.088,0,0,0-1.094.681V9H75.8V4.245Zm11.14,2.43a2.847,2.847,0,0,1-.5,1.749,1.592,1.592,0,0,1-1.345.664,1.744,1.744,0,0,1-1.362-.549v2.29H83.7V4.245h.743l.04.527a1.675,1.675,0,0,1,1.38-.615,1.621,1.621,0,0,1,1.356.646,2.878,2.878,0,0,1,.5,1.8ZM86.9,6.583a2.1,2.1,0,0,0-.343-1.27,1.1,1.1,0,0,0-.94-.466,1.2,1.2,0,0,0-1.107.655V7.774a1.2,1.2,0,0,0,1.116.65,1.1,1.1,0,0,0,.929-.464A2.293,2.293,0,0,0,86.9,6.583Zm4.144-1.608a2.436,2.436,0,0,0-.4-.031,1.071,1.071,0,0,0-1.085.681V9h-.813V4.245h.791l.013.549a1.266,1.266,0,0,1,1.134-.637.831.831,0,0,1,.36.062ZM93.68,9.088a2.078,2.078,0,0,1-1.573-.635,2.357,2.357,0,0,1-.606-1.7V6.6a2.853,2.853,0,0,1,.27-1.263,2.108,2.108,0,0,1,.756-.87,1.9,1.9,0,0,1,1.052-.314,1.781,1.781,0,0,1,1.441.611,2.645,2.645,0,0,1,.514,1.749v.338H92.313a1.69,1.69,0,0,0,.411,1.136,1.292,1.292,0,0,0,1,.433,1.416,1.416,0,0,0,.729-.176,1.833,1.833,0,0,0,.523-.466l.5.387A2,2,0,0,1,93.68,9.088Zm-.1-4.263a1.084,1.084,0,0,0-.826.358,1.741,1.741,0,0,0-.413,1h2.382V6.126a1.548,1.548,0,0,0-.334-.96A1.021,1.021,0,0,0,93.579,4.825Zm5.665,2.914A.6.6,0,0,0,99,7.227a2.39,2.39,0,0,0-.866-.314,4.093,4.093,0,0,1-.98-.316,1.394,1.394,0,0,1-.536-.439,1.051,1.051,0,0,1-.174-.606,1.233,1.233,0,0,1,.494-.989,1.931,1.931,0,0,1,1.263-.4,1.987,1.987,0,0,1,1.312.417,1.326,1.326,0,0,1,.5,1.068H99.2a.734.734,0,0,0-.283-.576,1.062,1.062,0,0,0-.714-.242,1.111,1.111,0,0,0-.694.193.609.609,0,0,0-.25.505.493.493,0,0,0,.233.444,2.866,2.866,0,0,0,.842.286,4.385,4.385,0,0,1,.987.325,1.439,1.439,0,0,1,.56.455,1.118,1.118,0,0,1,.182.648,1.217,1.217,0,0,1-.51,1.022,2.138,2.138,0,0,1-1.323.385,2.394,2.394,0,0,1-1.011-.2,1.644,1.644,0,0,1-.688-.565,1.361,1.361,0,0,1-.248-.784h.813a.842.842,0,0,0,.327.648,1.27,1.27,0,0,0,.806.24,1.311,1.311,0,0,0,.74-.187A.574.574,0,0,0,99.243,7.739ZM104.051,9a1.708,1.708,0,0,1-.114-.5,1.814,1.814,0,0,1-1.354.589,1.678,1.678,0,0,1-1.154-.4,1.287,1.287,0,0,1-.45-1.009,1.344,1.344,0,0,1,.565-1.154,2.662,2.662,0,0,1,1.589-.411h.791V5.744a.913.913,0,0,0-.255-.679,1.024,1.024,0,0,0-.751-.253,1.185,1.185,0,0,0-.729.22.647.647,0,0,0-.294.532h-.817a1.122,1.122,0,0,1,.253-.688,1.725,1.725,0,0,1,.686-.525,2.306,2.306,0,0,1,.951-.193,1.88,1.88,0,0,1,1.288.411,1.482,1.482,0,0,1,.483,1.132V7.888A2.676,2.676,0,0,0,104.9,8.93V9ZM102.7,8.38a1.429,1.429,0,0,0,.725-.2,1.2,1.2,0,0,0,.5-.514V6.693h-.637q-1.494,0-1.494.875a.74.74,0,0,0,.255.6A.98.98,0,0,0,102.7,8.38Zm3.283.193a.509.509,0,0,1,.125-.352.477.477,0,0,1,.376-.141.492.492,0,0,1,.38.141.5.5,0,0,1,.13.352.472.472,0,0,1-.13.338.5.5,0,0,1-.38.136.452.452,0,0,1-.5-.475Zm0-3.88a.509.509,0,0,1,.125-.352.477.477,0,0,1,.376-.141.492.492,0,0,1,.38.141.5.5,0,0,1,.13.352.472.472,0,0,1-.13.338.5.5,0,0,1-.38.136.452.452,0,0,1-.5-.475Zm-88.4,13.982a2.847,2.847,0,0,1-.5,1.749,1.592,1.592,0,0,1-1.345.664,1.744,1.744,0,0,1-1.362-.549v2.29H13.57V16.245h.743l.04.527a1.675,1.675,0,0,1,1.38-.615,1.621,1.621,0,0,1,1.356.646,2.878,2.878,0,0,1,.5,1.8Zm-.813-.092a2.1,2.1,0,0,0-.343-1.27,1.1,1.1,0,0,0-.94-.466,1.2,1.2,0,0,0-1.107.655v2.272a1.2,1.2,0,0,0,1.116.65,1.1,1.1,0,0,0,.929-.464A2.293,2.293,0,0,0,16.773,18.583ZM21.555,21a1.708,1.708,0,0,1-.114-.5,1.814,1.814,0,0,1-1.354.589,1.678,1.678,0,0,1-1.154-.4,1.287,1.287,0,0,1-.45-1.009,1.344,1.344,0,0,1,.565-1.154,2.662,2.662,0,0,1,1.589-.411h.791v-.374a.913.913,0,0,0-.255-.679,1.024,1.024,0,0,0-.751-.253,1.185,1.185,0,0,0-.729.22.647.647,0,0,0-.294.532H18.58a1.122,1.122,0,0,1,.253-.688,1.725,1.725,0,0,1,.686-.525,2.306,2.306,0,0,1,.951-.193,1.88,1.88,0,0,1,1.288.411A1.482,1.482,0,0,1,22.24,17.7v2.188a2.676,2.676,0,0,0,.167,1.042V21Zm-1.349-.62a1.429,1.429,0,0,0,.725-.2,1.2,1.2,0,0,0,.5-.514v-.976H20.79q-1.494,0-1.494.875a.74.74,0,0,0,.255.6A.98.98,0,0,0,20.206,20.38Zm5.607-3.406a2.436,2.436,0,0,0-.4-.031,1.071,1.071,0,0,0-1.085.681V21h-.813V16.245h.791l.013.549a1.266,1.266,0,0,1,1.134-.637.831.831,0,0,1,.36.062Zm2.07-1.881v1.151h.888v.628h-.888v2.952a.66.66,0,0,0,.119.429.5.5,0,0,0,.4.143,1.968,1.968,0,0,0,.387-.053V21a2.371,2.371,0,0,1-.624.087,1.012,1.012,0,0,1-.822-.33,1.416,1.416,0,0,1-.277-.936V16.874H26.2v-.628h.866V15.094Zm3.81,5.994a2.078,2.078,0,0,1-1.573-.635,2.357,2.357,0,0,1-.606-1.7V18.6a2.853,2.853,0,0,1,.27-1.263,2.108,2.108,0,0,1,.756-.87,1.9,1.9,0,0,1,1.052-.314,1.781,1.781,0,0,1,1.441.611,2.645,2.645,0,0,1,.514,1.749v.338H30.326a1.69,1.69,0,0,0,.411,1.136,1.292,1.292,0,0,0,1,.433,1.416,1.416,0,0,0,.729-.176,1.833,1.833,0,0,0,.523-.466l.5.387A2,2,0,0,1,31.693,21.088Zm-.1-4.263a1.084,1.084,0,0,0-.826.358,1.741,1.741,0,0,0-.413,1h2.382v-.062a1.548,1.548,0,0,0-.334-.96A1.021,1.021,0,0,0,31.592,16.825Zm7.031,3.6a1.171,1.171,0,0,0,.76-.264.928.928,0,0,0,.36-.659h.769a1.474,1.474,0,0,1-.281.778,1.852,1.852,0,0,1-.692.589,2,2,0,0,1-.916.22,1.959,1.959,0,0,1-1.545-.648,2.582,2.582,0,0,1-.573-1.773V18.53A2.863,2.863,0,0,1,36.76,17.3a1.941,1.941,0,0,1,.732-.839,2.078,2.078,0,0,1,1.127-.3,1.907,1.907,0,0,1,1.329.479,1.712,1.712,0,0,1,.565,1.244h-.769a1.12,1.12,0,0,0-.349-.758,1.087,1.087,0,0,0-.776-.3,1.138,1.138,0,0,0-.96.446,2.1,2.1,0,0,0-.341,1.29v.154a2.053,2.053,0,0,0,.338,1.266A1.143,1.143,0,0,0,38.623,20.424Zm2.588-1.846a2.808,2.808,0,0,1,.275-1.257,2.049,2.049,0,0,1,.765-.861,2.081,2.081,0,0,1,1.118-.3,2.005,2.005,0,0,1,1.571.672,2.587,2.587,0,0,1,.6,1.789v.057a2.833,2.833,0,0,1-.266,1.246,2.019,2.019,0,0,1-.76.859,2.105,2.105,0,0,1-1.136.308,2,2,0,0,1-1.567-.672,2.574,2.574,0,0,1-.6-1.78Zm.817.1a2.034,2.034,0,0,0,.367,1.27,1.243,1.243,0,0,0,1.967-.007,2.224,2.224,0,0,0,.365-1.36,2.031,2.031,0,0,0-.371-1.268,1.181,1.181,0,0,0-.987-.486,1.167,1.167,0,0,0-.971.479A2.208,2.208,0,0,0,42.029,18.675Zm5.3-2.43.022.527a1.756,1.756,0,0,1,1.411-.615,1.359,1.359,0,0,1,1.358.765,1.8,1.8,0,0,1,.617-.554,1.824,1.824,0,0,1,.9-.211q1.564,0,1.591,1.657V21h-.813V17.862a1.092,1.092,0,0,0-.233-.762,1.026,1.026,0,0,0-.782-.253,1.078,1.078,0,0,0-.751.27,1.1,1.1,0,0,0-.347.727V21h-.817V17.884a.907.907,0,0,0-1.015-1.037,1.088,1.088,0,0,0-1.094.681V21h-.813V16.245ZM57.383,20.53a1.727,1.727,0,0,1-1.393.558,1.478,1.478,0,0,1-1.158-.442,1.912,1.912,0,0,1-.4-1.307V16.245h.813v3.072q0,1.081.879,1.081a1.217,1.217,0,0,0,1.239-.694V16.245h.813V21H57.4Zm-.659-6.271h.984l-1.178,1.292-.655,0Zm3.454,1.986.026.6a1.733,1.733,0,0,1,1.424-.686q1.507,0,1.521,1.7V21h-.813V17.854a1.1,1.1,0,0,0-.235-.76.942.942,0,0,0-.719-.246,1.173,1.173,0,0,0-.694.211,1.432,1.432,0,0,0-.466.554V21h-.813V16.245ZM69.539,21a1.708,1.708,0,0,1-.114-.5,1.814,1.814,0,0,1-1.354.589,1.678,1.678,0,0,1-1.154-.4,1.287,1.287,0,0,1-.45-1.009,1.344,1.344,0,0,1,.565-1.154,2.662,2.662,0,0,1,1.589-.411h.791v-.374a.913.913,0,0,0-.255-.679,1.024,1.024,0,0,0-.751-.253,1.185,1.185,0,0,0-.729.22.647.647,0,0,0-.294.532h-.817a1.122,1.122,0,0,1,.253-.688,1.725,1.725,0,0,1,.686-.525,2.306,2.306,0,0,1,.951-.193,1.88,1.88,0,0,1,1.288.411,1.482,1.482,0,0,1,.483,1.132v2.188a2.676,2.676,0,0,0,.167,1.042V21Zm-1.349-.62a1.429,1.429,0,0,0,.725-.2,1.2,1.2,0,0,0,.5-.514v-.976h-.637q-1.494,0-1.494.875a.74.74,0,0,0,.255.6A.98.98,0,0,0,68.189,20.38Zm6.078-.642a.6.6,0,0,0-.248-.512,2.39,2.39,0,0,0-.866-.314,4.093,4.093,0,0,1-.98-.316,1.394,1.394,0,0,1-.536-.439,1.051,1.051,0,0,1-.174-.606,1.233,1.233,0,0,1,.494-.989,1.931,1.931,0,0,1,1.263-.4,1.987,1.987,0,0,1,1.312.417,1.326,1.326,0,0,1,.5,1.068h-.817a.734.734,0,0,0-.283-.576,1.062,1.062,0,0,0-.714-.242,1.111,1.111,0,0,0-.694.193.609.609,0,0,0-.25.505.493.493,0,0,0,.233.444,2.866,2.866,0,0,0,.842.286,4.385,4.385,0,0,1,.987.325,1.439,1.439,0,0,1,.56.455,1.118,1.118,0,0,1,.182.648,1.217,1.217,0,0,1-.51,1.022,2.138,2.138,0,0,1-1.323.385,2.394,2.394,0,0,1-1.011-.2,1.644,1.644,0,0,1-.688-.565,1.361,1.361,0,0,1-.248-.784h.813a.842.842,0,0,0,.327.648,1.27,1.27,0,0,0,.806.24,1.311,1.311,0,0,0,.74-.187A.574.574,0,0,0,74.267,19.739ZM77.022,21h-.813V16.245h.813Zm-.879-6.016a.485.485,0,0,1,.121-.334.454.454,0,0,1,.358-.136.461.461,0,0,1,.36.136.48.48,0,0,1,.123.334.464.464,0,0,1-.123.33.469.469,0,0,1-.36.132.462.462,0,0,1-.358-.132A.469.469,0,0,1,76.144,14.984Zm1.986,3.6a2.8,2.8,0,0,1,.514-1.769,1.773,1.773,0,0,1,2.72-.042l.04-.527h.743v4.641A1.934,1.934,0,0,1,81.6,22.34a2.019,2.019,0,0,1-1.47.532,2.446,2.446,0,0,1-1.006-.22,1.732,1.732,0,0,1-.751-.6l.422-.488a1.59,1.59,0,0,0,1.279.646A1.246,1.246,0,0,0,81,21.875a1.277,1.277,0,0,0,.332-.94v-.409A1.671,1.671,0,0,1,80,21.088a1.624,1.624,0,0,1-1.351-.672A2.938,2.938,0,0,1,78.13,18.583Zm.817.092a2.132,2.132,0,0,0,.33,1.263,1.071,1.071,0,0,0,.923.459,1.191,1.191,0,0,0,1.129-.7V17.528a1.2,1.2,0,0,0-1.121-.681,1.081,1.081,0,0,0-.927.461A2.322,2.322,0,0,0,78.947,18.675Zm5.194-2.43.026.6a1.733,1.733,0,0,1,1.424-.686q1.507,0,1.521,1.7V21H86.3V17.854a1.1,1.1,0,0,0-.235-.76.942.942,0,0,0-.719-.246,1.173,1.173,0,0,0-.694.211,1.432,1.432,0,0,0-.466.554V21h-.813V16.245ZM91.274,21a1.708,1.708,0,0,1-.114-.5,1.814,1.814,0,0,1-1.354.589,1.678,1.678,0,0,1-1.154-.4,1.287,1.287,0,0,1-.45-1.009,1.344,1.344,0,0,1,.565-1.154,2.662,2.662,0,0,1,1.589-.411h.791v-.374a.913.913,0,0,0-.255-.679,1.024,1.024,0,0,0-.751-.253,1.185,1.185,0,0,0-.729.22.647.647,0,0,0-.294.532H88.3a1.122,1.122,0,0,1,.253-.688,1.725,1.725,0,0,1,.686-.525,2.306,2.306,0,0,1,.951-.193,1.88,1.88,0,0,1,1.288.411,1.482,1.482,0,0,1,.483,1.132v2.188a2.676,2.676,0,0,0,.167,1.042V21Zm-1.349-.62a1.429,1.429,0,0,0,.725-.2,1.2,1.2,0,0,0,.5-.514v-.976h-.637q-1.494,0-1.494.875a.74.74,0,0,0,.255.6A.98.98,0,0,0,89.925,20.38Zm3.111-1.8a2.785,2.785,0,0,1,.519-1.76,1.764,1.764,0,0,1,2.681-.094V14.25h.813V21H96.3l-.04-.51a1.656,1.656,0,0,1-1.358.6,1.624,1.624,0,0,1-1.347-.677,2.817,2.817,0,0,1-.521-1.767Zm.813.092a2.109,2.109,0,0,0,.334,1.266,1.08,1.08,0,0,0,.923.457,1.186,1.186,0,0,0,1.129-.694V17.52a1.2,1.2,0,0,0-1.121-.672,1.085,1.085,0,0,0-.932.461A2.322,2.322,0,0,0,93.849,18.675Zm7.4,2.325a1.708,1.708,0,0,1-.114-.5,1.814,1.814,0,0,1-1.354.589,1.678,1.678,0,0,1-1.154-.4,1.287,1.287,0,0,1-.45-1.009,1.344,1.344,0,0,1,.565-1.154,2.662,2.662,0,0,1,1.589-.411h.791v-.374a.913.913,0,0,0-.255-.679,1.024,1.024,0,0,0-.751-.253,1.185,1.185,0,0,0-.729.22.647.647,0,0,0-.294.532H98.27a1.122,1.122,0,0,1,.253-.688,1.725,1.725,0,0,1,.686-.525,2.306,2.306,0,0,1,.951-.193,1.88,1.88,0,0,1,1.288.411,1.482,1.482,0,0,1,.483,1.132v2.188a2.676,2.676,0,0,0,.167,1.042V21ZM99.9,20.38a1.429,1.429,0,0,0,.725-.2,1.2,1.2,0,0,0,.5-.514v-.976h-.637q-1.494,0-1.494.875a.74.74,0,0,0,.255.6A.98.98,0,0,0,99.9,20.38Zm9.554-1.705a2.847,2.847,0,0,1-.5,1.749,1.592,1.592,0,0,1-1.345.664,1.744,1.744,0,0,1-1.362-.549v2.29h-.813V16.245h.743l.04.527a1.675,1.675,0,0,1,1.38-.615,1.621,1.621,0,0,1,1.356.646,2.878,2.878,0,0,1,.5,1.8Zm-.813-.092a2.1,2.1,0,0,0-.343-1.27,1.1,1.1,0,0,0-.94-.466,1.2,1.2,0,0,0-1.107.655v2.272a1.2,1.2,0,0,0,1.116.65,1.1,1.1,0,0,0,.929-.464A2.293,2.293,0,0,0,108.637,18.583Zm1.63,0a2.808,2.808,0,0,1,.275-1.257,2.049,2.049,0,0,1,.765-.861,2.081,2.081,0,0,1,1.118-.3A2.005,2.005,0,0,1,114,16.83a2.587,2.587,0,0,1,.6,1.789v.057a2.833,2.833,0,0,1-.266,1.246,2.019,2.019,0,0,1-.76.859,2.105,2.105,0,0,1-1.136.308,2,2,0,0,1-1.567-.672,2.574,2.574,0,0,1-.6-1.78Zm.817.1a2.034,2.034,0,0,0,.367,1.27,1.243,1.243,0,0,0,1.967-.007,2.224,2.224,0,0,0,.365-1.36,2.031,2.031,0,0,0-.371-1.268,1.181,1.181,0,0,0-.987-.486,1.167,1.167,0,0,0-.971.479A2.208,2.208,0,0,0,111.084,18.675Zm6.829-1.7a2.436,2.436,0,0,0-.4-.031,1.071,1.071,0,0,0-1.085.681V21h-.813V16.245h.791l.013.549a1.266,1.266,0,0,1,1.134-.637.831.831,0,0,1,.36.062ZM55.331,31.326H52.65L52.048,33h-.87l2.443-6.4h.738L56.808,33h-.866Zm-2.426-.69h2.175l-1.09-2.993Zm8.38-.593H58.513V32.31h3.221V33H57.669V26.6H61.69v.69H58.513v2.061h2.773Zm6.205.927a2.354,2.354,0,0,1-.749,1.567,2.456,2.456,0,0,1-1.677.552,2.255,2.255,0,0,1-1.817-.813,3.271,3.271,0,0,1-.683-2.175v-.615a3.646,3.646,0,0,1,.319-1.569,2.38,2.38,0,0,1,.9-1.039,2.514,2.514,0,0,1,1.354-.363,2.312,2.312,0,0,1,1.635.569,2.382,2.382,0,0,1,.716,1.575h-.848a1.838,1.838,0,0,0-.477-1.111A1.443,1.443,0,0,0,65.14,27.2a1.51,1.51,0,0,0-1.268.6,2.746,2.746,0,0,0-.459,1.7v.62a2.823,2.823,0,0,0,.435,1.658,1.406,1.406,0,0,0,1.217.616,1.624,1.624,0,0,0,1.079-.319,1.768,1.768,0,0,0,.5-1.11Zm6.073-.962a3.958,3.958,0,0,1-.316,1.641,2.4,2.4,0,0,1-.9,1.07,2.474,2.474,0,0,1-3.6-1.061,3.8,3.8,0,0,1-.332-1.593V29.6a3.911,3.911,0,0,1,.321-1.63,2.373,2.373,0,0,1,2.25-1.459,2.48,2.48,0,0,1,1.356.371,2.392,2.392,0,0,1,.9,1.077,3.977,3.977,0,0,1,.316,1.641Zm-.839-.413a2.869,2.869,0,0,0-.457-1.747,1.507,1.507,0,0,0-1.279-.609,1.491,1.491,0,0,0-1.259.609,2.81,2.81,0,0,0-.472,1.69v.47a2.873,2.873,0,0,0,.464,1.734,1.625,1.625,0,0,0,2.542.035,2.857,2.857,0,0,0,.461-1.707Zm6.812,1.375a2.354,2.354,0,0,1-.749,1.567,2.456,2.456,0,0,1-1.677.552,2.255,2.255,0,0,1-1.817-.813A3.271,3.271,0,0,1,74.61,30.1v-.615a3.646,3.646,0,0,1,.319-1.569,2.38,2.38,0,0,1,.9-1.039,2.514,2.514,0,0,1,1.354-.363,2.312,2.312,0,0,1,1.635.569,2.382,2.382,0,0,1,.716,1.575h-.848a1.838,1.838,0,0,0-.477-1.111,1.443,1.443,0,0,0-1.026-.344,1.51,1.51,0,0,0-1.268.6,2.746,2.746,0,0,0-.459,1.7v.62a2.823,2.823,0,0,0,.435,1.658,1.406,1.406,0,0,0,1.217.616,1.624,1.624,0,0,0,1.079-.319,1.768,1.768,0,0,0,.5-1.11Z" transform="translate(-2089.007 -4681.5)" fill="#12263f"/>
    <path id="Trazado_373295" data-name="Trazado 373295" d="M19.454,6.97a2.354,2.354,0,0,1-.749,1.567,2.456,2.456,0,0,1-1.677.552,2.255,2.255,0,0,1-1.817-.813A3.271,3.271,0,0,1,14.528,6.1V5.484a3.646,3.646,0,0,1,.319-1.569,2.38,2.38,0,0,1,.9-1.039A2.514,2.514,0,0,1,17.1,2.514a2.312,2.312,0,0,1,1.635.569,2.382,2.382,0,0,1,.716,1.575h-.848a1.838,1.838,0,0,0-.477-1.111A1.443,1.443,0,0,0,17.1,3.2a1.51,1.51,0,0,0-1.268.6,2.746,2.746,0,0,0-.459,1.7v.62a2.823,2.823,0,0,0,.435,1.658,1.406,1.406,0,0,0,1.217.616,1.624,1.624,0,0,0,1.079-.319,1.768,1.768,0,0,0,.5-1.11Zm.809-.391a2.808,2.808,0,0,1,.275-1.257A2.049,2.049,0,0,1,21.3,4.46a2.081,2.081,0,0,1,1.118-.3,2.005,2.005,0,0,1,1.571.672,2.587,2.587,0,0,1,.6,1.789v.057a2.833,2.833,0,0,1-.266,1.246,2.019,2.019,0,0,1-.76.859,2.105,2.105,0,0,1-1.136.308,2,2,0,0,1-1.567-.672,2.574,2.574,0,0,1-.6-1.78Zm.817.1a2.034,2.034,0,0,0,.367,1.27,1.243,1.243,0,0,0,1.967-.007,2.224,2.224,0,0,0,.365-1.36,2.031,2.031,0,0,0-.371-1.268,1.181,1.181,0,0,0-.987-.486,1.167,1.167,0,0,0-.971.479A2.208,2.208,0,0,0,21.08,6.675Zm5.3-2.43.026.6a1.733,1.733,0,0,1,1.424-.686q1.507,0,1.521,1.7V9h-.813V5.854a1.1,1.1,0,0,0-.235-.76.942.942,0,0,0-.719-.246,1.173,1.173,0,0,0-.694.211,1.432,1.432,0,0,0-.466.554V9h-.813V4.245Zm5.3-1.151V4.245h.888v.628H31.68V7.826a.66.66,0,0,0,.119.429.5.5,0,0,0,.4.143,1.968,1.968,0,0,0,.387-.053V9a2.371,2.371,0,0,1-.624.087,1.012,1.012,0,0,1-.822-.33,1.416,1.416,0,0,1-.277-.936V4.874H30V4.245h.866V3.094ZM36.452,9a1.708,1.708,0,0,1-.114-.5,1.814,1.814,0,0,1-1.354.589,1.678,1.678,0,0,1-1.154-.4,1.287,1.287,0,0,1-.45-1.009,1.344,1.344,0,0,1,.565-1.154,2.662,2.662,0,0,1,1.589-.411h.791V5.744a.913.913,0,0,0-.255-.679,1.024,1.024,0,0,0-.751-.253,1.185,1.185,0,0,0-.729.22.647.647,0,0,0-.294.532h-.817a1.122,1.122,0,0,1,.253-.688,1.725,1.725,0,0,1,.686-.525,2.306,2.306,0,0,1,.951-.193,1.88,1.88,0,0,1,1.288.411A1.482,1.482,0,0,1,37.138,5.7V7.888A2.676,2.676,0,0,0,37.3,8.93V9ZM35.1,8.38a1.429,1.429,0,0,0,.725-.2,1.2,1.2,0,0,0,.5-.514V6.693h-.637q-1.494,0-1.494.875a.74.74,0,0,0,.255.6A.98.98,0,0,0,35.1,8.38Zm3.111-1.8a2.785,2.785,0,0,1,.519-1.76,1.764,1.764,0,0,1,2.681-.094V2.25h.813V9H41.48l-.04-.51a1.656,1.656,0,0,1-1.358.6,1.624,1.624,0,0,1-1.347-.677,2.817,2.817,0,0,1-.521-1.767Zm.813.092a2.109,2.109,0,0,0,.334,1.266,1.08,1.08,0,0,0,.923.457A1.186,1.186,0,0,0,41.414,7.7V5.52a1.2,1.2,0,0,0-1.121-.672,1.085,1.085,0,0,0-.932.461A2.322,2.322,0,0,0,39.028,6.675Zm4.245-.1a2.808,2.808,0,0,1,.275-1.257,2.049,2.049,0,0,1,.765-.861,2.081,2.081,0,0,1,1.118-.3A2.005,2.005,0,0,1,47,4.83a2.587,2.587,0,0,1,.6,1.789v.057a2.833,2.833,0,0,1-.266,1.246,2.019,2.019,0,0,1-.76.859,2.105,2.105,0,0,1-1.136.308,2,2,0,0,1-1.567-.672,2.574,2.574,0,0,1-.6-1.78Zm.817.1a2.034,2.034,0,0,0,.367,1.27,1.243,1.243,0,0,0,1.967-.007,2.224,2.224,0,0,0,.365-1.36,2.031,2.031,0,0,0-.371-1.268,1.181,1.181,0,0,0-.987-.486,1.167,1.167,0,0,0-.971.479A2.208,2.208,0,0,0,44.09,6.675Zm6.829-1.7a2.436,2.436,0,0,0-.4-.031,1.071,1.071,0,0,0-1.085.681V9h-.813V4.245h.791l.013.549a1.266,1.266,0,0,1,1.134-.637.831.831,0,0,1,.36.062ZM53.7,6.583a2.785,2.785,0,0,1,.519-1.76A1.764,1.764,0,0,1,56.9,4.729V2.25h.813V9h-.747l-.04-.51a1.656,1.656,0,0,1-1.358.6,1.624,1.624,0,0,1-1.347-.677A2.817,2.817,0,0,1,53.7,6.645Zm.813.092a2.109,2.109,0,0,0,.334,1.266,1.08,1.08,0,0,0,.923.457A1.186,1.186,0,0,0,56.9,7.7V5.52a1.2,1.2,0,0,0-1.121-.672,1.085,1.085,0,0,0-.932.461A2.322,2.322,0,0,0,54.51,6.675Zm6.434,2.413a2.078,2.078,0,0,1-1.573-.635,2.357,2.357,0,0,1-.606-1.7V6.6a2.853,2.853,0,0,1,.27-1.263,2.108,2.108,0,0,1,.756-.87,1.9,1.9,0,0,1,1.052-.314,1.781,1.781,0,0,1,1.441.611A2.645,2.645,0,0,1,62.8,6.517v.338H59.576a1.69,1.69,0,0,0,.411,1.136,1.292,1.292,0,0,0,1,.433,1.416,1.416,0,0,0,.729-.176,1.833,1.833,0,0,0,.523-.466l.5.387A2,2,0,0,1,60.943,9.088Zm-.1-4.263a1.084,1.084,0,0,0-.826.358,1.741,1.741,0,0,0-.413,1h2.382V6.126a1.548,1.548,0,0,0-.334-.96A1.021,1.021,0,0,0,60.842,4.825Zm7.422.149a2.436,2.436,0,0,0-.4-.031,1.071,1.071,0,0,0-1.085.681V9h-.813V4.245h.791l.013.549A1.266,1.266,0,0,1,67.9,4.157a.831.831,0,0,1,.36.062ZM70.9,9.088a2.078,2.078,0,0,1-1.573-.635,2.357,2.357,0,0,1-.606-1.7V6.6a2.853,2.853,0,0,1,.27-1.263,2.108,2.108,0,0,1,.756-.87A1.9,1.9,0,0,1,70.8,4.157a1.781,1.781,0,0,1,1.441.611,2.645,2.645,0,0,1,.514,1.749v.338H69.534a1.69,1.69,0,0,0,.411,1.136,1.292,1.292,0,0,0,1,.433,1.416,1.416,0,0,0,.729-.176,1.833,1.833,0,0,0,.523-.466l.5.387A2,2,0,0,1,70.9,9.088Zm-.1-4.263a1.084,1.084,0,0,0-.826.358,1.741,1.741,0,0,0-.413,1h2.382V6.126a1.548,1.548,0,0,0-.334-.96A1.021,1.021,0,0,0,70.8,4.825ZM74.1,9V4.874h-.751V4.245H74.1V3.757A1.619,1.619,0,0,1,74.5,2.575a1.544,1.544,0,0,1,1.156-.417,2.147,2.147,0,0,1,.558.074l-.044.655a2.335,2.335,0,0,0-.439-.04.793.793,0,0,0-.611.231.939.939,0,0,0-.215.663v.5h1.015v.628H74.909V9Zm4.592.088a2.078,2.078,0,0,1-1.573-.635,2.357,2.357,0,0,1-.606-1.7V6.6a2.853,2.853,0,0,1,.27-1.263,2.108,2.108,0,0,1,.756-.87,1.9,1.9,0,0,1,1.052-.314,1.781,1.781,0,0,1,1.441.611,2.645,2.645,0,0,1,.514,1.749v.338H77.322a1.69,1.69,0,0,0,.411,1.136,1.292,1.292,0,0,0,1,.433,1.416,1.416,0,0,0,.729-.176,1.833,1.833,0,0,0,.523-.466l.5.387A2,2,0,0,1,78.688,9.088Zm-.1-4.263a1.084,1.084,0,0,0-.826.358,1.741,1.741,0,0,0-.413,1H79.73V6.126a1.548,1.548,0,0,0-.334-.96A1.021,1.021,0,0,0,78.587,4.825Zm5.194.149a2.436,2.436,0,0,0-.4-.031,1.071,1.071,0,0,0-1.085.681V9h-.813V4.245h.791l.013.549a1.266,1.266,0,0,1,1.134-.637.831.831,0,0,1,.36.062Zm2.637,4.113a2.078,2.078,0,0,1-1.573-.635,2.357,2.357,0,0,1-.606-1.7V6.6a2.853,2.853,0,0,1,.27-1.263,2.108,2.108,0,0,1,.756-.87,1.9,1.9,0,0,1,1.052-.314,1.781,1.781,0,0,1,1.441.611,2.645,2.645,0,0,1,.514,1.749v.338H85.052a1.69,1.69,0,0,0,.411,1.136,1.292,1.292,0,0,0,1,.433,1.416,1.416,0,0,0,.729-.176,1.833,1.833,0,0,0,.523-.466l.5.387A2,2,0,0,1,86.418,9.088Zm-.1-4.263a1.084,1.084,0,0,0-.826.358,1.741,1.741,0,0,0-.413,1H87.46V6.126a1.548,1.548,0,0,0-.334-.96A1.021,1.021,0,0,0,86.317,4.825Zm3.665-.58.026.6a1.733,1.733,0,0,1,1.424-.686q1.507,0,1.521,1.7V9H92.14V5.854a1.1,1.1,0,0,0-.235-.76.942.942,0,0,0-.719-.246,1.173,1.173,0,0,0-.694.211,1.432,1.432,0,0,0-.466.554V9h-.813V4.245Zm6.1,4.179a1.171,1.171,0,0,0,.76-.264.928.928,0,0,0,.36-.659h.769a1.474,1.474,0,0,1-.281.778A1.852,1.852,0,0,1,97,8.868a2,2,0,0,1-.916.22,1.959,1.959,0,0,1-1.545-.648,2.582,2.582,0,0,1-.573-1.773V6.53A2.863,2.863,0,0,1,94.223,5.3a1.941,1.941,0,0,1,.732-.839,2.078,2.078,0,0,1,1.127-.3,1.907,1.907,0,0,1,1.329.479,1.712,1.712,0,0,1,.565,1.244h-.769a1.12,1.12,0,0,0-.349-.758,1.087,1.087,0,0,0-.776-.3,1.138,1.138,0,0,0-.96.446,2.1,2.1,0,0,0-.341,1.29v.154a2.053,2.053,0,0,0,.338,1.266A1.143,1.143,0,0,0,96.086,8.424ZM99.773,9H98.96V4.245h.813Zm-.879-6.016a.485.485,0,0,1,.121-.334.454.454,0,0,1,.358-.136.461.461,0,0,1,.36.136.48.48,0,0,1,.123.334.464.464,0,0,1-.123.33.469.469,0,0,1-.36.132.462.462,0,0,1-.358-.132A.469.469,0,0,1,98.894,2.984ZM104.01,9a1.708,1.708,0,0,1-.114-.5,1.814,1.814,0,0,1-1.354.589,1.678,1.678,0,0,1-1.154-.4,1.287,1.287,0,0,1-.45-1.009,1.344,1.344,0,0,1,.565-1.154,2.662,2.662,0,0,1,1.589-.411h.791V5.744a.913.913,0,0,0-.255-.679,1.024,1.024,0,0,0-.751-.253,1.185,1.185,0,0,0-.729.22.647.647,0,0,0-.294.532h-.817a1.122,1.122,0,0,1,.253-.688,1.725,1.725,0,0,1,.686-.525,2.306,2.306,0,0,1,.951-.193,1.88,1.88,0,0,1,1.288.411A1.482,1.482,0,0,1,104.7,5.7V7.888a2.676,2.676,0,0,0,.167,1.042V9Zm-1.349-.62a1.429,1.429,0,0,0,.725-.2,1.2,1.2,0,0,0,.5-.514V6.693h-.637q-1.494,0-1.494.875a.74.74,0,0,0,.255.6A.98.98,0,0,0,102.66,8.38Zm6.078-.642a.6.6,0,0,0-.248-.512,2.39,2.39,0,0,0-.866-.314,4.093,4.093,0,0,1-.98-.316,1.394,1.394,0,0,1-.536-.439,1.051,1.051,0,0,1-.174-.606,1.233,1.233,0,0,1,.494-.989,1.931,1.931,0,0,1,1.263-.4A1.987,1.987,0,0,1,109,4.575a1.326,1.326,0,0,1,.5,1.068h-.817a.734.734,0,0,0-.283-.576,1.062,1.062,0,0,0-.714-.242,1.111,1.111,0,0,0-.694.193.609.609,0,0,0-.25.505.493.493,0,0,0,.233.444,2.866,2.866,0,0,0,.842.286,4.385,4.385,0,0,1,.987.325,1.439,1.439,0,0,1,.56.455,1.118,1.118,0,0,1,.182.648,1.217,1.217,0,0,1-.51,1.022,2.138,2.138,0,0,1-1.323.385,2.394,2.394,0,0,1-1.011-.2,1.644,1.644,0,0,1-.688-.565,1.361,1.361,0,0,1-.248-.784h.813a.842.842,0,0,0,.327.648,1.27,1.27,0,0,0,.806.24,1.311,1.311,0,0,0,.74-.187A.574.574,0,0,0,108.738,7.739ZM19.986,18.675a2.847,2.847,0,0,1-.5,1.749,1.592,1.592,0,0,1-1.345.664,1.744,1.744,0,0,1-1.362-.549v2.29h-.813V16.245h.743l.04.527a1.675,1.675,0,0,1,1.38-.615,1.621,1.621,0,0,1,1.356.646,2.878,2.878,0,0,1,.5,1.8Zm-.813-.092a2.1,2.1,0,0,0-.343-1.27,1.1,1.1,0,0,0-.94-.466,1.2,1.2,0,0,0-1.107.655v2.272a1.2,1.2,0,0,0,1.116.65,1.1,1.1,0,0,0,.929-.464A2.293,2.293,0,0,0,19.173,18.583ZM23.954,21a1.708,1.708,0,0,1-.114-.5,1.814,1.814,0,0,1-1.354.589,1.678,1.678,0,0,1-1.154-.4,1.287,1.287,0,0,1-.45-1.009,1.344,1.344,0,0,1,.565-1.154,2.662,2.662,0,0,1,1.589-.411h.791v-.374a.913.913,0,0,0-.255-.679,1.024,1.024,0,0,0-.751-.253,1.185,1.185,0,0,0-.729.22.647.647,0,0,0-.294.532h-.817a1.122,1.122,0,0,1,.253-.688,1.725,1.725,0,0,1,.686-.525,2.306,2.306,0,0,1,.951-.193,1.88,1.88,0,0,1,1.288.411A1.482,1.482,0,0,1,24.64,17.7v2.188a2.676,2.676,0,0,0,.167,1.042V21Zm-1.349-.62a1.429,1.429,0,0,0,.725-.2,1.2,1.2,0,0,0,.5-.514v-.976H23.19q-1.494,0-1.494.875a.74.74,0,0,0,.255.6A.98.98,0,0,0,22.605,20.38Zm5.607-3.406a2.436,2.436,0,0,0-.4-.031,1.071,1.071,0,0,0-1.085.681V21h-.813V16.245h.791l.013.549a1.266,1.266,0,0,1,1.134-.637.831.831,0,0,1,.36.062Zm2.07-1.881v1.151h.888v.628h-.888v2.952a.66.66,0,0,0,.119.429.5.5,0,0,0,.4.143,1.968,1.968,0,0,0,.387-.053V21a2.371,2.371,0,0,1-.624.087,1.012,1.012,0,0,1-.822-.33,1.416,1.416,0,0,1-.277-.936V16.874H28.6v-.628h.866V15.094Zm3.81,5.994a2.078,2.078,0,0,1-1.573-.635,2.357,2.357,0,0,1-.606-1.7V18.6a2.853,2.853,0,0,1,.27-1.263,2.108,2.108,0,0,1,.756-.87,1.9,1.9,0,0,1,1.052-.314,1.781,1.781,0,0,1,1.441.611,2.645,2.645,0,0,1,.514,1.749v.338H32.726a1.69,1.69,0,0,0,.411,1.136,1.292,1.292,0,0,0,1,.433,1.416,1.416,0,0,0,.729-.176,1.833,1.833,0,0,0,.523-.466l.5.387A2,2,0,0,1,34.093,21.088Zm-.1-4.263a1.084,1.084,0,0,0-.826.358,1.741,1.741,0,0,0-.413,1h2.382v-.062a1.548,1.548,0,0,0-.334-.96A1.021,1.021,0,0,0,33.991,16.825ZM40.684,19.9l1.178-3.652h.831L40.988,21h-.62l-1.723-4.755h.831Zm5.66,1.1a1.708,1.708,0,0,1-.114-.5,1.814,1.814,0,0,1-1.354.589,1.678,1.678,0,0,1-1.154-.4,1.287,1.287,0,0,1-.45-1.009,1.344,1.344,0,0,1,.565-1.154,2.662,2.662,0,0,1,1.589-.411h.791v-.374a.913.913,0,0,0-.255-.679,1.024,1.024,0,0,0-.751-.253,1.185,1.185,0,0,0-.729.22.647.647,0,0,0-.294.532h-.817a1.122,1.122,0,0,1,.253-.688,1.725,1.725,0,0,1,.686-.525,2.306,2.306,0,0,1,.951-.193,1.88,1.88,0,0,1,1.288.411A1.482,1.482,0,0,1,47.03,17.7v2.188A2.676,2.676,0,0,0,47.2,20.93V21ZM45,20.38a1.429,1.429,0,0,0,.725-.2,1.2,1.2,0,0,0,.5-.514v-.976H45.58q-1.494,0-1.494.875a.74.74,0,0,0,.255.6A.98.98,0,0,0,45,20.38ZM50.6,16.975a2.436,2.436,0,0,0-.4-.031,1.071,1.071,0,0,0-1.085.681V21H48.3V16.245H49.1l.013.549a1.266,1.266,0,0,1,1.134-.637.831.831,0,0,1,.36.062ZM52.233,21H51.42V16.245h.813Zm-.879-6.016a.485.485,0,0,1,.121-.334.454.454,0,0,1,.358-.136.461.461,0,0,1,.36.136.48.48,0,0,1,.123.334.464.464,0,0,1-.123.33.469.469,0,0,1-.36.132.462.462,0,0,1-.358-.132A.469.469,0,0,1,51.354,14.984ZM56.469,21a1.708,1.708,0,0,1-.114-.5A1.814,1.814,0,0,1,55,21.088a1.678,1.678,0,0,1-1.154-.4,1.287,1.287,0,0,1-.45-1.009,1.344,1.344,0,0,1,.565-1.154,2.662,2.662,0,0,1,1.589-.411h.791v-.374a.913.913,0,0,0-.255-.679,1.024,1.024,0,0,0-.751-.253,1.185,1.185,0,0,0-.729.22.647.647,0,0,0-.294.532h-.817a1.122,1.122,0,0,1,.253-.688,1.725,1.725,0,0,1,.686-.525,2.306,2.306,0,0,1,.951-.193,1.88,1.88,0,0,1,1.288.411,1.482,1.482,0,0,1,.483,1.132v2.188a2.676,2.676,0,0,0,.167,1.042V21Zm-1.349-.62a1.429,1.429,0,0,0,.725-.2,1.2,1.2,0,0,0,.5-.514v-.976H55.7q-1.494,0-1.494.875a.74.74,0,0,0,.255.6A.98.98,0,0,0,55.12,20.38Zm7.334-1.705a2.827,2.827,0,0,1-.5,1.751,1.6,1.6,0,0,1-1.345.661,1.658,1.658,0,0,1-1.393-.637l-.04.549h-.747V14.25h.813v2.518a1.648,1.648,0,0,1,1.358-.611,1.61,1.61,0,0,1,1.36.655,2.912,2.912,0,0,1,.494,1.793Zm-.813-.092a2.2,2.2,0,0,0-.321-1.283,1.062,1.062,0,0,0-.923-.453,1.194,1.194,0,0,0-1.156.747v2.057a1.227,1.227,0,0,0,1.165.747,1.056,1.056,0,0,0,.91-.453A2.336,2.336,0,0,0,61.642,18.583ZM64.362,21h-.813V14.25h.813Zm3.274.088a2.078,2.078,0,0,1-1.573-.635,2.357,2.357,0,0,1-.606-1.7V18.6a2.853,2.853,0,0,1,.27-1.263,2.108,2.108,0,0,1,.756-.87,1.9,1.9,0,0,1,1.052-.314,1.781,1.781,0,0,1,1.441.611,2.645,2.645,0,0,1,.514,1.749v.338H66.269a1.69,1.69,0,0,0,.411,1.136,1.292,1.292,0,0,0,1,.433,1.416,1.416,0,0,0,.729-.176,1.833,1.833,0,0,0,.523-.466l.5.387A2,2,0,0,1,67.636,21.088Zm-.1-4.263a1.084,1.084,0,0,0-.826.358,1.741,1.741,0,0,0-.413,1h2.382v-.062a1.548,1.548,0,0,0-.334-.96A1.021,1.021,0,0,0,67.535,16.825ZM75.594,21a1.708,1.708,0,0,1-.114-.5,1.814,1.814,0,0,1-1.354.589,1.678,1.678,0,0,1-1.154-.4,1.287,1.287,0,0,1-.45-1.009,1.344,1.344,0,0,1,.565-1.154,2.662,2.662,0,0,1,1.589-.411h.791v-.374a.913.913,0,0,0-.255-.679,1.024,1.024,0,0,0-.751-.253,1.185,1.185,0,0,0-.729.22.647.647,0,0,0-.294.532h-.817a1.122,1.122,0,0,1,.253-.688,1.725,1.725,0,0,1,.686-.525,2.306,2.306,0,0,1,.951-.193,1.88,1.88,0,0,1,1.288.411A1.482,1.482,0,0,1,76.28,17.7v2.188a2.676,2.676,0,0,0,.167,1.042V21Zm-1.349-.62a1.429,1.429,0,0,0,.725-.2,1.2,1.2,0,0,0,.5-.514v-.976H74.83q-1.494,0-1.494.875a.74.74,0,0,0,.255.6A.98.98,0,0,0,74.245,20.38Zm6.078-.642a.6.6,0,0,0-.248-.512,2.39,2.39,0,0,0-.866-.314,4.093,4.093,0,0,1-.98-.316,1.394,1.394,0,0,1-.536-.439,1.051,1.051,0,0,1-.174-.606,1.233,1.233,0,0,1,.494-.989,1.931,1.931,0,0,1,1.263-.4,1.987,1.987,0,0,1,1.312.417,1.326,1.326,0,0,1,.5,1.068h-.817a.734.734,0,0,0-.283-.576,1.062,1.062,0,0,0-.714-.242,1.111,1.111,0,0,0-.694.193.609.609,0,0,0-.25.505.493.493,0,0,0,.233.444,2.866,2.866,0,0,0,.842.286,4.385,4.385,0,0,1,.987.325,1.439,1.439,0,0,1,.56.455,1.118,1.118,0,0,1,.182.648,1.217,1.217,0,0,1-.51,1.022,2.138,2.138,0,0,1-1.323.385,2.394,2.394,0,0,1-1.011-.2,1.644,1.644,0,0,1-.688-.565,1.361,1.361,0,0,1-.248-.784h.813a.842.842,0,0,0,.327.648,1.27,1.27,0,0,0,.806.24,1.311,1.311,0,0,0,.74-.187A.574.574,0,0,0,80.323,19.739ZM83.078,21h-.813V16.245h.813ZM82.2,14.984a.485.485,0,0,1,.121-.334.454.454,0,0,1,.358-.136.461.461,0,0,1,.36.136.48.48,0,0,1,.123.334.464.464,0,0,1-.123.33.469.469,0,0,1-.36.132.462.462,0,0,1-.358-.132A.469.469,0,0,1,82.2,14.984Zm1.986,3.6a2.8,2.8,0,0,1,.514-1.769,1.773,1.773,0,0,1,2.72-.042l.04-.527H88.2v4.641a1.934,1.934,0,0,1-.547,1.455,2.019,2.019,0,0,1-1.47.532,2.446,2.446,0,0,1-1.006-.22,1.732,1.732,0,0,1-.751-.6l.422-.488a1.59,1.59,0,0,0,1.279.646,1.246,1.246,0,0,0,.925-.334,1.277,1.277,0,0,0,.332-.94v-.409a1.671,1.671,0,0,1-1.332.563,1.624,1.624,0,0,1-1.351-.672A2.938,2.938,0,0,1,84.186,18.583Zm.817.092a2.132,2.132,0,0,0,.33,1.263,1.071,1.071,0,0,0,.923.459,1.191,1.191,0,0,0,1.129-.7V17.528a1.2,1.2,0,0,0-1.121-.681,1.081,1.081,0,0,0-.927.461A2.322,2.322,0,0,0,85,18.675Zm5.194-2.43.026.6a1.733,1.733,0,0,1,1.424-.686q1.507,0,1.521,1.7V21h-.813V17.854a1.1,1.1,0,0,0-.235-.76.942.942,0,0,0-.719-.246,1.173,1.173,0,0,0-.694.211,1.432,1.432,0,0,0-.466.554V21h-.813V16.245ZM97.33,21a1.708,1.708,0,0,1-.114-.5,1.814,1.814,0,0,1-1.354.589,1.678,1.678,0,0,1-1.154-.4,1.287,1.287,0,0,1-.45-1.009,1.344,1.344,0,0,1,.565-1.154,2.662,2.662,0,0,1,1.589-.411H97.2v-.374a.913.913,0,0,0-.255-.679,1.024,1.024,0,0,0-.751-.253,1.185,1.185,0,0,0-.729.22.647.647,0,0,0-.294.532h-.817a1.122,1.122,0,0,1,.253-.688,1.725,1.725,0,0,1,.686-.525,2.306,2.306,0,0,1,.951-.193,1.88,1.88,0,0,1,1.288.411,1.482,1.482,0,0,1,.483,1.132v2.188a2.676,2.676,0,0,0,.167,1.042V21Zm-1.349-.62a1.429,1.429,0,0,0,.725-.2,1.2,1.2,0,0,0,.5-.514v-.976h-.637q-1.494,0-1.494.875a.74.74,0,0,0,.255.6A.98.98,0,0,0,95.981,20.38Zm3.111-1.8a2.785,2.785,0,0,1,.519-1.76,1.764,1.764,0,0,1,2.681-.094V14.25h.813V21h-.747l-.04-.51a1.656,1.656,0,0,1-1.358.6,1.624,1.624,0,0,1-1.347-.677,2.817,2.817,0,0,1-.521-1.767Zm.813.092a2.109,2.109,0,0,0,.334,1.266,1.08,1.08,0,0,0,.923.457,1.186,1.186,0,0,0,1.129-.694V17.52a1.2,1.2,0,0,0-1.121-.672,1.085,1.085,0,0,0-.932.461A2.322,2.322,0,0,0,99.905,18.675ZM107.3,21a1.708,1.708,0,0,1-.114-.5,1.814,1.814,0,0,1-1.354.589,1.678,1.678,0,0,1-1.154-.4,1.287,1.287,0,0,1-.45-1.009,1.344,1.344,0,0,1,.565-1.154,2.662,2.662,0,0,1,1.589-.411h.791v-.374a.913.913,0,0,0-.255-.679,1.024,1.024,0,0,0-.751-.253,1.185,1.185,0,0,0-.729.22.647.647,0,0,0-.294.532h-.817a1.122,1.122,0,0,1,.253-.688,1.725,1.725,0,0,1,.686-.525,2.306,2.306,0,0,1,.951-.193,1.88,1.88,0,0,1,1.288.411,1.482,1.482,0,0,1,.483,1.132v2.188a2.676,2.676,0,0,0,.167,1.042V21Zm-1.349-.62a1.429,1.429,0,0,0,.725-.2,1.2,1.2,0,0,0,.5-.514v-.976h-.637q-1.494,0-1.494.875a.74.74,0,0,0,.255.6A.98.98,0,0,0,105.952,20.38ZM17.435,30.675a2.847,2.847,0,0,1-.5,1.749,1.592,1.592,0,0,1-1.345.664,1.744,1.744,0,0,1-1.362-.549v2.29h-.813V28.245h.743l.04.527a1.675,1.675,0,0,1,1.38-.615,1.621,1.621,0,0,1,1.356.646,2.878,2.878,0,0,1,.5,1.8Zm-.813-.092a2.1,2.1,0,0,0-.343-1.27,1.1,1.1,0,0,0-.94-.466,1.2,1.2,0,0,0-1.107.655v2.272a1.2,1.2,0,0,0,1.116.65,1.1,1.1,0,0,0,.929-.464A2.293,2.293,0,0,0,16.622,30.583Zm1.63,0a2.808,2.808,0,0,1,.275-1.257,2.049,2.049,0,0,1,.765-.861,2.081,2.081,0,0,1,1.118-.3,2.005,2.005,0,0,1,1.571.672,2.587,2.587,0,0,1,.6,1.789v.057a2.833,2.833,0,0,1-.266,1.246,2.019,2.019,0,0,1-.76.859,2.105,2.105,0,0,1-1.136.308,2,2,0,0,1-1.567-.672,2.574,2.574,0,0,1-.6-1.78Zm.817.1a2.034,2.034,0,0,0,.367,1.27,1.243,1.243,0,0,0,1.967-.007,2.224,2.224,0,0,0,.365-1.36,2.031,2.031,0,0,0-.371-1.268,1.181,1.181,0,0,0-.987-.486,1.167,1.167,0,0,0-.971.479A2.208,2.208,0,0,0,19.07,30.675Zm6.829-1.7a2.436,2.436,0,0,0-.4-.031,1.071,1.071,0,0,0-1.085.681V33H23.6V28.245h.791l.013.549a1.266,1.266,0,0,1,1.134-.637.831.831,0,0,1,.36.062ZM29.757,33h-.813V26.25h.813Zm4.236,0a1.708,1.708,0,0,1-.114-.5,1.814,1.814,0,0,1-1.354.589,1.678,1.678,0,0,1-1.154-.4,1.287,1.287,0,0,1-.45-1.009,1.344,1.344,0,0,1,.565-1.154,2.662,2.662,0,0,1,1.589-.411h.791v-.374a.913.913,0,0,0-.255-.679,1.024,1.024,0,0,0-.751-.253,1.185,1.185,0,0,0-.729.22.647.647,0,0,0-.294.532h-.817a1.122,1.122,0,0,1,.253-.688,1.725,1.725,0,0,1,.686-.525,2.306,2.306,0,0,1,.951-.193,1.88,1.88,0,0,1,1.288.411,1.482,1.482,0,0,1,.483,1.132v2.188a2.676,2.676,0,0,0,.167,1.042V33Zm-1.349-.62a1.429,1.429,0,0,0,.725-.2,1.2,1.2,0,0,0,.5-.514v-.976h-.637q-1.494,0-1.494.875a.74.74,0,0,0,.255.6A.98.98,0,0,0,32.645,32.38Zm7.51.708a2.078,2.078,0,0,1-1.573-.635,2.357,2.357,0,0,1-.606-1.7V30.6a2.853,2.853,0,0,1,.27-1.263,2.108,2.108,0,0,1,.756-.87,1.9,1.9,0,0,1,1.052-.314,1.781,1.781,0,0,1,1.441.611,2.645,2.645,0,0,1,.514,1.749v.338H38.788a1.69,1.69,0,0,0,.411,1.136,1.292,1.292,0,0,0,1,.433,1.416,1.416,0,0,0,.729-.176,1.833,1.833,0,0,0,.523-.466l.5.387A2,2,0,0,1,40.155,33.088Zm-.1-4.263a1.084,1.084,0,0,0-.826.358,1.741,1.741,0,0,0-.413,1H41.2v-.062a1.548,1.548,0,0,0-.334-.96A1.021,1.021,0,0,0,40.054,28.825Zm3.661-.58.022.527a1.756,1.756,0,0,1,1.411-.615,1.359,1.359,0,0,1,1.358.765,1.8,1.8,0,0,1,.617-.554,1.824,1.824,0,0,1,.9-.211q1.564,0,1.591,1.657V33H48.8V29.862a1.092,1.092,0,0,0-.233-.762,1.026,1.026,0,0,0-.782-.253,1.078,1.078,0,0,0-.751.27,1.1,1.1,0,0,0-.347.727V33h-.817V29.884a.907.907,0,0,0-1.015-1.037,1.088,1.088,0,0,0-1.094.681V33h-.813V28.245Zm11.14,2.43a2.847,2.847,0,0,1-.5,1.749,1.592,1.592,0,0,1-1.345.664,1.744,1.744,0,0,1-1.362-.549v2.29h-.813V28.245h.743l.04.527A1.675,1.675,0,0,1,53,28.157a1.621,1.621,0,0,1,1.356.646,2.878,2.878,0,0,1,.5,1.8Zm-.813-.092a2.1,2.1,0,0,0-.343-1.27,1.1,1.1,0,0,0-.94-.466,1.2,1.2,0,0,0-1.107.655v2.272a1.2,1.2,0,0,0,1.116.65,1.1,1.1,0,0,0,.929-.464A2.293,2.293,0,0,0,54.042,30.583Zm4.144-1.608a2.436,2.436,0,0,0-.4-.031,1.071,1.071,0,0,0-1.085.681V33h-.813V28.245h.791l.013.549a1.266,1.266,0,0,1,1.134-.637.831.831,0,0,1,.36.062Zm2.637,4.113a2.078,2.078,0,0,1-1.573-.635,2.357,2.357,0,0,1-.606-1.7V30.6a2.853,2.853,0,0,1,.27-1.263,2.108,2.108,0,0,1,.756-.87,1.9,1.9,0,0,1,1.052-.314,1.781,1.781,0,0,1,1.441.611,2.645,2.645,0,0,1,.514,1.749v.338H59.456a1.69,1.69,0,0,0,.411,1.136,1.292,1.292,0,0,0,1,.433,1.416,1.416,0,0,0,.729-.176,1.833,1.833,0,0,0,.523-.466l.5.387A2,2,0,0,1,60.822,33.088Zm-.1-4.263a1.084,1.084,0,0,0-.826.358,1.741,1.741,0,0,0-.413,1h2.382v-.062a1.548,1.548,0,0,0-.334-.96A1.021,1.021,0,0,0,60.721,28.825Zm5.665,2.914a.6.6,0,0,0-.248-.512,2.39,2.39,0,0,0-.866-.314,4.093,4.093,0,0,1-.98-.316,1.394,1.394,0,0,1-.536-.439,1.051,1.051,0,0,1-.174-.606,1.233,1.233,0,0,1,.494-.989,1.931,1.931,0,0,1,1.263-.4,1.987,1.987,0,0,1,1.312.417,1.326,1.326,0,0,1,.5,1.068h-.817a.734.734,0,0,0-.283-.576,1.062,1.062,0,0,0-.714-.242,1.111,1.111,0,0,0-.694.193.609.609,0,0,0-.25.505.493.493,0,0,0,.233.444,2.866,2.866,0,0,0,.842.286,4.385,4.385,0,0,1,.987.325,1.439,1.439,0,0,1,.56.455,1.118,1.118,0,0,1,.182.648,1.217,1.217,0,0,1-.51,1.022,2.138,2.138,0,0,1-1.323.385,2.394,2.394,0,0,1-1.011-.2,1.644,1.644,0,0,1-.688-.565,1.361,1.361,0,0,1-.248-.784h.813a.842.842,0,0,0,.327.648,1.27,1.27,0,0,0,.806.24,1.311,1.311,0,0,0,.74-.187A.574.574,0,0,0,66.386,31.739ZM71.193,33a1.708,1.708,0,0,1-.114-.5,1.814,1.814,0,0,1-1.354.589,1.678,1.678,0,0,1-1.154-.4,1.287,1.287,0,0,1-.45-1.009,1.344,1.344,0,0,1,.565-1.154,2.662,2.662,0,0,1,1.589-.411h.791v-.374a.913.913,0,0,0-.255-.679,1.024,1.024,0,0,0-.751-.253,1.185,1.185,0,0,0-.729.22.647.647,0,0,0-.294.532h-.817a1.122,1.122,0,0,1,.253-.688,1.725,1.725,0,0,1,.686-.525,2.306,2.306,0,0,1,.951-.193,1.88,1.88,0,0,1,1.288.411,1.482,1.482,0,0,1,.483,1.132v2.188a2.676,2.676,0,0,0,.167,1.042V33Zm-1.349-.62a1.429,1.429,0,0,0,.725-.2,1.2,1.2,0,0,0,.5-.514v-.976h-.637q-1.494,0-1.494.875a.74.74,0,0,0,.255.6A.98.98,0,0,0,69.844,32.38Zm8.473.62a1.708,1.708,0,0,1-.114-.5,1.814,1.814,0,0,1-1.354.589,1.678,1.678,0,0,1-1.154-.4,1.287,1.287,0,0,1-.45-1.009,1.344,1.344,0,0,1,.565-1.154,2.662,2.662,0,0,1,1.589-.411h.791v-.374a.913.913,0,0,0-.255-.679,1.024,1.024,0,0,0-.751-.253,1.185,1.185,0,0,0-.729.22.647.647,0,0,0-.294.532h-.817a1.122,1.122,0,0,1,.253-.688,1.725,1.725,0,0,1,.686-.525,2.306,2.306,0,0,1,.951-.193,1.88,1.88,0,0,1,1.288.411A1.482,1.482,0,0,1,79,29.7v2.188a2.676,2.676,0,0,0,.167,1.042V33Zm-1.349-.62a1.429,1.429,0,0,0,.725-.2,1.2,1.2,0,0,0,.5-.514v-.976h-.637q-1.494,0-1.494.875a.74.74,0,0,0,.255.6A.98.98,0,0,0,76.968,32.38Zm6.078-.642a.6.6,0,0,0-.248-.512,2.39,2.39,0,0,0-.866-.314,4.093,4.093,0,0,1-.98-.316,1.394,1.394,0,0,1-.536-.439,1.051,1.051,0,0,1-.174-.606,1.233,1.233,0,0,1,.494-.989,1.931,1.931,0,0,1,1.263-.4,1.987,1.987,0,0,1,1.312.417,1.326,1.326,0,0,1,.5,1.068H83a.734.734,0,0,0-.283-.576A1.062,1.062,0,0,0,82,28.825a1.111,1.111,0,0,0-.694.193.609.609,0,0,0-.25.505.493.493,0,0,0,.233.444,2.866,2.866,0,0,0,.842.286,4.385,4.385,0,0,1,.987.325,1.439,1.439,0,0,1,.56.455,1.118,1.118,0,0,1,.182.648,1.217,1.217,0,0,1-.51,1.022,2.138,2.138,0,0,1-1.323.385,2.394,2.394,0,0,1-1.011-.2,1.644,1.644,0,0,1-.688-.565,1.361,1.361,0,0,1-.248-.784h.813a.842.842,0,0,0,.327.648,1.27,1.27,0,0,0,.806.24,1.311,1.311,0,0,0,.74-.187A.574.574,0,0,0,83.045,31.739Zm1.657-1.16a2.808,2.808,0,0,1,.275-1.257,2.049,2.049,0,0,1,.765-.861,2.081,2.081,0,0,1,1.118-.3,2.005,2.005,0,0,1,1.571.672,2.587,2.587,0,0,1,.6,1.789v.057a2.833,2.833,0,0,1-.266,1.246,2.019,2.019,0,0,1-.76.859,2.105,2.105,0,0,1-1.136.308,2,2,0,0,1-1.567-.672,2.574,2.574,0,0,1-.6-1.78Zm.817.1a2.034,2.034,0,0,0,.367,1.27,1.243,1.243,0,0,0,1.967-.007,2.224,2.224,0,0,0,.365-1.36,2.031,2.031,0,0,0-.371-1.268,1.181,1.181,0,0,0-.987-.486,1.167,1.167,0,0,0-.971.479A2.208,2.208,0,0,0,85.52,30.675Zm6.438,1.749a1.171,1.171,0,0,0,.76-.264.928.928,0,0,0,.36-.659h.769a1.474,1.474,0,0,1-.281.778,1.852,1.852,0,0,1-.692.589,2,2,0,0,1-.916.22,1.959,1.959,0,0,1-1.545-.648,2.582,2.582,0,0,1-.573-1.773V30.53a2.863,2.863,0,0,1,.255-1.235,1.941,1.941,0,0,1,.732-.839,2.078,2.078,0,0,1,1.127-.3,1.907,1.907,0,0,1,1.329.479,1.712,1.712,0,0,1,.565,1.244h-.769a1.12,1.12,0,0,0-.349-.758,1.087,1.087,0,0,0-.776-.3,1.138,1.138,0,0,0-.96.446,2.1,2.1,0,0,0-.341,1.29v.154a2.053,2.053,0,0,0,.338,1.266A1.143,1.143,0,0,0,91.958,32.424ZM95.645,33h-.813V28.245h.813Zm-.879-6.016a.485.485,0,0,1,.121-.334.454.454,0,0,1,.358-.136.461.461,0,0,1,.36.136.48.48,0,0,1,.123.334.464.464,0,0,1-.123.33.469.469,0,0,1-.36.132.462.462,0,0,1-.358-.132A.469.469,0,0,1,94.766,26.984ZM99.881,33a1.708,1.708,0,0,1-.114-.5,1.814,1.814,0,0,1-1.354.589,1.678,1.678,0,0,1-1.154-.4,1.287,1.287,0,0,1-.45-1.009,1.344,1.344,0,0,1,.565-1.154,2.662,2.662,0,0,1,1.589-.411h.791v-.374a.913.913,0,0,0-.255-.679,1.024,1.024,0,0,0-.751-.253,1.185,1.185,0,0,0-.729.22.647.647,0,0,0-.294.532h-.817a1.122,1.122,0,0,1,.253-.688,1.725,1.725,0,0,1,.686-.525,2.306,2.306,0,0,1,.951-.193,1.88,1.88,0,0,1,1.288.411,1.482,1.482,0,0,1,.483,1.132v2.188a2.676,2.676,0,0,0,.167,1.042V33Zm-1.349-.62a1.429,1.429,0,0,0,.725-.2,1.2,1.2,0,0,0,.5-.514v-.976h-.637q-1.494,0-1.494.875a.74.74,0,0,0,.255.6A.98.98,0,0,0,98.532,32.38Zm3.111-1.8a2.785,2.785,0,0,1,.519-1.76,1.764,1.764,0,0,1,2.681-.094V26.25h.813V33h-.747l-.04-.51a1.656,1.656,0,0,1-1.358.6,1.624,1.624,0,0,1-1.347-.677,2.817,2.817,0,0,1-.521-1.767Zm.813.092a2.109,2.109,0,0,0,.334,1.266,1.08,1.08,0,0,0,.923.457,1.186,1.186,0,0,0,1.129-.694V29.52a1.2,1.2,0,0,0-1.121-.672,1.085,1.085,0,0,0-.932.461A2.322,2.322,0,0,0,102.456,30.675Zm7.4,2.325a1.708,1.708,0,0,1-.114-.5,1.814,1.814,0,0,1-1.354.589,1.678,1.678,0,0,1-1.154-.4,1.287,1.287,0,0,1-.45-1.009,1.344,1.344,0,0,1,.565-1.154,2.662,2.662,0,0,1,1.589-.411h.791v-.374a.913.913,0,0,0-.255-.679,1.024,1.024,0,0,0-.751-.253,1.185,1.185,0,0,0-.729.22.647.647,0,0,0-.294.532h-.817a1.122,1.122,0,0,1,.253-.688,1.725,1.725,0,0,1,.686-.525,2.306,2.306,0,0,1,.951-.193,1.88,1.88,0,0,1,1.288.411,1.482,1.482,0,0,1,.483,1.132v2.188a2.676,2.676,0,0,0,.167,1.042V33Zm-1.349-.62a1.429,1.429,0,0,0,.725-.2,1.2,1.2,0,0,0,.5-.514v-.976h-.637q-1.494,0-1.494.875a.74.74,0,0,0,.255.6A.98.98,0,0,0,108.5,32.38Z" transform="translate(-1944.507 -4683.5)" fill="#12263f"/>
    <path id="Trazado_373296" data-name="Trazado 373296" d="M13.429,9V2.6h1.806a2.908,2.908,0,0,1,1.477.369,2.5,2.5,0,0,1,.991,1.05,3.419,3.419,0,0,1,.354,1.564v.409a3.431,3.431,0,0,1-.349,1.586,2.457,2.457,0,0,1-1,1.046A3.093,3.093,0,0,1,15.2,9Zm.844-5.708V8.31h.888A1.931,1.931,0,0,0,16.678,7.7a2.508,2.508,0,0,0,.543-1.729V5.6a2.547,2.547,0,0,0-.512-1.7,1.822,1.822,0,0,0-1.452-.614ZM20.086,9h-.813V4.245h.813Zm-.879-6.016a.485.485,0,0,1,.121-.334.454.454,0,0,1,.358-.136.461.461,0,0,1,.36.136.48.48,0,0,1,.123.334.464.464,0,0,1-.123.33.469.469,0,0,1-.36.132.462.462,0,0,1-.358-.132A.469.469,0,0,1,19.208,2.984Zm1.986,3.6a2.8,2.8,0,0,1,.514-1.769,1.773,1.773,0,0,1,2.72-.042l.04-.527h.743V8.886a1.934,1.934,0,0,1-.547,1.455,2.019,2.019,0,0,1-1.47.532,2.446,2.446,0,0,1-1.006-.22,1.732,1.732,0,0,1-.751-.6l.422-.488a1.59,1.59,0,0,0,1.279.646,1.246,1.246,0,0,0,.925-.334,1.277,1.277,0,0,0,.332-.94V8.525a1.671,1.671,0,0,1-1.332.563,1.624,1.624,0,0,1-1.351-.672A2.938,2.938,0,0,1,21.194,6.583Zm.817.092a2.132,2.132,0,0,0,.33,1.263,1.071,1.071,0,0,0,.923.459,1.191,1.191,0,0,0,1.129-.7V5.528a1.2,1.2,0,0,0-1.121-.681,1.081,1.081,0,0,0-.927.461A2.322,2.322,0,0,0,22.011,6.675ZM27.32,9h-.813V4.245h.813Zm-.879-6.016a.485.485,0,0,1,.121-.334.454.454,0,0,1,.358-.136.461.461,0,0,1,.36.136.48.48,0,0,1,.123.334.464.464,0,0,1-.123.33.469.469,0,0,1-.36.132.462.462,0,0,1-.358-.132A.469.469,0,0,1,26.441,2.984Zm3.283.11V4.245h.888v.628h-.888V7.826a.66.66,0,0,0,.119.429.5.5,0,0,0,.4.143,1.968,1.968,0,0,0,.387-.053V9a2.371,2.371,0,0,1-.624.087,1.012,1.012,0,0,1-.822-.33,1.416,1.416,0,0,1-.277-.936V4.874h-.866V4.245h.866V3.094Zm1.534,3.485a2.808,2.808,0,0,1,.275-1.257A2.049,2.049,0,0,1,32.3,4.46a2.081,2.081,0,0,1,1.118-.3,2.005,2.005,0,0,1,1.571.672,2.587,2.587,0,0,1,.6,1.789v.057a2.833,2.833,0,0,1-.266,1.246,2.019,2.019,0,0,1-.76.859,2.105,2.105,0,0,1-1.136.308,2,2,0,0,1-1.567-.672,2.574,2.574,0,0,1-.6-1.78Zm.817.1a2.034,2.034,0,0,0,.367,1.27,1.243,1.243,0,0,0,1.967-.007,2.224,2.224,0,0,0,.365-1.36A2.031,2.031,0,0,0,34.4,5.311a1.181,1.181,0,0,0-.987-.486,1.167,1.167,0,0,0-.971.479A2.208,2.208,0,0,0,32.075,6.675Zm6.561-.092a2.785,2.785,0,0,1,.519-1.76,1.764,1.764,0,0,1,2.681-.094V2.25h.813V9H41.9l-.04-.51a1.656,1.656,0,0,1-1.358.6,1.624,1.624,0,0,1-1.347-.677,2.817,2.817,0,0,1-.521-1.767Zm.813.092a2.109,2.109,0,0,0,.334,1.266,1.08,1.08,0,0,0,.923.457A1.186,1.186,0,0,0,41.835,7.7V5.52a1.2,1.2,0,0,0-1.121-.672,1.085,1.085,0,0,0-.932.461A2.322,2.322,0,0,0,39.449,6.675Zm6.434,2.413a2.078,2.078,0,0,1-1.573-.635,2.357,2.357,0,0,1-.606-1.7V6.6a2.853,2.853,0,0,1,.27-1.263,2.108,2.108,0,0,1,.756-.87,1.9,1.9,0,0,1,1.052-.314,1.781,1.781,0,0,1,1.441.611,2.645,2.645,0,0,1,.514,1.749v.338H44.516a1.69,1.69,0,0,0,.411,1.136,1.292,1.292,0,0,0,1,.433,1.416,1.416,0,0,0,.729-.176,1.833,1.833,0,0,0,.523-.466l.5.387A2,2,0,0,1,45.882,9.088Zm-.1-4.263a1.084,1.084,0,0,0-.826.358,1.741,1.741,0,0,0-.413,1h2.382V6.126a1.548,1.548,0,0,0-.334-.96A1.021,1.021,0,0,0,45.781,4.825Zm7.031,3.6a1.171,1.171,0,0,0,.76-.264.928.928,0,0,0,.36-.659H54.7a1.474,1.474,0,0,1-.281.778,1.852,1.852,0,0,1-.692.589,2,2,0,0,1-.916.22,1.959,1.959,0,0,1-1.545-.648,2.582,2.582,0,0,1-.573-1.773V6.53A2.863,2.863,0,0,1,50.949,5.3a1.941,1.941,0,0,1,.732-.839,2.078,2.078,0,0,1,1.127-.3,1.907,1.907,0,0,1,1.329.479A1.712,1.712,0,0,1,54.7,5.88h-.769a1.12,1.12,0,0,0-.349-.758,1.087,1.087,0,0,0-.776-.3,1.138,1.138,0,0,0-.96.446,2.1,2.1,0,0,0-.341,1.29v.154a2.053,2.053,0,0,0,.338,1.266A1.143,1.143,0,0,0,52.813,8.424ZM55.4,6.579a2.808,2.808,0,0,1,.275-1.257,2.049,2.049,0,0,1,.765-.861,2.081,2.081,0,0,1,1.118-.3,2.005,2.005,0,0,1,1.571.672,2.587,2.587,0,0,1,.6,1.789v.057a2.833,2.833,0,0,1-.266,1.246,2.019,2.019,0,0,1-.76.859,2.105,2.105,0,0,1-1.136.308A2,2,0,0,1,56,8.416a2.574,2.574,0,0,1-.6-1.78Zm.817.1a2.034,2.034,0,0,0,.367,1.27,1.243,1.243,0,0,0,1.967-.007,2.224,2.224,0,0,0,.365-1.36,2.031,2.031,0,0,0-.371-1.268,1.181,1.181,0,0,0-.987-.486,1.167,1.167,0,0,0-.971.479A2.208,2.208,0,0,0,56.218,6.675Zm5.3-2.43.026.6a1.733,1.733,0,0,1,1.424-.686q1.507,0,1.521,1.7V9h-.813V5.854a1.1,1.1,0,0,0-.235-.76.942.942,0,0,0-.719-.246,1.173,1.173,0,0,0-.694.211,1.432,1.432,0,0,0-.466.554V9h-.813V4.245Zm5.3-1.151V4.245h.888v.628h-.888V7.826a.66.66,0,0,0,.119.429.5.5,0,0,0,.4.143,1.968,1.968,0,0,0,.387-.053V9a2.371,2.371,0,0,1-.624.087,1.012,1.012,0,0,1-.822-.33A1.416,1.416,0,0,1,66,7.822V4.874h-.866V4.245H66V3.094Zm4.135,1.881a2.436,2.436,0,0,0-.4-.031,1.071,1.071,0,0,0-1.085.681V9h-.813V4.245h.791l.013.549a1.266,1.266,0,0,1,1.134-.637.831.831,0,0,1,.36.062Zm.444,1.6a2.808,2.808,0,0,1,.275-1.257,2.049,2.049,0,0,1,.765-.861,2.081,2.081,0,0,1,1.118-.3,2.005,2.005,0,0,1,1.571.672,2.587,2.587,0,0,1,.6,1.789v.057a2.833,2.833,0,0,1-.266,1.246,2.019,2.019,0,0,1-.76.859,2.105,2.105,0,0,1-1.136.308A2,2,0,0,1,72,8.416a2.574,2.574,0,0,1-.6-1.78Zm.817.1a2.034,2.034,0,0,0,.367,1.27,1.243,1.243,0,0,0,1.967-.007,2.224,2.224,0,0,0,.365-1.36,2.031,2.031,0,0,0-.371-1.268,1.181,1.181,0,0,0-.987-.486,1.167,1.167,0,0,0-.971.479A2.208,2.208,0,0,0,72.214,6.675ZM77.628,9h-.813V2.25h.813ZM8.419,18.579a2.808,2.808,0,0,1,.275-1.257,2.049,2.049,0,0,1,.765-.861,2.081,2.081,0,0,1,1.118-.3,2.005,2.005,0,0,1,1.571.672,2.587,2.587,0,0,1,.6,1.789v.057a2.833,2.833,0,0,1-.266,1.246,2.019,2.019,0,0,1-.76.859,2.105,2.105,0,0,1-1.136.308,2,2,0,0,1-1.567-.672,2.574,2.574,0,0,1-.6-1.78Zm.817.1a2.034,2.034,0,0,0,.367,1.27,1.243,1.243,0,0,0,1.967-.007,2.224,2.224,0,0,0,.365-1.36,2.031,2.031,0,0,0-.371-1.268,1.181,1.181,0,0,0-.987-.486,1.167,1.167,0,0,0-.971.479A2.208,2.208,0,0,0,9.236,18.675Zm8.556,0a2.827,2.827,0,0,1-.5,1.751,1.6,1.6,0,0,1-1.345.661,1.658,1.658,0,0,1-1.393-.637l-.04.549h-.747V14.25h.813v2.518a1.648,1.648,0,0,1,1.358-.611,1.61,1.61,0,0,1,1.36.655,2.912,2.912,0,0,1,.494,1.793Zm-.813-.092a2.2,2.2,0,0,0-.321-1.283,1.062,1.062,0,0,0-.923-.453,1.194,1.194,0,0,0-1.156.747v2.057a1.227,1.227,0,0,0,1.165.747,1.056,1.056,0,0,0,.91-.453A2.336,2.336,0,0,0,16.979,18.583Zm2.94-3.489v1.151h.888v.628h-.888v2.952a.66.66,0,0,0,.119.429.5.5,0,0,0,.4.143,1.968,1.968,0,0,0,.387-.053V21a2.371,2.371,0,0,1-.624.087,1.012,1.012,0,0,1-.822-.33,1.416,1.416,0,0,1-.277-.936V16.874h-.866v-.628h.866V15.094Zm3.81,5.994a2.078,2.078,0,0,1-1.573-.635,2.357,2.357,0,0,1-.606-1.7V18.6a2.853,2.853,0,0,1,.27-1.263,2.108,2.108,0,0,1,.756-.87,1.9,1.9,0,0,1,1.052-.314,1.781,1.781,0,0,1,1.441.611,2.645,2.645,0,0,1,.514,1.749v.338H22.363a1.69,1.69,0,0,0,.411,1.136,1.292,1.292,0,0,0,1,.433,1.416,1.416,0,0,0,.729-.176,1.833,1.833,0,0,0,.523-.466l.5.387A2,2,0,0,1,23.729,21.088Zm-.1-4.263a1.084,1.084,0,0,0-.826.358,1.741,1.741,0,0,0-.413,1h2.382v-.062a1.548,1.548,0,0,0-.334-.96A1.021,1.021,0,0,0,23.628,16.825Zm3.665-.58.026.6a1.733,1.733,0,0,1,1.424-.686q1.507,0,1.521,1.7V21h-.813V17.854a1.1,1.1,0,0,0-.235-.76.942.942,0,0,0-.719-.246,1.173,1.173,0,0,0-.694.211,1.432,1.432,0,0,0-.466.554V21h-.813V16.245ZM32.374,21h-.813V16.245h.813Zm-.879-6.016a.485.485,0,0,1,.121-.334.454.454,0,0,1,.358-.136.461.461,0,0,1,.36.136.48.48,0,0,1,.123.334.464.464,0,0,1-.123.33.469.469,0,0,1-.36.132.462.462,0,0,1-.358-.132A.469.469,0,0,1,31.495,14.984Zm1.982,3.6A2.785,2.785,0,0,1,34,16.823a1.764,1.764,0,0,1,2.681-.094V14.25h.813V21h-.747l-.04-.51a1.656,1.656,0,0,1-1.358.6A1.624,1.624,0,0,1,34,20.411a2.817,2.817,0,0,1-.521-1.767Zm.813.092a2.109,2.109,0,0,0,.334,1.266,1.08,1.08,0,0,0,.923.457,1.186,1.186,0,0,0,1.129-.694V17.52a1.2,1.2,0,0,0-1.121-.672,1.085,1.085,0,0,0-.932.461A2.322,2.322,0,0,0,34.29,18.675Zm4.245-.1a2.808,2.808,0,0,1,.275-1.257,2.049,2.049,0,0,1,.765-.861,2.081,2.081,0,0,1,1.118-.3,2.005,2.005,0,0,1,1.571.672,2.587,2.587,0,0,1,.6,1.789v.057a2.833,2.833,0,0,1-.266,1.246,2.019,2.019,0,0,1-.76.859,2.105,2.105,0,0,1-1.136.308,2,2,0,0,1-1.567-.672,2.574,2.574,0,0,1-.6-1.78Zm.817.1a2.034,2.034,0,0,0,.367,1.27,1.243,1.243,0,0,0,1.967-.007,2.224,2.224,0,0,0,.365-1.36,2.031,2.031,0,0,0-.371-1.268,1.181,1.181,0,0,0-.987-.486,1.167,1.167,0,0,0-.971.479A2.208,2.208,0,0,0,39.352,18.675Zm7.523-2.43.022.527a1.756,1.756,0,0,1,1.411-.615,1.359,1.359,0,0,1,1.358.765,1.8,1.8,0,0,1,.617-.554,1.824,1.824,0,0,1,.9-.211q1.564,0,1.591,1.657V21H51.96V17.862a1.092,1.092,0,0,0-.233-.762,1.026,1.026,0,0,0-.782-.253,1.078,1.078,0,0,0-.751.27,1.1,1.1,0,0,0-.347.727V21h-.817V17.884a.907.907,0,0,0-1.015-1.037,1.088,1.088,0,0,0-1.094.681V21h-.813V16.245Zm9.1,4.843a2.078,2.078,0,0,1-1.573-.635,2.357,2.357,0,0,1-.606-1.7V18.6a2.853,2.853,0,0,1,.27-1.263,2.108,2.108,0,0,1,.756-.87,1.9,1.9,0,0,1,1.052-.314,1.781,1.781,0,0,1,1.441.611,2.645,2.645,0,0,1,.514,1.749v.338H54.605a1.69,1.69,0,0,0,.411,1.136,1.292,1.292,0,0,0,1,.433,1.416,1.416,0,0,0,.729-.176,1.833,1.833,0,0,0,.523-.466l.5.387A2,2,0,0,1,55.972,21.088Zm-.1-4.263a1.084,1.084,0,0,0-.826.358,1.741,1.741,0,0,0-.413,1h2.382v-.062a1.548,1.548,0,0,0-.334-.96A1.021,1.021,0,0,0,55.871,16.825Zm2.7,1.758a2.785,2.785,0,0,1,.519-1.76,1.764,1.764,0,0,1,2.681-.094V14.25h.813V21h-.747l-.04-.51a1.656,1.656,0,0,1-1.358.6,1.624,1.624,0,0,1-1.347-.677,2.817,2.817,0,0,1-.521-1.767Zm.813.092a2.109,2.109,0,0,0,.334,1.266,1.08,1.08,0,0,0,.923.457,1.186,1.186,0,0,0,1.129-.694V17.52a1.2,1.2,0,0,0-1.121-.672,1.085,1.085,0,0,0-.932.461A2.322,2.322,0,0,0,59.382,18.675ZM64.726,21h-.813V16.245h.813Zm-.879-6.016a.485.485,0,0,1,.121-.334.454.454,0,0,1,.358-.136.461.461,0,0,1,.36.136.48.48,0,0,1,.123.334.464.464,0,0,1-.123.33.469.469,0,0,1-.36.132.462.462,0,0,1-.358-.132A.469.469,0,0,1,63.847,14.984ZM68.962,21a1.708,1.708,0,0,1-.114-.5,1.814,1.814,0,0,1-1.354.589,1.678,1.678,0,0,1-1.154-.4,1.287,1.287,0,0,1-.45-1.009,1.344,1.344,0,0,1,.565-1.154,2.662,2.662,0,0,1,1.589-.411h.791v-.374a.913.913,0,0,0-.255-.679,1.024,1.024,0,0,0-.751-.253,1.185,1.185,0,0,0-.729.22.647.647,0,0,0-.294.532h-.817a1.122,1.122,0,0,1,.253-.688,1.725,1.725,0,0,1,.686-.525,2.306,2.306,0,0,1,.951-.193,1.88,1.88,0,0,1,1.288.411,1.482,1.482,0,0,1,.483,1.132v2.188a2.676,2.676,0,0,0,.167,1.042V21Zm-1.349-.62a1.429,1.429,0,0,0,.725-.2,1.2,1.2,0,0,0,.5-.514v-.976H68.2q-1.494,0-1.494.875a.74.74,0,0,0,.255.6A.98.98,0,0,0,67.613,20.38Zm4.078-4.135.026.6a1.733,1.733,0,0,1,1.424-.686q1.507,0,1.521,1.7V21h-.813V17.854a1.1,1.1,0,0,0-.235-.76.942.942,0,0,0-.719-.246,1.173,1.173,0,0,0-.694.211,1.432,1.432,0,0,0-.466.554V21h-.813V16.245Zm5.3-1.151v1.151h.888v.628h-.888v2.952a.66.66,0,0,0,.119.429.5.5,0,0,0,.4.143,1.968,1.968,0,0,0,.387-.053V21a2.371,2.371,0,0,1-.624.087,1.012,1.012,0,0,1-.822-.33,1.416,1.416,0,0,1-.277-.936V16.874h-.866v-.628h.866V15.094Zm3.81,5.994a2.078,2.078,0,0,1-1.573-.635,2.357,2.357,0,0,1-.606-1.7V18.6a2.853,2.853,0,0,1,.27-1.263,2.108,2.108,0,0,1,.756-.87,1.9,1.9,0,0,1,1.052-.314,1.781,1.781,0,0,1,1.441.611,2.645,2.645,0,0,1,.514,1.749v.338H79.435a1.69,1.69,0,0,0,.411,1.136,1.292,1.292,0,0,0,1,.433,1.416,1.416,0,0,0,.729-.176,1.833,1.833,0,0,0,.523-.466l.5.387A2,2,0,0,1,80.8,21.088Zm-.1-4.263a1.084,1.084,0,0,0-.826.358,1.741,1.741,0,0,0-.413,1h2.382v-.062a1.548,1.548,0,0,0-.334-.96A1.021,1.021,0,0,0,80.7,16.825ZM8.4,32.424a1.171,1.171,0,0,0,.76-.264.928.928,0,0,0,.36-.659h.769a1.474,1.474,0,0,1-.281.778,1.852,1.852,0,0,1-.692.589,2,2,0,0,1-.916.22,1.959,1.959,0,0,1-1.545-.648,2.582,2.582,0,0,1-.573-1.773V30.53A2.863,2.863,0,0,1,6.534,29.3a1.941,1.941,0,0,1,.732-.839,2.078,2.078,0,0,1,1.127-.3,1.907,1.907,0,0,1,1.329.479,1.712,1.712,0,0,1,.565,1.244H9.518a1.12,1.12,0,0,0-.349-.758,1.087,1.087,0,0,0-.776-.3,1.138,1.138,0,0,0-.96.446,2.1,2.1,0,0,0-.341,1.29v.154A2.053,2.053,0,0,0,7.43,31.98,1.143,1.143,0,0,0,8.4,32.424ZM14.136,33a1.708,1.708,0,0,1-.114-.5,1.814,1.814,0,0,1-1.354.589,1.678,1.678,0,0,1-1.154-.4,1.287,1.287,0,0,1-.45-1.009,1.344,1.344,0,0,1,.565-1.154,2.662,2.662,0,0,1,1.589-.411h.791v-.374a.913.913,0,0,0-.255-.679A1.024,1.024,0,0,0,13,28.812a1.185,1.185,0,0,0-.729.22.647.647,0,0,0-.294.532h-.817a1.122,1.122,0,0,1,.253-.688,1.725,1.725,0,0,1,.686-.525,2.306,2.306,0,0,1,.951-.193,1.88,1.88,0,0,1,1.288.411,1.482,1.482,0,0,1,.483,1.132v2.188a2.676,2.676,0,0,0,.167,1.042V33Zm-1.349-.62a1.429,1.429,0,0,0,.725-.2,1.2,1.2,0,0,0,.5-.514v-.976h-.637q-1.494,0-1.494.875a.74.74,0,0,0,.255.6A.98.98,0,0,0,12.787,32.38Zm4.192.62h-.813V26.25h.813Zm3.208-.576a1.171,1.171,0,0,0,.76-.264.928.928,0,0,0,.36-.659h.769a1.474,1.474,0,0,1-.281.778,1.852,1.852,0,0,1-.692.589,2,2,0,0,1-.916.22,1.959,1.959,0,0,1-1.545-.648,2.582,2.582,0,0,1-.573-1.773V30.53a2.863,2.863,0,0,1,.255-1.235,1.941,1.941,0,0,1,.732-.839,2.078,2.078,0,0,1,1.127-.3,1.907,1.907,0,0,1,1.329.479,1.712,1.712,0,0,1,.565,1.244h-.769a1.12,1.12,0,0,0-.349-.758,1.087,1.087,0,0,0-.776-.3,1.138,1.138,0,0,0-.96.446,2.1,2.1,0,0,0-.341,1.29v.154a2.053,2.053,0,0,0,.338,1.266A1.143,1.143,0,0,0,20.188,32.424Zm5.739.105a1.727,1.727,0,0,1-1.393.558,1.478,1.478,0,0,1-1.158-.442,1.912,1.912,0,0,1-.4-1.307V28.245h.813v3.072q0,1.081.879,1.081A1.217,1.217,0,0,0,25.9,31.7V28.245h.813V33h-.773Zm2.909.47h-.813V26.25h.813Zm1.085-2.421a2.808,2.808,0,0,1,.275-1.257,2.049,2.049,0,0,1,.765-.861,2.081,2.081,0,0,1,1.118-.3,2.005,2.005,0,0,1,1.571.672,2.587,2.587,0,0,1,.6,1.789v.057a2.833,2.833,0,0,1-.266,1.246,2.019,2.019,0,0,1-.76.859,2.105,2.105,0,0,1-1.136.308,2,2,0,0,1-1.567-.672,2.574,2.574,0,0,1-.6-1.78Zm.817.1a2.034,2.034,0,0,0,.367,1.27,1.243,1.243,0,0,0,1.967-.007,2.224,2.224,0,0,0,.365-1.36,2.031,2.031,0,0,0-.371-1.268,1.181,1.181,0,0,0-.987-.486,1.167,1.167,0,0,0-.971.479A2.208,2.208,0,0,0,30.739,30.675Zm7.523-2.43.022.527a1.756,1.756,0,0,1,1.411-.615,1.359,1.359,0,0,1,1.358.765,1.8,1.8,0,0,1,.617-.554,1.824,1.824,0,0,1,.9-.211q1.564,0,1.591,1.657V33h-.813V29.862a1.092,1.092,0,0,0-.233-.762,1.026,1.026,0,0,0-.782-.253,1.078,1.078,0,0,0-.751.27,1.1,1.1,0,0,0-.347.727V33h-.817V29.884A.907.907,0,0,0,39.4,28.847a1.088,1.088,0,0,0-1.094.681V33h-.813V28.245ZM48.321,33a1.708,1.708,0,0,1-.114-.5,1.814,1.814,0,0,1-1.354.589,1.678,1.678,0,0,1-1.154-.4,1.287,1.287,0,0,1-.45-1.009,1.344,1.344,0,0,1,.565-1.154,2.662,2.662,0,0,1,1.589-.411h.791v-.374a.913.913,0,0,0-.255-.679,1.024,1.024,0,0,0-.751-.253,1.185,1.185,0,0,0-.729.22.647.647,0,0,0-.294.532h-.817a1.122,1.122,0,0,1,.253-.688,1.725,1.725,0,0,1,.686-.525,2.306,2.306,0,0,1,.951-.193,1.88,1.88,0,0,1,1.288.411,1.482,1.482,0,0,1,.483,1.132v2.188a2.676,2.676,0,0,0,.167,1.042V33Zm-1.349-.62a1.429,1.429,0,0,0,.725-.2,1.2,1.2,0,0,0,.5-.514v-.976h-.637q-1.494,0-1.494.875a.74.74,0,0,0,.255.6A.98.98,0,0,0,46.972,32.38Zm4.412-5.287v1.151h.888v.628h-.888v2.952a.66.66,0,0,0,.119.429.5.5,0,0,0,.4.143,1.968,1.968,0,0,0,.387-.053V33a2.371,2.371,0,0,1-.624.087,1.012,1.012,0,0,1-.822-.33,1.416,1.416,0,0,1-.277-.936V28.874h-.866v-.628h.866V27.094Zm3.81,5.994a2.078,2.078,0,0,1-1.573-.635,2.357,2.357,0,0,1-.606-1.7V30.6a2.853,2.853,0,0,1,.27-1.263,2.108,2.108,0,0,1,.756-.87,1.9,1.9,0,0,1,1.052-.314,1.781,1.781,0,0,1,1.441.611,2.645,2.645,0,0,1,.514,1.749v.338H53.828a1.69,1.69,0,0,0,.411,1.136,1.292,1.292,0,0,0,1,.433,1.416,1.416,0,0,0,.729-.176,1.833,1.833,0,0,0,.523-.466l.5.387A2,2,0,0,1,55.194,33.088Zm-.1-4.263a1.084,1.084,0,0,0-.826.358,1.741,1.741,0,0,0-.413,1h2.382v-.062a1.548,1.548,0,0,0-.334-.96A1.021,1.021,0,0,0,55.093,28.825Zm3.661-.58.022.527a1.756,1.756,0,0,1,1.411-.615,1.359,1.359,0,0,1,1.358.765,1.8,1.8,0,0,1,.617-.554,1.824,1.824,0,0,1,.9-.211q1.564,0,1.591,1.657V33h-.813V29.862a1.092,1.092,0,0,0-.233-.762,1.026,1.026,0,0,0-.782-.253,1.078,1.078,0,0,0-.751.27,1.1,1.1,0,0,0-.347.727V33h-.817V29.884a.907.907,0,0,0-1.015-1.037,1.088,1.088,0,0,0-1.094.681V33h-.813V28.245ZM68.813,33a1.708,1.708,0,0,1-.114-.5,1.814,1.814,0,0,1-1.354.589,1.678,1.678,0,0,1-1.154-.4,1.287,1.287,0,0,1-.45-1.009,1.344,1.344,0,0,1,.565-1.154,2.662,2.662,0,0,1,1.589-.411h.791v-.374a.913.913,0,0,0-.255-.679,1.024,1.024,0,0,0-.751-.253,1.185,1.185,0,0,0-.729.22.647.647,0,0,0-.294.532h-.817a1.122,1.122,0,0,1,.253-.688,1.725,1.725,0,0,1,.686-.525,2.306,2.306,0,0,1,.951-.193,1.88,1.88,0,0,1,1.288.411A1.482,1.482,0,0,1,69.5,29.7v2.188a2.676,2.676,0,0,0,.167,1.042V33Zm-1.349-.62a1.429,1.429,0,0,0,.725-.2,1.2,1.2,0,0,0,.5-.514v-.976h-.637q-1.494,0-1.494.875a.74.74,0,0,0,.255.6A.98.98,0,0,0,67.464,32.38Zm.751-6.122H69.2l-1.178,1.292-.655,0Zm3.661.835v1.151h.888v.628h-.888v2.952a.66.66,0,0,0,.119.429.5.5,0,0,0,.4.143,1.968,1.968,0,0,0,.387-.053V33a2.371,2.371,0,0,1-.624.087,1.012,1.012,0,0,1-.822-.33,1.416,1.416,0,0,1-.277-.936V28.874H70.2v-.628h.866V27.094ZM74.6,33h-.813V28.245H74.6Zm-.879-6.016a.485.485,0,0,1,.121-.334.454.454,0,0,1,.358-.136.461.461,0,0,1,.36.136.48.48,0,0,1,.123.334.464.464,0,0,1-.123.33.469.469,0,0,1-.36.132.462.462,0,0,1-.358-.132A.469.469,0,0,1,73.717,26.984Zm4.087,5.44a1.171,1.171,0,0,0,.76-.264.928.928,0,0,0,.36-.659h.769a1.474,1.474,0,0,1-.281.778,1.852,1.852,0,0,1-.692.589,2,2,0,0,1-.916.22,1.959,1.959,0,0,1-1.545-.648,2.582,2.582,0,0,1-.573-1.773V30.53a2.863,2.863,0,0,1,.255-1.235,1.941,1.941,0,0,1,.732-.839,2.078,2.078,0,0,1,1.127-.3,1.907,1.907,0,0,1,1.329.479,1.712,1.712,0,0,1,.565,1.244h-.769a1.12,1.12,0,0,0-.349-.758,1.087,1.087,0,0,0-.776-.3,1.138,1.138,0,0,0-.96.446,2.1,2.1,0,0,0-.341,1.29v.154a2.053,2.053,0,0,0,.338,1.266A1.143,1.143,0,0,0,77.8,32.424Zm2.588-1.846a2.808,2.808,0,0,1,.275-1.257,2.049,2.049,0,0,1,.765-.861,2.081,2.081,0,0,1,1.118-.3,2.005,2.005,0,0,1,1.571.672,2.587,2.587,0,0,1,.6,1.789v.057a2.833,2.833,0,0,1-.266,1.246,2.019,2.019,0,0,1-.76.859,2.105,2.105,0,0,1-1.136.308,2,2,0,0,1-1.567-.672,2.574,2.574,0,0,1-.6-1.78Zm.817.1a2.034,2.034,0,0,0,.367,1.27,1.243,1.243,0,0,0,1.967-.007,2.224,2.224,0,0,0,.365-1.36,2.031,2.031,0,0,0-.371-1.268,1.181,1.181,0,0,0-.987-.486,1.167,1.167,0,0,0-.971.479A2.208,2.208,0,0,0,81.21,30.675Z" transform="translate(-1832.007 -4683.5)" fill="#12263f"/>
    <path id="Trazado_373253" data-name="Trazado 373253" d="M0,0H61V115H0Z" transform="translate(-2116.507 -4816.5)" fill="#dab8d7"/>
    <path id="Trazado_373297" data-name="Trazado 373297" d="M0,0H61V115H0Z" transform="translate(-1816.507 -4816.5)" fill="#fdba54"/>
    <path id="Trazado_373254" data-name="Trazado 373254" d="M0,0H154V25H0Z" transform="translate(-2043.507 -4786.5)" fill="#9dc5e9"/>
    <path id="Trazado_373255" data-name="Trazado 373255" d="M0,0H174V25H0Z" transform="translate(-2043.507 -4816.5)" fill="#9dc5e9"/>
    <path id="Trazado_373256" data-name="Trazado 373256" d="M0,0H132V25H0Z" transform="translate(-2043.507 -4756.5)" fill="#9dc5e9"/>
    <path id="Trazado_373257" data-name="Trazado 373257" d="M0,0H111V25H0Z" transform="translate(-2043.507 -4726.5)" fill="#9dc5e9"/>
    <path id="Trazado_373258" data-name="Trazado 373258" d="M0,0H62V25H0Z" transform="translate(-1890.507 -4786.5)" fill="#e6e983"/>
    <path id="Trazado_373298" data-name="Trazado 373298" d="M0,0H42V25H0Z" transform="translate(-1870.507 -4816.5)" fill="#e6e983"/>
    <path id="Trazado_373259" data-name="Trazado 373259" d="M0,0H84V25H0Z" transform="translate(-1912.507 -4756.5)" fill="#e6e983"/>
    <path id="Trazado_373260" data-name="Trazado 373260" d="M0,0H105V25H0Z" transform="translate(-1933.507 -4726.5)" fill="#e6e983"/>
    <path id="Trazado_373261" data-name="Trazado 373261" d="M6.818,4.258a1.819,1.819,0,0,1-.285,1.01,2.049,2.049,0,0,1-.784.7,2.268,2.268,0,0,1,.9.755,1.936,1.936,0,0,1,.333,1.131A2.05,2.05,0,0,1,6.275,9.5a2.876,2.876,0,0,1-1.928.6A2.889,2.889,0,0,1,2.414,9.5,2.045,2.045,0,0,1,1.7,7.857a1.948,1.948,0,0,1,.333-1.133,2.227,2.227,0,0,1,.9-.752,2.028,2.028,0,0,1-.781-.7,1.832,1.832,0,0,1-.282-1.01,2.027,2.027,0,0,1,.666-1.593,2.622,2.622,0,0,1,1.81-.594,2.64,2.64,0,0,1,1.807.588A2.019,2.019,0,0,1,6.818,4.258ZM5.427,7.744a1.126,1.126,0,0,0-.3-.816,1.053,1.053,0,0,0-.795-.306,1.051,1.051,0,0,0-.79.3,1.124,1.124,0,0,0-.3.819,1.123,1.123,0,0,0,.29.806,1.056,1.056,0,0,0,.806.306,1.054,1.054,0,0,0,.792-.3A1.121,1.121,0,0,0,5.427,7.744ZM5.266,4.333A1.074,1.074,0,0,0,5.024,3.6a.858.858,0,0,0-.682-.277.864.864,0,0,0-.677.269,1.068,1.068,0,0,0-.242.741,1.122,1.122,0,0,0,.242.752.846.846,0,0,0,.682.285.838.838,0,0,0,.679-.285A1.131,1.131,0,0,0,5.266,4.333Zm7.358,2.723h.886V8.308h-.886V10H11.072V8.308H7.865L7.8,7.331l3.26-5.151h1.568Zm-3.282,0h1.729V4.3l-.1.177Z" transform="translate(-2094.007 -4767.5)" fill="#12263f"/>
    <path id="Trazado_373262" data-name="Trazado 373262" d="M8.731,7.4A2.767,2.767,0,0,1,7.8,9.382a3.273,3.273,0,0,1-2.216.725A2.943,2.943,0,0,1,3.217,9.095a4.151,4.151,0,0,1-.862-2.78V5.837a4.688,4.688,0,0,1,.4-1.987A2.979,2.979,0,0,1,3.889,2.531,3.182,3.182,0,0,1,5.6,2.072,3.188,3.188,0,0,1,7.785,2.8a2.974,2.974,0,0,1,.956,2.036H7.13a1.633,1.633,0,0,0-.422-1.1,1.561,1.561,0,0,0-1.1-.341A1.369,1.369,0,0,0,4.4,3.971a3.236,3.236,0,0,0-.411,1.791v.591a3.463,3.463,0,0,0,.384,1.853,1.344,1.344,0,0,0,1.211.585A1.591,1.591,0,0,0,6.7,8.45,1.54,1.54,0,0,0,7.119,7.4Zm3.1,2.6h-.988V6.187l-1.179.364v-.8l2.061-.738h.106Z" transform="translate(-2036.007 -4811.5)" fill="#12263f"/>
    <path id="Trazado_373263" data-name="Trazado 373263" d="M8.731,7.4A2.767,2.767,0,0,1,7.8,9.382a3.273,3.273,0,0,1-2.216.725A2.943,2.943,0,0,1,3.217,9.095a4.151,4.151,0,0,1-.862-2.78V5.837a4.688,4.688,0,0,1,.4-1.987A2.979,2.979,0,0,1,3.889,2.531,3.182,3.182,0,0,1,5.6,2.072,3.188,3.188,0,0,1,7.785,2.8a2.974,2.974,0,0,1,.956,2.036H7.13a1.633,1.633,0,0,0-.422-1.1,1.561,1.561,0,0,0-1.1-.341A1.369,1.369,0,0,0,4.4,3.971a3.236,3.236,0,0,0-.411,1.791v.591a3.463,3.463,0,0,0,.384,1.853,1.344,1.344,0,0,0,1.211.585A1.591,1.591,0,0,0,6.7,8.45,1.54,1.54,0,0,0,7.119,7.4ZM12.84,10H9.429V9.323l1.61-1.716a3.972,3.972,0,0,0,.49-.632,1.016,1.016,0,0,0,.159-.513.76.76,0,0,0-.167-.521.6.6,0,0,0-.479-.19.652.652,0,0,0-.528.231.914.914,0,0,0-.193.607H9.33a1.631,1.631,0,0,1,.217-.831,1.53,1.53,0,0,1,.614-.59,1.865,1.865,0,0,1,.9-.214,1.766,1.766,0,0,1,1.195.369,1.306,1.306,0,0,1,.426,1.042,1.673,1.673,0,0,1-.191.752,4.179,4.179,0,0,1-.656.892L10.7,9.2h2.14Z" transform="translate(-2015.007 -4811.5)" fill="#12263f"/>
    <path id="Trazado_373264" data-name="Trazado 373264" d="M8.731,7.4A2.767,2.767,0,0,1,7.8,9.382a3.273,3.273,0,0,1-2.216.725A2.943,2.943,0,0,1,3.217,9.095a4.151,4.151,0,0,1-.862-2.78V5.837a4.688,4.688,0,0,1,.4-1.987A2.979,2.979,0,0,1,3.889,2.531,3.182,3.182,0,0,1,5.6,2.072,3.188,3.188,0,0,1,7.785,2.8a2.974,2.974,0,0,1,.956,2.036H7.13a1.633,1.633,0,0,0-.422-1.1,1.561,1.561,0,0,0-1.1-.341A1.369,1.369,0,0,0,4.4,3.971a3.236,3.236,0,0,0-.411,1.791v.591a3.463,3.463,0,0,0,.384,1.853,1.344,1.344,0,0,0,1.211.585A1.591,1.591,0,0,0,6.7,8.45,1.54,1.54,0,0,0,7.119,7.4Zm1.7-.321h.526a.742.742,0,0,0,.557-.188.689.689,0,0,0,.181-.5.609.609,0,0,0-.179-.468.7.7,0,0,0-.494-.167.729.729,0,0,0-.475.156.5.5,0,0,0-.191.405H9.371a1.215,1.215,0,0,1,.21-.7,1.4,1.4,0,0,1,.588-.484A1.962,1.962,0,0,1,11,4.955a1.861,1.861,0,0,1,1.237.378,1.289,1.289,0,0,1,.448,1.041A1.047,1.047,0,0,1,12.478,7a1.355,1.355,0,0,1-.547.441,1.237,1.237,0,0,1,.627.451,1.224,1.224,0,0,1,.207.711,1.31,1.31,0,0,1-.484,1.063,1.945,1.945,0,0,1-1.28.4,1.844,1.844,0,0,1-1.219-.393,1.284,1.284,0,0,1-.473-1.039H10.3a.572.572,0,0,0,.21.458.877.877,0,0,0,1.07-.009.643.643,0,0,0,.2-.494q0-.745-.82-.745h-.523Z" transform="translate(-1994.007 -4811.5)" fill="#12263f"/>
    <path id="Trazado_373265" data-name="Trazado 373265" d="M8.731,7.4A2.767,2.767,0,0,1,7.8,9.382a3.273,3.273,0,0,1-2.216.725A2.943,2.943,0,0,1,3.217,9.095a4.151,4.151,0,0,1-.862-2.78V5.837a4.688,4.688,0,0,1,.4-1.987A2.979,2.979,0,0,1,3.889,2.531,3.182,3.182,0,0,1,5.6,2.072,3.188,3.188,0,0,1,7.785,2.8a2.974,2.974,0,0,1,.956,2.036H7.13a1.633,1.633,0,0,0-.422-1.1,1.561,1.561,0,0,0-1.1-.341A1.369,1.369,0,0,0,4.4,3.971a3.236,3.236,0,0,0-.411,1.791v.591a3.463,3.463,0,0,0,.384,1.853,1.344,1.344,0,0,0,1.211.585A1.591,1.591,0,0,0,6.7,8.45,1.54,1.54,0,0,0,7.119,7.4Zm3.621.732h.564v.8h-.564V10h-.988V8.923H9.323L9.279,8.3l2.075-3.278h1Zm-2.088,0h1.1V6.37l-.065.113Z" transform="translate(-1973.007 -4811.5)" fill="#12263f"/>
    <path id="Trazado_373266" data-name="Trazado 373266" d="M8.731,7.4A2.767,2.767,0,0,1,7.8,9.382a3.273,3.273,0,0,1-2.216.725A2.943,2.943,0,0,1,3.217,9.095a4.151,4.151,0,0,1-.862-2.78V5.837a4.688,4.688,0,0,1,.4-1.987A2.979,2.979,0,0,1,3.889,2.531,3.182,3.182,0,0,1,5.6,2.072,3.188,3.188,0,0,1,7.785,2.8a2.974,2.974,0,0,1,.956,2.036H7.13a1.633,1.633,0,0,0-.422-1.1,1.561,1.561,0,0,0-1.1-.341A1.369,1.369,0,0,0,4.4,3.971a3.236,3.236,0,0,0-.411,1.791v.591a3.463,3.463,0,0,0,.384,1.853,1.344,1.344,0,0,0,1.211.585A1.591,1.591,0,0,0,6.7,8.45,1.54,1.54,0,0,0,7.119,7.4Zm.845.158.287-2.529h2.789v.824H10.673l-.123,1.07a1.566,1.566,0,0,1,.749-.188,1.434,1.434,0,0,1,1.114.441,1.761,1.761,0,0,1,.4,1.234,1.8,1.8,0,0,1-.2.863,1.435,1.435,0,0,1-.583.591,1.819,1.819,0,0,1-.9.21,1.932,1.932,0,0,1-.837-.183,1.485,1.485,0,0,1-.61-.514,1.4,1.4,0,0,1-.238-.755h.978a.73.73,0,0,0,.217.484.688.688,0,0,0,.487.173.607.607,0,0,0,.516-.241,1.116,1.116,0,0,0,.181-.682A.923.923,0,0,0,11.62,7.7a.765.765,0,0,0-.591-.226.855.855,0,0,0-.571.185l-.1.089Z" transform="translate(-1952.007 -4811.5)" fill="#12263f"/>
    <path id="Trazado_373267" data-name="Trazado 373267" d="M8.731,7.4A2.767,2.767,0,0,1,7.8,9.382a3.273,3.273,0,0,1-2.216.725A2.943,2.943,0,0,1,3.217,9.095a4.151,4.151,0,0,1-.862-2.78V5.837a4.688,4.688,0,0,1,.4-1.987A2.979,2.979,0,0,1,3.889,2.531,3.182,3.182,0,0,1,5.6,2.072,3.188,3.188,0,0,1,7.785,2.8a2.974,2.974,0,0,1,.956,2.036H7.13a1.633,1.633,0,0,0-.422-1.1,1.561,1.561,0,0,0-1.1-.341A1.369,1.369,0,0,0,4.4,3.971a3.236,3.236,0,0,0-.411,1.791v.591a3.463,3.463,0,0,0,.384,1.853,1.344,1.344,0,0,0,1.211.585A1.591,1.591,0,0,0,6.7,8.45,1.54,1.54,0,0,0,7.119,7.4Zm3.378-2.423v.813h-.1a1.678,1.678,0,0,0-1.078.349,1.416,1.416,0,0,0-.49.94,1.345,1.345,0,0,1,1-.4,1.268,1.268,0,0,1,1.032.465,1.863,1.863,0,0,1,.383,1.224,1.833,1.833,0,0,1-.21.878,1.508,1.508,0,0,1-.595.612,1.728,1.728,0,0,1-.87.219,1.614,1.614,0,0,1-1.27-.547,2.123,2.123,0,0,1-.484-1.459V7.707a3.2,3.2,0,0,1,.306-1.43,2.243,2.243,0,0,1,.878-.96,2.574,2.574,0,0,1,1.328-.344Zm-.964,2.5a.789.789,0,0,0-.434.125.75.75,0,0,0-.287.329v.3a1.33,1.33,0,0,0,.195.773.63.63,0,0,0,.547.278.623.623,0,0,0,.514-.251,1.023,1.023,0,0,0,.2-.65,1.021,1.021,0,0,0-.2-.655A.646.646,0,0,0,11.145,7.467Z" transform="translate(-1931.007 -4811.5)" fill="#12263f"/>
    <path id="Trazado_373268" data-name="Trazado 373268" d="M8.731,7.4A2.767,2.767,0,0,1,7.8,9.382a3.273,3.273,0,0,1-2.216.725A2.943,2.943,0,0,1,3.217,9.095a4.151,4.151,0,0,1-.862-2.78V5.837a4.688,4.688,0,0,1,.4-1.987A2.979,2.979,0,0,1,3.889,2.531,3.182,3.182,0,0,1,5.6,2.072,3.188,3.188,0,0,1,7.785,2.8a2.974,2.974,0,0,1,.956,2.036H7.13a1.633,1.633,0,0,0-.422-1.1,1.561,1.561,0,0,0-1.1-.341A1.369,1.369,0,0,0,4.4,3.971a3.236,3.236,0,0,0-.411,1.791v.591a3.463,3.463,0,0,0,.384,1.853,1.344,1.344,0,0,0,1.211.585A1.591,1.591,0,0,0,6.7,8.45,1.54,1.54,0,0,0,7.119,7.4Zm4.082-1.82L10.888,10H9.846l1.928-4.18H9.3v-.8h3.514Z" transform="translate(-1910.007 -4811.5)" fill="#12263f"/>
    <path id="Trazado_373269" data-name="Trazado 373269" d="M8.731,7.4A2.767,2.767,0,0,1,7.8,9.382a3.273,3.273,0,0,1-2.216.725A2.943,2.943,0,0,1,3.217,9.095a4.151,4.151,0,0,1-.862-2.78V5.837a4.688,4.688,0,0,1,.4-1.987A2.979,2.979,0,0,1,3.889,2.531,3.182,3.182,0,0,1,5.6,2.072,3.188,3.188,0,0,1,7.785,2.8a2.974,2.974,0,0,1,.956,2.036H7.13a1.633,1.633,0,0,0-.422-1.1,1.561,1.561,0,0,0-1.1-.341A1.369,1.369,0,0,0,4.4,3.971a3.236,3.236,0,0,0-.411,1.791v.591a3.463,3.463,0,0,0,.384,1.853,1.344,1.344,0,0,0,1.211.585A1.591,1.591,0,0,0,6.7,8.45,1.54,1.54,0,0,0,7.119,7.4Zm3.942-1.049a1.158,1.158,0,0,1-.181.643,1.3,1.3,0,0,1-.5.448,1.443,1.443,0,0,1,.574.48,1.232,1.232,0,0,1,.212.719,1.3,1.3,0,0,1-.451,1.048,1.83,1.83,0,0,1-1.227.385,1.838,1.838,0,0,1-1.23-.386,1.3,1.3,0,0,1-.455-1.046,1.24,1.24,0,0,1,.212-.721,1.417,1.417,0,0,1,.571-.479,1.29,1.29,0,0,1-.5-.448,1.166,1.166,0,0,1-.179-.643,1.29,1.29,0,0,1,.424-1.013A1.669,1.669,0,0,1,11.1,4.955a1.68,1.68,0,0,1,1.15.374A1.285,1.285,0,0,1,12.673,6.346Zm-.885,2.218a.717.717,0,0,0-.188-.52.752.752,0,0,0-1.008,0,.811.811,0,0,0,0,1.034.771.771,0,0,0,1.017.007A.714.714,0,0,0,11.787,8.564Zm-.1-2.17a.684.684,0,0,0-.154-.467.626.626,0,0,0-.865-.005.68.68,0,0,0-.154.472.714.714,0,0,0,.154.479.609.609,0,0,0,.866,0A.72.72,0,0,0,11.685,6.394Z" transform="translate(-1889.007 -4811.5)" fill="#12263f"/>
    <path id="Trazado_373299" data-name="Trazado 373299" d="M6.268,10H4.71V1.75H6.268Zm3.42,0H8.7V6.187l-1.179.364v-.8l2.061-.738h.106Z" transform="translate(-1868.007 -4811.5)" fill="#12263f"/>
    <path id="Trazado_373300" data-name="Trazado 373300" d="M6.268,10H4.71V1.75H6.268ZM10.7,10H7.289V9.323L8.9,7.607a3.972,3.972,0,0,0,.49-.632,1.016,1.016,0,0,0,.159-.513.76.76,0,0,0-.167-.521.6.6,0,0,0-.479-.19.652.652,0,0,0-.528.231.914.914,0,0,0-.193.607H7.189a1.631,1.631,0,0,1,.217-.831,1.53,1.53,0,0,1,.614-.59,1.865,1.865,0,0,1,.9-.214,1.766,1.766,0,0,1,1.195.369,1.306,1.306,0,0,1,.426,1.042,1.673,1.673,0,0,1-.191.752,4.179,4.179,0,0,1-.656.892L8.56,9.2H10.7Z" transform="translate(-1848.007 -4811.5)" fill="#12263f"/>
    <path id="Trazado_373270" data-name="Trazado 373270" d="M8.731,7.4A2.767,2.767,0,0,1,7.8,9.382a3.273,3.273,0,0,1-2.216.725A2.943,2.943,0,0,1,3.217,9.095a4.151,4.151,0,0,1-.862-2.78V5.837a4.688,4.688,0,0,1,.4-1.987A2.979,2.979,0,0,1,3.889,2.531,3.182,3.182,0,0,1,5.6,2.072,3.188,3.188,0,0,1,7.785,2.8a2.974,2.974,0,0,1,.956,2.036H7.13a1.633,1.633,0,0,0-.422-1.1,1.561,1.561,0,0,0-1.1-.341A1.369,1.369,0,0,0,4.4,3.971a3.236,3.236,0,0,0-.411,1.791v.591a3.463,3.463,0,0,0,.384,1.853,1.344,1.344,0,0,0,1.211.585A1.591,1.591,0,0,0,6.7,8.45,1.54,1.54,0,0,0,7.119,7.4Zm3.1,2.6h-.988V6.187l-1.179.364v-.8l2.061-.738h.106Z" transform="translate(-2036.007 -4781.5)" fill="#12263f"/>
    <path id="Trazado_373271" data-name="Trazado 373271" d="M8.731,7.4A2.767,2.767,0,0,1,7.8,9.382a3.273,3.273,0,0,1-2.216.725A2.943,2.943,0,0,1,3.217,9.095a4.151,4.151,0,0,1-.862-2.78V5.837a4.688,4.688,0,0,1,.4-1.987A2.979,2.979,0,0,1,3.889,2.531,3.182,3.182,0,0,1,5.6,2.072,3.188,3.188,0,0,1,7.785,2.8a2.974,2.974,0,0,1,.956,2.036H7.13a1.633,1.633,0,0,0-.422-1.1,1.561,1.561,0,0,0-1.1-.341A1.369,1.369,0,0,0,4.4,3.971a3.236,3.236,0,0,0-.411,1.791v.591a3.463,3.463,0,0,0,.384,1.853,1.344,1.344,0,0,0,1.211.585A1.591,1.591,0,0,0,6.7,8.45,1.54,1.54,0,0,0,7.119,7.4Zm3.1,2.6h-.988V6.187l-1.179.364v-.8l2.061-.738h.106Z" transform="translate(-2036.007 -4751.5)" fill="#12263f"/>
    <path id="Trazado_373272" data-name="Trazado 373272" d="M8.731,7.4A2.767,2.767,0,0,1,7.8,9.382a3.273,3.273,0,0,1-2.216.725A2.943,2.943,0,0,1,3.217,9.095a4.151,4.151,0,0,1-.862-2.78V5.837a4.688,4.688,0,0,1,.4-1.987A2.979,2.979,0,0,1,3.889,2.531,3.182,3.182,0,0,1,5.6,2.072,3.188,3.188,0,0,1,7.785,2.8a2.974,2.974,0,0,1,.956,2.036H7.13a1.633,1.633,0,0,0-.422-1.1,1.561,1.561,0,0,0-1.1-.341A1.369,1.369,0,0,0,4.4,3.971a3.236,3.236,0,0,0-.411,1.791v.591a3.463,3.463,0,0,0,.384,1.853,1.344,1.344,0,0,0,1.211.585A1.591,1.591,0,0,0,6.7,8.45,1.54,1.54,0,0,0,7.119,7.4Zm3.1,2.6h-.988V6.187l-1.179.364v-.8l2.061-.738h.106Z" transform="translate(-2036.007 -4721.5)" fill="#12263f"/>
    <path id="Trazado_373273" data-name="Trazado 373273" d="M8.731,7.4A2.767,2.767,0,0,1,7.8,9.382a3.273,3.273,0,0,1-2.216.725A2.943,2.943,0,0,1,3.217,9.095a4.151,4.151,0,0,1-.862-2.78V5.837a4.688,4.688,0,0,1,.4-1.987A2.979,2.979,0,0,1,3.889,2.531,3.182,3.182,0,0,1,5.6,2.072,3.188,3.188,0,0,1,7.785,2.8a2.974,2.974,0,0,1,.956,2.036H7.13a1.633,1.633,0,0,0-.422-1.1,1.561,1.561,0,0,0-1.1-.341A1.369,1.369,0,0,0,4.4,3.971a3.236,3.236,0,0,0-.411,1.791v.591a3.463,3.463,0,0,0,.384,1.853,1.344,1.344,0,0,0,1.211.585A1.591,1.591,0,0,0,6.7,8.45,1.54,1.54,0,0,0,7.119,7.4ZM12.84,10H9.429V9.323l1.61-1.716a3.972,3.972,0,0,0,.49-.632,1.016,1.016,0,0,0,.159-.513.76.76,0,0,0-.167-.521.6.6,0,0,0-.479-.19.652.652,0,0,0-.528.231.914.914,0,0,0-.193.607H9.33a1.631,1.631,0,0,1,.217-.831,1.53,1.53,0,0,1,.614-.59,1.865,1.865,0,0,1,.9-.214,1.766,1.766,0,0,1,1.195.369,1.306,1.306,0,0,1,.426,1.042,1.673,1.673,0,0,1-.191.752,4.179,4.179,0,0,1-.656.892L10.7,9.2h2.14Z" transform="translate(-2015.007 -4781.5)" fill="#12263f"/>
    <path id="Trazado_373274" data-name="Trazado 373274" d="M8.731,7.4A2.767,2.767,0,0,1,7.8,9.382a3.273,3.273,0,0,1-2.216.725A2.943,2.943,0,0,1,3.217,9.095a4.151,4.151,0,0,1-.862-2.78V5.837a4.688,4.688,0,0,1,.4-1.987A2.979,2.979,0,0,1,3.889,2.531,3.182,3.182,0,0,1,5.6,2.072,3.188,3.188,0,0,1,7.785,2.8a2.974,2.974,0,0,1,.956,2.036H7.13a1.633,1.633,0,0,0-.422-1.1,1.561,1.561,0,0,0-1.1-.341A1.369,1.369,0,0,0,4.4,3.971a3.236,3.236,0,0,0-.411,1.791v.591a3.463,3.463,0,0,0,.384,1.853,1.344,1.344,0,0,0,1.211.585A1.591,1.591,0,0,0,6.7,8.45,1.54,1.54,0,0,0,7.119,7.4ZM12.84,10H9.429V9.323l1.61-1.716a3.972,3.972,0,0,0,.49-.632,1.016,1.016,0,0,0,.159-.513.76.76,0,0,0-.167-.521.6.6,0,0,0-.479-.19.652.652,0,0,0-.528.231.914.914,0,0,0-.193.607H9.33a1.631,1.631,0,0,1,.217-.831,1.53,1.53,0,0,1,.614-.59,1.865,1.865,0,0,1,.9-.214,1.766,1.766,0,0,1,1.195.369,1.306,1.306,0,0,1,.426,1.042,1.673,1.673,0,0,1-.191.752,4.179,4.179,0,0,1-.656.892L10.7,9.2h2.14Z" transform="translate(-2015.007 -4751.5)" fill="#12263f"/>
    <path id="Trazado_373275" data-name="Trazado 373275" d="M8.731,7.4A2.767,2.767,0,0,1,7.8,9.382a3.273,3.273,0,0,1-2.216.725A2.943,2.943,0,0,1,3.217,9.095a4.151,4.151,0,0,1-.862-2.78V5.837a4.688,4.688,0,0,1,.4-1.987A2.979,2.979,0,0,1,3.889,2.531,3.182,3.182,0,0,1,5.6,2.072,3.188,3.188,0,0,1,7.785,2.8a2.974,2.974,0,0,1,.956,2.036H7.13a1.633,1.633,0,0,0-.422-1.1,1.561,1.561,0,0,0-1.1-.341A1.369,1.369,0,0,0,4.4,3.971a3.236,3.236,0,0,0-.411,1.791v.591a3.463,3.463,0,0,0,.384,1.853,1.344,1.344,0,0,0,1.211.585A1.591,1.591,0,0,0,6.7,8.45,1.54,1.54,0,0,0,7.119,7.4ZM12.84,10H9.429V9.323l1.61-1.716a3.972,3.972,0,0,0,.49-.632,1.016,1.016,0,0,0,.159-.513.76.76,0,0,0-.167-.521.6.6,0,0,0-.479-.19.652.652,0,0,0-.528.231.914.914,0,0,0-.193.607H9.33a1.631,1.631,0,0,1,.217-.831,1.53,1.53,0,0,1,.614-.59,1.865,1.865,0,0,1,.9-.214,1.766,1.766,0,0,1,1.195.369,1.306,1.306,0,0,1,.426,1.042,1.673,1.673,0,0,1-.191.752,4.179,4.179,0,0,1-.656.892L10.7,9.2h2.14Z" transform="translate(-2015.007 -4721.5)" fill="#12263f"/>
    <path id="Trazado_373276" data-name="Trazado 373276" d="M8.731,7.4A2.767,2.767,0,0,1,7.8,9.382a3.273,3.273,0,0,1-2.216.725A2.943,2.943,0,0,1,3.217,9.095a4.151,4.151,0,0,1-.862-2.78V5.837a4.688,4.688,0,0,1,.4-1.987A2.979,2.979,0,0,1,3.889,2.531,3.182,3.182,0,0,1,5.6,2.072,3.188,3.188,0,0,1,7.785,2.8a2.974,2.974,0,0,1,.956,2.036H7.13a1.633,1.633,0,0,0-.422-1.1,1.561,1.561,0,0,0-1.1-.341A1.369,1.369,0,0,0,4.4,3.971a3.236,3.236,0,0,0-.411,1.791v.591a3.463,3.463,0,0,0,.384,1.853,1.344,1.344,0,0,0,1.211.585A1.591,1.591,0,0,0,6.7,8.45,1.54,1.54,0,0,0,7.119,7.4Zm1.7-.321h.526a.742.742,0,0,0,.557-.188.689.689,0,0,0,.181-.5.609.609,0,0,0-.179-.468.7.7,0,0,0-.494-.167.729.729,0,0,0-.475.156.5.5,0,0,0-.191.405H9.371a1.215,1.215,0,0,1,.21-.7,1.4,1.4,0,0,1,.588-.484A1.962,1.962,0,0,1,11,4.955a1.861,1.861,0,0,1,1.237.378,1.289,1.289,0,0,1,.448,1.041A1.047,1.047,0,0,1,12.478,7a1.355,1.355,0,0,1-.547.441,1.237,1.237,0,0,1,.627.451,1.224,1.224,0,0,1,.207.711,1.31,1.31,0,0,1-.484,1.063,1.945,1.945,0,0,1-1.28.4,1.844,1.844,0,0,1-1.219-.393,1.284,1.284,0,0,1-.473-1.039H10.3a.572.572,0,0,0,.21.458.877.877,0,0,0,1.07-.009.643.643,0,0,0,.2-.494q0-.745-.82-.745h-.523Z" transform="translate(-1994.007 -4781.5)" fill="#12263f"/>
    <path id="Trazado_373277" data-name="Trazado 373277" d="M8.731,7.4A2.767,2.767,0,0,1,7.8,9.382a3.273,3.273,0,0,1-2.216.725A2.943,2.943,0,0,1,3.217,9.095a4.151,4.151,0,0,1-.862-2.78V5.837a4.688,4.688,0,0,1,.4-1.987A2.979,2.979,0,0,1,3.889,2.531,3.182,3.182,0,0,1,5.6,2.072,3.188,3.188,0,0,1,7.785,2.8a2.974,2.974,0,0,1,.956,2.036H7.13a1.633,1.633,0,0,0-.422-1.1,1.561,1.561,0,0,0-1.1-.341A1.369,1.369,0,0,0,4.4,3.971a3.236,3.236,0,0,0-.411,1.791v.591a3.463,3.463,0,0,0,.384,1.853,1.344,1.344,0,0,0,1.211.585A1.591,1.591,0,0,0,6.7,8.45,1.54,1.54,0,0,0,7.119,7.4Zm1.7-.321h.526a.742.742,0,0,0,.557-.188.689.689,0,0,0,.181-.5.609.609,0,0,0-.179-.468.7.7,0,0,0-.494-.167.729.729,0,0,0-.475.156.5.5,0,0,0-.191.405H9.371a1.215,1.215,0,0,1,.21-.7,1.4,1.4,0,0,1,.588-.484A1.962,1.962,0,0,1,11,4.955a1.861,1.861,0,0,1,1.237.378,1.289,1.289,0,0,1,.448,1.041A1.047,1.047,0,0,1,12.478,7a1.355,1.355,0,0,1-.547.441,1.237,1.237,0,0,1,.627.451,1.224,1.224,0,0,1,.207.711,1.31,1.31,0,0,1-.484,1.063,1.945,1.945,0,0,1-1.28.4,1.844,1.844,0,0,1-1.219-.393,1.284,1.284,0,0,1-.473-1.039H10.3a.572.572,0,0,0,.21.458.877.877,0,0,0,1.07-.009.643.643,0,0,0,.2-.494q0-.745-.82-.745h-.523Z" transform="translate(-1994.007 -4751.5)" fill="#12263f"/>
    <path id="Trazado_373278" data-name="Trazado 373278" d="M8.731,7.4A2.767,2.767,0,0,1,7.8,9.382a3.273,3.273,0,0,1-2.216.725A2.943,2.943,0,0,1,3.217,9.095a4.151,4.151,0,0,1-.862-2.78V5.837a4.688,4.688,0,0,1,.4-1.987A2.979,2.979,0,0,1,3.889,2.531,3.182,3.182,0,0,1,5.6,2.072,3.188,3.188,0,0,1,7.785,2.8a2.974,2.974,0,0,1,.956,2.036H7.13a1.633,1.633,0,0,0-.422-1.1,1.561,1.561,0,0,0-1.1-.341A1.369,1.369,0,0,0,4.4,3.971a3.236,3.236,0,0,0-.411,1.791v.591a3.463,3.463,0,0,0,.384,1.853,1.344,1.344,0,0,0,1.211.585A1.591,1.591,0,0,0,6.7,8.45,1.54,1.54,0,0,0,7.119,7.4Zm1.7-.321h.526a.742.742,0,0,0,.557-.188.689.689,0,0,0,.181-.5.609.609,0,0,0-.179-.468.7.7,0,0,0-.494-.167.729.729,0,0,0-.475.156.5.5,0,0,0-.191.405H9.371a1.215,1.215,0,0,1,.21-.7,1.4,1.4,0,0,1,.588-.484A1.962,1.962,0,0,1,11,4.955a1.861,1.861,0,0,1,1.237.378,1.289,1.289,0,0,1,.448,1.041A1.047,1.047,0,0,1,12.478,7a1.355,1.355,0,0,1-.547.441,1.237,1.237,0,0,1,.627.451,1.224,1.224,0,0,1,.207.711,1.31,1.31,0,0,1-.484,1.063,1.945,1.945,0,0,1-1.28.4,1.844,1.844,0,0,1-1.219-.393,1.284,1.284,0,0,1-.473-1.039H10.3a.572.572,0,0,0,.21.458.877.877,0,0,0,1.07-.009.643.643,0,0,0,.2-.494q0-.745-.82-.745h-.523Z" transform="translate(-1994.007 -4721.5)" fill="#12263f"/>
    <path id="Trazado_373279" data-name="Trazado 373279" d="M8.731,7.4A2.767,2.767,0,0,1,7.8,9.382a3.273,3.273,0,0,1-2.216.725A2.943,2.943,0,0,1,3.217,9.095a4.151,4.151,0,0,1-.862-2.78V5.837a4.688,4.688,0,0,1,.4-1.987A2.979,2.979,0,0,1,3.889,2.531,3.182,3.182,0,0,1,5.6,2.072,3.188,3.188,0,0,1,7.785,2.8a2.974,2.974,0,0,1,.956,2.036H7.13a1.633,1.633,0,0,0-.422-1.1,1.561,1.561,0,0,0-1.1-.341A1.369,1.369,0,0,0,4.4,3.971a3.236,3.236,0,0,0-.411,1.791v.591a3.463,3.463,0,0,0,.384,1.853,1.344,1.344,0,0,0,1.211.585A1.591,1.591,0,0,0,6.7,8.45,1.54,1.54,0,0,0,7.119,7.4Zm3.621.732h.564v.8h-.564V10h-.988V8.923H9.323L9.279,8.3l2.075-3.278h1Zm-2.088,0h1.1V6.37l-.065.113Z" transform="translate(-1973.007 -4781.5)" fill="#12263f"/>
    <path id="Trazado_373280" data-name="Trazado 373280" d="M8.731,7.4A2.767,2.767,0,0,1,7.8,9.382a3.273,3.273,0,0,1-2.216.725A2.943,2.943,0,0,1,3.217,9.095a4.151,4.151,0,0,1-.862-2.78V5.837a4.688,4.688,0,0,1,.4-1.987A2.979,2.979,0,0,1,3.889,2.531,3.182,3.182,0,0,1,5.6,2.072,3.188,3.188,0,0,1,7.785,2.8a2.974,2.974,0,0,1,.956,2.036H7.13a1.633,1.633,0,0,0-.422-1.1,1.561,1.561,0,0,0-1.1-.341A1.369,1.369,0,0,0,4.4,3.971a3.236,3.236,0,0,0-.411,1.791v.591a3.463,3.463,0,0,0,.384,1.853,1.344,1.344,0,0,0,1.211.585A1.591,1.591,0,0,0,6.7,8.45,1.54,1.54,0,0,0,7.119,7.4Zm3.621.732h.564v.8h-.564V10h-.988V8.923H9.323L9.279,8.3l2.075-3.278h1Zm-2.088,0h1.1V6.37l-.065.113Z" transform="translate(-1973.007 -4751.5)" fill="#12263f"/>
    <path id="Trazado_373281" data-name="Trazado 373281" d="M8.731,7.4A2.767,2.767,0,0,1,7.8,9.382a3.273,3.273,0,0,1-2.216.725A2.943,2.943,0,0,1,3.217,9.095a4.151,4.151,0,0,1-.862-2.78V5.837a4.688,4.688,0,0,1,.4-1.987A2.979,2.979,0,0,1,3.889,2.531,3.182,3.182,0,0,1,5.6,2.072,3.188,3.188,0,0,1,7.785,2.8a2.974,2.974,0,0,1,.956,2.036H7.13a1.633,1.633,0,0,0-.422-1.1,1.561,1.561,0,0,0-1.1-.341A1.369,1.369,0,0,0,4.4,3.971a3.236,3.236,0,0,0-.411,1.791v.591a3.463,3.463,0,0,0,.384,1.853,1.344,1.344,0,0,0,1.211.585A1.591,1.591,0,0,0,6.7,8.45,1.54,1.54,0,0,0,7.119,7.4Zm3.621.732h.564v.8h-.564V10h-.988V8.923H9.323L9.279,8.3l2.075-3.278h1Zm-2.088,0h1.1V6.37l-.065.113Z" transform="translate(-1973.007 -4721.5)" fill="#12263f"/>
    <path id="Trazado_373282" data-name="Trazado 373282" d="M8.731,7.4A2.767,2.767,0,0,1,7.8,9.382a3.273,3.273,0,0,1-2.216.725A2.943,2.943,0,0,1,3.217,9.095a4.151,4.151,0,0,1-.862-2.78V5.837a4.688,4.688,0,0,1,.4-1.987A2.979,2.979,0,0,1,3.889,2.531,3.182,3.182,0,0,1,5.6,2.072,3.188,3.188,0,0,1,7.785,2.8a2.974,2.974,0,0,1,.956,2.036H7.13a1.633,1.633,0,0,0-.422-1.1,1.561,1.561,0,0,0-1.1-.341A1.369,1.369,0,0,0,4.4,3.971a3.236,3.236,0,0,0-.411,1.791v.591a3.463,3.463,0,0,0,.384,1.853,1.344,1.344,0,0,0,1.211.585A1.591,1.591,0,0,0,6.7,8.45,1.54,1.54,0,0,0,7.119,7.4Zm.845.158.287-2.529h2.789v.824H10.673l-.123,1.07a1.566,1.566,0,0,1,.749-.188,1.434,1.434,0,0,1,1.114.441,1.761,1.761,0,0,1,.4,1.234,1.8,1.8,0,0,1-.2.863,1.435,1.435,0,0,1-.583.591,1.819,1.819,0,0,1-.9.21,1.932,1.932,0,0,1-.837-.183,1.485,1.485,0,0,1-.61-.514,1.4,1.4,0,0,1-.238-.755h.978a.73.73,0,0,0,.217.484.688.688,0,0,0,.487.173.607.607,0,0,0,.516-.241,1.116,1.116,0,0,0,.181-.682A.923.923,0,0,0,11.62,7.7a.765.765,0,0,0-.591-.226.855.855,0,0,0-.571.185l-.1.089Z" transform="translate(-1952.007 -4781.5)" fill="#12263f"/>
    <path id="Trazado_373283" data-name="Trazado 373283" d="M8.731,7.4A2.767,2.767,0,0,1,7.8,9.382a3.273,3.273,0,0,1-2.216.725A2.943,2.943,0,0,1,3.217,9.095a4.151,4.151,0,0,1-.862-2.78V5.837a4.688,4.688,0,0,1,.4-1.987A2.979,2.979,0,0,1,3.889,2.531,3.182,3.182,0,0,1,5.6,2.072,3.188,3.188,0,0,1,7.785,2.8a2.974,2.974,0,0,1,.956,2.036H7.13a1.633,1.633,0,0,0-.422-1.1,1.561,1.561,0,0,0-1.1-.341A1.369,1.369,0,0,0,4.4,3.971a3.236,3.236,0,0,0-.411,1.791v.591a3.463,3.463,0,0,0,.384,1.853,1.344,1.344,0,0,0,1.211.585A1.591,1.591,0,0,0,6.7,8.45,1.54,1.54,0,0,0,7.119,7.4Zm.845.158.287-2.529h2.789v.824H10.673l-.123,1.07a1.566,1.566,0,0,1,.749-.188,1.434,1.434,0,0,1,1.114.441,1.761,1.761,0,0,1,.4,1.234,1.8,1.8,0,0,1-.2.863,1.435,1.435,0,0,1-.583.591,1.819,1.819,0,0,1-.9.21,1.932,1.932,0,0,1-.837-.183,1.485,1.485,0,0,1-.61-.514,1.4,1.4,0,0,1-.238-.755h.978a.73.73,0,0,0,.217.484.688.688,0,0,0,.487.173.607.607,0,0,0,.516-.241,1.116,1.116,0,0,0,.181-.682A.923.923,0,0,0,11.62,7.7a.765.765,0,0,0-.591-.226.855.855,0,0,0-.571.185l-.1.089Z" transform="translate(-1952.007 -4751.5)" fill="#12263f"/>
    <path id="Trazado_373284" data-name="Trazado 373284" d="M8.731,7.4A2.767,2.767,0,0,1,7.8,9.382a3.273,3.273,0,0,1-2.216.725A2.943,2.943,0,0,1,3.217,9.095a4.151,4.151,0,0,1-.862-2.78V5.837a4.688,4.688,0,0,1,.4-1.987A2.979,2.979,0,0,1,3.889,2.531,3.182,3.182,0,0,1,5.6,2.072,3.188,3.188,0,0,1,7.785,2.8a2.974,2.974,0,0,1,.956,2.036H7.13a1.633,1.633,0,0,0-.422-1.1,1.561,1.561,0,0,0-1.1-.341A1.369,1.369,0,0,0,4.4,3.971a3.236,3.236,0,0,0-.411,1.791v.591a3.463,3.463,0,0,0,.384,1.853,1.344,1.344,0,0,0,1.211.585A1.591,1.591,0,0,0,6.7,8.45,1.54,1.54,0,0,0,7.119,7.4Zm.845.158.287-2.529h2.789v.824H10.673l-.123,1.07a1.566,1.566,0,0,1,.749-.188,1.434,1.434,0,0,1,1.114.441,1.761,1.761,0,0,1,.4,1.234,1.8,1.8,0,0,1-.2.863,1.435,1.435,0,0,1-.583.591,1.819,1.819,0,0,1-.9.21,1.932,1.932,0,0,1-.837-.183,1.485,1.485,0,0,1-.61-.514,1.4,1.4,0,0,1-.238-.755h.978a.73.73,0,0,0,.217.484.688.688,0,0,0,.487.173.607.607,0,0,0,.516-.241,1.116,1.116,0,0,0,.181-.682A.923.923,0,0,0,11.62,7.7a.765.765,0,0,0-.591-.226.855.855,0,0,0-.571.185l-.1.089Z" transform="translate(-1952.007 -4721.5)" fill="#12263f"/>
    <path id="Trazado_373285" data-name="Trazado 373285" d="M8.731,7.4A2.767,2.767,0,0,1,7.8,9.382a3.273,3.273,0,0,1-2.216.725A2.943,2.943,0,0,1,3.217,9.095a4.151,4.151,0,0,1-.862-2.78V5.837a4.688,4.688,0,0,1,.4-1.987A2.979,2.979,0,0,1,3.889,2.531,3.182,3.182,0,0,1,5.6,2.072,3.188,3.188,0,0,1,7.785,2.8a2.974,2.974,0,0,1,.956,2.036H7.13a1.633,1.633,0,0,0-.422-1.1,1.561,1.561,0,0,0-1.1-.341A1.369,1.369,0,0,0,4.4,3.971a3.236,3.236,0,0,0-.411,1.791v.591a3.463,3.463,0,0,0,.384,1.853,1.344,1.344,0,0,0,1.211.585A1.591,1.591,0,0,0,6.7,8.45,1.54,1.54,0,0,0,7.119,7.4Zm3.378-2.423v.813h-.1a1.678,1.678,0,0,0-1.078.349,1.416,1.416,0,0,0-.49.94,1.345,1.345,0,0,1,1-.4,1.268,1.268,0,0,1,1.032.465,1.863,1.863,0,0,1,.383,1.224,1.833,1.833,0,0,1-.21.878,1.508,1.508,0,0,1-.595.612,1.728,1.728,0,0,1-.87.219,1.614,1.614,0,0,1-1.27-.547,2.123,2.123,0,0,1-.484-1.459V7.707a3.2,3.2,0,0,1,.306-1.43,2.243,2.243,0,0,1,.878-.96,2.574,2.574,0,0,1,1.328-.344Zm-.964,2.5a.789.789,0,0,0-.434.125.75.75,0,0,0-.287.329v.3a1.33,1.33,0,0,0,.195.773.63.63,0,0,0,.547.278.623.623,0,0,0,.514-.251,1.023,1.023,0,0,0,.2-.65,1.021,1.021,0,0,0-.2-.655A.646.646,0,0,0,11.145,7.467Z" transform="translate(-1931.007 -4781.5)" fill="#12263f"/>
    <path id="Trazado_373286" data-name="Trazado 373286" d="M8.731,7.4A2.767,2.767,0,0,1,7.8,9.382a3.273,3.273,0,0,1-2.216.725A2.943,2.943,0,0,1,3.217,9.095a4.151,4.151,0,0,1-.862-2.78V5.837a4.688,4.688,0,0,1,.4-1.987A2.979,2.979,0,0,1,3.889,2.531,3.182,3.182,0,0,1,5.6,2.072,3.188,3.188,0,0,1,7.785,2.8a2.974,2.974,0,0,1,.956,2.036H7.13a1.633,1.633,0,0,0-.422-1.1,1.561,1.561,0,0,0-1.1-.341A1.369,1.369,0,0,0,4.4,3.971a3.236,3.236,0,0,0-.411,1.791v.591a3.463,3.463,0,0,0,.384,1.853,1.344,1.344,0,0,0,1.211.585A1.591,1.591,0,0,0,6.7,8.45,1.54,1.54,0,0,0,7.119,7.4Zm3.378-2.423v.813h-.1a1.678,1.678,0,0,0-1.078.349,1.416,1.416,0,0,0-.49.94,1.345,1.345,0,0,1,1-.4,1.268,1.268,0,0,1,1.032.465,1.863,1.863,0,0,1,.383,1.224,1.833,1.833,0,0,1-.21.878,1.508,1.508,0,0,1-.595.612,1.728,1.728,0,0,1-.87.219,1.614,1.614,0,0,1-1.27-.547,2.123,2.123,0,0,1-.484-1.459V7.707a3.2,3.2,0,0,1,.306-1.43,2.243,2.243,0,0,1,.878-.96,2.574,2.574,0,0,1,1.328-.344Zm-.964,2.5a.789.789,0,0,0-.434.125.75.75,0,0,0-.287.329v.3a1.33,1.33,0,0,0,.195.773.63.63,0,0,0,.547.278.623.623,0,0,0,.514-.251,1.023,1.023,0,0,0,.2-.65,1.021,1.021,0,0,0-.2-.655A.646.646,0,0,0,11.145,7.467Z" transform="translate(-1931.007 -4751.5)" fill="#12263f"/>
    <path id="Trazado_373287" data-name="Trazado 373287" d="M8.731,7.4A2.767,2.767,0,0,1,7.8,9.382a3.273,3.273,0,0,1-2.216.725A2.943,2.943,0,0,1,3.217,9.095a4.151,4.151,0,0,1-.862-2.78V5.837a4.688,4.688,0,0,1,.4-1.987A2.979,2.979,0,0,1,3.889,2.531,3.182,3.182,0,0,1,5.6,2.072,3.188,3.188,0,0,1,7.785,2.8a2.974,2.974,0,0,1,.956,2.036H7.13a1.633,1.633,0,0,0-.422-1.1,1.561,1.561,0,0,0-1.1-.341A1.369,1.369,0,0,0,4.4,3.971a3.236,3.236,0,0,0-.411,1.791v.591a3.463,3.463,0,0,0,.384,1.853,1.344,1.344,0,0,0,1.211.585A1.591,1.591,0,0,0,6.7,8.45,1.54,1.54,0,0,0,7.119,7.4Zm4.082-1.82L10.888,10H9.846l1.928-4.18H9.3v-.8h3.514Z" transform="translate(-1910.007 -4781.5)" fill="#12263f"/>
    <path id="Trazado_373288" data-name="Trazado 373288" d="M6.268,10H4.71V1.75H6.268Zm3.42,0H8.7V6.187l-1.179.364v-.8l2.061-.738h.106Z" transform="translate(-1889.007 -4781.5)" fill="#12263f"/>
    <path id="Trazado_373289" data-name="Trazado 373289" d="M6.268,10H4.71V1.75H6.268Zm3.42,0H8.7V6.187l-1.179.364v-.8l2.061-.738h.106Z" transform="translate(-1910.007 -4750.5)" fill="#12263f"/>
    <path id="Trazado_373290" data-name="Trazado 373290" d="M6.268,10H4.71V1.75H6.268Zm3.42,0H8.7V6.187l-1.179.364v-.8l2.061-.738h.106Z" transform="translate(-1932.007 -4721.5)" fill="#12263f"/>
    <path id="Trazado_373301" data-name="Trazado 373301" d="M6.268,10H4.71V1.75H6.268ZM10.7,10H7.289V9.323L8.9,7.607a3.972,3.972,0,0,0,.49-.632,1.016,1.016,0,0,0,.159-.513.76.76,0,0,0-.167-.521.6.6,0,0,0-.479-.19.652.652,0,0,0-.528.231.914.914,0,0,0-.193.607H7.189a1.631,1.631,0,0,1,.217-.831,1.53,1.53,0,0,1,.614-.59,1.865,1.865,0,0,1,.9-.214,1.766,1.766,0,0,1,1.195.369,1.306,1.306,0,0,1,.426,1.042,1.673,1.673,0,0,1-.191.752,4.179,4.179,0,0,1-.656.892L8.56,9.2H10.7Z" transform="translate(-1868.007 -4781.5)" fill="#12263f"/>
    <path id="Trazado_373291" data-name="Trazado 373291" d="M6.268,10H4.71V1.75H6.268ZM10.7,10H7.289V9.323L8.9,7.607a3.972,3.972,0,0,0,.49-.632,1.016,1.016,0,0,0,.159-.513.76.76,0,0,0-.167-.521.6.6,0,0,0-.479-.19.652.652,0,0,0-.528.231.914.914,0,0,0-.193.607H7.189a1.631,1.631,0,0,1,.217-.831,1.53,1.53,0,0,1,.614-.59,1.865,1.865,0,0,1,.9-.214,1.766,1.766,0,0,1,1.195.369,1.306,1.306,0,0,1,.426,1.042,1.673,1.673,0,0,1-.191.752,4.179,4.179,0,0,1-.656.892L8.56,9.2H10.7Z" transform="translate(-1889.007 -4750.5)" fill="#12263f"/>
    <path id="Trazado_373292" data-name="Trazado 373292" d="M6.268,10H4.71V1.75H6.268ZM10.7,10H7.289V9.323L8.9,7.607a3.972,3.972,0,0,0,.49-.632,1.016,1.016,0,0,0,.159-.513.76.76,0,0,0-.167-.521.6.6,0,0,0-.479-.19.652.652,0,0,0-.528.231.914.914,0,0,0-.193.607H7.189a1.631,1.631,0,0,1,.217-.831,1.53,1.53,0,0,1,.614-.59,1.865,1.865,0,0,1,.9-.214,1.766,1.766,0,0,1,1.195.369,1.306,1.306,0,0,1,.426,1.042,1.673,1.673,0,0,1-.191.752,4.179,4.179,0,0,1-.656.892L8.56,9.2H10.7Z" transform="translate(-1911.007 -4721.5)" fill="#12263f"/>
    <path id="Trazado_373302" data-name="Trazado 373302" d="M6.268,10H4.71V1.75H6.268ZM8.293,7.074H8.82a.742.742,0,0,0,.557-.188.689.689,0,0,0,.181-.5.609.609,0,0,0-.179-.468.7.7,0,0,0-.494-.167.729.729,0,0,0-.475.156.5.5,0,0,0-.191.405H7.23a1.215,1.215,0,0,1,.21-.7,1.4,1.4,0,0,1,.588-.484,1.962,1.962,0,0,1,.832-.174,1.861,1.861,0,0,1,1.237.378,1.289,1.289,0,0,1,.448,1.041A1.047,1.047,0,0,1,10.337,7a1.355,1.355,0,0,1-.547.441,1.237,1.237,0,0,1,.627.451,1.224,1.224,0,0,1,.207.711,1.31,1.31,0,0,1-.484,1.063,1.945,1.945,0,0,1-1.28.4,1.844,1.844,0,0,1-1.219-.393,1.284,1.284,0,0,1-.473-1.039h.988a.572.572,0,0,0,.21.458.877.877,0,0,0,1.07-.009.643.643,0,0,0,.2-.494q0-.745-.82-.745H8.293Z" transform="translate(-1848.007 -4781.5)" fill="#12263f"/>
    <path id="Trazado_373303" data-name="Trazado 373303" d="M6.268,10H4.71V1.75H6.268ZM8.293,7.074H8.82a.742.742,0,0,0,.557-.188.689.689,0,0,0,.181-.5.609.609,0,0,0-.179-.468.7.7,0,0,0-.494-.167.729.729,0,0,0-.475.156.5.5,0,0,0-.191.405H7.23a1.215,1.215,0,0,1,.21-.7,1.4,1.4,0,0,1,.588-.484,1.962,1.962,0,0,1,.832-.174,1.861,1.861,0,0,1,1.237.378,1.289,1.289,0,0,1,.448,1.041A1.047,1.047,0,0,1,10.337,7a1.355,1.355,0,0,1-.547.441,1.237,1.237,0,0,1,.627.451,1.224,1.224,0,0,1,.207.711,1.31,1.31,0,0,1-.484,1.063,1.945,1.945,0,0,1-1.28.4,1.844,1.844,0,0,1-1.219-.393,1.284,1.284,0,0,1-.473-1.039h.988a.572.572,0,0,0,.21.458.877.877,0,0,0,1.07-.009.643.643,0,0,0,.2-.494q0-.745-.82-.745H8.293Z" transform="translate(-1869.007 -4750.5)" fill="#12263f"/>
    <path id="Trazado_373293" data-name="Trazado 373293" d="M6.268,10H4.71V1.75H6.268ZM8.293,7.074H8.82a.742.742,0,0,0,.557-.188.689.689,0,0,0,.181-.5.609.609,0,0,0-.179-.468.7.7,0,0,0-.494-.167.729.729,0,0,0-.475.156.5.5,0,0,0-.191.405H7.23a1.215,1.215,0,0,1,.21-.7,1.4,1.4,0,0,1,.588-.484,1.962,1.962,0,0,1,.832-.174,1.861,1.861,0,0,1,1.237.378,1.289,1.289,0,0,1,.448,1.041A1.047,1.047,0,0,1,10.337,7a1.355,1.355,0,0,1-.547.441,1.237,1.237,0,0,1,.627.451,1.224,1.224,0,0,1,.207.711,1.31,1.31,0,0,1-.484,1.063,1.945,1.945,0,0,1-1.28.4,1.844,1.844,0,0,1-1.219-.393,1.284,1.284,0,0,1-.473-1.039h.988a.572.572,0,0,0,.21.458.877.877,0,0,0,1.07-.009.643.643,0,0,0,.2-.494q0-.745-.82-.745H8.293Z" transform="translate(-1891.007 -4721.5)" fill="#12263f"/>
    <path id="Trazado_373304" data-name="Trazado 373304" d="M6.268,10H4.71V1.75H6.268Zm3.943-1.873h.564v.8h-.564V10H9.223V8.923H7.183L7.138,8.3,9.213,5.023h1Zm-2.088,0h1.1V6.37l-.065.113Z" transform="translate(-1847.007 -4750.5)" fill="#12263f"/>
    <path id="Trazado_373305" data-name="Trazado 373305" d="M6.268,10H4.71V1.75H6.268Zm3.943-1.873h.564v.8h-.564V10H9.223V8.923H7.183L7.138,8.3,9.213,5.023h1Zm-2.088,0h1.1V6.37l-.065.113Z" transform="translate(-1869.007 -4721.5)" fill="#12263f"/>
    <path id="Trazado_373306" data-name="Trazado 373306" d="M6.268,10H4.71V1.75H6.268ZM7.436,7.553l.287-2.529h2.789v.824H8.533L8.41,6.917a1.566,1.566,0,0,1,.749-.188,1.434,1.434,0,0,1,1.114.441,1.761,1.761,0,0,1,.4,1.234,1.8,1.8,0,0,1-.2.863,1.435,1.435,0,0,1-.583.591,1.819,1.819,0,0,1-.9.21,1.932,1.932,0,0,1-.837-.183,1.485,1.485,0,0,1-.61-.514,1.4,1.4,0,0,1-.238-.755h.978A.73.73,0,0,0,8.5,9.1a.688.688,0,0,0,.487.173.607.607,0,0,0,.516-.241,1.116,1.116,0,0,0,.181-.682A.923.923,0,0,0,9.479,7.7a.765.765,0,0,0-.591-.226.855.855,0,0,0-.571.185l-.1.089Z" transform="translate(-1848.007 -4721.5)" fill="#12263f"/>
    <path id="Trazado_373307" data-name="Trazado 373307" d="M10.739,7.4a2.767,2.767,0,0,1-.932,1.987,3.273,3.273,0,0,1-2.216.725A2.943,2.943,0,0,1,5.225,9.095a4.151,4.151,0,0,1-.862-2.78V5.837a4.688,4.688,0,0,1,.4-1.987A2.979,2.979,0,0,1,5.9,2.531a3.182,3.182,0,0,1,1.716-.459A3.188,3.188,0,0,1,9.793,2.8a2.974,2.974,0,0,1,.956,2.036H9.138a1.633,1.633,0,0,0-.422-1.1,1.561,1.561,0,0,0-1.1-.341,1.369,1.369,0,0,0-1.206.577A3.236,3.236,0,0,0,6,5.762v.591A3.463,3.463,0,0,0,6.38,8.206a1.344,1.344,0,0,0,1.211.585A1.591,1.591,0,0,0,8.706,8.45,1.54,1.54,0,0,0,9.127,7.4Z" transform="translate(-1793.007 -4767.5)" fill="#12263f"/>
    <g id="Grupo_593754" data-name="Grupo 593754" transform="translate(-3142.007 -8819)">
      <line id="Lnea_1974" data-name="Lnea 1974" y2="6" transform="translate(1025.5 4121.5)" fill="none" stroke="#f11" stroke-width="1"/>
      <line id="Lnea_1975" data-name="Lnea 1975" y2="6" transform="translate(1207.5 4121.5)" fill="none" stroke="#f11" stroke-width="1"/>
      <line id="Lnea_1977" data-name="Lnea 1977" y2="7" transform="translate(1117.5 4127.5)" fill="none" stroke="#f11" stroke-width="1"/>
      <line id="Lnea_1976" data-name="Lnea 1976" x2="182" transform="translate(1025.5 4127.5)" fill="none" stroke="#f11" stroke-linecap="round" stroke-width="1"/>
    </g>
    <g id="Grupo_593760" data-name="Grupo 593760" transform="translate(-2957.007 -8819)">
      <line id="Lnea_1974-2" data-name="Lnea 1974" y2="6" transform="translate(1025.5 4121.5)" fill="none" stroke="#f11" stroke-width="1"/>
      <line id="Lnea_1975-2" data-name="Lnea 1975" y2="6" transform="translate(1128.5 4121.5)" fill="none" stroke="#f11" stroke-width="1"/>
      <line id="Lnea_1977-2" data-name="Lnea 1977" y2="7" transform="translate(1077.5 4127.5)" fill="none" stroke="#f11" stroke-width="1"/>
      <path id="Trazado_309086" data-name="Trazado 309086" d="M0,0H103" transform="translate(1025.5 4127.5)" fill="none" stroke="#f11" stroke-linecap="round" stroke-width="1"/>
    </g>
    <g id="Grupo_593761" data-name="Grupo 593761" transform="translate(-2842.007 -8819)">
      <line id="Lnea_1974-3" data-name="Lnea 1974" y2="6" transform="translate(1025.5 4121.5)" fill="none" stroke="#f11" stroke-width="1"/>
      <line id="Lnea_1975-3" data-name="Lnea 1975" y2="6" transform="translate(1086.5 4121.5)" fill="none" stroke="#f11" stroke-width="1"/>
      <line id="Lnea_1977-3" data-name="Lnea 1977" y2="7" transform="translate(1056.5 4127.5)" fill="none" stroke="#f11" stroke-width="1"/>
      <path id="Trazado_309086-2" data-name="Trazado 309086" d="M0,0H61" transform="translate(1025.5 4127.5)" fill="none" stroke="#f11" stroke-linecap="round" stroke-width="1"/>
    </g>
  </g>
</svg>
