<svg xmlns="http://www.w3.org/2000/svg" xmlns:xlink="http://www.w3.org/1999/xlink" width="327.74" height="151.846" viewBox="0 0 327.74 151.846">
  <defs>
    <filter id="Trazado_377289" x="0" y="43.138" width="327.74" height="108.709" filterUnits="userSpaceOnUse">
      <feOffset dx="2" dy="7" input="SourceAlpha"/>
      <feGaussianBlur stdDeviation="3" result="blur"/>
      <feFlood flood-opacity="0.161"/>
      <feComposite operator="in" in2="blur"/>
      <feComposite in="SourceGraphic"/>
    </filter>
  </defs>
  <g id="Grupo_642000" data-name="Grupo 642000" transform="translate(12816 -1296.168)">
    <g transform="matrix(1, 0, 0, 1, -12816, 1296.17)" filter="url(#Trazado_377289)">
      <path id="Trazado_377289-2" data-name="Trazado 377289" d="M0,90.709V0H293.736V21.218l16,24.134-16,24.139V90.709Z" transform="translate(7 45.14)" fill="#9da9ff"/>
    </g>
    <path id="Trazado_377286" data-name="Trazado 377286" d="M37.361-22.438q0,11.743-4.011,17.452T20.813.723Q12.394.723,8.347-4.86T4.155-21.535V-30.46q0-11.6,4.011-17.235T20.74-53.332q8.491,0,12.5,5.438T37.361-31.11ZM30.677-31.58q0-8.491-2.385-12.375T20.74-47.84q-5.131,0-7.479,3.866T10.84-32.086v10.7q0,8.527,2.475,12.592a8.193,8.193,0,0,0,7.5,4.065,8.08,8.08,0,0,0,7.353-3.83q2.4-3.83,2.511-12.068ZM74.145-17.669h7.3v5.456h-7.3V0H67.424V-12.213H43.468v-3.938L67.026-52.609h7.118Zm-23.089,0H67.424v-25.8l-.795,1.445ZM88.309-3.5A4.186,4.186,0,0,1,89.338-6.4a3.924,3.924,0,0,1,3.089-1.156A4.041,4.041,0,0,1,95.553-6.4,4.1,4.1,0,0,1,96.619-3.5,3.879,3.879,0,0,1,95.553-.723,4.114,4.114,0,0,1,92.428.4a3.993,3.993,0,0,1-3.089-1.12A3.956,3.956,0,0,1,88.309-3.5Z" transform="translate(-12789 1350)" fill="none" stroke="#10243b" stroke-width="1"/>
    <path id="Trazado_377293" data-name="Trazado 377293" d="M8.367,14.363H3.744L2.865,17H.062L4.825,4.2H7.269L12.059,17h-2.8ZM4.456,12.228h3.2L6.047,7.438Zm12.586,2.9a1.666,1.666,0,0,0,1.143-.387,1.355,1.355,0,0,0,.457-1.028h2.382a3.258,3.258,0,0,1-.527,1.771,3.48,3.48,0,0,1-1.419,1.248,4.442,4.442,0,0,1-1.991.444,4.129,4.129,0,0,1-3.217-1.3A5.13,5.13,0,0,1,12.691,12.3v-.167A5.071,5.071,0,0,1,13.86,8.624a4.08,4.08,0,0,1,3.208-1.31A4,4,0,0,1,19.929,8.33a3.594,3.594,0,0,1,1.094,2.7H18.642a1.745,1.745,0,0,0-.457-1.206,1.7,1.7,0,0,0-2.5.183,3.749,3.749,0,0,0-.453,2.1v.264a3.8,3.8,0,0,0,.448,2.113A1.549,1.549,0,0,0,17.042,15.128Zm9.387,0a1.666,1.666,0,0,0,1.143-.387,1.355,1.355,0,0,0,.457-1.028H30.41a3.258,3.258,0,0,1-.527,1.771,3.48,3.48,0,0,1-1.419,1.248,4.442,4.442,0,0,1-1.991.444,4.129,4.129,0,0,1-3.217-1.3A5.13,5.13,0,0,1,22.078,12.3v-.167a5.071,5.071,0,0,1,1.169-3.507,4.08,4.08,0,0,1,3.208-1.31A4,4,0,0,1,29.316,8.33a3.594,3.594,0,0,1,1.094,2.7H28.028a1.745,1.745,0,0,0-.457-1.206,1.7,1.7,0,0,0-2.5.183,3.749,3.749,0,0,0-.453,2.1v.264a3.8,3.8,0,0,0,.448,2.113A1.549,1.549,0,0,0,26.429,15.128Zm9.809,2.048a4.668,4.668,0,0,1-3.406-1.283,4.561,4.561,0,0,1-1.314-3.419v-.246a5.745,5.745,0,0,1,.554-2.562,4.064,4.064,0,0,1,1.569-1.74,4.4,4.4,0,0,1,2.316-.611,3.947,3.947,0,0,1,3.072,1.23,5,5,0,0,1,1.121,3.489v1.037H34.093a2.36,2.36,0,0,0,.743,1.494,2.245,2.245,0,0,0,1.569.563A2.742,2.742,0,0,0,38.7,14.064l1.248,1.4A3.813,3.813,0,0,1,38.4,16.723,5.075,5.075,0,0,1,36.237,17.176Zm-.29-7.813a1.587,1.587,0,0,0-1.226.512,2.651,2.651,0,0,0-.6,1.466h3.533v-.2A1.891,1.891,0,0,0,37.2,9.826,1.638,1.638,0,0,0,35.947,9.362Zm10.793,5.01a.818.818,0,0,0-.461-.734,5.241,5.241,0,0,0-1.481-.479q-3.393-.712-3.393-2.883a2.613,2.613,0,0,1,1.05-2.114A4.237,4.237,0,0,1,45.2,7.314a4.56,4.56,0,0,1,2.9.853,2.687,2.687,0,0,1,1.085,2.215h-2.54a1.229,1.229,0,0,0-.352-.9,1.488,1.488,0,0,0-1.1-.356,1.52,1.52,0,0,0-.993.29.916.916,0,0,0-.352.738.783.783,0,0,0,.4.681,4.114,4.114,0,0,0,1.349.448,11.019,11.019,0,0,1,1.6.426,2.628,2.628,0,0,1,2.013,2.558,2.481,2.481,0,0,1-1.116,2.1,4.815,4.815,0,0,1-2.883.8,5.029,5.029,0,0,1-2.123-.426,3.561,3.561,0,0,1-1.455-1.169,2.716,2.716,0,0,1-.527-1.6h2.408a1.326,1.326,0,0,0,.5,1.037,1.987,1.987,0,0,0,1.248.36,1.839,1.839,0,0,0,1.1-.277A.861.861,0,0,0,46.74,14.372Zm3.709-2.215a5.64,5.64,0,0,1,.545-2.522,3.989,3.989,0,0,1,1.569-1.714,4.577,4.577,0,0,1,2.377-.606,4.33,4.33,0,0,1,3.142,1.178,4.727,4.727,0,0,1,1.358,3.2l.018.65a4.97,4.97,0,0,1-1.222,3.511,4.735,4.735,0,0,1-6.561,0,5.058,5.058,0,0,1-1.226-3.586Zm2.54.18a3.555,3.555,0,0,0,.51,2.073,1.831,1.831,0,0,0,2.9.009,3.89,3.89,0,0,0,.519-2.267,3.519,3.519,0,0,0-.519-2.06,1.686,1.686,0,0,0-1.459-.731,1.658,1.658,0,0,0-1.441.726A3.955,3.955,0,0,0,52.989,12.338Z" transform="translate(-12762.929 1367.629)" fill="#12263f"/>
  </g>
</svg>
