<svg xmlns="http://www.w3.org/2000/svg" xmlns:xlink="http://www.w3.org/1999/xlink" width="310.63" height="151.846" viewBox="0 0 310.63 151.846">
  <defs>
    <filter id="Trazado_377290" x="0" y="43.139" width="310.63" height="108.706" filterUnits="userSpaceOnUse">
      <feOffset dx="2" dy="7" input="SourceAlpha"/>
      <feGaussianBlur stdDeviation="3" result="blur"/>
      <feFlood flood-opacity="0.161"/>
      <feComposite operator="in" in2="blur"/>
      <feComposite in="SourceGraphic"/>
    </filter>
  </defs>
  <g id="Grupo_642006" data-name="Grupo 642006" transform="translate(12078.988 -1296.168)">
    <g transform="matrix(1, 0, 0, 1, -12078.99, 1296.17)" filter="url(#Trazado_377290)">
      <path id="Trazado_377290-2" data-name="Trazado 377290" d="M0,0h292.63V90.708H0Z" transform="translate(7 45.14)" fill="#9da9ff"/>
    </g>
    <path id="Trazado_377287" data-name="Trazado 377287" d="M26.341,0H19.62V-44.552L6.143-39.6v-6.07l19.15-7.19h1.048ZM80.4,0H45.925V-4.806L64.136-25.04A43.265,43.265,0,0,0,69.718-32.5a12.453,12.453,0,0,0,1.536-5.944A9.439,9.439,0,0,0,68.761-45.2a8.717,8.717,0,0,0-6.648-2.638q-4.986,0-7.75,2.836t-2.764,7.9H44.913a15.517,15.517,0,0,1,4.679-11.743q4.679-4.48,12.52-4.48,7.335,0,11.6,3.848A13.126,13.126,0,0,1,77.975-39.24q0,7.769-9.9,18.5L53.982-5.456H80.4Zm7.913-3.5A4.186,4.186,0,0,1,89.338-6.4a3.924,3.924,0,0,1,3.089-1.156A4.041,4.041,0,0,1,95.553-6.4,4.1,4.1,0,0,1,96.619-3.5,3.879,3.879,0,0,1,95.553-.723,4.114,4.114,0,0,1,92.428.4a3.993,3.993,0,0,1-3.089-1.12A3.956,3.956,0,0,1,88.309-3.5Z" transform="translate(-12068 1350)" fill="none" stroke="#10243b" stroke-width="1"/>
    <path id="Trazado_377292" data-name="Trazado 377292" d="M7.778,13.643A1.353,1.353,0,0,0,7.251,12.5a6.917,6.917,0,0,0-1.9-.844,13.458,13.458,0,0,1-2.171-.875A3.547,3.547,0,0,1,1,7.6a3.09,3.09,0,0,1,.584-1.85,3.812,3.812,0,0,1,1.679-1.27,6.318,6.318,0,0,1,2.457-.457,5.751,5.751,0,0,1,2.443.5,3.891,3.891,0,0,1,1.666,1.4,3.668,3.668,0,0,1,.593,2.057H7.787a1.726,1.726,0,0,0-.554-1.367,2.276,2.276,0,0,0-1.556-.488,2.432,2.432,0,0,0-1.5.409,1.289,1.289,0,0,0-.536,1.077,1.235,1.235,0,0,0,.628,1.046,7.1,7.1,0,0,0,1.85.791A7.994,7.994,0,0,1,9.4,11.129a3.343,3.343,0,0,1,1.028,2.5,3.08,3.08,0,0,1-1.257,2.606,5.5,5.5,0,0,1-3.384.945,6.534,6.534,0,0,1-2.689-.541,4.256,4.256,0,0,1-1.85-1.481,3.793,3.793,0,0,1-.637-2.18H3.252q0,2.118,2.531,2.118a2.462,2.462,0,0,0,1.468-.382A1.244,1.244,0,0,0,7.778,13.643ZM17.552,17a2.821,2.821,0,0,1-.255-.853,3.073,3.073,0,0,1-2.4,1.028,3.376,3.376,0,0,1-2.316-.809,2.6,2.6,0,0,1-.918-2.039,2.687,2.687,0,0,1,1.121-2.32,5.529,5.529,0,0,1,3.239-.817h1.169v-.545a1.567,1.567,0,0,0-.338-1.055,1.331,1.331,0,0,0-1.068-.4,1.513,1.513,0,0,0-1.006.308,1.045,1.045,0,0,0-.365.844h-2.54a2.551,2.551,0,0,1,.51-1.529,3.37,3.37,0,0,1,1.441-1.1,5.253,5.253,0,0,1,2.092-.4,4.15,4.15,0,0,1,2.791.883,3.09,3.09,0,0,1,1.033,2.483V14.8a4.546,4.546,0,0,0,.378,2.048V17Zm-2.1-1.767a2.188,2.188,0,0,0,1.037-.25,1.645,1.645,0,0,0,.7-.672V12.676h-.949q-1.907,0-2.03,1.318l-.009.149a1.017,1.017,0,0,0,.334.782A1.3,1.3,0,0,0,15.451,15.233ZM24.372,17H21.823V3.5h2.549Zm4.772,0H26.6V7.49h2.549Zm-2.7-11.971a1.251,1.251,0,0,1,.382-.94,1.648,1.648,0,0,1,2.079,0,1.244,1.244,0,0,1,.387.94,1.247,1.247,0,0,1-.391.949,1.629,1.629,0,0,1-2.065,0A1.247,1.247,0,0,1,26.446,5.029Zm4.395,7.146a5.731,5.731,0,0,1,1-3.542,3.237,3.237,0,0,1,2.729-1.318,2.913,2.913,0,0,1,2.294,1.037V3.5H39.41V17H37.116l-.123-1.011a2.989,2.989,0,0,1-2.443,1.187,3.228,3.228,0,0,1-2.694-1.323A5.916,5.916,0,0,1,30.841,12.175Zm2.54.181a3.775,3.775,0,0,0,.466,2.057,1.516,1.516,0,0,0,1.354.715,1.7,1.7,0,0,0,1.661-1V10.36a1.675,1.675,0,0,0-1.644-1Q33.381,9.362,33.381,12.356ZM46.89,17a2.821,2.821,0,0,1-.255-.853,3.073,3.073,0,0,1-2.4,1.028,3.376,3.376,0,0,1-2.316-.809A2.6,2.6,0,0,1,41,14.328a2.687,2.687,0,0,1,1.121-2.32,5.529,5.529,0,0,1,3.239-.817h1.169v-.545a1.567,1.567,0,0,0-.338-1.055,1.331,1.331,0,0,0-1.068-.4,1.513,1.513,0,0,0-1.006.308,1.045,1.045,0,0,0-.365.844h-2.54a2.551,2.551,0,0,1,.51-1.529,3.37,3.37,0,0,1,1.441-1.1,5.253,5.253,0,0,1,2.092-.4,4.15,4.15,0,0,1,2.791.883,3.09,3.09,0,0,1,1.033,2.483V14.8a4.546,4.546,0,0,0,.378,2.048V17Zm-2.1-1.767a2.188,2.188,0,0,0,1.037-.25,1.645,1.645,0,0,0,.7-.672V12.676H45.58q-1.907,0-2.03,1.318l-.009.149a1.017,1.017,0,0,0,.334.782A1.3,1.3,0,0,0,44.789,15.233ZM59.071,13.9,60.838,7.49h2.654L60.284,17H57.858L54.65,7.49H57.3Zm9.8,3.278a4.668,4.668,0,0,1-3.406-1.283,4.561,4.561,0,0,1-1.314-3.419v-.246a5.745,5.745,0,0,1,.554-2.562,4.064,4.064,0,0,1,1.569-1.74,4.4,4.4,0,0,1,2.316-.611,3.947,3.947,0,0,1,3.072,1.23,5,5,0,0,1,1.121,3.489v1.037H66.727a2.36,2.36,0,0,0,.743,1.494,2.245,2.245,0,0,0,1.569.563,2.742,2.742,0,0,0,2.294-1.063l1.248,1.4a3.813,3.813,0,0,1-1.547,1.261A5.075,5.075,0,0,1,68.871,17.176Zm-.29-7.813a1.587,1.587,0,0,0-1.226.512,2.651,2.651,0,0,0-.6,1.466h3.533v-.2a1.891,1.891,0,0,0-.457-1.311A1.638,1.638,0,0,0,68.581,9.362ZM76.7,8.527a3.17,3.17,0,0,1,2.54-1.213q3.094,0,3.138,3.595V17H79.84V10.966a1.774,1.774,0,0,0-.352-1.211,1.505,1.505,0,0,0-1.169-.392,1.728,1.728,0,0,0-1.617.863V17h-2.54V3.5H76.7ZM87.038,17H84.5V7.49h2.54ZM86.291,3.632H89.06L86.625,6.356H84.56Zm6.891,11.5a1.666,1.666,0,0,0,1.143-.387,1.355,1.355,0,0,0,.457-1.028h2.382a3.258,3.258,0,0,1-.527,1.771,3.48,3.48,0,0,1-1.419,1.248,4.442,4.442,0,0,1-1.991.444,4.129,4.129,0,0,1-3.217-1.3A5.13,5.13,0,0,1,88.831,12.3v-.167A5.071,5.071,0,0,1,90,8.624a4.08,4.08,0,0,1,3.208-1.31A4,4,0,0,1,96.069,8.33a3.594,3.594,0,0,1,1.094,2.7H94.781a1.745,1.745,0,0,0-.457-1.206,1.7,1.7,0,0,0-2.5.183,3.749,3.749,0,0,0-.453,2.1v.264a3.8,3.8,0,0,0,.448,2.113A1.549,1.549,0,0,0,93.182,15.128Zm11.127.905a3.185,3.185,0,0,1-2.6,1.143,3,3,0,0,1-2.333-.879,3.752,3.752,0,0,1-.822-2.575V7.49h2.54v6.151q0,1.487,1.354,1.487a1.834,1.834,0,0,0,1.775-.9V7.49h2.549V17h-2.391Zm7.058.967h-2.549V3.5h2.549Zm1.7-4.843a5.64,5.64,0,0,1,.545-2.522,3.989,3.989,0,0,1,1.569-1.714,4.577,4.577,0,0,1,2.377-.606A4.33,4.33,0,0,1,120.7,8.492a4.727,4.727,0,0,1,1.358,3.2l.018.65a4.97,4.97,0,0,1-1.222,3.511,4.735,4.735,0,0,1-6.561,0,5.058,5.058,0,0,1-1.226-3.586Zm2.54.18a3.555,3.555,0,0,0,.51,2.073,1.831,1.831,0,0,0,2.9.009,3.89,3.89,0,0,0,.519-2.267,3.519,3.519,0,0,0-.519-2.06,1.686,1.686,0,0,0-1.459-.731,1.658,1.658,0,0,0-1.441.726A3.955,3.955,0,0,0,115.6,12.338Z" transform="translate(-12042.234 1363)" fill="#12263f"/>
  </g>
</svg>
