<svg xmlns="http://www.w3.org/2000/svg" xmlns:xlink="http://www.w3.org/1999/xlink" width="1074.659" height="340" viewBox="0 0 1074.659 340">
  <defs>
    <clipPath id="clip-path">
      <rect id="Rect치ngulo_237346" data-name="Rect치ngulo 237346" width="1074.659" height="340" rx="15" transform="translate(-7484 4542)" fill="#e8e8e8" stroke="#707070" stroke-width="1"/>
    </clipPath>
    <clipPath id="clip-path-2">
      <path id="Trazado_373597" data-name="Trazado 373597" d="M0,7.4V138.63c29.507,13.322,66.133,8.661,90.663-13.984,30.892-28.515,30.892-74.745,0-103.259C75.218,7.128,54.981,0,34.742,0A84.583,84.583,0,0,0,0,7.4" transform="translate(0 0)" fill="#9a9a9a"/>
    </clipPath>
    <clipPath id="clip-path-3">
      <rect id="Rect치ngulo_237345" data-name="Rect치ngulo 237345" width="230.758" height="213.009" fill="#fff"/>
    </clipPath>
    <clipPath id="clip-path-4">
      <path id="Trazado_373599" data-name="Trazado 373599" d="M0,2.145A2.239,2.239,0,0,1,2.324,0,2.239,2.239,0,0,1,4.646,2.145,2.239,2.239,0,0,1,2.324,4.289,2.239,2.239,0,0,1,0,2.145M2.324,18.02a2.239,2.239,0,0,0,2.323-2.145,2.239,2.239,0,0,0-2.323-2.144A2.239,2.239,0,0,0,0,15.875,2.239,2.239,0,0,0,2.324,18.02m17.2-15.875a2.331,2.331,0,0,0-4.646,0A2.239,2.239,0,0,0,17.2,4.289a2.239,2.239,0,0,0,2.324-2.144M2.324,31.75a2.151,2.151,0,1,0,0-4.289,2.151,2.151,0,1,0,0,4.289m0,13.731a2.151,2.151,0,1,0,0-4.289,2.151,2.151,0,1,0,0,4.289m0,13.731a2.151,2.151,0,1,0,0-4.289,2.151,2.151,0,1,0,0,4.289m0,13.731a2.151,2.151,0,1,0,0-4.289,2.151,2.151,0,1,0,0,4.289m0,13.73a2.151,2.151,0,1,0,0-4.289,2.151,2.151,0,1,0,0,4.289m0,13.731a2.151,2.151,0,1,0,0-4.289,2.151,2.151,0,1,0,0,4.289m0,13.731a2.151,2.151,0,1,0,0-4.289,2.151,2.151,0,1,0,0,4.289m0,13.731a2.152,2.152,0,1,0,0-4.29,2.152,2.152,0,1,0,0,4.29m0,13.73a2.151,2.151,0,1,0,0-4.289,2.151,2.151,0,1,0,0,4.289m0,13.731a2.151,2.151,0,1,0,0-4.289,2.151,2.151,0,1,0,0,4.289m0,13.731a2.151,2.151,0,1,0,0-4.289,2.151,2.151,0,1,0,0,4.289m0,13.731a2.152,2.152,0,1,0,0-4.29,2.152,2.152,0,1,0,0,4.29m0,13.73a2.151,2.151,0,1,0,0-4.289,2.151,2.151,0,1,0,0,4.289m0,13.731a2.151,2.151,0,1,0,0-4.289,2.151,2.151,0,1,0,0,4.289m0,13.731a2.151,2.151,0,1,0,0-4.289,2.151,2.151,0,1,0,0,4.289m0,13.73a2.151,2.151,0,1,0,0-4.289,2.151,2.151,0,1,0,0,4.289m0,13.731a2.151,2.151,0,1,0,0-4.289,2.151,2.151,0,1,0,0,4.289m0,13.731a2.151,2.151,0,1,0,0-4.289,2.151,2.151,0,1,0,0,4.289m0,13.731a2.152,2.152,0,1,0,0-4.29,2.152,2.152,0,1,0,0,4.29m0,13.73a2.151,2.151,0,1,0,0-4.289,2.151,2.151,0,1,0,0,4.289m0,13.731a2.151,2.151,0,1,0,0-4.289,2.151,2.151,0,1,0,0,4.289m0,13.731a2.151,2.151,0,1,0,0-4.289,2.151,2.151,0,1,0,0,4.289m0,13.731a2.152,2.152,0,1,0,0-4.29,2.152,2.152,0,1,0,0,4.29m0,13.73a2.151,2.151,0,1,0,0-4.289,2.151,2.151,0,1,0,0,4.289m0,13.731a2.151,2.151,0,1,0,0-4.289,2.151,2.151,0,1,0,0,4.289M17.2,18.02a2.239,2.239,0,0,0,2.324-2.145A2.239,2.239,0,0,0,17.2,13.731a2.239,2.239,0,0,0-2.323,2.144A2.239,2.239,0,0,0,17.2,18.02m0,13.73a2.151,2.151,0,1,0-2.323-2.144A2.239,2.239,0,0,0,17.2,31.75m0,13.731a2.151,2.151,0,1,0,0-4.289,2.151,2.151,0,1,0,0,4.289m0,13.731a2.151,2.151,0,1,0,0-4.289,2.151,2.151,0,1,0,0,4.289m0,13.731a2.151,2.151,0,1,0,0-4.289,2.151,2.151,0,1,0,0,4.289m0,13.73a2.151,2.151,0,1,0,0-4.289,2.151,2.151,0,1,0,0,4.289m0,13.731a2.151,2.151,0,1,0,0-4.289,2.151,2.151,0,1,0,0,4.289m0,13.731a2.151,2.151,0,1,0,0-4.289,2.151,2.151,0,1,0,0,4.289m0,13.731a2.152,2.152,0,1,0-2.323-2.145,2.24,2.24,0,0,0,2.323,2.145m0,13.73a2.151,2.151,0,1,0,0-4.289,2.151,2.151,0,1,0,0,4.289m0,13.731a2.151,2.151,0,1,0,0-4.289,2.151,2.151,0,1,0,0,4.289m0,13.731a2.151,2.151,0,1,0,0-4.289,2.151,2.151,0,1,0,0,4.289m0,13.731a2.152,2.152,0,1,0-2.323-2.145,2.24,2.24,0,0,0,2.323,2.145m0,13.73a2.151,2.151,0,1,0,0-4.289,2.151,2.151,0,1,0,0,4.289m0,13.731a2.151,2.151,0,1,0,0-4.289,2.151,2.151,0,1,0,0,4.289m0,13.731a2.151,2.151,0,1,0,0-4.289,2.151,2.151,0,1,0,0,4.289m0,13.73a2.151,2.151,0,1,0,0-4.289,2.151,2.151,0,1,0,0,4.289m0,13.731a2.151,2.151,0,1,0,0-4.289,2.151,2.151,0,1,0,0,4.289m0,13.731a2.151,2.151,0,1,0,0-4.289,2.151,2.151,0,1,0,0,4.289m0,13.731a2.152,2.152,0,1,0-2.323-2.145A2.239,2.239,0,0,0,17.2,278.9m0,13.73a2.151,2.151,0,1,0,0-4.289,2.151,2.151,0,1,0,0,4.289m0,13.731a2.151,2.151,0,1,0,0-4.289,2.151,2.151,0,1,0,0,4.289m0,13.731a2.151,2.151,0,1,0,0-4.289,2.151,2.151,0,1,0,0,4.289m0,13.731a2.152,2.152,0,1,0-2.323-2.145,2.24,2.24,0,0,0,2.323,2.145m0,13.73a2.151,2.151,0,1,0,0-4.289,2.151,2.151,0,1,0,0,4.289m0,13.731a2.151,2.151,0,1,0,0-4.289,2.151,2.151,0,1,0,0,4.289m14.875-357A2.24,2.24,0,0,0,34.4,2.145a2.331,2.331,0,0,0-4.646,0,2.239,2.239,0,0,0,2.323,2.144m0,13.731A2.24,2.24,0,0,0,34.4,15.875a2.331,2.331,0,0,0-4.646,0,2.239,2.239,0,0,0,2.323,2.145m0,13.73a2.151,2.151,0,1,0-2.323-2.144,2.24,2.24,0,0,0,2.323,2.144m0,13.731a2.151,2.151,0,1,0-2.323-2.144,2.24,2.24,0,0,0,2.323,2.144m0,13.731a2.151,2.151,0,1,0-2.323-2.145,2.24,2.24,0,0,0,2.323,2.145m0,13.731A2.151,2.151,0,1,0,29.75,70.8a2.24,2.24,0,0,0,2.323,2.145m0,13.73a2.151,2.151,0,1,0-2.323-2.144,2.24,2.24,0,0,0,2.323,2.144m0,13.731A2.151,2.151,0,1,0,29.75,98.26a2.24,2.24,0,0,0,2.323,2.144m0,13.731a2.151,2.151,0,1,0-2.323-2.145,2.24,2.24,0,0,0,2.323,2.145m0,13.731a2.152,2.152,0,1,0-2.323-2.145,2.241,2.241,0,0,0,2.323,2.145m0,13.73a2.151,2.151,0,1,0-2.323-2.144,2.24,2.24,0,0,0,2.323,2.144m0,13.731a2.151,2.151,0,1,0-2.323-2.144,2.24,2.24,0,0,0,2.323,2.144m0,13.731a2.151,2.151,0,1,0-2.323-2.145,2.24,2.24,0,0,0,2.323,2.145m0,13.731a2.152,2.152,0,1,0-2.323-2.145,2.241,2.241,0,0,0,2.323,2.145m0,13.73a2.151,2.151,0,1,0-2.323-2.144,2.24,2.24,0,0,0,2.323,2.144m0,13.731A2.151,2.151,0,1,0,29.75,208.1a2.24,2.24,0,0,0,2.323,2.145m0,13.731a2.151,2.151,0,1,0-2.323-2.145,2.24,2.24,0,0,0,2.323,2.145m0,13.73a2.151,2.151,0,1,0-2.323-2.144,2.24,2.24,0,0,0,2.323,2.144m0,13.731A2.151,2.151,0,1,0,29.75,249.3a2.24,2.24,0,0,0,2.323,2.144m0,13.731a2.151,2.151,0,1,0-2.323-2.145,2.24,2.24,0,0,0,2.323,2.145m0,13.731a2.152,2.152,0,1,0-2.323-2.145,2.24,2.24,0,0,0,2.323,2.145m0,13.73a2.151,2.151,0,1,0-2.323-2.144,2.24,2.24,0,0,0,2.323,2.144m0,13.731a2.151,2.151,0,1,0-2.323-2.145,2.24,2.24,0,0,0,2.323,2.145m0,13.731a2.151,2.151,0,1,0-2.323-2.145,2.24,2.24,0,0,0,2.323,2.145m0,13.731a2.152,2.152,0,1,0-2.323-2.145,2.241,2.241,0,0,0,2.323,2.145m0,13.73a2.151,2.151,0,1,0-2.323-2.144,2.24,2.24,0,0,0,2.323,2.144m0,13.731a2.151,2.151,0,1,0-2.323-2.145,2.24,2.24,0,0,0,2.323,2.145m14.875-357a2.239,2.239,0,0,0,2.323-2.144,2.331,2.331,0,0,0-4.646,0,2.239,2.239,0,0,0,2.324,2.144m0,13.731a2.239,2.239,0,0,0,2.323-2.145,2.331,2.331,0,0,0-4.646,0,2.239,2.239,0,0,0,2.324,2.145m0,13.73a2.151,2.151,0,1,0-2.324-2.144,2.239,2.239,0,0,0,2.324,2.144m0,13.731a2.151,2.151,0,1,0-2.324-2.144,2.239,2.239,0,0,0,2.324,2.144m0,13.731a2.151,2.151,0,1,0-2.324-2.145,2.239,2.239,0,0,0,2.324,2.145m0,13.731A2.151,2.151,0,1,0,44.624,70.8a2.239,2.239,0,0,0,2.324,2.145m0,13.73a2.151,2.151,0,1,0-2.324-2.144,2.239,2.239,0,0,0,2.324,2.144m0,13.731a2.151,2.151,0,1,0-2.324-2.144,2.239,2.239,0,0,0,2.324,2.144m0,13.731a2.151,2.151,0,1,0-2.324-2.145,2.239,2.239,0,0,0,2.324,2.145m0,13.731a2.152,2.152,0,1,0-2.324-2.145,2.24,2.24,0,0,0,2.324,2.145m0,13.73a2.151,2.151,0,1,0-2.324-2.144,2.239,2.239,0,0,0,2.324,2.144m0,13.731a2.151,2.151,0,1,0-2.324-2.144,2.239,2.239,0,0,0,2.324,2.144m0,13.731a2.151,2.151,0,1,0-2.324-2.145,2.239,2.239,0,0,0,2.324,2.145m0,13.731a2.152,2.152,0,1,0-2.324-2.145,2.24,2.24,0,0,0,2.324,2.145m0,13.73a2.151,2.151,0,1,0-2.324-2.144,2.239,2.239,0,0,0,2.324,2.144m0,13.731a2.151,2.151,0,1,0-2.324-2.145,2.239,2.239,0,0,0,2.324,2.145m0,13.731a2.151,2.151,0,1,0-2.324-2.145,2.239,2.239,0,0,0,2.324,2.145m0,13.73a2.151,2.151,0,1,0-2.324-2.144,2.239,2.239,0,0,0,2.324,2.144m0,13.731a2.151,2.151,0,1,0-2.324-2.144,2.239,2.239,0,0,0,2.324,2.144m0,13.731a2.151,2.151,0,1,0-2.324-2.145,2.239,2.239,0,0,0,2.324,2.145m0,13.731a2.152,2.152,0,1,0-2.324-2.145,2.239,2.239,0,0,0,2.324,2.145m0,13.73a2.151,2.151,0,1,0-2.324-2.144,2.239,2.239,0,0,0,2.324,2.144m0,13.731a2.151,2.151,0,1,0-2.324-2.145,2.239,2.239,0,0,0,2.324,2.145m0,13.731a2.151,2.151,0,1,0-2.324-2.145,2.239,2.239,0,0,0,2.324,2.145m0,13.731a2.152,2.152,0,1,0-2.324-2.145,2.24,2.24,0,0,0,2.324,2.145m0,13.73a2.151,2.151,0,1,0-2.324-2.144,2.239,2.239,0,0,0,2.324,2.144m0,13.731a2.151,2.151,0,1,0-2.324-2.145,2.239,2.239,0,0,0,2.324,2.145m14.875-357a2.239,2.239,0,0,0,2.323-2.144,2.331,2.331,0,0,0-4.646,0,2.239,2.239,0,0,0,2.324,2.144m0,13.731a2.239,2.239,0,0,0,2.323-2.145,2.331,2.331,0,0,0-4.646,0,2.239,2.239,0,0,0,2.324,2.145m0,13.73A2.151,2.151,0,1,0,59.5,29.606a2.239,2.239,0,0,0,2.324,2.144m0,13.731A2.151,2.151,0,1,0,59.5,43.337a2.239,2.239,0,0,0,2.324,2.144m0,13.731A2.151,2.151,0,1,0,59.5,57.067a2.239,2.239,0,0,0,2.324,2.145m0,13.731A2.151,2.151,0,1,0,59.5,70.8a2.239,2.239,0,0,0,2.324,2.145m0,13.73A2.151,2.151,0,1,0,59.5,84.529a2.239,2.239,0,0,0,2.324,2.144m0,13.731A2.151,2.151,0,1,0,59.5,98.26a2.239,2.239,0,0,0,2.324,2.144m0,13.731A2.151,2.151,0,1,0,59.5,111.99a2.239,2.239,0,0,0,2.324,2.145m0,13.731a2.152,2.152,0,1,0-2.324-2.145,2.24,2.24,0,0,0,2.324,2.145m0,13.73a2.151,2.151,0,1,0-2.324-2.144,2.239,2.239,0,0,0,2.324,2.144m0,13.731a2.151,2.151,0,1,0-2.324-2.144,2.239,2.239,0,0,0,2.324,2.144m0,13.731a2.151,2.151,0,1,0-2.324-2.145,2.239,2.239,0,0,0,2.324,2.145m0,13.731a2.152,2.152,0,1,0-2.324-2.145,2.24,2.24,0,0,0,2.324,2.145m0,13.73a2.151,2.151,0,1,0-2.324-2.144,2.239,2.239,0,0,0,2.324,2.144m0,13.731A2.151,2.151,0,1,0,59.5,208.1a2.239,2.239,0,0,0,2.324,2.145m0,13.731a2.151,2.151,0,1,0-2.324-2.145,2.239,2.239,0,0,0,2.324,2.145m0,13.73a2.151,2.151,0,1,0-2.324-2.144,2.239,2.239,0,0,0,2.324,2.144m0,13.731A2.151,2.151,0,1,0,59.5,249.3a2.239,2.239,0,0,0,2.324,2.144m0,13.731a2.151,2.151,0,1,0-2.324-2.145,2.239,2.239,0,0,0,2.324,2.145m0,13.731a2.152,2.152,0,1,0-2.324-2.145,2.239,2.239,0,0,0,2.324,2.145m0,13.73A2.151,2.151,0,1,0,59.5,290.49a2.239,2.239,0,0,0,2.324,2.144m0,13.731A2.151,2.151,0,1,0,59.5,304.22a2.239,2.239,0,0,0,2.324,2.145m0,13.731a2.151,2.151,0,1,0-2.324-2.145,2.239,2.239,0,0,0,2.324,2.145m0,13.731a2.152,2.152,0,1,0-2.324-2.145,2.24,2.24,0,0,0,2.324,2.145m0,13.73a2.151,2.151,0,1,0-2.324-2.144,2.239,2.239,0,0,0,2.324,2.144m0,13.731a2.151,2.151,0,1,0-2.324-2.145,2.239,2.239,0,0,0,2.324,2.145M76.7,4.289a2.239,2.239,0,0,0,2.324-2.144,2.331,2.331,0,0,0-4.646,0A2.239,2.239,0,0,0,76.7,4.289m0,13.731a2.239,2.239,0,0,0,2.324-2.145,2.331,2.331,0,0,0-4.646,0A2.239,2.239,0,0,0,76.7,18.02m0,13.73a2.151,2.151,0,1,0-2.323-2.144A2.239,2.239,0,0,0,76.7,31.75m0,13.731a2.151,2.151,0,1,0-2.323-2.144A2.239,2.239,0,0,0,76.7,45.481m0,13.731a2.151,2.151,0,1,0-2.323-2.145A2.239,2.239,0,0,0,76.7,59.212m0,13.731A2.151,2.151,0,1,0,74.375,70.8,2.239,2.239,0,0,0,76.7,72.943m0,13.73a2.151,2.151,0,1,0-2.323-2.144A2.239,2.239,0,0,0,76.7,86.673m0,13.731a2.151,2.151,0,1,0-2.323-2.144A2.239,2.239,0,0,0,76.7,100.4m0,13.731a2.151,2.151,0,1,0-2.323-2.145,2.239,2.239,0,0,0,2.323,2.145m0,13.731a2.152,2.152,0,1,0-2.323-2.145,2.24,2.24,0,0,0,2.323,2.145m0,13.73a2.151,2.151,0,1,0-2.323-2.144A2.239,2.239,0,0,0,76.7,141.6m0,13.731a2.151,2.151,0,1,0-2.323-2.144,2.239,2.239,0,0,0,2.323,2.144m0,13.731a2.151,2.151,0,1,0-2.323-2.145,2.239,2.239,0,0,0,2.323,2.145m0,13.731a2.152,2.152,0,1,0-2.323-2.145,2.24,2.24,0,0,0,2.323,2.145m0,13.73a2.151,2.151,0,1,0-2.323-2.144,2.239,2.239,0,0,0,2.323,2.144m0,13.731a2.151,2.151,0,1,0-2.323-2.145A2.239,2.239,0,0,0,76.7,210.25m0,13.731a2.151,2.151,0,1,0-2.323-2.145,2.239,2.239,0,0,0,2.323,2.145m0,13.73a2.151,2.151,0,1,0-2.323-2.144,2.239,2.239,0,0,0,2.323,2.144m0,13.731a2.151,2.151,0,1,0-2.323-2.144,2.239,2.239,0,0,0,2.323,2.144m0,13.731a2.151,2.151,0,1,0-2.323-2.145,2.239,2.239,0,0,0,2.323,2.145m0,13.731a2.152,2.152,0,1,0-2.323-2.145A2.239,2.239,0,0,0,76.7,278.9m0,13.73a2.151,2.151,0,1,0-2.323-2.144,2.239,2.239,0,0,0,2.323,2.144m0,13.731a2.151,2.151,0,1,0-2.323-2.145,2.239,2.239,0,0,0,2.323,2.145m0,13.731a2.151,2.151,0,1,0-2.323-2.145A2.239,2.239,0,0,0,76.7,320.1m0,13.731a2.152,2.152,0,1,0-2.323-2.145,2.24,2.24,0,0,0,2.323,2.145m0,13.73a2.151,2.151,0,1,0-2.323-2.144,2.239,2.239,0,0,0,2.323,2.144m0,13.731a2.151,2.151,0,1,0-2.323-2.145,2.239,2.239,0,0,0,2.323,2.145m14.875-357A2.24,2.24,0,0,0,93.9,2.145a2.331,2.331,0,0,0-4.647,0,2.239,2.239,0,0,0,2.324,2.144m0,13.731A2.24,2.24,0,0,0,93.9,15.875a2.331,2.331,0,0,0-4.647,0,2.239,2.239,0,0,0,2.324,2.145m0,13.73a2.151,2.151,0,1,0-2.324-2.144,2.24,2.24,0,0,0,2.324,2.144m0,13.731a2.151,2.151,0,1,0-2.324-2.144,2.24,2.24,0,0,0,2.324,2.144m0,13.731a2.151,2.151,0,1,0-2.324-2.145,2.24,2.24,0,0,0,2.324,2.145m0,13.731A2.151,2.151,0,1,0,89.249,70.8a2.24,2.24,0,0,0,2.324,2.145m0,13.73a2.151,2.151,0,1,0-2.324-2.144,2.24,2.24,0,0,0,2.324,2.144m0,13.731a2.151,2.151,0,1,0-2.324-2.144,2.24,2.24,0,0,0,2.324,2.144m0,13.731a2.151,2.151,0,1,0-2.324-2.145,2.24,2.24,0,0,0,2.324,2.145m0,13.731a2.152,2.152,0,1,0-2.324-2.145,2.241,2.241,0,0,0,2.324,2.145m0,13.73a2.151,2.151,0,1,0-2.324-2.144,2.24,2.24,0,0,0,2.324,2.144m0,13.731a2.151,2.151,0,1,0-2.324-2.144,2.24,2.24,0,0,0,2.324,2.144m0,13.731a2.151,2.151,0,1,0-2.324-2.145,2.24,2.24,0,0,0,2.324,2.145m0,13.731a2.152,2.152,0,1,0-2.324-2.145,2.241,2.241,0,0,0,2.324,2.145m0,13.73a2.151,2.151,0,1,0-2.324-2.144,2.24,2.24,0,0,0,2.324,2.144m0,13.731a2.151,2.151,0,1,0-2.324-2.145,2.24,2.24,0,0,0,2.324,2.145m0,13.731a2.151,2.151,0,1,0-2.324-2.145,2.24,2.24,0,0,0,2.324,2.145m0,13.73a2.151,2.151,0,1,0-2.324-2.144,2.24,2.24,0,0,0,2.324,2.144m0,13.731a2.151,2.151,0,1,0-2.324-2.144,2.24,2.24,0,0,0,2.324,2.144m0,13.731a2.151,2.151,0,1,0-2.324-2.145,2.24,2.24,0,0,0,2.324,2.145m0,13.731a2.152,2.152,0,1,0-2.324-2.145,2.24,2.24,0,0,0,2.324,2.145m0,13.73a2.151,2.151,0,1,0-2.324-2.144,2.24,2.24,0,0,0,2.324,2.144m0,13.731a2.151,2.151,0,1,0-2.324-2.145,2.24,2.24,0,0,0,2.324,2.145m0,13.731a2.151,2.151,0,1,0-2.324-2.145,2.24,2.24,0,0,0,2.324,2.145m0,13.731a2.152,2.152,0,1,0-2.324-2.145,2.241,2.241,0,0,0,2.324,2.145m0,13.73a2.151,2.151,0,1,0-2.324-2.144,2.24,2.24,0,0,0,2.324,2.144m0,13.731a2.151,2.151,0,1,0-2.324-2.145,2.24,2.24,0,0,0,2.324,2.145m14.875-357a2.239,2.239,0,0,0,2.323-2.144,2.331,2.331,0,0,0-4.646,0,2.239,2.239,0,0,0,2.324,2.144m0,13.731a2.239,2.239,0,0,0,2.323-2.145,2.331,2.331,0,0,0-4.646,0,2.239,2.239,0,0,0,2.324,2.145m0,13.73a2.151,2.151,0,1,0-2.324-2.144,2.239,2.239,0,0,0,2.324,2.144m0,13.731a2.151,2.151,0,1,0-2.324-2.144,2.239,2.239,0,0,0,2.324,2.144m0,13.731a2.151,2.151,0,1,0-2.324-2.145,2.239,2.239,0,0,0,2.324,2.145m0,13.731a2.151,2.151,0,1,0-2.324-2.145,2.239,2.239,0,0,0,2.324,2.145m0,13.73a2.151,2.151,0,1,0-2.324-2.144,2.239,2.239,0,0,0,2.324,2.144m0,13.731a2.151,2.151,0,1,0-2.324-2.144,2.239,2.239,0,0,0,2.324,2.144m0,13.731a2.151,2.151,0,1,0-2.324-2.145,2.239,2.239,0,0,0,2.324,2.145m0,13.731a2.152,2.152,0,1,0-2.324-2.145,2.24,2.24,0,0,0,2.324,2.145m0,13.73a2.151,2.151,0,1,0-2.324-2.144,2.239,2.239,0,0,0,2.324,2.144m0,13.731a2.151,2.151,0,1,0-2.324-2.144,2.239,2.239,0,0,0,2.324,2.144m0,13.731a2.151,2.151,0,1,0-2.324-2.145,2.239,2.239,0,0,0,2.324,2.145m0,13.731a2.152,2.152,0,1,0-2.324-2.145,2.24,2.24,0,0,0,2.324,2.145m0,13.73a2.151,2.151,0,1,0-2.324-2.144,2.239,2.239,0,0,0,2.324,2.144m0,13.731a2.151,2.151,0,1,0-2.324-2.145,2.239,2.239,0,0,0,2.324,2.145m0,13.731a2.151,2.151,0,1,0-2.324-2.145,2.239,2.239,0,0,0,2.324,2.145m0,13.73a2.151,2.151,0,1,0-2.324-2.144,2.239,2.239,0,0,0,2.324,2.144m0,13.731a2.151,2.151,0,1,0-2.324-2.144,2.239,2.239,0,0,0,2.324,2.144m0,13.731a2.151,2.151,0,1,0-2.324-2.145,2.239,2.239,0,0,0,2.324,2.145m0,13.731a2.152,2.152,0,1,0-2.324-2.145,2.239,2.239,0,0,0,2.324,2.145m0,13.73a2.151,2.151,0,1,0-2.324-2.144,2.239,2.239,0,0,0,2.324,2.144m0,13.731a2.151,2.151,0,1,0-2.324-2.145,2.239,2.239,0,0,0,2.324,2.145m0,13.731a2.151,2.151,0,1,0-2.324-2.145,2.239,2.239,0,0,0,2.324,2.145m0,13.731a2.152,2.152,0,1,0-2.324-2.145,2.24,2.24,0,0,0,2.324,2.145m0,13.73a2.151,2.151,0,1,0-2.324-2.144,2.239,2.239,0,0,0,2.324,2.144m0,13.731a2.151,2.151,0,1,0-2.324-2.145,2.239,2.239,0,0,0,2.324,2.145m14.874-357a2.239,2.239,0,0,0,2.324-2.144,2.331,2.331,0,0,0-4.646,0,2.239,2.239,0,0,0,2.323,2.144m0,13.731a2.239,2.239,0,0,0,2.324-2.145,2.331,2.331,0,0,0-4.646,0,2.239,2.239,0,0,0,2.323,2.145m0,13.73A2.151,2.151,0,1,0,119,29.606a2.239,2.239,0,0,0,2.323,2.144m0,13.731A2.151,2.151,0,1,0,119,43.337a2.239,2.239,0,0,0,2.323,2.144m0,13.731A2.151,2.151,0,1,0,119,57.067a2.239,2.239,0,0,0,2.323,2.145m0,13.731A2.151,2.151,0,1,0,119,70.8a2.239,2.239,0,0,0,2.323,2.145m0,13.73A2.151,2.151,0,1,0,119,84.529a2.239,2.239,0,0,0,2.323,2.144m0,13.731A2.151,2.151,0,1,0,119,98.26a2.239,2.239,0,0,0,2.323,2.144m0,13.731A2.151,2.151,0,1,0,119,111.99a2.239,2.239,0,0,0,2.323,2.145m0,13.731A2.152,2.152,0,1,0,119,125.721a2.24,2.24,0,0,0,2.323,2.145m0,13.73A2.151,2.151,0,1,0,119,139.452a2.239,2.239,0,0,0,2.323,2.144m0,13.731A2.151,2.151,0,1,0,119,153.183a2.239,2.239,0,0,0,2.323,2.144m0,13.731A2.151,2.151,0,1,0,119,166.913a2.239,2.239,0,0,0,2.323,2.145m0,13.731A2.152,2.152,0,1,0,119,180.644a2.24,2.24,0,0,0,2.323,2.145m0,13.73A2.151,2.151,0,1,0,119,194.375a2.239,2.239,0,0,0,2.323,2.144m0,13.731A2.151,2.151,0,1,0,119,208.1a2.239,2.239,0,0,0,2.323,2.145m0,13.731A2.151,2.151,0,1,0,119,221.836a2.239,2.239,0,0,0,2.323,2.145m0,13.73A2.151,2.151,0,1,0,119,235.567a2.239,2.239,0,0,0,2.323,2.144m0,13.731A2.151,2.151,0,1,0,119,249.3a2.239,2.239,0,0,0,2.323,2.144m0,13.731A2.151,2.151,0,1,0,119,263.028a2.239,2.239,0,0,0,2.323,2.145m0,13.731A2.152,2.152,0,1,0,119,276.759a2.239,2.239,0,0,0,2.323,2.145m0,13.73A2.151,2.151,0,1,0,119,290.49a2.239,2.239,0,0,0,2.323,2.144m0,13.731A2.151,2.151,0,1,0,119,304.22a2.239,2.239,0,0,0,2.323,2.145m0,13.731A2.151,2.151,0,1,0,119,317.951a2.239,2.239,0,0,0,2.323,2.145m0,13.731A2.152,2.152,0,1,0,119,331.682a2.24,2.24,0,0,0,2.323,2.145m0,13.73A2.151,2.151,0,1,0,119,345.413a2.239,2.239,0,0,0,2.323,2.144m0,13.731A2.151,2.151,0,1,0,119,359.143a2.239,2.239,0,0,0,2.323,2.145m14.875-357a2.239,2.239,0,0,0,2.324-2.144,2.331,2.331,0,0,0-4.646,0A2.239,2.239,0,0,0,136.2,4.289m0,13.731a2.239,2.239,0,0,0,2.324-2.145,2.331,2.331,0,0,0-4.646,0A2.239,2.239,0,0,0,136.2,18.02m0,13.73a2.151,2.151,0,1,0-2.323-2.144A2.239,2.239,0,0,0,136.2,31.75m0,13.731a2.151,2.151,0,1,0-2.323-2.144,2.239,2.239,0,0,0,2.323,2.144m0,13.731a2.151,2.151,0,1,0-2.323-2.145,2.239,2.239,0,0,0,2.323,2.145m0,13.731a2.151,2.151,0,1,0-2.323-2.145,2.239,2.239,0,0,0,2.323,2.145m0,13.73a2.151,2.151,0,1,0-2.323-2.144,2.239,2.239,0,0,0,2.323,2.144m0,13.731a2.151,2.151,0,1,0-2.323-2.144A2.239,2.239,0,0,0,136.2,100.4m0,13.731a2.151,2.151,0,1,0-2.323-2.145,2.239,2.239,0,0,0,2.323,2.145m0,13.731a2.152,2.152,0,1,0-2.323-2.145,2.24,2.24,0,0,0,2.323,2.145m0,13.73a2.151,2.151,0,1,0-2.323-2.144A2.239,2.239,0,0,0,136.2,141.6m0,13.731a2.151,2.151,0,1,0-2.323-2.144,2.239,2.239,0,0,0,2.323,2.144m0,13.731a2.151,2.151,0,1,0-2.323-2.145,2.239,2.239,0,0,0,2.323,2.145m0,13.731a2.152,2.152,0,1,0-2.323-2.145,2.24,2.24,0,0,0,2.323,2.145m0,13.73a2.151,2.151,0,1,0-2.323-2.144,2.239,2.239,0,0,0,2.323,2.144m0,13.731a2.151,2.151,0,1,0-2.323-2.145,2.239,2.239,0,0,0,2.323,2.145m0,13.731a2.151,2.151,0,1,0-2.323-2.145,2.239,2.239,0,0,0,2.323,2.145m0,13.73a2.151,2.151,0,1,0-2.323-2.144,2.239,2.239,0,0,0,2.323,2.144m0,13.731a2.151,2.151,0,1,0-2.323-2.144,2.239,2.239,0,0,0,2.323,2.144m0,13.731a2.151,2.151,0,1,0-2.323-2.145,2.239,2.239,0,0,0,2.323,2.145m0,13.731a2.152,2.152,0,1,0-2.323-2.145A2.239,2.239,0,0,0,136.2,278.9m0,13.73a2.151,2.151,0,1,0-2.323-2.144,2.239,2.239,0,0,0,2.323,2.144m0,13.731a2.151,2.151,0,1,0-2.323-2.145,2.239,2.239,0,0,0,2.323,2.145m0,13.731a2.151,2.151,0,1,0-2.323-2.145A2.239,2.239,0,0,0,136.2,320.1m0,13.731a2.152,2.152,0,1,0-2.323-2.145,2.24,2.24,0,0,0,2.323,2.145m0,13.73a2.151,2.151,0,1,0-2.323-2.144,2.239,2.239,0,0,0,2.323,2.144m0,13.731a2.151,2.151,0,1,0-2.323-2.145,2.239,2.239,0,0,0,2.323,2.145m14.875-357a2.239,2.239,0,0,0,2.323-2.144,2.331,2.331,0,0,0-4.646,0,2.239,2.239,0,0,0,2.324,2.144m0,13.731a2.239,2.239,0,0,0,2.323-2.145,2.331,2.331,0,0,0-4.646,0,2.239,2.239,0,0,0,2.324,2.145m0,13.73a2.151,2.151,0,1,0-2.324-2.144,2.239,2.239,0,0,0,2.324,2.144m0,13.731a2.151,2.151,0,1,0-2.324-2.144,2.239,2.239,0,0,0,2.324,2.144m0,13.731a2.151,2.151,0,1,0-2.324-2.145,2.239,2.239,0,0,0,2.324,2.145m0,13.731a2.151,2.151,0,1,0-2.324-2.145,2.239,2.239,0,0,0,2.324,2.145m0,13.73a2.151,2.151,0,1,0-2.324-2.144,2.239,2.239,0,0,0,2.324,2.144m0,13.731a2.151,2.151,0,1,0-2.324-2.144,2.239,2.239,0,0,0,2.324,2.144m0,13.731a2.151,2.151,0,1,0-2.324-2.145,2.239,2.239,0,0,0,2.324,2.145m0,13.731a2.152,2.152,0,1,0-2.324-2.145,2.24,2.24,0,0,0,2.324,2.145m0,13.73a2.151,2.151,0,1,0-2.324-2.144,2.239,2.239,0,0,0,2.324,2.144m0,13.731a2.151,2.151,0,1,0-2.324-2.144,2.239,2.239,0,0,0,2.324,2.144m0,13.731a2.151,2.151,0,1,0-2.324-2.145,2.239,2.239,0,0,0,2.324,2.145m0,13.731a2.152,2.152,0,1,0-2.324-2.145,2.24,2.24,0,0,0,2.324,2.145m0,13.73a2.151,2.151,0,1,0-2.324-2.144,2.239,2.239,0,0,0,2.324,2.144m0,13.731a2.151,2.151,0,1,0-2.324-2.145,2.239,2.239,0,0,0,2.324,2.145m0,13.731a2.151,2.151,0,1,0-2.324-2.145,2.239,2.239,0,0,0,2.324,2.145m0,13.73a2.151,2.151,0,1,0-2.324-2.144,2.239,2.239,0,0,0,2.324,2.144m0,13.731a2.151,2.151,0,1,0-2.324-2.144,2.239,2.239,0,0,0,2.324,2.144m0,13.731a2.151,2.151,0,1,0-2.324-2.145,2.239,2.239,0,0,0,2.324,2.145m0,13.731a2.152,2.152,0,1,0-2.324-2.145,2.239,2.239,0,0,0,2.324,2.145m0,13.73a2.151,2.151,0,1,0-2.324-2.144,2.239,2.239,0,0,0,2.324,2.144m0,13.731a2.151,2.151,0,1,0-2.324-2.145,2.239,2.239,0,0,0,2.324,2.145m0,13.731a2.151,2.151,0,1,0-2.324-2.145,2.239,2.239,0,0,0,2.324,2.145m0,13.731a2.152,2.152,0,1,0-2.324-2.145,2.24,2.24,0,0,0,2.324,2.145m0,13.73a2.151,2.151,0,1,0-2.324-2.144,2.239,2.239,0,0,0,2.324,2.144m0,13.731a2.151,2.151,0,1,0-2.324-2.145,2.239,2.239,0,0,0,2.324,2.145m14.875-357a2.239,2.239,0,0,0,2.323-2.144,2.331,2.331,0,0,0-4.646,0,2.239,2.239,0,0,0,2.324,2.144m0,13.731a2.239,2.239,0,0,0,2.323-2.145,2.331,2.331,0,0,0-4.646,0,2.239,2.239,0,0,0,2.324,2.145m0,13.73a2.151,2.151,0,1,0-2.324-2.144,2.239,2.239,0,0,0,2.324,2.144m0,13.731a2.151,2.151,0,1,0-2.324-2.144,2.239,2.239,0,0,0,2.324,2.144m0,13.731a2.151,2.151,0,1,0-2.324-2.145,2.239,2.239,0,0,0,2.324,2.145m0,13.731a2.151,2.151,0,1,0-2.324-2.145,2.239,2.239,0,0,0,2.324,2.145m0,13.73a2.151,2.151,0,1,0-2.324-2.144,2.239,2.239,0,0,0,2.324,2.144m0,13.731a2.151,2.151,0,1,0-2.324-2.144,2.239,2.239,0,0,0,2.324,2.144m0,13.731a2.151,2.151,0,1,0-2.324-2.145,2.239,2.239,0,0,0,2.324,2.145m0,13.731a2.152,2.152,0,1,0-2.324-2.145,2.24,2.24,0,0,0,2.324,2.145m0,13.73a2.151,2.151,0,1,0-2.324-2.144,2.239,2.239,0,0,0,2.324,2.144m0,13.731a2.151,2.151,0,1,0-2.324-2.144,2.239,2.239,0,0,0,2.324,2.144m0,13.731a2.151,2.151,0,1,0-2.324-2.145,2.239,2.239,0,0,0,2.324,2.145m0,13.731a2.152,2.152,0,1,0-2.324-2.145,2.24,2.24,0,0,0,2.324,2.145m0,13.73a2.151,2.151,0,1,0-2.324-2.144,2.239,2.239,0,0,0,2.324,2.144m0,13.731a2.151,2.151,0,1,0-2.324-2.145,2.239,2.239,0,0,0,2.324,2.145m0,13.731a2.151,2.151,0,1,0-2.324-2.145,2.239,2.239,0,0,0,2.324,2.145m0,13.73a2.151,2.151,0,1,0-2.324-2.144,2.239,2.239,0,0,0,2.324,2.144m0,13.731a2.151,2.151,0,1,0-2.324-2.144,2.239,2.239,0,0,0,2.324,2.144m0,13.731a2.151,2.151,0,1,0-2.324-2.145,2.239,2.239,0,0,0,2.324,2.145m0,13.731a2.152,2.152,0,1,0-2.324-2.145,2.239,2.239,0,0,0,2.324,2.145m0,13.73a2.151,2.151,0,1,0-2.324-2.144,2.239,2.239,0,0,0,2.324,2.144m0,13.731a2.151,2.151,0,1,0-2.324-2.145,2.239,2.239,0,0,0,2.324,2.145m0,13.731a2.151,2.151,0,1,0-2.324-2.145,2.239,2.239,0,0,0,2.324,2.145m0,13.731a2.152,2.152,0,1,0-2.324-2.145,2.24,2.24,0,0,0,2.324,2.145m0,13.73a2.151,2.151,0,1,0-2.324-2.144,2.239,2.239,0,0,0,2.324,2.144m0,13.731a2.151,2.151,0,1,0-2.324-2.145,2.239,2.239,0,0,0,2.324,2.145m14.874-357a2.239,2.239,0,0,0,2.324-2.144,2.331,2.331,0,0,0-4.646,0,2.239,2.239,0,0,0,2.323,2.144m0,13.731a2.239,2.239,0,0,0,2.324-2.145,2.331,2.331,0,0,0-4.646,0,2.239,2.239,0,0,0,2.323,2.145m0,13.73a2.151,2.151,0,1,0-2.323-2.144,2.239,2.239,0,0,0,2.323,2.144m0,13.731a2.151,2.151,0,1,0-2.323-2.144,2.239,2.239,0,0,0,2.323,2.144m0,13.731a2.151,2.151,0,1,0-2.323-2.145,2.239,2.239,0,0,0,2.323,2.145m0,13.731A2.151,2.151,0,1,0,178.5,70.8a2.239,2.239,0,0,0,2.323,2.145m0,13.73a2.151,2.151,0,1,0-2.323-2.144,2.239,2.239,0,0,0,2.323,2.144m0,13.731A2.151,2.151,0,1,0,178.5,98.26a2.239,2.239,0,0,0,2.323,2.144m0,13.731a2.151,2.151,0,1,0-2.323-2.145,2.239,2.239,0,0,0,2.323,2.145m0,13.731a2.152,2.152,0,1,0-2.323-2.145,2.24,2.24,0,0,0,2.323,2.145m0,13.73a2.151,2.151,0,1,0-2.323-2.144,2.239,2.239,0,0,0,2.323,2.144m0,13.731a2.151,2.151,0,1,0-2.323-2.144,2.239,2.239,0,0,0,2.323,2.144m0,13.731a2.151,2.151,0,1,0-2.323-2.145,2.239,2.239,0,0,0,2.323,2.145m0,13.731a2.152,2.152,0,1,0-2.323-2.145,2.24,2.24,0,0,0,2.323,2.145m0,13.73a2.151,2.151,0,1,0-2.323-2.144,2.239,2.239,0,0,0,2.323,2.144m0,13.731A2.151,2.151,0,1,0,178.5,208.1a2.239,2.239,0,0,0,2.323,2.145m0,13.731a2.151,2.151,0,1,0-2.323-2.145,2.239,2.239,0,0,0,2.323,2.145m0,13.73a2.151,2.151,0,1,0-2.323-2.144,2.239,2.239,0,0,0,2.323,2.144m0,13.731A2.151,2.151,0,1,0,178.5,249.3a2.239,2.239,0,0,0,2.323,2.144m0,13.731a2.151,2.151,0,1,0-2.323-2.145,2.239,2.239,0,0,0,2.323,2.145m0,13.731a2.152,2.152,0,1,0-2.323-2.145,2.239,2.239,0,0,0,2.323,2.145m0,13.73a2.151,2.151,0,1,0-2.323-2.144,2.239,2.239,0,0,0,2.323,2.144m0,13.731a2.151,2.151,0,1,0-2.323-2.145,2.239,2.239,0,0,0,2.323,2.145m0,13.731a2.151,2.151,0,1,0-2.323-2.145,2.239,2.239,0,0,0,2.323,2.145m0,13.731a2.152,2.152,0,1,0-2.323-2.145,2.24,2.24,0,0,0,2.323,2.145m0,13.73a2.151,2.151,0,1,0-2.323-2.144,2.239,2.239,0,0,0,2.323,2.144m0,13.731a2.151,2.151,0,1,0-2.323-2.145,2.239,2.239,0,0,0,2.323,2.145m14.875-357a2.24,2.24,0,0,0,2.324-2.144,2.331,2.331,0,0,0-4.646,0A2.239,2.239,0,0,0,195.7,4.289m0,13.731a2.24,2.24,0,0,0,2.324-2.145,2.331,2.331,0,0,0-4.646,0A2.239,2.239,0,0,0,195.7,18.02m0,13.73a2.151,2.151,0,1,0-2.323-2.144A2.24,2.24,0,0,0,195.7,31.75m0,13.731a2.151,2.151,0,1,0-2.323-2.144,2.24,2.24,0,0,0,2.323,2.144m0,13.731a2.151,2.151,0,1,0-2.323-2.145,2.24,2.24,0,0,0,2.323,2.145m0,13.731a2.151,2.151,0,1,0-2.323-2.145,2.24,2.24,0,0,0,2.323,2.145m0,13.73a2.151,2.151,0,1,0-2.323-2.144,2.24,2.24,0,0,0,2.323,2.144m0,13.731a2.151,2.151,0,1,0-2.323-2.144A2.24,2.24,0,0,0,195.7,100.4m0,13.731a2.151,2.151,0,1,0-2.323-2.145,2.24,2.24,0,0,0,2.323,2.145m0,13.731a2.152,2.152,0,1,0-2.323-2.145,2.241,2.241,0,0,0,2.323,2.145m0,13.73a2.151,2.151,0,1,0-2.323-2.144A2.24,2.24,0,0,0,195.7,141.6m0,13.731a2.151,2.151,0,1,0-2.323-2.144,2.24,2.24,0,0,0,2.323,2.144m0,13.731a2.151,2.151,0,1,0-2.323-2.145,2.24,2.24,0,0,0,2.323,2.145m0,13.731a2.152,2.152,0,1,0-2.323-2.145,2.241,2.241,0,0,0,2.323,2.145m0,13.73a2.151,2.151,0,1,0-2.323-2.144,2.24,2.24,0,0,0,2.323,2.144m0,13.731a2.151,2.151,0,1,0-2.323-2.145,2.24,2.24,0,0,0,2.323,2.145m0,13.731a2.151,2.151,0,1,0-2.323-2.145,2.24,2.24,0,0,0,2.323,2.145m0,13.73a2.151,2.151,0,1,0-2.323-2.144,2.24,2.24,0,0,0,2.323,2.144m0,13.731a2.151,2.151,0,1,0-2.323-2.144,2.24,2.24,0,0,0,2.323,2.144m0,13.731a2.151,2.151,0,1,0-2.323-2.145,2.24,2.24,0,0,0,2.323,2.145m0,13.731a2.152,2.152,0,1,0-2.323-2.145A2.24,2.24,0,0,0,195.7,278.9m0,13.73a2.151,2.151,0,1,0-2.323-2.144,2.24,2.24,0,0,0,2.323,2.144m0,13.731a2.151,2.151,0,1,0-2.323-2.145,2.24,2.24,0,0,0,2.323,2.145m0,13.731a2.151,2.151,0,1,0-2.323-2.145A2.24,2.24,0,0,0,195.7,320.1m0,13.731a2.152,2.152,0,1,0-2.323-2.145,2.241,2.241,0,0,0,2.323,2.145m0,13.73a2.151,2.151,0,1,0-2.323-2.144,2.24,2.24,0,0,0,2.323,2.144m0,13.731a2.151,2.151,0,1,0-2.323-2.145,2.24,2.24,0,0,0,2.323,2.145m14.875-357a2.239,2.239,0,0,0,2.323-2.144,2.331,2.331,0,0,0-4.646,0,2.239,2.239,0,0,0,2.324,2.144m0,13.731a2.239,2.239,0,0,0,2.323-2.145,2.331,2.331,0,0,0-4.646,0,2.239,2.239,0,0,0,2.324,2.145m0,13.73a2.151,2.151,0,1,0-2.324-2.144,2.239,2.239,0,0,0,2.324,2.144m0,13.731a2.151,2.151,0,1,0-2.324-2.144,2.239,2.239,0,0,0,2.324,2.144m0,13.731a2.151,2.151,0,1,0-2.324-2.145,2.239,2.239,0,0,0,2.324,2.145m0,13.731a2.151,2.151,0,1,0-2.324-2.145,2.239,2.239,0,0,0,2.324,2.145m0,13.73a2.151,2.151,0,1,0-2.324-2.144,2.239,2.239,0,0,0,2.324,2.144m0,13.731a2.151,2.151,0,1,0-2.324-2.144,2.239,2.239,0,0,0,2.324,2.144m0,13.731a2.151,2.151,0,1,0-2.324-2.145,2.239,2.239,0,0,0,2.324,2.145m0,13.731a2.152,2.152,0,1,0-2.324-2.145,2.24,2.24,0,0,0,2.324,2.145m0,13.73a2.151,2.151,0,1,0-2.324-2.144,2.239,2.239,0,0,0,2.324,2.144m0,13.731a2.151,2.151,0,1,0-2.324-2.144,2.239,2.239,0,0,0,2.324,2.144m0,13.731a2.151,2.151,0,1,0-2.324-2.145,2.239,2.239,0,0,0,2.324,2.145m0,13.731a2.152,2.152,0,1,0-2.324-2.145,2.24,2.24,0,0,0,2.324,2.145m0,13.73a2.151,2.151,0,1,0-2.324-2.144,2.239,2.239,0,0,0,2.324,2.144m0,13.731a2.151,2.151,0,1,0-2.324-2.145,2.239,2.239,0,0,0,2.324,2.145m0,13.731a2.151,2.151,0,1,0-2.324-2.145,2.239,2.239,0,0,0,2.324,2.145m0,13.73a2.151,2.151,0,1,0-2.324-2.144,2.239,2.239,0,0,0,2.324,2.144m0,13.731a2.151,2.151,0,1,0-2.324-2.144,2.239,2.239,0,0,0,2.324,2.144m0,13.731a2.151,2.151,0,1,0-2.324-2.145,2.239,2.239,0,0,0,2.324,2.145m0,13.731a2.152,2.152,0,1,0-2.324-2.145,2.239,2.239,0,0,0,2.324,2.145m0,13.73a2.151,2.151,0,1,0-2.324-2.144,2.239,2.239,0,0,0,2.324,2.144m0,13.731a2.151,2.151,0,1,0-2.324-2.145,2.239,2.239,0,0,0,2.324,2.145m0,13.731a2.151,2.151,0,1,0-2.324-2.145,2.239,2.239,0,0,0,2.324,2.145m0,13.731a2.152,2.152,0,1,0-2.324-2.145,2.24,2.24,0,0,0,2.324,2.145m0,13.73a2.151,2.151,0,1,0-2.324-2.144,2.239,2.239,0,0,0,2.324,2.144m0,13.731a2.151,2.151,0,1,0-2.324-2.145,2.239,2.239,0,0,0,2.324,2.145m14.874-357a2.239,2.239,0,0,0,2.324-2.144,2.331,2.331,0,0,0-4.646,0,2.239,2.239,0,0,0,2.323,2.144m0,13.731a2.239,2.239,0,0,0,2.324-2.145,2.331,2.331,0,0,0-4.646,0,2.239,2.239,0,0,0,2.323,2.145m0,13.73a2.151,2.151,0,1,0-2.323-2.144,2.239,2.239,0,0,0,2.323,2.144m0,13.731a2.151,2.151,0,1,0-2.323-2.144,2.239,2.239,0,0,0,2.323,2.144m0,13.731a2.151,2.151,0,1,0-2.323-2.145,2.239,2.239,0,0,0,2.323,2.145m0,13.731a2.151,2.151,0,1,0-2.323-2.145,2.239,2.239,0,0,0,2.323,2.145m0,13.73a2.151,2.151,0,1,0-2.323-2.144,2.239,2.239,0,0,0,2.323,2.144m0,13.731a2.151,2.151,0,1,0-2.323-2.144,2.239,2.239,0,0,0,2.323,2.144m0,13.731a2.151,2.151,0,1,0-2.323-2.145,2.239,2.239,0,0,0,2.323,2.145m0,13.731a2.152,2.152,0,1,0-2.323-2.145,2.24,2.24,0,0,0,2.323,2.145m0,13.73a2.151,2.151,0,1,0-2.323-2.144,2.239,2.239,0,0,0,2.323,2.144m0,13.731a2.151,2.151,0,1,0-2.323-2.144,2.239,2.239,0,0,0,2.323,2.144m0,13.731a2.151,2.151,0,1,0-2.323-2.145,2.239,2.239,0,0,0,2.323,2.145m0,13.731a2.152,2.152,0,1,0-2.323-2.145,2.24,2.24,0,0,0,2.323,2.145m0,13.73a2.151,2.151,0,1,0-2.323-2.144,2.239,2.239,0,0,0,2.323,2.144m0,13.731a2.151,2.151,0,1,0-2.323-2.145,2.239,2.239,0,0,0,2.323,2.145m0,13.731a2.151,2.151,0,1,0-2.323-2.145,2.239,2.239,0,0,0,2.323,2.145m0,13.73a2.151,2.151,0,1,0-2.323-2.144,2.239,2.239,0,0,0,2.323,2.144m0,13.731a2.151,2.151,0,1,0-2.323-2.144,2.239,2.239,0,0,0,2.323,2.144m0,13.731a2.151,2.151,0,1,0-2.323-2.145,2.239,2.239,0,0,0,2.323,2.145m0,13.731a2.152,2.152,0,1,0-2.323-2.145,2.239,2.239,0,0,0,2.323,2.145m0,13.73a2.151,2.151,0,1,0-2.323-2.144,2.239,2.239,0,0,0,2.323,2.144m0,13.731a2.151,2.151,0,1,0-2.323-2.145,2.239,2.239,0,0,0,2.323,2.145m0,13.731a2.151,2.151,0,1,0-2.323-2.145,2.239,2.239,0,0,0,2.323,2.145m0,13.731a2.152,2.152,0,1,0-2.323-2.145,2.24,2.24,0,0,0,2.323,2.145m0,13.73a2.151,2.151,0,1,0-2.323-2.144,2.239,2.239,0,0,0,2.323,2.144m0,13.731a2.151,2.151,0,1,0-2.323-2.145,2.239,2.239,0,0,0,2.323,2.145m14.875-357a2.239,2.239,0,0,0,2.324-2.144,2.331,2.331,0,0,0-4.646,0,2.239,2.239,0,0,0,2.323,2.144m0,13.731a2.239,2.239,0,0,0,2.324-2.145,2.331,2.331,0,0,0-4.646,0,2.239,2.239,0,0,0,2.323,2.145m0,13.73A2.151,2.151,0,1,0,238,29.606a2.239,2.239,0,0,0,2.323,2.144m0,13.731A2.151,2.151,0,1,0,238,43.337a2.239,2.239,0,0,0,2.323,2.144m0,13.731A2.151,2.151,0,1,0,238,57.067a2.239,2.239,0,0,0,2.323,2.145m0,13.731A2.151,2.151,0,1,0,238,70.8a2.239,2.239,0,0,0,2.323,2.145m0,13.73A2.151,2.151,0,1,0,238,84.529a2.239,2.239,0,0,0,2.323,2.144m0,13.731A2.151,2.151,0,1,0,238,98.26a2.239,2.239,0,0,0,2.323,2.144m0,13.731A2.151,2.151,0,1,0,238,111.99a2.239,2.239,0,0,0,2.323,2.145m0,13.731A2.152,2.152,0,1,0,238,125.721a2.24,2.24,0,0,0,2.323,2.145m0,13.73A2.151,2.151,0,1,0,238,139.452a2.239,2.239,0,0,0,2.323,2.144m0,13.731A2.151,2.151,0,1,0,238,153.183a2.239,2.239,0,0,0,2.323,2.144m0,13.731A2.151,2.151,0,1,0,238,166.913a2.239,2.239,0,0,0,2.323,2.145m0,13.731A2.152,2.152,0,1,0,238,180.644a2.24,2.24,0,0,0,2.323,2.145m0,13.73A2.151,2.151,0,1,0,238,194.375a2.239,2.239,0,0,0,2.323,2.144m0,13.731A2.151,2.151,0,1,0,238,208.1a2.239,2.239,0,0,0,2.323,2.145m0,13.731A2.151,2.151,0,1,0,238,221.836a2.239,2.239,0,0,0,2.323,2.145m0,13.73A2.151,2.151,0,1,0,238,235.567a2.239,2.239,0,0,0,2.323,2.144m0,13.731A2.151,2.151,0,1,0,238,249.3a2.239,2.239,0,0,0,2.323,2.144m0,13.731A2.151,2.151,0,1,0,238,263.028a2.239,2.239,0,0,0,2.323,2.145m0,13.731A2.152,2.152,0,1,0,238,276.759a2.239,2.239,0,0,0,2.323,2.145m0,13.73A2.151,2.151,0,1,0,238,290.49a2.239,2.239,0,0,0,2.323,2.144m0,13.731A2.151,2.151,0,1,0,238,304.22a2.239,2.239,0,0,0,2.323,2.145m0,13.731A2.151,2.151,0,1,0,238,317.951a2.239,2.239,0,0,0,2.323,2.145m0,13.731A2.152,2.152,0,1,0,238,331.682a2.24,2.24,0,0,0,2.323,2.145m0,13.73A2.151,2.151,0,1,0,238,345.413a2.239,2.239,0,0,0,2.323,2.144m0,13.731A2.151,2.151,0,1,0,238,359.143a2.239,2.239,0,0,0,2.323,2.145m14.875-357a2.239,2.239,0,0,0,2.323-2.144,2.331,2.331,0,0,0-4.646,0A2.24,2.24,0,0,0,255.2,4.289m0,13.731a2.239,2.239,0,0,0,2.323-2.145,2.331,2.331,0,0,0-4.646,0A2.24,2.24,0,0,0,255.2,18.02m0,13.73a2.151,2.151,0,1,0-2.324-2.144A2.239,2.239,0,0,0,255.2,31.75m0,13.731a2.151,2.151,0,1,0-2.324-2.144,2.239,2.239,0,0,0,2.324,2.144m0,13.731a2.151,2.151,0,1,0-2.324-2.145,2.239,2.239,0,0,0,2.324,2.145m0,13.731a2.151,2.151,0,1,0-2.324-2.145,2.239,2.239,0,0,0,2.324,2.145m0,13.73a2.151,2.151,0,1,0-2.324-2.144,2.239,2.239,0,0,0,2.324,2.144m0,13.731a2.151,2.151,0,1,0-2.324-2.144A2.239,2.239,0,0,0,255.2,100.4m0,13.731a2.151,2.151,0,1,0-2.324-2.145,2.239,2.239,0,0,0,2.324,2.145m0,13.731a2.152,2.152,0,1,0-2.324-2.145,2.24,2.24,0,0,0,2.324,2.145m0,13.73a2.151,2.151,0,1,0-2.324-2.144A2.239,2.239,0,0,0,255.2,141.6m0,13.731a2.151,2.151,0,1,0-2.324-2.144,2.239,2.239,0,0,0,2.324,2.144m0,13.731a2.151,2.151,0,1,0-2.324-2.145,2.239,2.239,0,0,0,2.324,2.145m0,13.731a2.152,2.152,0,1,0-2.324-2.145,2.24,2.24,0,0,0,2.324,2.145m0,13.73a2.151,2.151,0,1,0-2.324-2.144,2.239,2.239,0,0,0,2.324,2.144m0,13.731a2.151,2.151,0,1,0-2.324-2.145,2.239,2.239,0,0,0,2.324,2.145m0,13.731a2.151,2.151,0,1,0-2.324-2.145,2.239,2.239,0,0,0,2.324,2.145m0,13.73a2.151,2.151,0,1,0-2.324-2.144,2.239,2.239,0,0,0,2.324,2.144m0,13.731a2.151,2.151,0,1,0-2.324-2.144,2.239,2.239,0,0,0,2.324,2.144m0,13.731a2.151,2.151,0,1,0-2.324-2.145,2.239,2.239,0,0,0,2.324,2.145m0,13.731a2.152,2.152,0,1,0-2.324-2.145A2.239,2.239,0,0,0,255.2,278.9m0,13.73a2.151,2.151,0,1,0-2.324-2.144,2.239,2.239,0,0,0,2.324,2.144m0,13.731a2.151,2.151,0,1,0-2.324-2.145,2.239,2.239,0,0,0,2.324,2.145m0,13.731a2.151,2.151,0,1,0-2.324-2.145A2.239,2.239,0,0,0,255.2,320.1m0,13.731a2.152,2.152,0,1,0-2.324-2.145,2.24,2.24,0,0,0,2.324,2.145m0,13.73a2.151,2.151,0,1,0-2.324-2.144,2.239,2.239,0,0,0,2.324,2.144m0,13.731a2.151,2.151,0,1,0-2.324-2.145,2.239,2.239,0,0,0,2.324,2.145m14.875-357a2.239,2.239,0,0,0,2.323-2.144,2.331,2.331,0,0,0-4.646,0,2.239,2.239,0,0,0,2.324,2.144m0,13.731a2.239,2.239,0,0,0,2.323-2.145,2.331,2.331,0,0,0-4.646,0,2.239,2.239,0,0,0,2.324,2.145m0,13.73a2.151,2.151,0,1,0-2.324-2.144,2.239,2.239,0,0,0,2.324,2.144m0,13.731a2.151,2.151,0,1,0-2.324-2.144,2.239,2.239,0,0,0,2.324,2.144m0,13.731a2.151,2.151,0,1,0-2.324-2.145,2.239,2.239,0,0,0,2.324,2.145m0,13.731a2.151,2.151,0,1,0-2.324-2.145,2.239,2.239,0,0,0,2.324,2.145m0,13.73a2.151,2.151,0,1,0-2.324-2.144,2.239,2.239,0,0,0,2.324,2.144m0,13.731a2.151,2.151,0,1,0-2.324-2.144,2.239,2.239,0,0,0,2.324,2.144m0,13.731a2.151,2.151,0,1,0-2.324-2.145,2.239,2.239,0,0,0,2.324,2.145m0,13.731a2.152,2.152,0,1,0-2.324-2.145,2.24,2.24,0,0,0,2.324,2.145m0,13.73a2.151,2.151,0,1,0-2.324-2.144,2.239,2.239,0,0,0,2.324,2.144m0,13.731a2.151,2.151,0,1,0-2.324-2.144,2.239,2.239,0,0,0,2.324,2.144m0,13.731a2.151,2.151,0,1,0-2.324-2.145,2.239,2.239,0,0,0,2.324,2.145m0,13.731a2.152,2.152,0,1,0-2.324-2.145,2.24,2.24,0,0,0,2.324,2.145m0,13.73a2.151,2.151,0,1,0-2.324-2.144,2.239,2.239,0,0,0,2.324,2.144m0,13.731a2.151,2.151,0,1,0-2.324-2.145,2.239,2.239,0,0,0,2.324,2.145m0,13.731a2.151,2.151,0,1,0-2.324-2.145,2.239,2.239,0,0,0,2.324,2.145m0,13.73a2.151,2.151,0,1,0-2.324-2.144,2.239,2.239,0,0,0,2.324,2.144m0,13.731a2.151,2.151,0,1,0-2.324-2.144,2.239,2.239,0,0,0,2.324,2.144m0,13.731a2.151,2.151,0,1,0-2.324-2.145,2.239,2.239,0,0,0,2.324,2.145m0,13.731a2.152,2.152,0,1,0-2.324-2.145,2.239,2.239,0,0,0,2.324,2.145m0,13.73a2.151,2.151,0,1,0-2.324-2.144,2.239,2.239,0,0,0,2.324,2.144m0,13.731a2.151,2.151,0,1,0-2.324-2.145,2.239,2.239,0,0,0,2.324,2.145m0,13.731a2.151,2.151,0,1,0-2.324-2.145,2.239,2.239,0,0,0,2.324,2.145m0,13.731a2.152,2.152,0,1,0-2.324-2.145,2.24,2.24,0,0,0,2.324,2.145m0,13.73a2.151,2.151,0,1,0-2.324-2.144,2.239,2.239,0,0,0,2.324,2.144m0,13.731a2.151,2.151,0,1,0-2.324-2.145,2.239,2.239,0,0,0,2.324,2.145m14.874-357a2.239,2.239,0,0,0,2.324-2.144,2.331,2.331,0,0,0-4.646,0,2.239,2.239,0,0,0,2.323,2.144m0,13.731a2.239,2.239,0,0,0,2.324-2.145,2.331,2.331,0,0,0-4.646,0,2.239,2.239,0,0,0,2.323,2.145m0,13.73a2.151,2.151,0,1,0-2.323-2.144,2.239,2.239,0,0,0,2.323,2.144m0,13.731a2.151,2.151,0,1,0-2.323-2.144,2.239,2.239,0,0,0,2.323,2.144m0,13.731a2.151,2.151,0,1,0-2.323-2.145,2.239,2.239,0,0,0,2.323,2.145m0,13.731a2.151,2.151,0,1,0-2.323-2.145,2.239,2.239,0,0,0,2.323,2.145m0,13.73a2.151,2.151,0,1,0-2.323-2.144,2.239,2.239,0,0,0,2.323,2.144m0,13.731a2.151,2.151,0,1,0-2.323-2.144,2.239,2.239,0,0,0,2.323,2.144m0,13.731a2.151,2.151,0,1,0-2.323-2.145,2.239,2.239,0,0,0,2.323,2.145m0,13.731a2.152,2.152,0,1,0-2.323-2.145,2.24,2.24,0,0,0,2.323,2.145m0,13.73a2.151,2.151,0,1,0-2.323-2.144,2.239,2.239,0,0,0,2.323,2.144m0,13.731a2.151,2.151,0,1,0-2.323-2.144,2.239,2.239,0,0,0,2.323,2.144m0,13.731a2.151,2.151,0,1,0-2.323-2.145,2.239,2.239,0,0,0,2.323,2.145m0,13.731a2.152,2.152,0,1,0-2.323-2.145,2.24,2.24,0,0,0,2.323,2.145m0,13.73a2.151,2.151,0,1,0-2.323-2.144,2.239,2.239,0,0,0,2.323,2.144m0,13.731a2.151,2.151,0,1,0-2.323-2.145,2.239,2.239,0,0,0,2.323,2.145m0,13.731a2.151,2.151,0,1,0-2.323-2.145,2.239,2.239,0,0,0,2.323,2.145m0,13.73a2.151,2.151,0,1,0-2.323-2.144,2.239,2.239,0,0,0,2.323,2.144m0,13.731a2.151,2.151,0,1,0-2.323-2.144,2.239,2.239,0,0,0,2.323,2.144m0,13.731a2.151,2.151,0,1,0-2.323-2.145,2.239,2.239,0,0,0,2.323,2.145m0,13.731a2.152,2.152,0,1,0-2.323-2.145,2.239,2.239,0,0,0,2.323,2.145m0,13.73a2.151,2.151,0,1,0-2.323-2.144,2.239,2.239,0,0,0,2.323,2.144m0,13.731a2.151,2.151,0,1,0-2.323-2.145,2.239,2.239,0,0,0,2.323,2.145m0,13.731a2.151,2.151,0,1,0-2.323-2.145,2.239,2.239,0,0,0,2.323,2.145m0,13.731a2.152,2.152,0,1,0-2.323-2.145,2.24,2.24,0,0,0,2.323,2.145m0,13.73a2.151,2.151,0,1,0-2.323-2.144,2.239,2.239,0,0,0,2.323,2.144m0,13.731a2.151,2.151,0,1,0-2.323-2.145,2.239,2.239,0,0,0,2.323,2.145m14.875-357a2.239,2.239,0,0,0,2.324-2.144,2.331,2.331,0,0,0-4.646,0,2.239,2.239,0,0,0,2.323,2.144m0,13.731a2.239,2.239,0,0,0,2.324-2.145,2.331,2.331,0,0,0-4.646,0,2.239,2.239,0,0,0,2.323,2.145m0,13.73a2.151,2.151,0,1,0-2.323-2.144,2.239,2.239,0,0,0,2.323,2.144m0,13.731a2.151,2.151,0,1,0-2.323-2.144,2.239,2.239,0,0,0,2.323,2.144m0,13.731a2.151,2.151,0,1,0-2.323-2.145,2.239,2.239,0,0,0,2.323,2.145m0,13.731A2.151,2.151,0,1,0,297.5,70.8a2.239,2.239,0,0,0,2.323,2.145m0,13.73a2.151,2.151,0,1,0-2.323-2.144,2.239,2.239,0,0,0,2.323,2.144m0,13.731A2.151,2.151,0,1,0,297.5,98.26a2.239,2.239,0,0,0,2.323,2.144m0,13.731a2.151,2.151,0,1,0-2.323-2.145,2.239,2.239,0,0,0,2.323,2.145m0,13.731a2.152,2.152,0,1,0-2.323-2.145,2.24,2.24,0,0,0,2.323,2.145m0,13.73a2.151,2.151,0,1,0-2.323-2.144,2.239,2.239,0,0,0,2.323,2.144m0,13.731a2.151,2.151,0,1,0-2.323-2.144,2.239,2.239,0,0,0,2.323,2.144m0,13.731a2.151,2.151,0,1,0-2.323-2.145,2.239,2.239,0,0,0,2.323,2.145m0,13.731a2.152,2.152,0,1,0-2.323-2.145,2.24,2.24,0,0,0,2.323,2.145m0,13.73a2.151,2.151,0,1,0-2.323-2.144,2.239,2.239,0,0,0,2.323,2.144m0,13.731A2.151,2.151,0,1,0,297.5,208.1a2.239,2.239,0,0,0,2.323,2.145m0,13.731a2.151,2.151,0,1,0-2.323-2.145,2.239,2.239,0,0,0,2.323,2.145m0,13.73a2.151,2.151,0,1,0-2.323-2.144,2.239,2.239,0,0,0,2.323,2.144m0,13.731A2.151,2.151,0,1,0,297.5,249.3a2.239,2.239,0,0,0,2.323,2.144m0,13.731a2.151,2.151,0,1,0-2.323-2.145,2.239,2.239,0,0,0,2.323,2.145m0,13.731a2.152,2.152,0,1,0-2.323-2.145,2.239,2.239,0,0,0,2.323,2.145m0,13.73a2.151,2.151,0,1,0-2.323-2.144,2.239,2.239,0,0,0,2.323,2.144m0,13.731a2.151,2.151,0,1,0-2.323-2.145,2.239,2.239,0,0,0,2.323,2.145m0,13.731a2.151,2.151,0,1,0-2.323-2.145,2.239,2.239,0,0,0,2.323,2.145m0,13.731a2.152,2.152,0,1,0-2.323-2.145,2.24,2.24,0,0,0,2.323,2.145m0,13.73a2.151,2.151,0,1,0-2.323-2.144,2.239,2.239,0,0,0,2.323,2.144m0,13.731a2.151,2.151,0,1,0-2.323-2.145,2.239,2.239,0,0,0,2.323,2.145" fill="#fff" stroke="#762424" stroke-width="1"/>
    </clipPath>
  </defs>
  <g id="Enmascarar_grupo_180668" data-name="Enmascarar grupo 180668" transform="translate(7484 -4542)" clip-path="url(#clip-path)">
    <path id="Trazado_373593" data-name="Trazado 373593" d="M16.25,0H1088.743c8.975,0,16.25,6.716,16.25,15V427c0,8.284-7.275,15-16.25,15H16.25C7.275,442,0,435.284,0,427V15C0,6.716,7.275,0,16.25,0Z" transform="translate(-7484 4542)" fill="#e8e8e8"/>
    <path id="Trazado_373594" data-name="Trazado 373594" d="M251.937,214.335h.2c0,15.458-13.575,27.989-30.321,27.989S191.5,229.793,191.5,214.335s13.575-27.988,30.321-27.988,30.321,12.531,30.321,27.988h-.41c-.03-15.249-13.392-27.583-29.911-27.61-16.52.028-29.882,12.362-29.912,27.61.03,15.249,13.392,27.583,29.912,27.61,16.52-.028,29.881-12.362,29.911-27.61Z" transform="translate(-7564.71 4601.373)" fill="#fff" stroke="#fff" stroke-width="2" opacity="0.3"/>
    <path id="Trazado_373595" data-name="Trazado 373595" d="M215.783,197.593h.082c0,6.211-5.454,11.246-12.183,11.246S191.5,203.8,191.5,197.593s5.454-11.246,12.183-11.246,12.183,5.035,12.183,11.246H215.7c-.012-6.127-5.381-11.083-12.018-11.094-6.638.011-12.006,4.967-12.018,11.094.012,6.127,5.381,11.083,12.018,11.094,6.637-.011,12.006-4.967,12.018-11.094Z" transform="translate(-7517.043 4672.859)" fill="#fff" stroke="#fff" stroke-width="2" opacity="0.3"/>
    <g id="Enmascarar_grupo_180667" data-name="Enmascarar grupo 180667" transform="translate(-7484 4817.969)" opacity="0.26" clip-path="url(#clip-path-2)">
      <g id="Grupo_638571" data-name="Grupo 638571" transform="translate(-80.649 -33.488)">
        <g id="Grupo_638570" data-name="Grupo 638570" transform="translate(0 0)" clip-path="url(#clip-path-3)">
          <path id="Trazado_373596" data-name="Trazado 373596" d="M101.276,204.058,221.061,93.486l9.7,8.95L110.972,213.008Zm-7.183-6.63L213.878,86.855l-9.7-8.951L84.4,188.477ZM77.214,181.847,197,71.275l-9.7-8.951L67.516,172.9Zm-16.88-15.582L180.12,55.693l-9.7-8.95L50.637,157.315ZM43.454,150.684,163.24,40.112l-9.7-8.95L33.758,141.734ZM26.575,135.1,146.361,24.531l-9.7-8.95L16.879,126.153ZM9.7,119.523,129.482,8.95,119.786,0,0,110.572Z" transform="translate(0 0.001)" fill="#fff"/>
        </g>
      </g>
    </g>
    <g id="Grupo_638572" data-name="Grupo 638572" transform="translate(-7454.75 4203.355)" opacity="0.8" clip-path="url(#clip-path-4)">
      <path id="Trazado_373598" data-name="Trazado 373598" d="M0,0,469.066,18.006l17.26,461.3L17.26,461.3Z" transform="translate(-185.415 238.425) rotate(-54.327)" fill="#fff" stroke="#762424" stroke-width="1"/>
    </g>
    <g id="Grupo_638573" data-name="Grupo 638573" transform="translate(-6422.656 4791.735) rotate(79)">
      <path id="Trazado_373600" data-name="Trazado 373600" d="M56.075,29.909l.19,0c-.241,16.7-13.006,30.431-28.51,30.673S-.124,47.479.118,30.78,13.123.349,28.628.107s27.878,13.1,27.637,29.8l-.19,0-.19,0C56.1,13.439,43.917.308,28.622.516,13.326.784.762,14.3.5,30.774c-.21,16.473,11.969,29.6,27.264,29.4,15.3-.268,27.859-13.785,28.125-30.258Z" transform="translate(0 0)" fill="#fff" stroke="#fff" stroke-width="2" opacity="0.3"/>
      <path id="Trazado_373601" data-name="Trazado 373601" d="M22.531,12.017h.076c-.1,6.709-5.226,12.227-11.455,12.324S-.05,19.076.047,12.367,5.273.14,11.5.043s11.2,5.264,11.1,11.973h-.152C22.539,5.4,17.645.124,11.5.207,5.354.315.306,5.746.2,12.365.115,18.983,5.008,24.26,11.154,24.176c6.146-.108,11.194-5.539,11.3-12.158Z" transform="translate(43.349 76.865)" fill="#fff" stroke="#fff" stroke-width="2" opacity="0.3"/>
    </g>
  </g>
</svg>
