<svg xmlns="http://www.w3.org/2000/svg" xmlns:xlink="http://www.w3.org/1999/xlink" width="275" height="111.195" viewBox="0 0 275 111.195">
  <defs>
    <clipPath id="clip-path">
      <rect id="Rectángulo_237316" data-name="Rectángulo 237316" width="275" height="92" transform="translate(255 3505)" fill="#fff" stroke="#707070" stroke-width="1"/>
    </clipPath>
  </defs>
  <g id="Grupo_638503" data-name="Grupo 638503" transform="translate(3224 8976)">
    <path id="Trazado_373245" data-name="Trazado 373245" d="M12.432,14.264a5.031,5.031,0,0,1-1.694,3.613A5.951,5.951,0,0,1,6.709,19.2a5.351,5.351,0,0,1-4.3-1.841A7.548,7.548,0,0,1,.84,12.3v-.869a8.523,8.523,0,0,1,.723-3.613,5.416,5.416,0,0,1,2.065-2.4,5.786,5.786,0,0,1,3.12-.835A5.8,5.8,0,0,1,10.713,5.9a5.407,5.407,0,0,1,1.738,3.7H9.521a2.97,2.97,0,0,0-.767-2,2.839,2.839,0,0,0-2.007-.62,2.489,2.489,0,0,0-2.192,1.05,5.883,5.883,0,0,0-.747,3.257v1.074a6.3,6.3,0,0,0,.7,3.369,2.443,2.443,0,0,0,2.2,1.064,2.892,2.892,0,0,0,2.026-.62A2.8,2.8,0,0,0,9.5,14.264Zm9.951,1.807H17.246L16.27,19H13.154L18.447,4.781h2.715L26.484,19H23.369ZM18.037,13.7h3.555L19.8,8.375Zm13.6-8.916,3.652,10.313L38.926,4.781h3.848V19H39.834V15.113L40.127,8.4,36.289,19H34.277L30.449,8.414l.293,6.7V19h-2.93V4.781ZM48.447,19h-2.93V4.781h2.93Zm10.088-3.73A1.5,1.5,0,0,0,57.949,14a7.685,7.685,0,0,0-2.109-.937,14.953,14.953,0,0,1-2.412-.972,3.941,3.941,0,0,1-2.422-3.525A3.434,3.434,0,0,1,51.655,6.5a4.236,4.236,0,0,1,1.865-1.411,7.021,7.021,0,0,1,2.729-.508,6.39,6.39,0,0,1,2.715.552A4.323,4.323,0,0,1,60.815,6.7a4.076,4.076,0,0,1,.659,2.285h-2.93a1.917,1.917,0,0,0-.615-1.519A2.529,2.529,0,0,0,56.2,6.92a2.7,2.7,0,0,0-1.67.454,1.432,1.432,0,0,0-.6,1.2,1.372,1.372,0,0,0,.7,1.162,7.889,7.889,0,0,0,2.056.879,8.882,8.882,0,0,1,3.643,1.865,3.715,3.715,0,0,1,1.143,2.773,3.422,3.422,0,0,1-1.4,2.9,6.113,6.113,0,0,1-3.76,1.05,7.26,7.26,0,0,1-2.988-.6,4.729,4.729,0,0,1-2.056-1.646,4.214,4.214,0,0,1-.708-2.422h2.939q0,2.354,2.813,2.354a2.736,2.736,0,0,0,1.631-.425A1.382,1.382,0,0,0,58.535,15.27Zm13.477-2.451H66.387v3.828h6.6V19H63.457V4.781h9.512V7.154H66.387v3.389h5.625ZM85.605,7.154H81.25V19H78.32V7.154h-4.3V4.781H85.605Zm8.525,8.916H88.994L88.018,19H84.9L90.2,4.781H92.91L98.232,19H95.117ZM89.785,13.7H93.34L91.553,8.375Zm20.01,1.777,3.223-10.693h3.262L111.328,19h-3.057L103.34,4.781h3.252Zm16.377-2.656h-5.625v3.828h6.6V19h-9.531V4.781h9.512V7.154h-6.582v3.389h5.625Zm7.959.977H131.8V19h-2.93V4.781h5.283A5.972,5.972,0,0,1,138.037,5.9,3.876,3.876,0,0,1,139.4,9.078a4.374,4.374,0,0,1-.63,2.427,4.3,4.3,0,0,1-1.909,1.548l3.076,5.811V19H136.8ZM131.8,11.422h2.363a2.42,2.42,0,0,0,1.709-.562,2.007,2.007,0,0,0,.605-1.548A2.148,2.148,0,0,0,135.9,7.73a2.374,2.374,0,0,0-1.753-.576H131.8ZM141.631,19V4.781h4.375a6.644,6.644,0,0,1,3.354.845,5.89,5.89,0,0,1,2.31,2.4,7.41,7.41,0,0,1,.83,3.54v.654a7.431,7.431,0,0,1-.815,3.525,5.84,5.84,0,0,1-2.3,2.393,6.694,6.694,0,0,1-3.35.859Zm2.93-11.846v9.492h1.416a3.181,3.181,0,0,0,2.627-1.123,5.075,5.075,0,0,0,.928-3.213v-.752a5.156,5.156,0,0,0-.9-3.286,3.171,3.171,0,0,0-2.627-1.118Zm18.623,5.664h-5.625v3.828h6.6V19h-9.531V4.781h9.512V7.154h-6.582v3.389h5.625Zm17.793-5.664h-4.355V19h-2.93V7.154h-4.3V4.781h11.582ZM189.5,16.07h-5.137L183.389,19h-3.115l5.293-14.219h2.715L193.6,19h-3.115ZM185.156,13.7h3.555l-1.787-5.322Zm12.705,2.949h6.221V19h-9.15V4.781h2.93Zm10.83,0h6.221V19h-9.15V4.781h2.93ZM224.8,16.07h-5.137L218.691,19h-3.115l5.293-14.219h2.715L228.906,19h-3.115ZM220.459,13.7h3.555l-1.787-5.322Zm18.584-8.916L242.7,15.094l3.633-10.312h3.848V19h-2.939V15.113l.293-6.709L243.691,19H241.68L237.852,8.414l.293,6.7V19h-2.93V4.781Z" transform="translate(-3215 -8884)" fill="#12263f"/>
    <g id="Enmascarar_grupo_180662" data-name="Enmascarar grupo 180662" transform="translate(-3479 -12481)" clip-path="url(#clip-path)">
      <g id="Grupo_638502" data-name="Grupo 638502" transform="translate(165.652 3206.49)">
        <g id="Grupo_638501" data-name="Grupo 638501" transform="translate(88.861 244.51)">
          <g id="Grupo_638499" data-name="Grupo 638499">
            <line id="Línea_2526" data-name="Línea 2526" y2="127.124" fill="none" stroke="#000" stroke-miterlimit="10" stroke-width="1.407"/>
            <line id="Línea_2527" data-name="Línea 2527" y2="127.124" transform="translate(5.461)" fill="none" stroke="#000" stroke-miterlimit="10" stroke-width="1.407"/>
            <line id="Línea_2528" data-name="Línea 2528" y2="109.831" transform="translate(14.563)" fill="none" stroke="#000" stroke-miterlimit="10" stroke-width="3.753"/>
            <line id="Línea_2529" data-name="Línea 2529" y2="109.831" transform="translate(105.583)" fill="none" stroke="#000" stroke-miterlimit="10" stroke-width="3.753"/>
            <line id="Línea_2530" data-name="Línea 2530" y2="109.831" transform="translate(24.575)" fill="none" stroke="#000" stroke-miterlimit="10" stroke-width="2.815"/>
            <line id="Línea_2531" data-name="Línea 2531" y2="109.831" transform="translate(118.326)" fill="none" stroke="#000" stroke-miterlimit="10" stroke-width="2.815"/>
            <line id="Línea_2532" data-name="Línea 2532" y2="109.831" transform="translate(86.469)" fill="none" stroke="#000" stroke-miterlimit="10" stroke-width="2.815"/>
            <line id="Línea_2533" data-name="Línea 2533" y2="109.831" transform="translate(37.925)" fill="none" stroke="#000" stroke-miterlimit="10" stroke-width="1.407"/>
            <line id="Línea_2534" data-name="Línea 2534" y2="109.831" transform="translate(46.723)" fill="none" stroke="#000" stroke-miterlimit="10" stroke-width="1.407"/>
            <line id="Línea_2535" data-name="Línea 2535" y2="109.831" transform="translate(128.945)" fill="none" stroke="#000" stroke-miterlimit="10" stroke-width="1.407"/>
            <line id="Línea_2536" data-name="Línea 2536" y2="127.124" transform="translate(134.709)" fill="none" stroke="#000" stroke-miterlimit="10" stroke-width="1.407"/>
            <line id="Línea_2537" data-name="Línea 2537" y2="127.124" transform="translate(140.777)" fill="none" stroke="#000" stroke-miterlimit="10" stroke-width="1.407"/>
            <line id="Línea_2538" data-name="Línea 2538" y2="127.124" transform="translate(269.419)" fill="none" stroke="#000" stroke-miterlimit="10" stroke-width="1.407"/>
            <line id="Línea_2539" data-name="Línea 2539" y2="127.124" transform="translate(275.487)" fill="none" stroke="#000" stroke-miterlimit="10" stroke-width="1.407"/>
            <line id="Línea_2540" data-name="Línea 2540" y2="109.831" transform="translate(146.845)" fill="none" stroke="#000" stroke-miterlimit="10" stroke-width="1.407"/>
            <line id="Línea_2541" data-name="Línea 2541" y2="109.831" transform="translate(160.498)" fill="none" stroke="#000" stroke-miterlimit="10" stroke-width="1.407"/>
            <line id="Línea_2542" data-name="Línea 2542" y2="109.831" transform="translate(167.173)" fill="none" stroke="#000" stroke-miterlimit="10" stroke-width="1.407"/>
            <line id="Línea_2543" data-name="Línea 2543" y2="109.831" transform="translate(178.702)" fill="none" stroke="#000" stroke-miterlimit="10" stroke-width="1.407"/>
            <line id="Línea_2544" data-name="Línea 2544" y2="109.831" transform="translate(200.547)" fill="none" stroke="#000" stroke-miterlimit="10" stroke-width="1.407"/>
            <line id="Línea_2545" data-name="Línea 2545" y2="109.831" transform="translate(208.132)" fill="none" stroke="#000" stroke-miterlimit="10" stroke-width="1.407"/>
            <line id="Línea_2546" data-name="Línea 2546" y2="109.831" transform="translate(213.897)" fill="none" stroke="#000" stroke-miterlimit="10" stroke-width="1.407"/>
            <line id="Línea_2547" data-name="Línea 2547" y2="109.831" transform="translate(248.787)" fill="none" stroke="#000" stroke-miterlimit="10" stroke-width="1.407"/>
            <line id="Línea_2548" data-name="Línea 2548" y2="109.831" transform="translate(229.977)" fill="none" stroke="#000" stroke-miterlimit="10" stroke-width="2.815"/>
            <line id="Línea_2549" data-name="Línea 2549" y2="109.831" transform="translate(238.775)" fill="none" stroke="#000" stroke-miterlimit="10" stroke-width="2.815"/>
            <line id="Línea_2550" data-name="Línea 2550" y2="109.831" transform="translate(190.535)" fill="none" stroke="#000" stroke-miterlimit="10" stroke-width="4.691"/>
            <line id="Línea_2551" data-name="Línea 2551" y2="109.831" transform="translate(258.193)" fill="none" stroke="#000" stroke-miterlimit="10" stroke-width="4.691"/>
            <line id="Línea_2552" data-name="Línea 2552" y2="109.831" transform="translate(52.792)" fill="none" stroke="#000" stroke-miterlimit="10" stroke-width="1.407"/>
            <line id="Línea_2553" data-name="Línea 2553" y2="109.831" transform="translate(93.447)" fill="none" stroke="#000" stroke-miterlimit="10" stroke-width="1.407"/>
            <line id="Línea_2554" data-name="Línea 2554" y2="109.831" transform="translate(76.153)" fill="none" stroke="#000" stroke-miterlimit="10" stroke-width="1.407"/>
            <line id="Línea_2555" data-name="Línea 2555" y2="109.831" transform="translate(64.017)" fill="none" stroke="#000" stroke-miterlimit="10" stroke-width="3.753"/>
          </g>
          <g id="Grupo_638500" data-name="Grupo 638500" transform="translate(17.891 102.022)">
            <path id="Trazado_373244" data-name="Trazado 373244" d="M1.881-21.45v2.409H12.375v.066L3.069,0h3l9.339-19.536V-21.45ZM25.245.363c4.092,0,7.293-2.508,7.293-6.237,0-2.607-1.65-4.488-4.323-5.544v-.1c2.64-1.254,3.531-3.2,3.531-5.016,0-2.673-2.079-5.28-6.237-5.28-3.762,0-6.633,2.31-6.633,5.709a5.313,5.313,0,0,0,3.4,4.818l.033.1c-2.64,1.122-4.257,3.036-4.257,5.742C18.051-2.31,20.757.363,25.245.363Zm.066-2.112a3.967,3.967,0,0,1-4.29-4.092c0-2.046,1.353-3.7,3.861-4.422,2.9.825,4.719,2.079,4.719,4.686C29.6-3.366,27.918-1.749,25.311-1.749Zm.033-17.985a3.334,3.334,0,0,1,3.63,3.5c0,1.947-1.419,3.267-3.267,3.894-2.475-.66-4.092-1.815-4.092-3.96A3.412,3.412,0,0,1,25.344-19.734Zm16.962-2.079c-4.356,0-7.458,3.96-7.458,11.154.066,7.1,2.9,11.022,7.1,11.022,4.752,0,7.458-4.026,7.458-11.319C49.4-17.787,46.827-21.813,42.306-21.813Zm-.165,2.244c3,0,4.356,3.465,4.356,8.745,0,5.478-1.419,8.943-4.389,8.943-2.64,0-4.356-3.168-4.356-8.745C37.752-16.467,39.6-19.569,42.141-19.569ZM65.67,0V-2.409H56.034v-.066L57.75-4.059c4.521-4.356,7.392-7.557,7.392-11.517,0-3.069-1.947-6.237-6.567-6.237A9.412,9.412,0,0,0,52.5-19.635l.924,2.046A7.3,7.3,0,0,1,57.981-19.4c3.2,0,4.257,2.013,4.257,4.191-.033,3.234-2.508,6.006-7.986,11.22L51.975-1.782V0Zm10.3-21.813c-4.356,0-7.458,3.96-7.458,11.154C68.574-3.564,71.412.363,75.6.363c4.752,0,7.458-4.026,7.458-11.319C83.061-17.787,80.487-21.813,75.966-21.813ZM75.8-19.569c3,0,4.356,3.465,4.356,8.745,0,5.478-1.419,8.943-4.389,8.943-2.64,0-4.356-3.168-4.356-8.745C71.412-16.467,73.26-19.569,75.8-19.569ZM91.938,0h2.805V-21.45H92.268l-4.686,2.508.561,2.211,3.729-2.013h.066Z" transform="translate(0 36)"/>
            <path id="Trazado_373243" data-name="Trazado 373243" d="M1.386-1.089A10.9,10.9,0,0,0,6.963.363c5.148,0,7.821-3,7.821-6.435A5.587,5.587,0,0,0,10-11.583v-.066c2.64-.957,3.96-2.838,3.96-5.049,0-2.607-1.914-5.115-6.138-5.115a10.2,10.2,0,0,0-5.61,1.65l.759,2.112A7.878,7.878,0,0,1,7.26-19.47c2.673,0,3.762,1.518,3.762,3.234,0,2.541-2.673,3.63-4.785,3.63H4.62v2.178H6.237c2.805,0,5.511,1.287,5.544,4.29C11.814-4.356,10.659-1.98,6.93-1.98A9.706,9.706,0,0,1,2.178-3.333ZM18.711-21.45v2.409H29.205v.066L19.9,0h3l9.339-19.536V-21.45ZM36.828.33A13.525,13.525,0,0,0,39.5.165a10.723,10.723,0,0,0,6.237-2.871c2.112-2.046,3.7-5.346,3.7-10.065,0-5.478-2.706-9.042-7.095-9.042a7.354,7.354,0,0,0-7.326,7.623,6.213,6.213,0,0,0,6.336,6.567A6.3,6.3,0,0,0,46.4-9.933h.1a9.413,9.413,0,0,1-2.838,5.709,8.091,8.091,0,0,1-4.488,2.079,12.117,12.117,0,0,1-2.343.1ZM42.108-19.6c3.036,0,4.389,2.805,4.389,6.468a1.917,1.917,0,0,1-.264,1.056,4.8,4.8,0,0,1-4.224,2.244c-2.508,0-4.125-1.881-4.125-4.554C37.884-17.424,39.633-19.6,42.108-19.6Zm22.11-2.178a13.943,13.943,0,0,0-2.112.165,11.677,11.677,0,0,0-6.864,3.168,13.487,13.487,0,0,0-3.63,9.669c0,5.577,3,9.141,7.59,9.141,4.455,0,7.128-3.63,7.128-7.557,0-4.191-2.673-6.93-6.468-6.93a6.392,6.392,0,0,0-5.181,2.475h-.1a8.718,8.718,0,0,1,7.458-7.623,10.486,10.486,0,0,1,2.178-.132ZM59.2-1.881c-3.036,0-4.653-2.607-4.719-6.138a2.472,2.472,0,0,1,.33-1.287,4.779,4.779,0,0,1,4.158-2.64c2.673,0,4.422,1.848,4.422,4.917S61.71-1.881,59.2-1.881ZM82.5,0V-2.409H72.864v-.066L74.58-4.059c4.521-4.356,7.392-7.557,7.392-11.517,0-3.069-1.947-6.237-6.567-6.237a9.412,9.412,0,0,0-6.072,2.178l.924,2.046A7.3,7.3,0,0,1,74.811-19.4c3.2,0,4.257,2.013,4.257,4.191-.033,3.234-2.508,6.006-7.986,11.22L68.805-1.782V0ZM97.35,0V-5.841h3V-8.118h-3V-21.45H94.215l-9.57,13.7v1.914h9.966V0ZM87.582-8.118v-.066l5.247-7.293c.594-.99,1.122-1.914,1.782-3.168h.1q-.1,1.683-.1,3.366v7.161Z" transform="translate(135.136 36)"/>
          </g>
        </g>
      </g>
    </g>
  </g>
</svg>
