<?xml version="1.0" encoding="utf-8"?>
<!-- Generator: Adobe Illustrator 26.2.1, SVG Export Plug-In . SVG Version: 6.00 Build 0)  -->
<svg version="1.1" id="Layer_1" xmlns="http://www.w3.org/2000/svg" xmlns:xlink="http://www.w3.org/1999/xlink" x="0px" y="0px"
	 viewBox="0 0 369.7 168.1" style="enable-background:new 0 0 369.7 168.1;" xml:space="preserve">
<style type="text/css">
	.st0{fill:#12263F;}
	.st1{fill:#DAB8D7;}
	.st2{fill:#FDBA54;}
	.st3{fill:#9DC5E9;}
	.st4{fill:#E6E983;}
	.st5{fill:none;stroke:#FF1111;}
	.st6{fill:none;stroke:#FF1111;stroke-linecap:round;}
</style>
<g id="Grupo_638510" transform="translate(2117.007 4816.5)">
	<path id="Trazado_373294" class="st0" d="M-2064-4675v2.5h-0.8v-6.4h2.4c0.6,0,1.2,0.2,1.6,0.5c0.4,0.4,0.6,0.9,0.6,1.4
		c0,0.5-0.2,1.1-0.6,1.4c-0.5,0.4-1.1,0.5-1.7,0.5L-2064-4675z M-2064-4675.7h1.5c0.4,0,0.7-0.1,1-0.3c0.3-0.2,0.4-0.6,0.4-0.9
		c0-0.3-0.1-0.7-0.4-0.9c-0.3-0.2-0.6-0.4-1-0.4h-1.6V-4675.7z M-2057-4676.5c-0.1,0-0.3,0-0.4,0c-0.5,0-0.9,0.2-1.1,0.7v3.4h-0.8
		v-4.8h0.8l0,0.5c0.2-0.4,0.7-0.6,1.1-0.6c0.1,0,0.2,0,0.4,0.1V-4676.5z M-2054.4-4672.4c-0.6,0-1.2-0.2-1.6-0.6
		c-0.4-0.5-0.6-1.1-0.6-1.7v-0.2c0-0.4,0.1-0.9,0.3-1.3c0.2-0.4,0.4-0.7,0.8-0.9c0.3-0.2,0.7-0.3,1.1-0.3c0.5,0,1.1,0.2,1.4,0.6
		c0.4,0.5,0.6,1.1,0.5,1.7v0.3h-3.2c0,0.4,0.1,0.8,0.4,1.1c0.3,0.3,0.6,0.4,1,0.4c0.3,0,0.5-0.1,0.7-0.2c0.2-0.1,0.4-0.3,0.5-0.5
		l0.5,0.4C-2052.9-4672.7-2053.6-4672.4-2054.4-4672.4L-2054.4-4672.4z M-2054.5-4676.7c-0.3,0-0.6,0.1-0.8,0.4
		c-0.2,0.3-0.4,0.6-0.4,1h2.4v-0.1c0-0.3-0.1-0.7-0.3-1C-2053.9-4676.6-2054.1-4676.7-2054.5-4676.7L-2054.5-4676.7z
		 M-2051.3-4672.5v-4.1h-0.8v-0.6h0.8v-0.4c0-0.5,0.1-0.9,0.5-1.2c0.4-0.3,0.8-0.5,1.3-0.4c0.4,0,0.8,0.1,1.2,0.3l-0.1,0.7
		c-0.3-0.1-0.7-0.2-1-0.2c-0.3,0-0.5,0.1-0.8,0.2c-0.2,0.2-0.3,0.4-0.2,0.7v0.4h1v0.6h-1v4.1H-2051.3z M-2047.9-4672.5h-0.8v-4.8
		h0.8V-4672.5z M-2045.7-4677.3v5.3c0,0.9-0.4,1.4-1.2,1.4c-0.2,0-0.3,0-0.5-0.1v-0.6c0.1,0,0.2,0,0.4,0c0.2,0,0.3,0,0.4-0.1
		c0.1-0.1,0.2-0.3,0.1-0.5v-5.3H-2045.7z M-2046.6-4678.5c0-0.1,0-0.2,0.1-0.3c0.1-0.1,0.2-0.1,0.4-0.1c0.1,0,0.3,0,0.4,0.1
		c0.1,0.1,0.1,0.2,0.1,0.3c0,0.1,0,0.2-0.1,0.3c-0.1,0.1-0.2,0.1-0.4,0.1c-0.1,0-0.3,0-0.4-0.1
		C-2046.6-4678.3-2046.6-4678.4-2046.6-4678.5L-2046.6-4678.5z M-2044.6-4674.9c0-0.4,0.1-0.9,0.3-1.3c0.2-0.4,0.4-0.7,0.8-0.9
		c0.3-0.2,0.7-0.3,1.1-0.3c0.6,0,1.2,0.2,1.6,0.7c0.4,0.5,0.6,1.1,0.6,1.8v0.1c0,0.4-0.1,0.9-0.3,1.2c-0.2,0.4-0.4,0.7-0.8,0.9
		c-0.3,0.2-0.7,0.3-1.1,0.3c-0.6,0-1.2-0.2-1.6-0.7C-2044.5-4673.6-2044.7-4674.2-2044.6-4674.9L-2044.6-4674.9z M-2043.8-4674.8
		c0,0.5,0.1,0.9,0.4,1.3c0.4,0.5,1.2,0.6,1.7,0.2c0.1-0.1,0.2-0.1,0.2-0.2c0.3-0.4,0.4-0.9,0.4-1.4c0-0.5-0.1-0.9-0.4-1.3
		c-0.2-0.3-0.6-0.5-1-0.5c-0.4,0-0.7,0.2-1,0.5C-2043.7-4675.8-2043.9-4675.3-2043.8-4674.8L-2043.8-4674.8z M-2032.2-4673.3
		c-0.2,0.3-0.5,0.6-0.9,0.7c-0.4,0.2-0.9,0.2-1.4,0.2c-0.5,0-1-0.1-1.4-0.4c-0.4-0.3-0.7-0.6-0.9-1.1c-0.2-0.5-0.3-1-0.3-1.6v-0.6
		c-0.1-0.8,0.2-1.6,0.7-2.2c0.5-0.5,1.2-0.8,1.9-0.8c0.6,0,1.2,0.2,1.6,0.5c0.4,0.4,0.7,0.9,0.7,1.5h-0.8c-0.1-0.8-0.7-1.3-1.5-1.3
		c-0.5,0-1,0.2-1.3,0.6c-0.3,0.5-0.5,1.1-0.4,1.7v0.5c0,0.6,0.1,1.2,0.5,1.7c0.3,0.4,0.8,0.7,1.3,0.6c0.3,0,0.6,0,0.8-0.1
		c0.2-0.1,0.4-0.2,0.6-0.4v-1.4h-1.5v-0.7h2.3L-2032.2-4673.3z M-2028.9-4675.3c-0.6-0.1-1.1-0.4-1.6-0.8c-0.3-0.3-0.5-0.7-0.5-1.1
		c0-0.5,0.2-1,0.6-1.2c0.4-0.3,1-0.5,1.6-0.5c0.4,0,0.8,0.1,1.2,0.3c0.3,0.2,0.6,0.4,0.8,0.7c0.2,0.3,0.3,0.6,0.3,1h-0.8
		c0-0.3-0.1-0.7-0.4-0.9c-0.3-0.2-0.7-0.4-1-0.3c-0.3,0-0.7,0.1-1,0.3c-0.2,0.2-0.4,0.5-0.3,0.8c0,0.3,0.1,0.5,0.3,0.7
		c0.3,0.2,0.7,0.4,1.1,0.5c0.4,0.1,0.9,0.3,1.2,0.5c0.3,0.2,0.5,0.4,0.7,0.6c0.1,0.3,0.2,0.6,0.2,0.8c0,0.5-0.2,1-0.6,1.2
		c-0.5,0.3-1,0.5-1.6,0.5c-0.4,0-0.8-0.1-1.2-0.3c-0.4-0.1-0.7-0.4-0.9-0.7c-0.2-0.3-0.3-0.6-0.3-1h0.8c0,0.4,0.1,0.7,0.4,0.9
		c0.3,0.2,0.7,0.4,1.1,0.3c0.4,0,0.7-0.1,1-0.3c0.2-0.2,0.4-0.5,0.4-0.7c0-0.3-0.1-0.6-0.3-0.7
		C-2028.1-4675.1-2028.5-4675.3-2028.9-4675.3L-2028.9-4675.3z M-2023-4672.5h-0.8v-5.4l-1.6,0.6v-0.7l2.3-0.9h0.1V-4672.5z
		 M-2014.6-4675.5h-2.8v2.3h3.2v0.7h-4.1v-6.4h4v0.7h-3.2v2.1h2.8L-2014.6-4675.5z M-2012.4-4677.3l0,0.5c0.3-0.4,0.9-0.6,1.4-0.6
		c0.6-0.1,1.1,0.2,1.4,0.8c0.2-0.2,0.4-0.4,0.6-0.6c0.3-0.1,0.6-0.2,0.9-0.2c1,0,1.6,0.6,1.6,1.7v3.2h-0.8v-3.1
		c0-0.3-0.1-0.5-0.2-0.8c-0.2-0.2-0.5-0.3-0.8-0.3c-0.3,0-0.5,0.1-0.8,0.3c-0.2,0.2-0.3,0.4-0.3,0.7v3.2h-0.8v-3.1
		c0.1-0.5-0.3-1-0.8-1c-0.1,0-0.2,0-0.3,0c-0.5,0-0.9,0.2-1.1,0.7v3.5h-0.8v-4.8L-2012.4-4677.3z M-2001.3-4674.8
		c0,0.6-0.1,1.2-0.5,1.7c-0.3,0.4-0.8,0.7-1.3,0.7c-0.5,0-1-0.2-1.4-0.5v2.3h-0.8v-6.6h0.7l0,0.5c0.3-0.4,0.8-0.6,1.4-0.6
		c0.5,0,1,0.2,1.4,0.6C-2001.4-4676.2-2001.2-4675.5-2001.3-4674.8L-2001.3-4674.8z M-2002.1-4674.9c0-0.4-0.1-0.9-0.3-1.3
		c-0.2-0.3-0.6-0.5-0.9-0.5c-0.5,0-0.9,0.2-1.1,0.7v2.3c0.2,0.4,0.6,0.7,1.1,0.6c0.4,0,0.7-0.2,0.9-0.5
		C-2002.2-4674-2002.1-4674.4-2002.1-4674.9z M-1998-4676.5c-0.1,0-0.3,0-0.4,0c-0.5,0-0.9,0.2-1.1,0.7v3.4h-0.8v-4.8h0.8l0,0.5
		c0.2-0.4,0.7-0.6,1.1-0.6c0.1,0,0.2,0,0.4,0.1V-4676.5z M-1995.3-4672.4c-0.6,0-1.2-0.2-1.6-0.6c-0.4-0.5-0.6-1.1-0.6-1.7v-0.2
		c0-0.4,0.1-0.9,0.3-1.3c0.2-0.4,0.4-0.7,0.8-0.9c0.3-0.2,0.7-0.3,1.1-0.3c0.5,0,1.1,0.2,1.4,0.6c0.4,0.5,0.6,1.1,0.5,1.7v0.3h-3.2
		c0,0.4,0.1,0.8,0.4,1.1c0.3,0.3,0.6,0.4,1,0.4c0.3,0,0.5-0.1,0.7-0.2c0.2-0.1,0.4-0.3,0.5-0.5l0.5,0.4
		C-1993.9-4672.7-1994.6-4672.4-1995.3-4672.4z M-1995.4-4676.7c-0.3,0-0.6,0.1-0.8,0.4c-0.2,0.3-0.4,0.6-0.4,1h2.4v-0.1
		c0-0.3-0.1-0.7-0.3-1C-1994.8-4676.6-1995.1-4676.7-1995.4-4676.7L-1995.4-4676.7z M-1989.8-4673.8c0-0.2-0.1-0.4-0.2-0.5
		c-0.3-0.2-0.6-0.3-0.9-0.3c-0.3-0.1-0.7-0.2-1-0.3c-0.2-0.1-0.4-0.2-0.5-0.4c-0.1-0.2-0.2-0.4-0.2-0.6c0-0.4,0.2-0.8,0.5-1
		c0.4-0.3,0.8-0.4,1.3-0.4c0.5,0,0.9,0.1,1.3,0.4c0.3,0.3,0.5,0.7,0.5,1.1h-0.8c0-0.2-0.1-0.4-0.3-0.6c-0.2-0.2-0.5-0.3-0.7-0.2
		c-0.2,0-0.5,0.1-0.7,0.2c-0.2,0.1-0.3,0.3-0.2,0.5c0,0.2,0.1,0.3,0.2,0.4c0.3,0.1,0.5,0.2,0.8,0.3c0.3,0.1,0.7,0.2,1,0.3
		c0.2,0.1,0.4,0.3,0.6,0.5c0.1,0.2,0.2,0.4,0.2,0.6c0,0.4-0.2,0.8-0.5,1c-0.4,0.3-0.9,0.4-1.3,0.4c-0.3,0-0.7-0.1-1-0.2
		c-0.3-0.1-0.5-0.3-0.7-0.6c-0.2-0.2-0.2-0.5-0.2-0.8h0.8c0,0.3,0.1,0.5,0.3,0.6c0.2,0.2,0.5,0.3,0.8,0.2c0.3,0,0.5-0.1,0.7-0.2
		C-1989.9-4673.4-1989.8-4673.6-1989.8-4673.8L-1989.8-4673.8z M-1985-4672.5c-0.1-0.2-0.1-0.3-0.1-0.5c-0.3,0.4-0.8,0.6-1.4,0.6
		c-0.4,0-0.8-0.1-1.2-0.4c-0.3-0.3-0.5-0.6-0.4-1c0-0.5,0.2-0.9,0.6-1.2c0.5-0.3,1-0.4,1.6-0.4h0.8v-0.4c0-0.3-0.1-0.5-0.3-0.7
		c-0.2-0.2-0.5-0.3-0.8-0.3c-0.3,0-0.5,0.1-0.7,0.2c-0.2,0.1-0.3,0.3-0.3,0.5h-0.8c0-0.3,0.1-0.5,0.3-0.7c0.2-0.2,0.4-0.4,0.7-0.5
		c0.3-0.1,0.6-0.2,1-0.2c0.5,0,0.9,0.1,1.3,0.4c0.3,0.3,0.5,0.7,0.5,1.1v2.2c0,0.4,0,0.7,0.2,1v0.1H-1985z M-1986.3-4673.1
		c0.3,0,0.5-0.1,0.7-0.2c0.2-0.1,0.4-0.3,0.5-0.5v-1h-0.6c-1,0-1.5,0.3-1.5,0.9c0,0.2,0.1,0.5,0.3,0.6
		C-1986.8-4673.2-1986.5-4673.1-1986.3-4673.1z M-1983-4672.9c0-0.1,0-0.3,0.1-0.4c0.1-0.1,0.2-0.2,0.4-0.1c0.1,0,0.3,0,0.4,0.1
		c0.1,0.1,0.1,0.2,0.1,0.4c0,0.1,0,0.2-0.1,0.3c-0.1,0.1-0.2,0.1-0.4,0.1C-1982.8-4672.4-1983-4672.6-1983-4672.9
		C-1983-4672.9-1983-4672.9-1983-4672.9L-1983-4672.9z M-1983-4676.8c0-0.1,0-0.3,0.1-0.4c0.1-0.1,0.2-0.2,0.4-0.1
		c0.1,0,0.3,0,0.4,0.1c0.1,0.1,0.1,0.2,0.1,0.4c0,0.1,0,0.2-0.1,0.3c-0.1,0.1-0.2,0.1-0.4,0.1
		C-1982.8-4676.3-1983-4676.5-1983-4676.8C-1983-4676.8-1983-4676.8-1983-4676.8L-1983-4676.8z M-2071.4-4662.8
		c0,0.6-0.1,1.2-0.5,1.7c-0.3,0.4-0.8,0.7-1.3,0.7c-0.5,0-1-0.2-1.4-0.5v2.3h-0.8v-6.6h0.7l0,0.5c0.3-0.4,0.8-0.6,1.4-0.6
		c0.5,0,1,0.2,1.4,0.6C-2071.6-4664.2-2071.4-4663.5-2071.4-4662.8L-2071.4-4662.8z M-2072.2-4662.9c0-0.4-0.1-0.9-0.3-1.3
		c-0.2-0.3-0.6-0.5-0.9-0.5c-0.5,0-0.9,0.2-1.1,0.7v2.3c0.2,0.4,0.6,0.7,1.1,0.6c0.4,0,0.7-0.2,0.9-0.5
		C-2072.3-4662-2072.2-4662.4-2072.2-4662.9L-2072.2-4662.9z M-2067.5-4660.5c-0.1-0.2-0.1-0.3-0.1-0.5c-0.3,0.4-0.8,0.6-1.4,0.6
		c-0.4,0-0.8-0.1-1.2-0.4c-0.3-0.3-0.5-0.6-0.5-1c0-0.5,0.2-0.9,0.6-1.2c0.5-0.3,1-0.4,1.6-0.4h0.8v-0.4c0-0.3-0.1-0.5-0.3-0.7
		c-0.2-0.2-0.5-0.3-0.8-0.3c-0.3,0-0.5,0.1-0.7,0.2c-0.2,0.1-0.3,0.3-0.3,0.5h-0.8c0-0.3,0.1-0.5,0.3-0.7c0.2-0.2,0.4-0.4,0.7-0.5
		c0.3-0.1,0.6-0.2,1-0.2c0.5,0,0.9,0.1,1.3,0.4c0.3,0.3,0.5,0.7,0.5,1.1v2.2c0,0.4,0,0.7,0.2,1v0.1H-2067.5z M-2068.8-4661.1
		c0.3,0,0.5-0.1,0.7-0.2c0.2-0.1,0.4-0.3,0.5-0.5v-1h-0.6c-1,0-1.5,0.3-1.5,0.9c0,0.2,0.1,0.5,0.3,0.6
		C-2069.3-4661.2-2069-4661.1-2068.8-4661.1z M-2063.2-4664.5c-0.1,0-0.3,0-0.4,0c-0.5,0-0.9,0.2-1.1,0.7v3.4h-0.8v-4.8h0.8l0,0.5
		c0.2-0.4,0.7-0.6,1.1-0.6c0.1,0,0.2,0,0.4,0.1V-4664.5z M-2061.1-4666.4v1.2h0.9v0.6h-0.9v3c0,0.2,0,0.3,0.1,0.4
		c0.1,0.1,0.3,0.2,0.4,0.1c0.1,0,0.3,0,0.4-0.1v0.7c-0.2,0.1-0.4,0.1-0.6,0.1c-0.3,0-0.6-0.1-0.8-0.3c-0.2-0.3-0.3-0.6-0.3-0.9v-2.9
		h-0.9v-0.6h0.9v-1.2L-2061.1-4666.4z M-2057.3-4660.4c-0.6,0-1.2-0.2-1.6-0.6c-0.4-0.5-0.6-1.1-0.6-1.7v-0.2c0-0.4,0.1-0.9,0.3-1.3
		c0.2-0.4,0.4-0.7,0.8-0.9c0.3-0.2,0.7-0.3,1.1-0.3c0.5,0,1.1,0.2,1.4,0.6c0.4,0.5,0.6,1.1,0.5,1.7v0.3h-3.2c0,0.4,0.1,0.8,0.4,1.1
		c0.3,0.3,0.6,0.4,1,0.4c0.3,0,0.5-0.1,0.7-0.2c0.2-0.1,0.4-0.3,0.5-0.5l0.5,0.4C-2055.9-4660.7-2056.6-4660.4-2057.3-4660.4
		L-2057.3-4660.4z M-2057.4-4664.7c-0.3,0-0.6,0.1-0.8,0.4c-0.2,0.3-0.4,0.6-0.4,1h2.4v-0.1c0-0.3-0.1-0.7-0.3-1
		C-2056.8-4664.6-2057.1-4664.7-2057.4-4664.7L-2057.4-4664.7z M-2050.4-4661.1c0.3,0,0.5-0.1,0.8-0.3c0.2-0.2,0.3-0.4,0.4-0.7h0.8
		c0,0.3-0.1,0.6-0.3,0.8c-0.2,0.3-0.4,0.5-0.7,0.6c-0.3,0.1-0.6,0.2-0.9,0.2c-0.6,0-1.2-0.2-1.5-0.6c-0.4-0.5-0.6-1.1-0.6-1.8v-0.1
		c0-0.4,0.1-0.8,0.3-1.2c0.2-0.3,0.4-0.6,0.7-0.8c0.3-0.2,0.7-0.3,1.1-0.3c0.5,0,1,0.2,1.3,0.5c0.4,0.3,0.6,0.8,0.6,1.2h-0.8
		c0-0.3-0.1-0.6-0.3-0.8c-0.2-0.2-0.5-0.3-0.8-0.3c-0.4,0-0.7,0.1-1,0.4c-0.3,0.4-0.4,0.8-0.3,1.3v0.2c0,0.4,0.1,0.9,0.3,1.3
		C-2051.1-4661.2-2050.8-4661.1-2050.4-4661.1L-2050.4-4661.1z M-2047.8-4662.9c0-0.4,0.1-0.9,0.3-1.3c0.2-0.4,0.4-0.7,0.8-0.9
		c0.3-0.2,0.7-0.3,1.1-0.3c0.6,0,1.2,0.2,1.6,0.7c0.4,0.5,0.6,1.1,0.6,1.8v0.1c0,0.4-0.1,0.9-0.3,1.2c-0.2,0.4-0.4,0.7-0.8,0.9
		c-0.3,0.2-0.7,0.3-1.1,0.3c-0.6,0-1.2-0.2-1.6-0.7C-2047.6-4661.6-2047.8-4662.2-2047.8-4662.9L-2047.8-4662.9z M-2047-4662.8
		c0,0.5,0.1,0.9,0.4,1.3c0.4,0.5,1.2,0.6,1.7,0.2c0.1-0.1,0.2-0.1,0.2-0.2c0.3-0.4,0.4-0.9,0.4-1.4c0-0.5-0.1-0.9-0.4-1.3
		c-0.2-0.3-0.6-0.5-1-0.5c-0.4,0-0.7,0.2-1,0.5C-2046.9-4663.8-2047-4663.3-2047-4662.8L-2047-4662.8z M-2041.7-4665.3l0,0.5
		c0.4-0.4,0.9-0.6,1.4-0.6c0.6-0.1,1.1,0.2,1.4,0.8c0.2-0.2,0.4-0.4,0.6-0.6c0.3-0.1,0.6-0.2,0.9-0.2c1,0,1.6,0.6,1.6,1.7v3.2h-0.8
		v-3.1c0-0.3-0.1-0.5-0.2-0.8c-0.2-0.2-0.5-0.3-0.8-0.3c-0.3,0-0.5,0.1-0.8,0.3c-0.2,0.2-0.3,0.4-0.3,0.7v3.2h-0.8v-3.1
		c0.1-0.5-0.3-1-0.8-1c-0.1,0-0.2,0-0.3,0c-0.5,0-0.9,0.2-1.1,0.7v3.5h-0.8v-4.8L-2041.7-4665.3z M-2031.6-4661
		c-0.4,0.4-0.9,0.6-1.4,0.6c-0.4,0-0.9-0.1-1.2-0.4c-0.3-0.4-0.4-0.8-0.4-1.3v-3.1h0.8v3.1c0,0.7,0.3,1.1,0.9,1.1
		c0.5,0.1,1-0.2,1.2-0.7v-3.5h0.8v4.8h-0.8L-2031.6-4661z M-2032.3-4667.2h1l-1.2,1.3h-0.7L-2032.3-4667.2z M-2028.8-4665.3l0,0.6
		c0.3-0.4,0.9-0.7,1.4-0.7c1,0,1.5,0.6,1.5,1.7v3.1h-0.8v-3.1c0-0.3-0.1-0.5-0.2-0.8c-0.2-0.2-0.5-0.3-0.7-0.2
		c-0.2,0-0.5,0.1-0.7,0.2c-0.2,0.1-0.4,0.3-0.5,0.6v3.4h-0.8v-4.8H-2028.8z M-2019.5-4660.5c-0.1-0.2-0.1-0.3-0.1-0.5
		c-0.3,0.4-0.8,0.6-1.4,0.6c-0.4,0-0.8-0.1-1.2-0.4c-0.3-0.3-0.5-0.6-0.4-1c0-0.5,0.2-0.9,0.6-1.2c0.5-0.3,1-0.4,1.6-0.4h0.8v-0.4
		c0-0.3-0.1-0.5-0.3-0.7c-0.2-0.2-0.5-0.3-0.8-0.3c-0.3,0-0.5,0.1-0.7,0.2c-0.2,0.1-0.3,0.3-0.3,0.5h-0.8c0-0.3,0.1-0.5,0.3-0.7
		c0.2-0.2,0.4-0.4,0.7-0.5c0.3-0.1,0.6-0.2,1-0.2c0.5,0,0.9,0.1,1.3,0.4c0.3,0.3,0.5,0.7,0.5,1.1v2.2c0,0.4,0,0.7,0.2,1v0.1H-2019.5
		z M-2020.8-4661.1c0.3,0,0.5-0.1,0.7-0.2c0.2-0.1,0.4-0.3,0.5-0.5v-1h-0.6c-1,0-1.5,0.3-1.5,0.9c0,0.2,0.1,0.5,0.3,0.6
		C-2021.3-4661.2-2021.1-4661.1-2020.8-4661.1L-2020.8-4661.1z M-2014.7-4661.8c0-0.2-0.1-0.4-0.2-0.5c-0.3-0.2-0.6-0.3-0.9-0.3
		c-0.3-0.1-0.7-0.2-1-0.3c-0.2-0.1-0.4-0.2-0.5-0.4c-0.1-0.2-0.2-0.4-0.2-0.6c0-0.4,0.2-0.8,0.5-1c0.4-0.3,0.8-0.4,1.3-0.4
		c0.5,0,0.9,0.1,1.3,0.4c0.3,0.3,0.5,0.7,0.5,1.1h-0.8c0-0.2-0.1-0.4-0.3-0.6c-0.2-0.2-0.5-0.3-0.7-0.2c-0.2,0-0.5,0.1-0.7,0.2
		c-0.2,0.1-0.3,0.3-0.2,0.5c0,0.2,0.1,0.3,0.2,0.4c0.3,0.1,0.5,0.2,0.8,0.3c0.3,0.1,0.7,0.2,1,0.3c0.2,0.1,0.4,0.3,0.6,0.5
		c0.1,0.2,0.2,0.4,0.2,0.6c0,0.4-0.2,0.8-0.5,1c-0.4,0.3-0.9,0.4-1.3,0.4c-0.3,0-0.7-0.1-1-0.2c-0.3-0.1-0.5-0.3-0.7-0.6
		c-0.2-0.2-0.2-0.5-0.2-0.8h0.8c0,0.3,0.1,0.5,0.3,0.6c0.2,0.2,0.5,0.3,0.8,0.2c0.3,0,0.5-0.1,0.7-0.2
		C-2014.8-4661.4-2014.7-4661.6-2014.7-4661.8L-2014.7-4661.8z M-2012-4660.5h-0.8v-4.8h0.8V-4660.5z M-2012.9-4666.5
		c0-0.1,0-0.2,0.1-0.3c0.1-0.1,0.2-0.1,0.4-0.1c0.1,0,0.3,0,0.4,0.1c0.1,0.1,0.1,0.2,0.1,0.3c0,0.1,0,0.2-0.1,0.3
		c-0.1,0.1-0.2,0.1-0.4,0.1c-0.1,0-0.3,0-0.4-0.1C-2012.8-4666.3-2012.9-4666.4-2012.9-4666.5L-2012.9-4666.5z M-2010.9-4662.9
		c0-0.6,0.1-1.3,0.5-1.8c0.6-0.8,1.7-0.9,2.5-0.3c0.1,0.1,0.2,0.1,0.2,0.2l0-0.5h0.7v4.6c0,0.5-0.2,1.1-0.5,1.5
		c-0.4,0.4-0.9,0.6-1.5,0.5c-0.3,0-0.7-0.1-1-0.2c-0.3-0.1-0.6-0.3-0.8-0.6l0.4-0.5c0.3,0.4,0.8,0.6,1.3,0.6c0.3,0,0.7-0.1,0.9-0.3
		c0.2-0.3,0.4-0.6,0.3-0.9v-0.4c-0.3,0.4-0.8,0.6-1.3,0.6c-0.5,0-1-0.2-1.4-0.7C-2010.7-4661.6-2010.9-4662.3-2010.9-4662.9
		L-2010.9-4662.9z M-2010.1-4662.8c0,0.4,0.1,0.9,0.3,1.3c0.2,0.3,0.6,0.5,0.9,0.5c0.5,0,0.9-0.3,1.1-0.7v-2.2
		c-0.2-0.4-0.6-0.7-1.1-0.7c-0.4,0-0.7,0.2-0.9,0.5C-2010-4663.8-2010.1-4663.3-2010.1-4662.8L-2010.1-4662.8z M-2004.9-4665.3
		l0,0.6c0.3-0.4,0.9-0.7,1.4-0.7c1,0,1.5,0.6,1.5,1.7v3.1h-0.8v-3.1c0-0.3-0.1-0.5-0.2-0.8c-0.2-0.2-0.5-0.3-0.7-0.2
		c-0.2,0-0.5,0.1-0.7,0.2c-0.2,0.1-0.4,0.3-0.5,0.6v3.4h-0.8v-4.8L-2004.9-4665.3z M-1997.7-4660.5c-0.1-0.2-0.1-0.3-0.1-0.5
		c-0.3,0.4-0.8,0.6-1.4,0.6c-0.4,0-0.8-0.1-1.2-0.4c-0.3-0.3-0.5-0.6-0.4-1c0-0.5,0.2-0.9,0.6-1.2c0.5-0.3,1-0.4,1.6-0.4h0.8v-0.4
		c0-0.3-0.1-0.5-0.3-0.7c-0.2-0.2-0.5-0.3-0.8-0.3c-0.3,0-0.5,0.1-0.7,0.2c-0.2,0.1-0.3,0.3-0.3,0.5h-0.8c0-0.3,0.1-0.5,0.3-0.7
		c0.2-0.2,0.4-0.4,0.7-0.5c0.3-0.1,0.6-0.2,1-0.2c0.5,0,0.9,0.1,1.3,0.4c0.3,0.3,0.5,0.7,0.5,1.1v2.2c0,0.4,0,0.7,0.2,1v0.1H-1997.7
		z M-1999.1-4661.1c0.3,0,0.5-0.1,0.7-0.2c0.2-0.1,0.4-0.3,0.5-0.5v-1h-0.6c-1,0-1.5,0.3-1.5,0.9c0,0.2,0.1,0.5,0.3,0.6
		C-1999.5-4661.2-1999.3-4661.1-1999.1-4661.1z M-1996-4662.9c0-0.6,0.2-1.2,0.5-1.8c0.6-0.8,1.7-0.9,2.5-0.3
		c0.1,0.1,0.1,0.1,0.2,0.2v-2.5h0.8v6.8h-0.7l0-0.5c-0.3,0.4-0.8,0.6-1.4,0.6c-0.5,0-1-0.2-1.3-0.7
		C-1995.8-4661.6-1996-4662.2-1996-4662.9L-1996-4662.9z M-1995.2-4662.8c0,0.4,0.1,0.9,0.3,1.3c0.2,0.3,0.6,0.5,0.9,0.5
		c0.5,0,0.9-0.3,1.1-0.7v-2.2c-0.2-0.4-0.6-0.7-1.1-0.7c-0.4,0-0.7,0.2-0.9,0.5C-1995.1-4663.8-1995.2-4663.3-1995.2-4662.8
		L-1995.2-4662.8z M-1987.8-4660.5c-0.1-0.2-0.1-0.3-0.1-0.5c-0.3,0.4-0.8,0.6-1.4,0.6c-0.4,0-0.8-0.1-1.2-0.4
		c-0.3-0.3-0.5-0.6-0.5-1c0-0.5,0.2-0.9,0.6-1.2c0.5-0.3,1-0.4,1.6-0.4h0.8v-0.4c0-0.3-0.1-0.5-0.3-0.7c-0.2-0.2-0.5-0.3-0.8-0.3
		c-0.3,0-0.5,0.1-0.7,0.2c-0.2,0.1-0.3,0.3-0.3,0.5h-0.8c0-0.3,0.1-0.5,0.3-0.7c0.2-0.2,0.4-0.4,0.7-0.5c0.3-0.1,0.6-0.2,1-0.2
		c0.5,0,0.9,0.1,1.3,0.4c0.3,0.3,0.5,0.7,0.5,1.1v2.2c0,0.4,0,0.7,0.2,1v0.1L-1987.8-4660.5z M-1989.1-4661.1c0.3,0,0.5-0.1,0.7-0.2
		c0.2-0.1,0.4-0.3,0.5-0.5v-1h-0.6c-1,0-1.5,0.3-1.5,0.9c0,0.2,0.1,0.5,0.3,0.6C-1989.6-4661.2-1989.3-4661.1-1989.1-4661.1z
		 M-1979.6-4662.8c0,0.6-0.1,1.2-0.5,1.7c-0.3,0.4-0.8,0.7-1.3,0.7c-0.5,0-1-0.2-1.4-0.5v2.3h-0.8v-6.6h0.7l0,0.5
		c0.3-0.4,0.8-0.6,1.4-0.6c0.5,0,1,0.2,1.4,0.6C-1979.7-4664.2-1979.5-4663.5-1979.6-4662.8L-1979.6-4662.8z M-1980.4-4662.9
		c0-0.4-0.1-0.9-0.3-1.3c-0.2-0.3-0.6-0.5-0.9-0.5c-0.5,0-0.9,0.2-1.1,0.7v2.3c0.2,0.4,0.6,0.7,1.1,0.6c0.4,0,0.7-0.2,0.9-0.5
		C-1980.5-4662-1980.3-4662.4-1980.4-4662.9L-1980.4-4662.9z M-1978.7-4662.9c0-0.4,0.1-0.9,0.3-1.3c0.2-0.4,0.4-0.7,0.8-0.9
		c0.3-0.2,0.7-0.3,1.1-0.3c0.6,0,1.2,0.2,1.6,0.7c0.4,0.5,0.6,1.1,0.6,1.8v0.1c0,0.4-0.1,0.9-0.3,1.2c-0.2,0.4-0.4,0.7-0.8,0.9
		c-0.3,0.2-0.7,0.3-1.1,0.3c-0.6,0-1.2-0.2-1.6-0.7C-1978.6-4661.6-1978.8-4662.2-1978.7-4662.9L-1978.7-4662.9z M-1977.9-4662.8
		c0,0.5,0.1,0.9,0.4,1.3c0.4,0.5,1.2,0.6,1.7,0.2c0.1-0.1,0.2-0.1,0.2-0.2c0.3-0.4,0.4-0.9,0.4-1.4c0-0.5-0.1-0.9-0.4-1.3
		c-0.2-0.3-0.6-0.5-1-0.5c-0.4,0-0.7,0.2-1,0.5C-1977.8-4663.8-1978-4663.3-1977.9-4662.8L-1977.9-4662.8z M-1971.1-4664.5
		c-0.1,0-0.3,0-0.4,0c-0.5,0-0.9,0.2-1.1,0.7v3.4h-0.8v-4.8h0.8l0,0.5c0.2-0.4,0.7-0.6,1.1-0.6c0.1,0,0.2,0,0.4,0.1V-4664.5z
		 M-2033.7-4650.2h-2.7l-0.6,1.7h-0.9l2.4-6.4h0.7l2.4,6.4h-0.9L-2033.7-4650.2z M-2036.1-4650.9h2.2l-1.1-3L-2036.1-4650.9z
		 M-2027.7-4651.5h-2.8v2.3h3.2v0.7h-4.1v-6.4h4v0.7h-3.2v2.1h2.8L-2027.7-4651.5z M-2021.5-4650.5c0,0.6-0.3,1.2-0.7,1.6
		c-0.5,0.4-1.1,0.6-1.7,0.6c-0.7,0-1.4-0.3-1.8-0.8c-0.5-0.6-0.7-1.4-0.7-2.2v-0.6c0-0.5,0.1-1.1,0.3-1.6c0.2-0.4,0.5-0.8,0.9-1
		c0.4-0.2,0.9-0.4,1.4-0.4c0.6,0,1.2,0.2,1.6,0.6c0.4,0.4,0.7,1,0.7,1.6h-0.8c0-0.4-0.2-0.8-0.5-1.1c-0.3-0.2-0.6-0.4-1-0.3
		c-0.5,0-1,0.2-1.3,0.6c-0.3,0.5-0.5,1.1-0.5,1.7v0.6c0,0.6,0.1,1.2,0.4,1.7c0.3,0.4,0.7,0.6,1.2,0.6c0.4,0,0.8-0.1,1.1-0.3
		c0.3-0.3,0.5-0.7,0.5-1.1L-2021.5-4650.5z M-2015.4-4651.5c0,0.6-0.1,1.1-0.3,1.6c-0.2,0.4-0.5,0.8-0.9,1.1
		c-1.1,0.7-2.7,0.4-3.4-0.7c-0.1-0.1-0.1-0.2-0.2-0.3c-0.2-0.5-0.3-1-0.3-1.6v-0.5c0-0.6,0.1-1.1,0.3-1.6c0.4-0.9,1.3-1.5,2.2-1.5
		c0.5,0,0.9,0.1,1.4,0.4c0.4,0.3,0.7,0.6,0.9,1.1c0.2,0.5,0.3,1.1,0.3,1.6L-2015.4-4651.5z M-2016.3-4651.9c0-0.6-0.1-1.2-0.5-1.7
		c-0.3-0.4-0.8-0.6-1.3-0.6c-0.5,0-1,0.2-1.3,0.6c-0.3,0.5-0.5,1.1-0.5,1.7v0.5c0,0.6,0.1,1.2,0.5,1.7c0.5,0.7,1.6,0.8,2.3,0.3
		c0.1-0.1,0.2-0.2,0.3-0.3c0.3-0.5,0.5-1.1,0.5-1.7V-4651.9z M-2009.5-4650.5c0,0.6-0.3,1.2-0.7,1.6c-0.5,0.4-1.1,0.6-1.7,0.6
		c-0.7,0-1.4-0.3-1.8-0.8c-0.5-0.6-0.7-1.4-0.7-2.2v-0.6c0-0.5,0.1-1.1,0.3-1.6c0.2-0.4,0.5-0.8,0.9-1c0.4-0.2,0.9-0.4,1.4-0.4
		c0.6,0,1.2,0.2,1.6,0.6c0.4,0.4,0.7,1,0.7,1.6h-0.8c0-0.4-0.2-0.8-0.5-1.1c-0.3-0.2-0.7-0.4-1-0.3c-0.5,0-1,0.2-1.3,0.6
		c-0.3,0.5-0.5,1.1-0.5,1.7v0.6c0,0.6,0.1,1.2,0.4,1.7c0.3,0.4,0.7,0.6,1.2,0.6c0.4,0,0.8-0.1,1.1-0.3c0.3-0.3,0.5-0.7,0.5-1.1
		L-2009.5-4650.5z"/>
	<path id="Trazado_373295" class="st0" d="M-1925.1-4676.5c0,0.6-0.3,1.2-0.7,1.6c-0.5,0.4-1.1,0.6-1.7,0.6c-0.7,0-1.4-0.3-1.8-0.8
		c-0.5-0.6-0.7-1.4-0.7-2.2v-0.6c0-0.5,0.1-1.1,0.3-1.6c0.2-0.4,0.5-0.8,0.9-1c0.4-0.2,0.9-0.4,1.4-0.4c0.6,0,1.2,0.2,1.6,0.6
		c0.4,0.4,0.7,1,0.7,1.6h-0.8c0-0.4-0.2-0.8-0.5-1.1c-0.3-0.2-0.7-0.4-1-0.3c-0.5,0-1,0.2-1.3,0.6c-0.3,0.5-0.5,1.1-0.5,1.7v0.6
		c0,0.6,0.1,1.2,0.4,1.7c0.3,0.4,0.7,0.6,1.2,0.6c0.4,0,0.8-0.1,1.1-0.3c0.3-0.3,0.5-0.7,0.5-1.1L-1925.1-4676.5z M-1924.2-4676.9
		c0-0.4,0.1-0.9,0.3-1.3c0.2-0.4,0.4-0.7,0.8-0.9c0.3-0.2,0.7-0.3,1.1-0.3c0.6,0,1.2,0.2,1.6,0.7c0.4,0.5,0.6,1.1,0.6,1.8v0.1
		c0,0.4-0.1,0.9-0.3,1.2c-0.2,0.4-0.4,0.7-0.8,0.9c-0.3,0.2-0.7,0.3-1.1,0.3c-0.6,0-1.2-0.2-1.6-0.7
		C-1924.1-4675.6-1924.3-4676.2-1924.2-4676.9L-1924.2-4676.9z M-1923.4-4676.8c0,0.5,0.1,0.9,0.4,1.3c0.4,0.5,1.2,0.6,1.7,0.2
		c0.1-0.1,0.2-0.1,0.2-0.2c0.3-0.4,0.4-0.9,0.4-1.4c0-0.5-0.1-0.9-0.4-1.3c-0.2-0.3-0.6-0.5-1-0.5c-0.4,0-0.7,0.2-1,0.5
		C-1923.3-4677.8-1923.5-4677.3-1923.4-4676.8L-1923.4-4676.8z M-1918.1-4679.3l0,0.6c0.3-0.4,0.9-0.7,1.4-0.7c1,0,1.5,0.6,1.5,1.7
		v3.1h-0.8v-3.1c0-0.3-0.1-0.5-0.2-0.8c-0.2-0.2-0.5-0.3-0.7-0.2c-0.2,0-0.5,0.1-0.7,0.2c-0.2,0.1-0.4,0.3-0.5,0.6v3.4h-0.8v-4.8
		L-1918.1-4679.3z M-1912.8-4680.4v1.1h0.9v0.6h-0.9v3c0,0.2,0,0.3,0.1,0.4c0.1,0.1,0.3,0.2,0.4,0.1c0.1,0,0.3,0,0.4-0.1v0.7
		c-0.2,0.1-0.4,0.1-0.6,0.1c-0.3,0-0.6-0.1-0.8-0.3c-0.2-0.3-0.3-0.6-0.3-0.9v-2.9h-0.9v-0.6h0.9v-1.2L-1912.8-4680.4z
		 M-1908.1-4674.5c-0.1-0.2-0.1-0.3-0.1-0.5c-0.3,0.4-0.8,0.6-1.4,0.6c-0.4,0-0.8-0.1-1.2-0.4c-0.3-0.3-0.5-0.6-0.4-1
		c0-0.5,0.2-0.9,0.6-1.2c0.5-0.3,1-0.4,1.6-0.4h0.8v-0.4c0-0.3-0.1-0.5-0.3-0.7c-0.2-0.2-0.5-0.3-0.8-0.3c-0.3,0-0.5,0.1-0.7,0.2
		c-0.2,0.1-0.3,0.3-0.3,0.5h-0.8c0-0.3,0.1-0.5,0.3-0.7c0.2-0.2,0.4-0.4,0.7-0.5c0.3-0.1,0.6-0.2,1-0.2c0.5,0,0.9,0.1,1.3,0.4
		c0.3,0.3,0.5,0.7,0.5,1.1v2.2c0,0.4,0,0.7,0.2,1v0.1H-1908.1z M-1909.4-4675.1c0.3,0,0.5-0.1,0.7-0.2c0.2-0.1,0.4-0.3,0.5-0.5v-1
		h-0.6c-1,0-1.5,0.3-1.5,0.9c0,0.2,0.1,0.5,0.3,0.6C-1909.9-4675.2-1909.6-4675.1-1909.4-4675.1z M-1906.3-4676.9
		c0-0.6,0.2-1.2,0.5-1.8c0.6-0.8,1.7-0.9,2.5-0.3c0.1,0.1,0.1,0.1,0.2,0.2v-2.5h0.8v6.8h-0.7l0-0.5c-0.3,0.4-0.8,0.6-1.4,0.6
		c-0.5,0-1-0.2-1.3-0.7C-1906.1-4675.6-1906.3-4676.2-1906.3-4676.9L-1906.3-4676.9z M-1905.5-4676.8c0,0.4,0.1,0.9,0.3,1.3
		c0.2,0.3,0.6,0.5,0.9,0.5c0.5,0,0.9-0.3,1.1-0.7v-2.2c-0.2-0.4-0.6-0.7-1.1-0.7c-0.4,0-0.7,0.2-0.9,0.5
		C-1905.4-4677.8-1905.5-4677.3-1905.5-4676.8L-1905.5-4676.8z M-1901.2-4676.9c0-0.4,0.1-0.9,0.3-1.3c0.2-0.4,0.4-0.7,0.8-0.9
		c0.3-0.2,0.7-0.3,1.1-0.3c0.6,0,1.2,0.2,1.6,0.7c0.4,0.5,0.6,1.1,0.6,1.8v0.1c0,0.4-0.1,0.9-0.3,1.2c-0.2,0.4-0.4,0.7-0.8,0.9
		c-0.3,0.2-0.7,0.3-1.1,0.3c-0.6,0-1.2-0.2-1.6-0.7C-1901.1-4675.6-1901.3-4676.2-1901.2-4676.9L-1901.2-4676.9z M-1900.4-4676.8
		c0,0.5,0.1,0.9,0.4,1.3c0.4,0.5,1.2,0.6,1.7,0.2c0.1-0.1,0.2-0.1,0.2-0.2c0.3-0.4,0.4-0.9,0.4-1.4c0-0.5-0.1-0.9-0.4-1.3
		c-0.2-0.3-0.6-0.5-1-0.5c-0.4,0-0.7,0.2-1,0.5C-1900.3-4677.8-1900.5-4677.3-1900.4-4676.8L-1900.4-4676.8z M-1893.6-4678.5
		c-0.1,0-0.3,0-0.4,0c-0.5,0-0.9,0.2-1.1,0.7v3.4h-0.8v-4.8h0.8l0,0.5c0.2-0.4,0.7-0.6,1.1-0.6c0.1,0,0.2,0,0.4,0.1V-4678.5z
		 M-1890.8-4676.9c0-0.6,0.2-1.2,0.5-1.8c0.6-0.8,1.7-0.9,2.5-0.3c0.1,0.1,0.1,0.1,0.2,0.2v-2.5h0.8v6.8h-0.7l0-0.5
		c-0.3,0.4-0.8,0.6-1.4,0.6c-0.5,0-1-0.2-1.3-0.7C-1890.7-4675.6-1890.8-4676.2-1890.8-4676.9L-1890.8-4676.9z M-1890-4676.8
		c0,0.4,0.1,0.9,0.3,1.3c0.2,0.3,0.6,0.5,0.9,0.5c0.5,0,0.9-0.3,1.1-0.7v-2.2c-0.2-0.4-0.6-0.7-1.1-0.7c-0.4,0-0.7,0.2-0.9,0.5
		C-1889.9-4677.8-1890-4677.3-1890-4676.8L-1890-4676.8z M-1883.6-4674.4c-0.6,0-1.2-0.2-1.6-0.6c-0.4-0.5-0.6-1.1-0.6-1.7v-0.2
		c0-0.4,0.1-0.9,0.3-1.3c0.2-0.4,0.4-0.7,0.8-0.9c0.3-0.2,0.7-0.3,1.1-0.3c0.5,0,1.1,0.2,1.4,0.6c0.4,0.5,0.6,1.1,0.5,1.8v0.3h-3.2
		c0,0.4,0.1,0.8,0.4,1.1c0.3,0.3,0.6,0.4,1,0.4c0.3,0,0.5-0.1,0.7-0.2c0.2-0.1,0.4-0.3,0.5-0.5l0.5,0.4
		C-1882.2-4674.7-1882.8-4674.4-1883.6-4674.4L-1883.6-4674.4z M-1883.7-4678.7c-0.3,0-0.6,0.1-0.8,0.4c-0.2,0.3-0.4,0.6-0.4,1h2.4
		v-0.1c0-0.3-0.1-0.7-0.3-1C-1883.1-4678.6-1883.4-4678.7-1883.7-4678.7L-1883.7-4678.7z M-1876.2-4678.5c-0.1,0-0.3,0-0.4,0
		c-0.5,0-0.9,0.2-1.1,0.7v3.4h-0.8v-4.8h0.8l0,0.5c0.2-0.4,0.7-0.6,1.1-0.6c0.1,0,0.2,0,0.4,0.1L-1876.2-4678.5z M-1873.6-4674.4
		c-0.6,0-1.2-0.2-1.6-0.6c-0.4-0.5-0.6-1.1-0.6-1.7v-0.2c0-0.4,0.1-0.9,0.3-1.3c0.2-0.4,0.4-0.7,0.8-0.9c0.3-0.2,0.7-0.3,1.1-0.3
		c0.5,0,1.1,0.2,1.4,0.6c0.4,0.5,0.6,1.1,0.5,1.7v0.3h-3.2c0,0.4,0.1,0.8,0.4,1.1c0.3,0.3,0.6,0.4,1,0.4c0.3,0,0.5-0.1,0.7-0.2
		c0.2-0.1,0.4-0.3,0.5-0.5l0.5,0.4C-1872.2-4674.7-1872.9-4674.4-1873.6-4674.4z M-1873.7-4678.7c-0.3,0-0.6,0.1-0.8,0.4
		c-0.2,0.3-0.4,0.6-0.4,1h2.4v-0.1c0-0.3-0.1-0.7-0.3-1C-1873.1-4678.6-1873.4-4678.7-1873.7-4678.7z M-1870.4-4674.5v-4.1h-0.8
		v-0.6h0.8v-0.5c0-0.4,0.1-0.9,0.4-1.2c0.3-0.3,0.7-0.4,1.2-0.4c0.2,0,0.4,0,0.6,0.1l0,0.7c-0.1,0-0.3,0-0.4,0
		c-0.2,0-0.4,0.1-0.6,0.2c-0.2,0.2-0.2,0.4-0.2,0.7v0.5h1v0.6h-1v4.1H-1870.4z M-1865.8-4674.4c-0.6,0-1.2-0.2-1.6-0.6
		c-0.4-0.5-0.6-1.1-0.6-1.7v-0.2c0-0.4,0.1-0.9,0.3-1.3c0.2-0.4,0.4-0.7,0.8-0.9c0.3-0.2,0.7-0.3,1.1-0.3c0.5,0,1.1,0.2,1.4,0.6
		c0.4,0.5,0.6,1.1,0.5,1.7v0.3h-3.2c0,0.4,0.1,0.8,0.4,1.1c0.3,0.3,0.6,0.4,1,0.4c0.3,0,0.5-0.1,0.7-0.2c0.2-0.1,0.4-0.3,0.5-0.5
		l0.5,0.4C-1864.4-4674.7-1865.1-4674.4-1865.8-4674.4L-1865.8-4674.4z M-1865.9-4678.7c-0.3,0-0.6,0.1-0.8,0.4
		c-0.2,0.3-0.4,0.6-0.4,1h2.4v-0.1c0-0.3-0.1-0.7-0.3-1C-1865.3-4678.6-1865.6-4678.7-1865.9-4678.7L-1865.9-4678.7z
		 M-1860.7-4678.5c-0.1,0-0.3,0-0.4,0c-0.5,0-0.9,0.2-1.1,0.7v3.4h-0.8v-4.8h0.8l0,0.5c0.2-0.4,0.7-0.6,1.1-0.6c0.1,0,0.2,0,0.4,0.1
		V-4678.5z M-1858.1-4674.4c-0.6,0-1.2-0.2-1.6-0.6c-0.4-0.5-0.6-1.1-0.6-1.7v-0.2c0-0.4,0.1-0.9,0.3-1.3c0.2-0.4,0.4-0.7,0.8-0.9
		c0.3-0.2,0.7-0.3,1.1-0.3c0.5,0,1.1,0.2,1.4,0.6c0.4,0.5,0.6,1.1,0.5,1.7v0.3h-3.2c0,0.4,0.1,0.8,0.4,1.1c0.3,0.3,0.6,0.4,1,0.4
		c0.3,0,0.5-0.1,0.7-0.2c0.2-0.1,0.4-0.3,0.5-0.5l0.5,0.4C-1856.7-4674.7-1857.4-4674.4-1858.1-4674.4L-1858.1-4674.4z
		 M-1858.2-4678.7c-0.3,0-0.6,0.1-0.8,0.4c-0.2,0.3-0.4,0.6-0.4,1h2.4v-0.1c0-0.3-0.1-0.7-0.3-1
		C-1857.6-4678.6-1857.9-4678.7-1858.2-4678.7L-1858.2-4678.7z M-1854.5-4679.3l0,0.6c0.3-0.4,0.9-0.7,1.4-0.7c1,0,1.5,0.6,1.5,1.7
		v3.1h-0.8v-3.1c0-0.3-0.1-0.5-0.2-0.8c-0.2-0.2-0.5-0.3-0.7-0.2c-0.2,0-0.5,0.1-0.7,0.2c-0.2,0.1-0.4,0.3-0.5,0.6v3.4h-0.8v-4.8
		L-1854.5-4679.3z M-1848.4-4675.1c0.3,0,0.5-0.1,0.8-0.3c0.2-0.2,0.3-0.4,0.4-0.7h0.8c0,0.3-0.1,0.6-0.3,0.8
		c-0.2,0.3-0.4,0.5-0.7,0.6c-0.3,0.1-0.6,0.2-0.9,0.2c-0.6,0-1.2-0.2-1.5-0.6c-0.4-0.5-0.6-1.1-0.6-1.8v-0.1c0-0.4,0.1-0.8,0.3-1.2
		c0.2-0.3,0.4-0.6,0.7-0.8c0.3-0.2,0.7-0.3,1.1-0.3c0.5,0,1,0.2,1.3,0.5c0.4,0.3,0.6,0.8,0.6,1.2h-0.8c0-0.3-0.1-0.6-0.3-0.8
		c-0.2-0.2-0.5-0.3-0.8-0.3c-0.4,0-0.7,0.1-1,0.4c-0.3,0.4-0.4,0.8-0.3,1.3v0.2c0,0.4,0.1,0.9,0.3,1.3
		C-1849.2-4675.2-1848.8-4675.1-1848.4-4675.1L-1848.4-4675.1z M-1844.7-4674.5h-0.8v-4.8h0.8V-4674.5z M-1845.6-4680.5
		c0-0.1,0-0.2,0.1-0.3c0.1-0.1,0.2-0.1,0.4-0.1c0.1,0,0.3,0,0.4,0.1c0.1,0.1,0.1,0.2,0.1,0.3c0,0.1,0,0.2-0.1,0.3
		c-0.1,0.1-0.2,0.1-0.4,0.1c-0.1,0-0.3,0-0.4-0.1C-1845.6-4680.3-1845.6-4680.4-1845.6-4680.5z M-1840.5-4674.5
		c-0.1-0.2-0.1-0.3-0.1-0.5c-0.3,0.4-0.8,0.6-1.4,0.6c-0.4,0-0.8-0.1-1.2-0.4c-0.3-0.3-0.5-0.6-0.5-1c0-0.5,0.2-0.9,0.6-1.2
		c0.5-0.3,1-0.4,1.6-0.4h0.8v-0.4c0-0.3-0.1-0.5-0.3-0.7c-0.2-0.2-0.5-0.3-0.8-0.3c-0.3,0-0.5,0.1-0.7,0.2c-0.2,0.1-0.3,0.3-0.3,0.5
		h-0.8c0-0.3,0.1-0.5,0.3-0.7c0.2-0.2,0.4-0.4,0.7-0.5c0.3-0.1,0.6-0.2,1-0.2c0.5,0,0.9,0.1,1.3,0.4c0.3,0.3,0.5,0.7,0.5,1.1v2.2
		c0,0.4,0,0.7,0.2,1v0.1H-1840.5z M-1841.8-4675.1c0.3,0,0.5-0.1,0.7-0.2c0.2-0.1,0.4-0.3,0.5-0.5v-1h-0.6c-1,0-1.5,0.3-1.5,0.9
		c0,0.2,0.1,0.5,0.3,0.6C-1842.3-4675.2-1842.1-4675.1-1841.8-4675.1L-1841.8-4675.1z M-1835.8-4675.8c0-0.2-0.1-0.4-0.2-0.5
		c-0.3-0.2-0.6-0.3-0.9-0.3c-0.3-0.1-0.7-0.2-1-0.3c-0.2-0.1-0.4-0.2-0.5-0.4c-0.1-0.2-0.2-0.4-0.2-0.6c0-0.4,0.2-0.8,0.5-1
		c0.4-0.3,0.8-0.4,1.3-0.4c0.5,0,0.9,0.1,1.3,0.4c0.3,0.3,0.5,0.7,0.5,1.1h-0.8c0-0.2-0.1-0.4-0.3-0.6c-0.2-0.2-0.5-0.3-0.7-0.2
		c-0.2,0-0.5,0.1-0.7,0.2c-0.2,0.1-0.3,0.3-0.2,0.5c0,0.2,0.1,0.3,0.2,0.4c0.3,0.1,0.5,0.2,0.8,0.3c0.3,0.1,0.7,0.2,1,0.3
		c0.2,0.1,0.4,0.3,0.6,0.5c0.1,0.2,0.2,0.4,0.2,0.6c0,0.4-0.2,0.8-0.5,1c-0.4,0.3-0.9,0.4-1.3,0.4c-0.3,0-0.7-0.1-1-0.2
		c-0.3-0.1-0.5-0.3-0.7-0.6c-0.2-0.2-0.2-0.5-0.2-0.8h0.8c0,0.3,0.1,0.5,0.3,0.6c0.2,0.2,0.5,0.3,0.8,0.2c0.3,0,0.5-0.1,0.7-0.2
		C-1835.9-4675.4-1835.8-4675.6-1835.8-4675.8L-1835.8-4675.8z M-1924.5-4664.8c0,0.6-0.1,1.2-0.5,1.7c-0.3,0.4-0.8,0.7-1.3,0.7
		c-0.5,0-1-0.2-1.4-0.5v2.3h-0.8v-6.6h0.7l0,0.5c0.3-0.4,0.8-0.6,1.4-0.6c0.5,0,1,0.2,1.4,0.6
		C-1924.7-4666.2-1924.5-4665.5-1924.5-4664.8L-1924.5-4664.8z M-1925.3-4664.9c0-0.4-0.1-0.9-0.3-1.3c-0.2-0.3-0.6-0.5-0.9-0.5
		c-0.5,0-0.9,0.2-1.1,0.7v2.3c0.2,0.4,0.6,0.7,1.1,0.6c0.4,0,0.7-0.2,0.9-0.5C-1925.4-4664-1925.3-4664.4-1925.3-4664.9z
		 M-1920.6-4662.5c-0.1-0.2-0.1-0.3-0.1-0.5c-0.3,0.4-0.8,0.6-1.4,0.6c-0.4,0-0.8-0.1-1.2-0.4c-0.3-0.3-0.5-0.6-0.5-1
		c0-0.5,0.2-0.9,0.6-1.2c0.5-0.3,1-0.4,1.6-0.4h0.8v-0.4c0-0.3-0.1-0.5-0.3-0.7c-0.2-0.2-0.5-0.3-0.8-0.3c-0.3,0-0.5,0.1-0.7,0.2
		c-0.2,0.1-0.3,0.3-0.3,0.5h-0.8c0-0.3,0.1-0.5,0.3-0.7c0.2-0.2,0.4-0.4,0.7-0.5c0.3-0.1,0.6-0.2,1-0.2c0.5,0,0.9,0.1,1.3,0.4
		c0.3,0.3,0.5,0.7,0.5,1.1v2.2c0,0.4,0,0.7,0.2,1v0.1H-1920.6z M-1921.9-4663.1c0.3,0,0.5-0.1,0.7-0.2c0.2-0.1,0.4-0.3,0.5-0.5v-1
		h-0.6c-1,0-1.5,0.3-1.5,0.9c0,0.2,0.1,0.5,0.3,0.6C-1922.4-4663.2-1922.1-4663.1-1921.9-4663.1z M-1916.3-4666.5
		c-0.1,0-0.3,0-0.4,0c-0.5,0-0.9,0.2-1.1,0.7v3.4h-0.8v-4.8h0.8l0,0.5c0.2-0.4,0.7-0.6,1.1-0.6c0.1,0,0.2,0,0.4,0.1V-4666.5z
		 M-1914.2-4668.4v1.2h0.9v0.6h-0.9v3c0,0.2,0,0.3,0.1,0.4c0.1,0.1,0.3,0.2,0.4,0.1c0.1,0,0.3,0,0.4-0.1v0.7
		c-0.2,0.1-0.4,0.1-0.6,0.1c-0.3,0-0.6-0.1-0.8-0.3c-0.2-0.3-0.3-0.6-0.3-0.9v-2.9h-0.9v-0.6h0.9v-1.2L-1914.2-4668.4z
		 M-1910.4-4662.4c-0.6,0-1.2-0.2-1.6-0.6c-0.4-0.5-0.6-1.1-0.6-1.7v-0.2c0-0.4,0.1-0.9,0.3-1.3c0.2-0.4,0.4-0.7,0.8-0.9
		c0.3-0.2,0.7-0.3,1.1-0.3c0.5,0,1.1,0.2,1.4,0.6c0.4,0.5,0.6,1.1,0.5,1.7v0.3h-3.2c0,0.4,0.1,0.8,0.4,1.1c0.3,0.3,0.6,0.4,1,0.4
		c0.3,0,0.5-0.1,0.7-0.2c0.2-0.1,0.4-0.3,0.5-0.5l0.5,0.4C-1909-4662.7-1909.7-4662.4-1910.4-4662.4L-1910.4-4662.4z
		 M-1910.5-4666.7c-0.3,0-0.6,0.1-0.8,0.4c-0.2,0.3-0.4,0.6-0.4,1h2.4v-0.1c0-0.3-0.1-0.7-0.3-1
		C-1909.9-4666.6-1910.2-4666.7-1910.5-4666.7L-1910.5-4666.7z M-1903.8-4663.6l1.2-3.7h0.8l-1.7,4.8h-0.6l-1.7-4.8h0.8
		L-1903.8-4663.6z M-1898.2-4662.5c-0.1-0.2-0.1-0.3-0.1-0.5c-0.3,0.4-0.8,0.6-1.4,0.6c-0.4,0-0.8-0.1-1.2-0.4
		c-0.3-0.3-0.5-0.6-0.5-1c0-0.5,0.2-0.9,0.6-1.2c0.5-0.3,1-0.4,1.6-0.4h0.8v-0.4c0-0.3-0.1-0.5-0.3-0.7c-0.2-0.2-0.5-0.3-0.8-0.3
		c-0.3,0-0.5,0.1-0.7,0.2c-0.2,0.1-0.3,0.3-0.3,0.5h-0.8c0-0.3,0.1-0.5,0.3-0.7c0.2-0.2,0.4-0.4,0.7-0.5c0.3-0.1,0.6-0.2,1-0.2
		c0.5,0,0.9,0.1,1.3,0.4c0.3,0.3,0.5,0.7,0.5,1.1v2.2c0,0.4,0,0.7,0.2,1v0.1H-1898.2z M-1899.5-4663.1c0.3,0,0.5-0.1,0.7-0.2
		c0.2-0.1,0.4-0.3,0.5-0.5v-1h-0.6c-1,0-1.5,0.3-1.5,0.9c0,0.2,0.1,0.5,0.3,0.6C-1900-4663.2-1899.7-4663.1-1899.5-4663.1z
		 M-1893.9-4666.5c-0.1,0-0.3,0-0.4,0c-0.5,0-0.9,0.2-1.1,0.7v3.4h-0.8v-4.8h0.8l0,0.5c0.2-0.4,0.7-0.6,1.1-0.6c0.1,0,0.2,0,0.4,0.1
		L-1893.9-4666.5z M-1892.3-4662.5h-0.8v-4.8h0.8V-4662.5z M-1893.2-4668.5c0-0.1,0-0.2,0.1-0.3c0.1-0.1,0.2-0.1,0.4-0.1
		c0.1,0,0.3,0,0.4,0.1c0.1,0.1,0.1,0.2,0.1,0.3c0,0.1,0,0.2-0.1,0.3c-0.1,0.1-0.2,0.1-0.4,0.1c-0.1,0-0.3,0-0.4-0.1
		C-1893.1-4668.3-1893.2-4668.4-1893.2-4668.5z M-1888-4662.5c-0.1-0.2-0.1-0.3-0.1-0.5c-0.3,0.4-0.8,0.6-1.4,0.6
		c-0.4,0-0.8-0.1-1.2-0.4c-0.3-0.3-0.5-0.6-0.4-1c0-0.5,0.2-0.9,0.6-1.2c0.5-0.3,1-0.4,1.6-0.4h0.8v-0.4c0-0.3-0.1-0.5-0.3-0.7
		c-0.2-0.2-0.5-0.3-0.8-0.3c-0.3,0-0.5,0.1-0.7,0.2c-0.2,0.1-0.3,0.3-0.3,0.5h-0.8c0-0.3,0.1-0.5,0.3-0.7c0.2-0.2,0.4-0.4,0.7-0.5
		c0.3-0.1,0.6-0.2,1-0.2c0.5,0,0.9,0.1,1.3,0.4c0.3,0.3,0.5,0.7,0.5,1.1v2.2c0,0.4,0,0.7,0.2,1v0.1H-1888z M-1889.4-4663.1
		c0.3,0,0.5-0.1,0.7-0.2c0.2-0.1,0.4-0.3,0.5-0.5v-1h-0.6c-1,0-1.5,0.3-1.5,0.9c0,0.2,0.1,0.5,0.3,0.6
		C-1889.9-4663.2-1889.6-4663.1-1889.4-4663.1z M-1882.1-4664.8c0,0.6-0.1,1.2-0.5,1.8c-0.3,0.4-0.8,0.7-1.3,0.7
		c-0.5,0-1.1-0.2-1.4-0.6l0,0.5h-0.7v-6.7h0.8v2.5c0.3-0.4,0.8-0.6,1.4-0.6c0.5,0,1,0.2,1.4,0.7
		C-1882.2-4666.2-1882-4665.5-1882.1-4664.8L-1882.1-4664.8z M-1882.9-4664.9c0-0.5-0.1-0.9-0.3-1.3c-0.2-0.3-0.6-0.5-0.9-0.5
		c-0.5,0-1,0.3-1.2,0.7v2.1c0.2,0.5,0.7,0.8,1.2,0.7c0.4,0,0.7-0.2,0.9-0.5C-1882.9-4664-1882.8-4664.4-1882.9-4664.9
		L-1882.9-4664.9z M-1880.1-4662.5h-0.8v-6.8h0.8V-4662.5z M-1876.9-4662.4c-0.6,0-1.2-0.2-1.6-0.6c-0.4-0.5-0.6-1.1-0.6-1.7v-0.2
		c0-0.4,0.1-0.9,0.3-1.3c0.2-0.4,0.4-0.7,0.8-0.9c0.3-0.2,0.7-0.3,1.1-0.3c0.5,0,1.1,0.2,1.4,0.6c0.4,0.5,0.6,1.1,0.5,1.7v0.3h-3.2
		c0,0.4,0.1,0.8,0.4,1.1c0.3,0.3,0.6,0.4,1,0.4c0.3,0,0.5-0.1,0.7-0.2c0.2-0.1,0.4-0.3,0.5-0.5l0.5,0.4
		C-1875.5-4662.7-1876.1-4662.4-1876.9-4662.4z M-1877-4666.7c-0.3,0-0.6,0.1-0.8,0.4c-0.2,0.3-0.4,0.6-0.4,1h2.4v-0.1
		c0-0.3-0.1-0.7-0.3-1C-1876.4-4666.6-1876.7-4666.7-1877-4666.7L-1877-4666.7z M-1868.9-4662.5c-0.1-0.2-0.1-0.3-0.1-0.5
		c-0.3,0.4-0.8,0.6-1.4,0.6c-0.4,0-0.8-0.1-1.2-0.4c-0.3-0.3-0.5-0.6-0.5-1c0-0.5,0.2-0.9,0.6-1.2c0.5-0.3,1-0.4,1.6-0.4h0.8v-0.4
		c0-0.3-0.1-0.5-0.3-0.7c-0.2-0.2-0.5-0.3-0.8-0.3c-0.3,0-0.5,0.1-0.7,0.2c-0.2,0.1-0.3,0.3-0.3,0.5h-0.8c0-0.3,0.1-0.5,0.3-0.7
		c0.2-0.2,0.4-0.4,0.7-0.5c0.3-0.1,0.6-0.2,1-0.2c0.5,0,0.9,0.1,1.3,0.4c0.3,0.3,0.5,0.7,0.5,1.1v2.2c0,0.4,0,0.7,0.2,1v0.1H-1868.9
		z M-1870.3-4663.1c0.3,0,0.5-0.1,0.7-0.2c0.2-0.1,0.4-0.3,0.5-0.5v-1h-0.6c-1,0-1.5,0.3-1.5,0.9c0,0.2,0.1,0.5,0.3,0.6
		C-1870.7-4663.2-1870.5-4663.1-1870.3-4663.1z M-1864.2-4663.8c0-0.2-0.1-0.4-0.2-0.5c-0.3-0.2-0.6-0.3-0.9-0.3
		c-0.3-0.1-0.7-0.2-1-0.3c-0.2-0.1-0.4-0.2-0.5-0.4c-0.1-0.2-0.2-0.4-0.2-0.6c0-0.4,0.2-0.8,0.5-1c0.4-0.3,0.8-0.4,1.3-0.4
		c0.5,0,0.9,0.1,1.3,0.4c0.3,0.3,0.5,0.7,0.5,1.1h-0.8c0-0.2-0.1-0.4-0.3-0.6c-0.2-0.2-0.5-0.3-0.7-0.2c-0.2,0-0.5,0.1-0.7,0.2
		c-0.2,0.1-0.3,0.3-0.2,0.5c0,0.2,0.1,0.3,0.2,0.4c0.3,0.1,0.5,0.2,0.8,0.3c0.3,0.1,0.7,0.2,1,0.3c0.2,0.1,0.4,0.3,0.6,0.5
		c0.1,0.2,0.2,0.4,0.2,0.6c0,0.4-0.2,0.8-0.5,1c-0.4,0.3-0.9,0.4-1.3,0.4c-0.3,0-0.7-0.1-1-0.2c-0.3-0.1-0.5-0.3-0.7-0.6
		c-0.2-0.2-0.2-0.5-0.2-0.8h0.8c0,0.3,0.1,0.5,0.3,0.6c0.2,0.2,0.5,0.3,0.8,0.2c0.3,0,0.5-0.1,0.7-0.2
		C-1864.3-4663.4-1864.2-4663.6-1864.2-4663.8L-1864.2-4663.8z M-1861.4-4662.5h-0.8v-4.8h0.8V-4662.5z M-1862.3-4668.5
		c0-0.1,0-0.2,0.1-0.3c0.1-0.1,0.2-0.1,0.4-0.1c0.1,0,0.3,0,0.4,0.1c0.1,0.1,0.1,0.2,0.1,0.3c0,0.1,0,0.2-0.1,0.3
		c-0.1,0.1-0.2,0.1-0.4,0.1c-0.1,0-0.3,0-0.4-0.1C-1862.3-4668.3-1862.3-4668.4-1862.3-4668.5z M-1860.3-4664.9
		c0-0.6,0.1-1.3,0.5-1.8c0.6-0.8,1.7-0.9,2.5-0.3c0.1,0.1,0.2,0.1,0.2,0.2l0-0.5h0.7v4.6c0,0.5-0.2,1.1-0.5,1.5
		c-0.4,0.4-0.9,0.6-1.5,0.5c-0.3,0-0.7-0.1-1-0.2c-0.3-0.1-0.6-0.3-0.8-0.6l0.4-0.5c0.3,0.4,0.8,0.6,1.3,0.6c0.3,0,0.7-0.1,0.9-0.3
		c0.2-0.3,0.4-0.6,0.3-0.9v-0.4c-0.3,0.4-0.8,0.6-1.3,0.6c-0.5,0-1-0.2-1.4-0.7C-1860.2-4663.6-1860.4-4664.3-1860.3-4664.9
		L-1860.3-4664.9z M-1859.5-4664.8c0,0.4,0.1,0.9,0.3,1.3c0.2,0.3,0.6,0.5,0.9,0.5c0.5,0,0.9-0.3,1.1-0.7v-2.2
		c-0.2-0.4-0.6-0.7-1.1-0.7c-0.4,0-0.7,0.2-0.9,0.5C-1859.4-4665.8-1859.5-4665.3-1859.5-4664.8L-1859.5-4664.8z M-1854.3-4667.3
		l0,0.6c0.3-0.4,0.9-0.7,1.4-0.7c1,0,1.5,0.6,1.5,1.7v3.1h-0.8v-3.1c0-0.3-0.1-0.5-0.2-0.8c-0.2-0.2-0.5-0.3-0.7-0.2
		c-0.2,0-0.5,0.1-0.7,0.2c-0.2,0.1-0.4,0.3-0.5,0.6v3.4h-0.8v-4.8L-1854.3-4667.3z M-1847.2-4662.5c-0.1-0.2-0.1-0.3-0.1-0.5
		c-0.3,0.4-0.8,0.6-1.4,0.6c-0.4,0-0.8-0.1-1.2-0.4c-0.3-0.3-0.5-0.6-0.4-1c0-0.5,0.2-0.9,0.6-1.2c0.5-0.3,1-0.4,1.6-0.4h0.8v-0.4
		c0-0.3-0.1-0.5-0.3-0.7c-0.2-0.2-0.5-0.3-0.8-0.3c-0.3,0-0.5,0.1-0.7,0.2c-0.2,0.1-0.3,0.3-0.3,0.5h-0.8c0-0.3,0.1-0.5,0.3-0.7
		c0.2-0.2,0.4-0.4,0.7-0.5c0.3-0.1,0.6-0.2,1-0.2c0.5,0,0.9,0.1,1.3,0.4c0.3,0.3,0.5,0.7,0.5,1.1v2.2c0,0.4,0,0.7,0.2,1v0.1H-1847.2
		z M-1848.5-4663.1c0.3,0,0.5-0.1,0.7-0.2c0.2-0.1,0.4-0.3,0.5-0.5v-1h-0.6c-1,0-1.5,0.3-1.5,0.9c0,0.2,0.1,0.5,0.3,0.6
		C-1849-4663.2-1848.8-4663.1-1848.5-4663.1z M-1845.4-4664.9c0-0.6,0.2-1.2,0.5-1.8c0.6-0.8,1.7-0.9,2.5-0.3
		c0.1,0.1,0.1,0.1,0.2,0.2v-2.5h0.8v6.8h-0.7l0-0.5c-0.3,0.4-0.8,0.6-1.4,0.6c-0.5,0-1-0.2-1.3-0.7
		C-1845.3-4663.6-1845.4-4664.2-1845.4-4664.9L-1845.4-4664.9z M-1844.6-4664.8c0,0.4,0.1,0.9,0.3,1.3c0.2,0.3,0.6,0.5,0.9,0.5
		c0.5,0,0.9-0.3,1.1-0.7v-2.2c-0.2-0.4-0.6-0.7-1.1-0.7c-0.4,0-0.7,0.2-0.9,0.5C-1844.5-4665.8-1844.6-4665.3-1844.6-4664.8
		L-1844.6-4664.8z M-1837.2-4662.5c-0.1-0.2-0.1-0.3-0.1-0.5c-0.3,0.4-0.8,0.6-1.4,0.6c-0.4,0-0.8-0.1-1.2-0.4
		c-0.3-0.3-0.5-0.6-0.4-1c0-0.5,0.2-0.9,0.6-1.2c0.5-0.3,1-0.4,1.6-0.4h0.8v-0.4c0-0.3-0.1-0.5-0.3-0.7c-0.2-0.2-0.5-0.3-0.8-0.3
		c-0.3,0-0.5,0.1-0.7,0.2c-0.2,0.1-0.3,0.3-0.3,0.5h-0.8c0-0.3,0.1-0.5,0.3-0.7c0.2-0.2,0.4-0.4,0.7-0.5c0.3-0.1,0.6-0.2,1-0.2
		c0.5,0,0.9,0.1,1.3,0.4c0.3,0.3,0.5,0.7,0.5,1.1v2.2c0,0.4,0,0.7,0.2,1v0.1H-1837.2z M-1838.6-4663.1c0.3,0,0.5-0.1,0.7-0.2
		c0.2-0.1,0.4-0.3,0.5-0.5v-1h-0.6c-1,0-1.5,0.3-1.5,0.9c0,0.2,0.1,0.5,0.3,0.6C-1839-4663.2-1838.8-4663.1-1838.6-4663.1
		L-1838.6-4663.1z M-1927.1-4652.8c0,0.6-0.1,1.2-0.5,1.7c-0.3,0.4-0.8,0.7-1.3,0.7c-0.5,0-1-0.2-1.4-0.5v2.3h-0.8v-6.6h0.7l0,0.5
		c0.3-0.4,0.8-0.6,1.4-0.6c0.5,0,1,0.2,1.4,0.6C-1927.2-4654.2-1927-4653.5-1927.1-4652.8L-1927.1-4652.8z M-1927.9-4652.9
		c0-0.4-0.1-0.9-0.3-1.3c-0.2-0.3-0.6-0.5-0.9-0.5c-0.5,0-0.9,0.2-1.1,0.7v2.3c0.2,0.4,0.6,0.7,1.1,0.6c0.4,0,0.7-0.2,0.9-0.5
		C-1928-4652-1927.9-4652.4-1927.9-4652.9z M-1926.3-4652.9c0-0.4,0.1-0.9,0.3-1.3c0.2-0.4,0.4-0.7,0.8-0.9c0.3-0.2,0.7-0.3,1.1-0.3
		c0.6,0,1.2,0.2,1.6,0.7c0.4,0.5,0.6,1.1,0.6,1.8v0.1c0,0.4-0.1,0.9-0.3,1.2c-0.2,0.4-0.4,0.7-0.8,0.9c-0.3,0.2-0.7,0.3-1.1,0.3
		c-0.6,0-1.2-0.2-1.6-0.7C-1926.1-4651.6-1926.3-4652.2-1926.3-4652.9L-1926.3-4652.9z M-1925.4-4652.8c0,0.5,0.1,0.9,0.4,1.3
		c0.4,0.5,1.2,0.6,1.7,0.2c0.1-0.1,0.2-0.1,0.2-0.2c0.3-0.4,0.4-0.9,0.4-1.4c0-0.5-0.1-0.9-0.4-1.3c-0.2-0.3-0.6-0.5-1-0.5
		c-0.4,0-0.7,0.2-1,0.5C-1925.3-4653.8-1925.5-4653.3-1925.4-4652.8L-1925.4-4652.8z M-1918.6-4654.5c-0.1,0-0.3,0-0.4,0
		c-0.5,0-0.9,0.2-1.1,0.7v3.4h-0.8v-4.8h0.8l0,0.5c0.2-0.4,0.7-0.6,1.1-0.6c0.1,0,0.2,0,0.4,0.1V-4654.5z M-1914.8-4650.5h-0.8v-6.8
		h0.8V-4650.5z M-1910.5-4650.5c-0.1-0.2-0.1-0.3-0.1-0.5c-0.3,0.4-0.8,0.6-1.4,0.6c-0.4,0-0.8-0.1-1.2-0.4c-0.3-0.3-0.5-0.6-0.4-1
		c0-0.5,0.2-0.9,0.6-1.2c0.5-0.3,1-0.4,1.6-0.4h0.8v-0.4c0-0.3-0.1-0.5-0.3-0.7c-0.2-0.2-0.5-0.3-0.8-0.3c-0.3,0-0.5,0.1-0.7,0.2
		c-0.2,0.1-0.3,0.3-0.3,0.5h-0.8c0-0.3,0.1-0.5,0.3-0.7c0.2-0.2,0.4-0.4,0.7-0.5c0.3-0.1,0.6-0.2,1-0.2c0.5,0,0.9,0.1,1.3,0.4
		c0.3,0.3,0.5,0.7,0.5,1.1v2.2c0,0.4,0,0.7,0.2,1v0.1H-1910.5z M-1911.9-4651.1c0.3,0,0.5-0.1,0.7-0.2c0.2-0.1,0.4-0.3,0.5-0.5v-1
		h-0.6c-1,0-1.5,0.3-1.5,0.9c0,0.2,0.1,0.5,0.3,0.6C-1912.3-4651.2-1912.1-4651.1-1911.9-4651.1L-1911.9-4651.1z M-1904.4-4650.4
		c-0.6,0-1.2-0.2-1.6-0.6c-0.4-0.5-0.6-1.1-0.6-1.7v-0.2c0-0.4,0.1-0.9,0.3-1.3c0.2-0.4,0.4-0.7,0.8-0.9c0.3-0.2,0.7-0.3,1.1-0.3
		c0.5,0,1.1,0.2,1.4,0.6c0.4,0.5,0.6,1.1,0.5,1.7v0.3h-3.2c0,0.4,0.1,0.8,0.4,1.1c0.3,0.3,0.6,0.4,1,0.4c0.3,0,0.5-0.1,0.7-0.2
		c0.2-0.1,0.4-0.3,0.5-0.5l0.5,0.4C-1902.9-4650.7-1903.6-4650.4-1904.4-4650.4L-1904.4-4650.4z M-1904.5-4654.7
		c-0.3,0-0.6,0.1-0.8,0.4c-0.2,0.3-0.4,0.6-0.4,1h2.4v-0.1c0-0.3-0.1-0.7-0.3-1C-1903.8-4654.6-1904.1-4654.7-1904.5-4654.7z
		 M-1900.8-4655.3l0,0.5c0.4-0.4,0.9-0.6,1.4-0.6c0.6-0.1,1.1,0.2,1.4,0.8c0.2-0.2,0.4-0.4,0.6-0.6c0.3-0.1,0.6-0.2,0.9-0.2
		c1,0,1.6,0.6,1.6,1.7v3.2h-0.8v-3.1c0-0.3-0.1-0.5-0.2-0.8c-0.2-0.2-0.5-0.3-0.8-0.3c-0.3,0-0.5,0.1-0.8,0.3
		c-0.2,0.2-0.3,0.4-0.3,0.7v3.2h-0.8v-3.1c0.1-0.5-0.3-1-0.8-1c-0.1,0-0.2,0-0.3,0c-0.5,0-0.9,0.2-1.1,0.7v3.5h-0.8v-4.8H-1900.8z
		 M-1889.7-4652.8c0,0.6-0.1,1.2-0.5,1.7c-0.3,0.4-0.8,0.7-1.3,0.7c-0.5,0-1-0.2-1.4-0.5v2.3h-0.8v-6.6h0.7l0,0.5
		c0.3-0.4,0.8-0.6,1.4-0.6c0.5,0,1,0.2,1.4,0.6C-1889.8-4654.2-1889.6-4653.5-1889.7-4652.8L-1889.7-4652.8z M-1890.5-4652.9
		c0-0.4-0.1-0.9-0.3-1.3c-0.2-0.3-0.6-0.5-0.9-0.5c-0.5,0-0.9,0.2-1.1,0.7v2.3c0.2,0.4,0.6,0.7,1.1,0.6c0.4,0,0.7-0.2,0.9-0.5
		C-1890.6-4652-1890.4-4652.4-1890.5-4652.9z M-1886.3-4654.5c-0.1,0-0.3,0-0.4,0c-0.5,0-0.9,0.2-1.1,0.7v3.4h-0.8v-4.8h0.8l0,0.5
		c0.2-0.4,0.7-0.6,1.1-0.6c0.1,0,0.2,0,0.4,0.1V-4654.5z M-1883.7-4650.4c-0.6,0-1.2-0.2-1.6-0.6c-0.4-0.5-0.6-1.1-0.6-1.7v-0.2
		c0-0.4,0.1-0.9,0.3-1.3c0.2-0.4,0.4-0.7,0.8-0.9c0.3-0.2,0.7-0.3,1.1-0.3c0.5,0,1.1,0.2,1.4,0.6c0.4,0.5,0.6,1.1,0.5,1.7v0.3h-3.2
		c0,0.4,0.1,0.8,0.4,1.1c0.3,0.3,0.6,0.4,1,0.4c0.3,0,0.5-0.1,0.7-0.2c0.2-0.1,0.4-0.3,0.5-0.5l0.5,0.4
		C-1882.3-4650.7-1883-4650.4-1883.7-4650.4L-1883.7-4650.4z M-1883.8-4654.7c-0.3,0-0.6,0.1-0.8,0.4c-0.2,0.3-0.4,0.6-0.4,1h2.4
		v-0.1c0-0.3-0.1-0.7-0.3-1C-1883.2-4654.6-1883.5-4654.7-1883.8-4654.7L-1883.8-4654.7z M-1878.1-4651.8c0-0.2-0.1-0.4-0.2-0.5
		c-0.3-0.2-0.6-0.3-0.9-0.3c-0.3-0.1-0.7-0.2-1-0.3c-0.2-0.1-0.4-0.2-0.5-0.4c-0.1-0.2-0.2-0.4-0.2-0.6c0-0.4,0.2-0.8,0.5-1
		c0.4-0.3,0.8-0.4,1.3-0.4c0.5,0,0.9,0.1,1.3,0.4c0.3,0.3,0.5,0.7,0.5,1.1h-0.8c0-0.2-0.1-0.4-0.3-0.6c-0.2-0.2-0.5-0.3-0.7-0.2
		c-0.2,0-0.5,0.1-0.7,0.2c-0.2,0.1-0.3,0.3-0.2,0.5c0,0.2,0.1,0.3,0.2,0.4c0.3,0.1,0.5,0.2,0.8,0.3c0.3,0.1,0.7,0.2,1,0.3
		c0.2,0.1,0.4,0.3,0.6,0.5c0.1,0.2,0.2,0.4,0.2,0.6c0,0.4-0.2,0.8-0.5,1c-0.4,0.3-0.9,0.4-1.3,0.4c-0.3,0-0.7-0.1-1-0.2
		c-0.3-0.1-0.5-0.3-0.7-0.6c-0.2-0.2-0.2-0.5-0.2-0.8h0.8c0,0.3,0.1,0.5,0.3,0.6c0.2,0.2,0.5,0.3,0.8,0.2c0.3,0,0.5-0.1,0.7-0.2
		C-1878.2-4651.4-1878.1-4651.6-1878.1-4651.8L-1878.1-4651.8z M-1873.3-4650.5c-0.1-0.2-0.1-0.3-0.1-0.5c-0.3,0.4-0.8,0.6-1.4,0.6
		c-0.4,0-0.8-0.1-1.2-0.4c-0.3-0.3-0.5-0.6-0.5-1c0-0.5,0.2-0.9,0.6-1.2c0.5-0.3,1-0.4,1.6-0.4h0.8v-0.4c0-0.3-0.1-0.5-0.3-0.7
		c-0.2-0.2-0.5-0.3-0.8-0.3c-0.3,0-0.5,0.1-0.7,0.2c-0.2,0.1-0.3,0.3-0.3,0.5h-0.8c0-0.3,0.1-0.5,0.3-0.7c0.2-0.2,0.4-0.4,0.7-0.5
		c0.3-0.1,0.6-0.2,1-0.2c0.5,0,0.9,0.1,1.3,0.4c0.3,0.3,0.5,0.7,0.5,1.1v2.2c0,0.4,0,0.7,0.2,1v0.1H-1873.3z M-1874.7-4651.1
		c0.3,0,0.5-0.1,0.7-0.2c0.2-0.1,0.4-0.3,0.5-0.5v-1h-0.6c-1,0-1.5,0.3-1.5,0.9c0,0.2,0.1,0.5,0.3,0.6
		C-1875.1-4651.2-1874.9-4651.1-1874.7-4651.1z M-1866.2-4650.5c-0.1-0.2-0.1-0.3-0.1-0.5c-0.3,0.4-0.8,0.6-1.4,0.6
		c-0.4,0-0.8-0.1-1.2-0.4c-0.3-0.3-0.5-0.6-0.5-1c0-0.5,0.2-0.9,0.6-1.2c0.5-0.3,1-0.4,1.6-0.4h0.8v-0.4c0-0.3-0.1-0.5-0.3-0.7
		c-0.2-0.2-0.5-0.3-0.8-0.3c-0.3,0-0.5,0.1-0.7,0.2c-0.2,0.1-0.3,0.3-0.3,0.5h-0.8c0-0.3,0.1-0.5,0.3-0.7c0.2-0.2,0.4-0.4,0.7-0.5
		c0.3-0.1,0.6-0.2,1-0.2c0.5,0,0.9,0.1,1.3,0.4c0.3,0.3,0.5,0.7,0.5,1.1v2.2c0,0.4,0,0.7,0.2,1v0.1H-1866.2z M-1867.5-4651.1
		c0.3,0,0.5-0.1,0.7-0.2c0.2-0.1,0.4-0.3,0.5-0.5v-1h-0.6c-1,0-1.5,0.3-1.5,0.9c0,0.2,0.1,0.5,0.3,0.6
		C-1868-4651.2-1867.8-4651.1-1867.5-4651.1z M-1861.5-4651.8c0-0.2-0.1-0.4-0.2-0.5c-0.3-0.2-0.6-0.3-0.9-0.3
		c-0.3-0.1-0.7-0.2-1-0.3c-0.2-0.1-0.4-0.2-0.5-0.4c-0.1-0.2-0.2-0.4-0.2-0.6c0-0.4,0.2-0.8,0.5-1c0.4-0.3,0.8-0.4,1.3-0.4
		c0.5,0,0.9,0.1,1.3,0.4c0.3,0.3,0.5,0.7,0.5,1.1h-0.8c0-0.2-0.1-0.4-0.3-0.6c-0.2-0.2-0.5-0.3-0.7-0.2c-0.2,0-0.5,0.1-0.7,0.2
		c-0.2,0.1-0.3,0.3-0.2,0.5c0,0.2,0.1,0.3,0.2,0.4c0.3,0.1,0.5,0.2,0.8,0.3c0.3,0.1,0.7,0.2,1,0.3c0.2,0.1,0.4,0.3,0.6,0.5
		c0.1,0.2,0.2,0.4,0.2,0.6c0,0.4-0.2,0.8-0.5,1c-0.4,0.3-0.9,0.4-1.3,0.4c-0.3,0-0.7-0.1-1-0.2c-0.3-0.1-0.5-0.3-0.7-0.6
		c-0.2-0.2-0.2-0.5-0.2-0.8h0.8c0,0.3,0.1,0.5,0.3,0.6c0.2,0.2,0.5,0.3,0.8,0.2c0.3,0,0.5-0.1,0.7-0.2
		C-1861.6-4651.4-1861.5-4651.6-1861.5-4651.8L-1861.5-4651.8z M-1859.8-4652.9c0-0.4,0.1-0.9,0.3-1.3c0.2-0.4,0.4-0.7,0.8-0.9
		c0.3-0.2,0.7-0.3,1.1-0.3c0.6,0,1.2,0.2,1.6,0.7c0.4,0.5,0.6,1.1,0.6,1.8v0.1c0,0.4-0.1,0.9-0.3,1.2c-0.2,0.4-0.4,0.7-0.8,0.9
		c-0.3,0.2-0.7,0.3-1.1,0.3c-0.6,0-1.2-0.2-1.6-0.7C-1859.6-4651.6-1859.8-4652.2-1859.8-4652.9L-1859.8-4652.9z M-1859-4652.8
		c0,0.5,0.1,0.9,0.4,1.3c0.4,0.5,1.2,0.6,1.7,0.2c0.1-0.1,0.2-0.1,0.2-0.2c0.3-0.4,0.4-0.9,0.4-1.4c0-0.5-0.1-0.9-0.4-1.3
		c-0.2-0.3-0.6-0.5-1-0.5c-0.4,0-0.7,0.2-1,0.5C-1858.9-4653.8-1859-4653.3-1859-4652.8L-1859-4652.8z M-1852.5-4651.1
		c0.3,0,0.5-0.1,0.8-0.3c0.2-0.2,0.3-0.4,0.4-0.7h0.8c0,0.3-0.1,0.6-0.3,0.8c-0.2,0.3-0.4,0.5-0.7,0.6c-0.3,0.1-0.6,0.2-0.9,0.2
		c-0.6,0-1.2-0.2-1.5-0.6c-0.4-0.5-0.6-1.1-0.6-1.8v-0.1c0-0.4,0.1-0.8,0.3-1.2c0.2-0.3,0.4-0.6,0.7-0.8c0.3-0.2,0.7-0.3,1.1-0.3
		c0.5,0,1,0.2,1.3,0.5c0.4,0.3,0.6,0.8,0.6,1.2h-0.8c0-0.3-0.1-0.6-0.3-0.8c-0.2-0.2-0.5-0.3-0.8-0.3c-0.4,0-0.7,0.1-1,0.4
		c-0.3,0.4-0.4,0.8-0.3,1.3v0.2c0,0.4,0.1,0.9,0.3,1.3C-1853.3-4651.2-1852.9-4651.1-1852.5-4651.1L-1852.5-4651.1z M-1848.9-4650.5
		h-0.8v-4.8h0.8V-4650.5z M-1849.7-4656.5c0-0.1,0-0.2,0.1-0.3c0.1-0.1,0.2-0.1,0.4-0.1c0.1,0,0.3,0,0.4,0.1
		c0.1,0.1,0.1,0.2,0.1,0.3c0,0.1,0,0.2-0.1,0.3c-0.1,0.1-0.2,0.1-0.4,0.1c-0.1,0-0.3,0-0.4-0.1
		C-1849.7-4656.3-1849.7-4656.4-1849.7-4656.5z M-1844.6-4650.5c-0.1-0.2-0.1-0.3-0.1-0.5c-0.3,0.4-0.8,0.6-1.4,0.6
		c-0.4,0-0.8-0.1-1.2-0.4c-0.3-0.3-0.5-0.6-0.5-1c0-0.5,0.2-0.9,0.6-1.2c0.5-0.3,1-0.4,1.6-0.4h0.8v-0.4c0-0.3-0.1-0.5-0.3-0.7
		c-0.2-0.2-0.5-0.3-0.8-0.3c-0.3,0-0.5,0.1-0.7,0.2c-0.2,0.1-0.3,0.3-0.3,0.5h-0.8c0-0.3,0.1-0.5,0.3-0.7c0.2-0.2,0.4-0.4,0.7-0.5
		c0.3-0.1,0.6-0.2,1-0.2c0.5,0,0.9,0.1,1.3,0.4c0.3,0.3,0.5,0.7,0.5,1.1v2.2c0,0.4,0,0.7,0.2,1v0.1H-1844.6z M-1846-4651.1
		c0.3,0,0.5-0.1,0.7-0.2c0.2-0.1,0.4-0.3,0.5-0.5v-1h-0.6c-1,0-1.5,0.3-1.5,0.9c0,0.2,0.1,0.5,0.3,0.6
		C-1846.4-4651.2-1846.2-4651.1-1846-4651.1z M-1842.9-4652.9c0-0.6,0.2-1.2,0.5-1.8c0.6-0.8,1.7-0.9,2.5-0.3
		c0.1,0.1,0.1,0.1,0.2,0.2v-2.5h0.8v6.8h-0.7l0-0.5c-0.3,0.4-0.8,0.6-1.4,0.6c-0.5,0-1-0.2-1.3-0.7
		C-1842.7-4651.6-1842.9-4652.2-1842.9-4652.9L-1842.9-4652.9z M-1842.1-4652.8c0,0.4,0.1,0.9,0.3,1.3c0.2,0.3,0.6,0.5,0.9,0.5
		c0.5,0,0.9-0.3,1.1-0.7v-2.2c-0.2-0.4-0.6-0.7-1.1-0.7c-0.4,0-0.7,0.2-0.9,0.5C-1842-4653.8-1842.1-4653.3-1842.1-4652.8
		L-1842.1-4652.8z M-1834.7-4650.5c-0.1-0.2-0.1-0.3-0.1-0.5c-0.3,0.4-0.8,0.6-1.4,0.6c-0.4,0-0.8-0.1-1.2-0.4
		c-0.3-0.3-0.5-0.6-0.4-1c0-0.5,0.2-0.9,0.6-1.2c0.5-0.3,1-0.4,1.6-0.4h0.8v-0.4c0-0.3-0.1-0.5-0.3-0.7c-0.2-0.2-0.5-0.3-0.8-0.3
		c-0.3,0-0.5,0.1-0.7,0.2c-0.2,0.1-0.3,0.3-0.3,0.5h-0.8c0-0.3,0.1-0.5,0.3-0.7c0.2-0.2,0.4-0.4,0.7-0.5c0.3-0.1,0.6-0.2,1-0.2
		c0.5,0,0.9,0.1,1.3,0.4c0.3,0.3,0.5,0.7,0.5,1.1v2.2c0,0.4,0,0.7,0.2,1v0.1L-1834.7-4650.5z M-1836-4651.1c0.3,0,0.5-0.1,0.7-0.2
		c0.2-0.1,0.4-0.3,0.5-0.5v-1h-0.6c-1,0-1.5,0.3-1.5,0.9c0,0.2,0.1,0.5,0.3,0.6C-1836.5-4651.2-1836.2-4651.1-1836-4651.1
		L-1836-4651.1z"/>
	<path id="Trazado_373296" class="st0" d="M-1818.6-4674.5v-6.4h1.8c0.5,0,1,0.1,1.5,0.4c0.4,0.2,0.8,0.6,1,1c0.2,0.5,0.4,1,0.4,1.6
		v0.4c0,0.5-0.1,1.1-0.3,1.6c-0.2,0.4-0.6,0.8-1,1c-0.5,0.3-1,0.4-1.5,0.4H-1818.6z M-1817.7-4680.2v5h0.9c0.6,0,1.1-0.2,1.5-0.6
		c0.4-0.5,0.6-1.1,0.5-1.7v-0.4c0-0.6-0.1-1.2-0.5-1.7c-0.4-0.4-0.9-0.6-1.5-0.6L-1817.7-4680.2z M-1811.9-4674.5h-0.8v-4.8h0.8
		V-4674.5z M-1812.8-4680.5c0-0.1,0-0.2,0.1-0.3c0.1-0.1,0.2-0.1,0.4-0.1c0.1,0,0.3,0,0.4,0.1c0.1,0.1,0.1,0.2,0.1,0.3
		c0,0.1,0,0.2-0.1,0.3c-0.1,0.1-0.2,0.1-0.4,0.1c-0.1,0-0.3,0-0.4-0.1C-1812.8-4680.3-1812.8-4680.4-1812.8-4680.5L-1812.8-4680.5z
		 M-1810.8-4676.9c0-0.6,0.1-1.3,0.5-1.8c0.6-0.8,1.7-0.9,2.5-0.3c0.1,0.1,0.2,0.1,0.2,0.2l0-0.5h0.7v4.6c0,0.5-0.2,1.1-0.5,1.5
		c-0.4,0.4-0.9,0.6-1.5,0.5c-0.3,0-0.7-0.1-1-0.2c-0.3-0.1-0.6-0.3-0.8-0.6l0.4-0.5c0.3,0.4,0.8,0.6,1.3,0.6c0.3,0,0.7-0.1,0.9-0.3
		c0.2-0.3,0.4-0.6,0.3-0.9v-0.4c-0.3,0.4-0.8,0.6-1.3,0.6c-0.5,0-1-0.2-1.4-0.7C-1810.7-4675.6-1810.8-4676.3-1810.8-4676.9
		L-1810.8-4676.9z M-1810-4676.8c0,0.4,0.1,0.9,0.3,1.3c0.2,0.3,0.6,0.5,0.9,0.5c0.5,0,0.9-0.3,1.1-0.7v-2.2
		c-0.2-0.4-0.6-0.7-1.1-0.7c-0.4,0-0.7,0.2-0.9,0.5C-1809.9-4677.8-1810-4677.3-1810-4676.8L-1810-4676.8z M-1804.7-4674.5h-0.8
		v-4.8h0.8V-4674.5z M-1805.6-4680.5c0-0.1,0-0.2,0.1-0.3c0.1-0.1,0.2-0.1,0.4-0.1c0.1,0,0.3,0,0.4,0.1c0.1,0.1,0.1,0.2,0.1,0.3
		c0,0.1,0,0.2-0.1,0.3c-0.1,0.1-0.2,0.1-0.4,0.1c-0.1,0-0.3,0-0.4-0.1C-1805.5-4680.3-1805.6-4680.4-1805.6-4680.5z M-1802.3-4680.4
		v1.2h0.9v0.6h-0.9v3c0,0.2,0,0.3,0.1,0.4c0.1,0.1,0.3,0.2,0.4,0.1c0.1,0,0.3,0,0.4-0.1v0.7c-0.2,0.1-0.4,0.1-0.6,0.1
		c-0.3,0-0.6-0.1-0.8-0.3c-0.2-0.3-0.3-0.6-0.3-0.9v-2.9h-0.9v-0.6h0.9v-1.2H-1802.3z M-1800.7-4676.9c0-0.4,0.1-0.9,0.3-1.3
		c0.2-0.4,0.4-0.7,0.8-0.9c0.3-0.2,0.7-0.3,1.1-0.3c0.6,0,1.2,0.2,1.6,0.7c0.4,0.5,0.6,1.1,0.6,1.8v0.1c0,0.4-0.1,0.9-0.3,1.2
		c-0.2,0.4-0.4,0.7-0.8,0.9c-0.3,0.2-0.7,0.3-1.1,0.3c-0.6,0-1.2-0.2-1.6-0.7C-1800.6-4675.6-1800.8-4676.2-1800.7-4676.9
		L-1800.7-4676.9z M-1799.9-4676.8c0,0.5,0.1,0.9,0.4,1.3c0.4,0.5,1.2,0.6,1.7,0.2c0.1-0.1,0.2-0.1,0.2-0.2c0.3-0.4,0.4-0.9,0.4-1.4
		c0-0.5-0.1-0.9-0.4-1.3c-0.2-0.3-0.6-0.5-1-0.5c-0.4,0-0.7,0.2-1,0.5C-1799.8-4677.8-1800-4677.3-1799.9-4676.8L-1799.9-4676.8z
		 M-1793.4-4676.9c0-0.6,0.2-1.2,0.5-1.8c0.6-0.8,1.7-0.9,2.5-0.3c0.1,0.1,0.1,0.1,0.2,0.2v-2.5h0.8v6.8h-0.7l0-0.5
		c-0.3,0.4-0.8,0.6-1.4,0.6c-0.5,0-1-0.2-1.3-0.7C-1793.2-4675.6-1793.4-4676.2-1793.4-4676.9L-1793.4-4676.9z M-1792.6-4676.8
		c0,0.4,0.1,0.9,0.3,1.3c0.2,0.3,0.6,0.5,0.9,0.5c0.5,0,0.9-0.3,1.1-0.7v-2.2c-0.2-0.4-0.6-0.7-1.1-0.7c-0.4,0-0.7,0.2-0.9,0.5
		C-1792.5-4677.8-1792.6-4677.3-1792.6-4676.8L-1792.6-4676.8z M-1786.1-4674.4c-0.6,0-1.2-0.2-1.6-0.6c-0.4-0.5-0.6-1.1-0.6-1.7
		v-0.2c0-0.4,0.1-0.9,0.3-1.3c0.2-0.4,0.4-0.7,0.8-0.9c0.3-0.2,0.7-0.3,1.1-0.3c0.5,0,1.1,0.2,1.4,0.6c0.4,0.5,0.6,1.1,0.5,1.7v0.3
		h-3.2c0,0.4,0.1,0.8,0.4,1.1c0.3,0.3,0.6,0.4,1,0.4c0.3,0,0.5-0.1,0.7-0.2c0.2-0.1,0.4-0.3,0.5-0.5l0.5,0.4
		C-1784.7-4674.7-1785.4-4674.4-1786.1-4674.4L-1786.1-4674.4z M-1786.2-4678.7c-0.3,0-0.6,0.1-0.8,0.4c-0.2,0.3-0.4,0.6-0.4,1h2.4
		v-0.1c0-0.3-0.1-0.7-0.3-1C-1785.6-4678.6-1785.9-4678.7-1786.2-4678.7L-1786.2-4678.7z M-1779.2-4675.1c0.3,0,0.5-0.1,0.8-0.3
		c0.2-0.2,0.3-0.4,0.4-0.7h0.8c0,0.3-0.1,0.6-0.3,0.8c-0.2,0.3-0.4,0.5-0.7,0.6c-0.3,0.1-0.6,0.2-0.9,0.2c-0.6,0-1.2-0.2-1.5-0.6
		c-0.4-0.5-0.6-1.1-0.6-1.8v-0.1c0-0.4,0.1-0.8,0.3-1.2c0.2-0.3,0.4-0.6,0.7-0.8c0.3-0.2,0.7-0.3,1.1-0.3c0.5,0,1,0.2,1.3,0.5
		c0.4,0.3,0.6,0.8,0.6,1.2h-0.8c0-0.3-0.1-0.6-0.3-0.8c-0.2-0.2-0.5-0.3-0.8-0.3c-0.4,0-0.7,0.1-1,0.4c-0.3,0.4-0.4,0.8-0.3,1.3v0.2
		c0,0.4,0.1,0.9,0.3,1.3C-1779.9-4675.2-1779.6-4675.1-1779.2-4675.1L-1779.2-4675.1z M-1776.6-4676.9c0-0.4,0.1-0.9,0.3-1.3
		c0.2-0.4,0.4-0.7,0.8-0.9c0.3-0.2,0.7-0.3,1.1-0.3c0.6,0,1.2,0.2,1.6,0.7c0.4,0.5,0.6,1.1,0.6,1.8v0.1c0,0.4-0.1,0.9-0.3,1.2
		c-0.2,0.4-0.4,0.7-0.8,0.9c-0.3,0.2-0.7,0.3-1.1,0.3c-0.6,0-1.2-0.2-1.6-0.7C-1776.4-4675.6-1776.6-4676.2-1776.6-4676.9
		L-1776.6-4676.9z M-1775.8-4676.8c0,0.5,0.1,0.9,0.4,1.3c0.4,0.5,1.2,0.6,1.7,0.2c0.1-0.1,0.2-0.1,0.2-0.2c0.3-0.4,0.4-0.9,0.4-1.4
		c0-0.5-0.1-0.9-0.4-1.3c-0.2-0.3-0.6-0.5-1-0.5c-0.4,0-0.7,0.2-1,0.5C-1775.7-4677.8-1775.8-4677.3-1775.8-4676.8L-1775.8-4676.8z
		 M-1770.5-4679.3l0,0.6c0.3-0.4,0.9-0.7,1.4-0.7c1,0,1.5,0.6,1.5,1.7v3.1h-0.8v-3.1c0-0.3-0.1-0.5-0.2-0.8
		c-0.2-0.2-0.5-0.3-0.7-0.2c-0.2,0-0.5,0.1-0.7,0.2c-0.2,0.1-0.4,0.3-0.5,0.6v3.4h-0.8v-4.8L-1770.5-4679.3z M-1765.2-4680.4v1.1
		h0.9v0.6h-0.9v3c0,0.2,0,0.3,0.1,0.4c0.1,0.1,0.3,0.2,0.4,0.1c0.1,0,0.3,0,0.4-0.1v0.7c-0.2,0.1-0.4,0.1-0.6,0.1
		c-0.3,0-0.6-0.1-0.8-0.3c-0.2-0.3-0.3-0.6-0.3-0.9v-2.9h-0.9v-0.6h0.9v-1.2L-1765.2-4680.4z M-1761.1-4678.5c-0.1,0-0.3,0-0.4,0
		c-0.5,0-0.9,0.2-1.1,0.7v3.4h-0.8v-4.8h0.8l0,0.5c0.2-0.4,0.7-0.6,1.1-0.6c0.1,0,0.2,0,0.4,0.1V-4678.5z M-1760.6-4676.9
		c0-0.4,0.1-0.9,0.3-1.3c0.2-0.4,0.4-0.7,0.8-0.9c0.3-0.2,0.7-0.3,1.1-0.3c0.6,0,1.2,0.2,1.6,0.7c0.4,0.5,0.6,1.1,0.6,1.8v0.1
		c0,0.4-0.1,0.9-0.3,1.2c-0.2,0.4-0.4,0.7-0.8,0.9c-0.3,0.2-0.7,0.3-1.1,0.3c-0.6,0-1.2-0.2-1.6-0.7
		C-1760.4-4675.6-1760.6-4676.2-1760.6-4676.9L-1760.6-4676.9z M-1759.8-4676.8c0,0.5,0.1,0.9,0.4,1.3c0.4,0.5,1.2,0.6,1.7,0.2
		c0.1-0.1,0.2-0.1,0.2-0.2c0.3-0.4,0.4-0.9,0.4-1.4c0-0.5-0.1-0.9-0.4-1.3c-0.2-0.3-0.6-0.5-1-0.5c-0.4,0-0.7,0.2-1,0.5
		C-1759.7-4677.8-1759.8-4677.3-1759.8-4676.8L-1759.8-4676.8z M-1754.4-4674.5h-0.8v-6.8h0.8V-4674.5z M-1823.6-4664.9
		c0-0.4,0.1-0.9,0.3-1.3c0.2-0.4,0.4-0.7,0.8-0.9c0.3-0.2,0.7-0.3,1.1-0.3c0.6,0,1.2,0.2,1.6,0.7c0.4,0.5,0.6,1.1,0.6,1.8v0.1
		c0,0.4-0.1,0.9-0.3,1.2c-0.2,0.4-0.4,0.7-0.8,0.9c-0.3,0.2-0.7,0.3-1.1,0.3c-0.6,0-1.2-0.2-1.6-0.7
		C-1823.4-4663.6-1823.6-4664.2-1823.6-4664.9L-1823.6-4664.9z M-1822.8-4664.8c0,0.5,0.1,0.9,0.4,1.3c0.4,0.5,1.2,0.6,1.7,0.2
		c0.1-0.1,0.2-0.1,0.2-0.2c0.3-0.4,0.4-0.9,0.4-1.4c0-0.5-0.1-0.9-0.4-1.3c-0.2-0.3-0.6-0.5-1-0.5c-0.4,0-0.7,0.2-1,0.5
		C-1822.7-4665.8-1822.8-4665.3-1822.8-4664.8L-1822.8-4664.8z M-1814.2-4664.8c0,0.6-0.1,1.2-0.5,1.8c-0.3,0.4-0.8,0.7-1.3,0.7
		c-0.5,0-1.1-0.2-1.4-0.6l0,0.5h-0.7v-6.8h0.8v2.5c0.3-0.4,0.8-0.6,1.4-0.6c0.5,0,1,0.2,1.4,0.7
		C-1814.4-4666.2-1814.2-4665.5-1814.2-4664.8L-1814.2-4664.8z M-1815-4664.9c0-0.5-0.1-0.9-0.3-1.3c-0.2-0.3-0.6-0.5-0.9-0.5
		c-0.5,0-1,0.3-1.2,0.7v2.1c0.2,0.5,0.7,0.8,1.2,0.7c0.4,0,0.7-0.2,0.9-0.5C-1815.1-4664-1815-4664.4-1815-4664.9L-1815-4664.9z
		 M-1812.1-4668.4v1.2h0.9v0.6h-0.9v3c0,0.2,0,0.3,0.1,0.4c0.1,0.1,0.3,0.2,0.4,0.1c0.1,0,0.3,0,0.4-0.1v0.7
		c-0.2,0.1-0.4,0.1-0.6,0.1c-0.3,0-0.6-0.1-0.8-0.3c-0.2-0.3-0.3-0.6-0.3-0.9v-2.9h-0.9v-0.6h0.9v-1.2L-1812.1-4668.4z
		 M-1808.3-4662.4c-0.6,0-1.2-0.2-1.6-0.6c-0.4-0.5-0.6-1.1-0.6-1.7v-0.2c0-0.4,0.1-0.9,0.3-1.3c0.2-0.4,0.4-0.7,0.8-0.9
		c0.3-0.2,0.7-0.3,1.1-0.3c0.5,0,1.1,0.2,1.4,0.6c0.4,0.5,0.6,1.1,0.5,1.7v0.3h-3.2c0,0.4,0.1,0.8,0.4,1.1c0.3,0.3,0.6,0.4,1,0.4
		c0.3,0,0.5-0.1,0.7-0.2c0.2-0.1,0.4-0.3,0.5-0.5l0.5,0.4C-1806.9-4662.7-1807.6-4662.4-1808.3-4662.4L-1808.3-4662.4z
		 M-1808.4-4666.7c-0.3,0-0.6,0.1-0.8,0.4c-0.2,0.3-0.4,0.6-0.4,1h2.4v-0.1c0-0.3-0.1-0.7-0.3-1
		C-1807.8-4666.6-1808.1-4666.7-1808.4-4666.7L-1808.4-4666.7z M-1804.7-4667.3l0,0.6c0.3-0.4,0.9-0.7,1.4-0.7c1,0,1.5,0.6,1.5,1.7
		v3.1h-0.8v-3.1c0-0.3-0.1-0.5-0.2-0.8c-0.2-0.2-0.5-0.3-0.7-0.2c-0.2,0-0.5,0.1-0.7,0.2c-0.2,0.1-0.4,0.3-0.5,0.6v3.4h-0.8v-4.8
		L-1804.7-4667.3z M-1799.6-4662.5h-0.8v-4.8h0.8V-4662.5z M-1800.5-4668.5c0-0.1,0-0.2,0.1-0.3c0.1-0.1,0.2-0.1,0.4-0.1
		c0.1,0,0.3,0,0.4,0.1c0.1,0.1,0.1,0.2,0.1,0.3c0,0.1,0,0.2-0.1,0.3c-0.1,0.1-0.2,0.1-0.4,0.1c-0.1,0-0.3,0-0.4-0.1
		C-1800.5-4668.3-1800.5-4668.4-1800.5-4668.5z M-1798.5-4664.9c0-0.6,0.2-1.2,0.5-1.8c0.6-0.8,1.7-0.9,2.5-0.3
		c0.1,0.1,0.1,0.1,0.2,0.2v-2.5h0.8v6.8h-0.7l0-0.5c-0.3,0.4-0.8,0.6-1.4,0.6c-0.5,0-1-0.2-1.3-0.7
		C-1798.4-4663.6-1798.6-4664.2-1798.5-4664.9L-1798.5-4664.9z M-1797.7-4664.8c0,0.4,0.1,0.9,0.3,1.3c0.2,0.3,0.6,0.5,0.9,0.5
		c0.5,0,0.9-0.3,1.1-0.7v-2.2c-0.2-0.4-0.6-0.7-1.1-0.7c-0.4,0-0.7,0.2-0.9,0.5C-1797.6-4665.8-1797.7-4665.3-1797.7-4664.8
		L-1797.7-4664.8z M-1793.5-4664.9c0-0.4,0.1-0.9,0.3-1.3c0.2-0.4,0.4-0.7,0.8-0.9c0.3-0.2,0.7-0.3,1.1-0.3c0.6,0,1.2,0.2,1.6,0.7
		c0.4,0.5,0.6,1.1,0.6,1.8v0.1c0,0.4-0.1,0.9-0.3,1.2c-0.2,0.4-0.4,0.7-0.8,0.9c-0.3,0.2-0.7,0.3-1.1,0.3c-0.6,0-1.2-0.2-1.6-0.7
		C-1793.3-4663.6-1793.5-4664.2-1793.5-4664.9L-1793.5-4664.9z M-1792.7-4664.8c0,0.5,0.1,0.9,0.4,1.3c0.4,0.5,1.2,0.6,1.7,0.2
		c0.1-0.1,0.2-0.1,0.2-0.2c0.3-0.4,0.4-0.9,0.4-1.4c0-0.5-0.1-0.9-0.4-1.3c-0.2-0.3-0.6-0.5-1-0.5c-0.4,0-0.7,0.2-1,0.5
		C-1792.6-4665.8-1792.7-4665.3-1792.7-4664.8L-1792.7-4664.8z M-1785.1-4667.3l0,0.5c0.4-0.4,0.9-0.6,1.4-0.6
		c0.6-0.1,1.1,0.2,1.4,0.8c0.2-0.2,0.4-0.4,0.6-0.6c0.3-0.1,0.6-0.2,0.9-0.2c1,0,1.6,0.6,1.6,1.7v3.2h-0.8v-3.1
		c0-0.3-0.1-0.5-0.2-0.8c-0.2-0.2-0.5-0.3-0.8-0.3c-0.3,0-0.5,0.1-0.8,0.3c-0.2,0.2-0.3,0.4-0.3,0.7v3.2h-0.8v-3.1
		c0.1-0.5-0.3-1-0.8-1c-0.1,0-0.2,0-0.3,0c-0.5,0-0.9,0.2-1.1,0.7v3.5h-0.8v-4.8L-1785.1-4667.3z M-1776-4662.4
		c-0.6,0-1.2-0.2-1.6-0.6c-0.4-0.5-0.6-1.1-0.6-1.7v-0.2c0-0.4,0.1-0.9,0.3-1.3c0.2-0.4,0.4-0.7,0.8-0.9c0.3-0.2,0.7-0.3,1.1-0.3
		c0.5,0,1.1,0.2,1.4,0.6c0.4,0.5,0.6,1.1,0.5,1.7v0.3h-3.2c0,0.4,0.1,0.8,0.4,1.1c0.3,0.3,0.6,0.4,1,0.4c0.3,0,0.5-0.1,0.7-0.2
		c0.2-0.1,0.4-0.3,0.5-0.5l0.5,0.4C-1774.6-4662.7-1775.3-4662.4-1776-4662.4L-1776-4662.4z M-1776.1-4666.7c-0.3,0-0.6,0.1-0.8,0.4
		c-0.2,0.3-0.4,0.6-0.4,1h2.4v-0.1c0-0.3-0.1-0.7-0.3-1C-1775.5-4666.6-1775.8-4666.7-1776.1-4666.7L-1776.1-4666.7z
		 M-1773.4-4664.9c0-0.6,0.2-1.2,0.5-1.8c0.6-0.8,1.7-0.9,2.5-0.3c0.1,0.1,0.1,0.1,0.2,0.2v-2.5h0.8v6.8h-0.7l0-0.5
		c-0.3,0.4-0.8,0.6-1.4,0.6c-0.5,0-1-0.2-1.3-0.7C-1773.3-4663.6-1773.5-4664.2-1773.4-4664.9L-1773.4-4664.9z M-1772.6-4664.8
		c0,0.4,0.1,0.9,0.3,1.3c0.2,0.3,0.6,0.5,0.9,0.5c0.5,0,0.9-0.3,1.1-0.7v-2.2c-0.2-0.4-0.6-0.7-1.1-0.7c-0.4,0-0.7,0.2-0.9,0.5
		C-1772.5-4665.8-1772.7-4665.3-1772.6-4664.8L-1772.6-4664.8z M-1767.3-4662.5h-0.8v-4.8h0.8V-4662.5z M-1768.2-4668.5
		c0-0.1,0-0.2,0.1-0.3c0.1-0.1,0.2-0.1,0.4-0.1c0.1,0,0.3,0,0.4,0.1c0.1,0.1,0.1,0.2,0.1,0.3c0,0.1,0,0.2-0.1,0.3
		c-0.1,0.1-0.2,0.1-0.4,0.1c-0.1,0-0.3,0-0.4-0.1C-1768.1-4668.3-1768.2-4668.4-1768.2-4668.5z M-1763-4662.5
		c-0.1-0.2-0.1-0.3-0.1-0.5c-0.3,0.4-0.8,0.6-1.4,0.6c-0.4,0-0.8-0.1-1.2-0.4c-0.3-0.3-0.5-0.6-0.4-1c0-0.5,0.2-0.9,0.6-1.2
		c0.5-0.3,1-0.4,1.6-0.4h0.8v-0.4c0-0.3-0.1-0.5-0.3-0.7c-0.2-0.2-0.5-0.3-0.8-0.3c-0.3,0-0.5,0.1-0.7,0.2c-0.2,0.1-0.3,0.3-0.3,0.5
		h-0.8c0-0.3,0.1-0.5,0.3-0.7c0.2-0.2,0.4-0.4,0.7-0.5c0.3-0.1,0.6-0.2,1-0.2c0.5,0,0.9,0.1,1.3,0.4c0.3,0.3,0.5,0.7,0.5,1.1v2.2
		c0,0.4,0,0.7,0.2,1v0.1H-1763z M-1764.4-4663.1c0.3,0,0.5-0.1,0.7-0.2c0.2-0.1,0.4-0.3,0.5-0.5v-1h-0.6c-1,0-1.5,0.3-1.5,0.9
		c0,0.2,0.1,0.5,0.3,0.6C-1764.9-4663.2-1764.6-4663.1-1764.4-4663.1z M-1760.3-4667.3l0,0.6c0.3-0.4,0.9-0.7,1.4-0.7
		c1,0,1.5,0.6,1.5,1.7v3.1h-0.8v-3.1c0-0.3-0.1-0.5-0.2-0.8c-0.2-0.2-0.5-0.3-0.7-0.2c-0.2,0-0.5,0.1-0.7,0.2
		c-0.2,0.1-0.4,0.3-0.5,0.6v3.4h-0.8v-4.8H-1760.3z M-1755-4668.4v1.2h0.9v0.6h-0.9v3c0,0.2,0,0.3,0.1,0.4c0.1,0.1,0.3,0.2,0.4,0.1
		c0.1,0,0.3,0,0.4-0.1v0.7c-0.2,0.1-0.4,0.1-0.6,0.1c-0.3,0-0.6-0.1-0.8-0.3c-0.2-0.3-0.3-0.6-0.3-0.9v-2.9h-0.9v-0.6h0.9v-1.2
		H-1755z M-1751.2-4662.4c-0.6,0-1.2-0.2-1.6-0.6c-0.4-0.5-0.6-1.1-0.6-1.7v-0.2c0-0.4,0.1-0.9,0.3-1.3c0.2-0.4,0.4-0.7,0.8-0.9
		c0.3-0.2,0.7-0.3,1.1-0.3c0.5,0,1.1,0.2,1.4,0.6c0.4,0.5,0.6,1.1,0.5,1.7v0.3h-3.2c0,0.4,0.1,0.8,0.4,1.1c0.3,0.3,0.6,0.4,1,0.4
		c0.3,0,0.5-0.1,0.7-0.2c0.2-0.1,0.4-0.3,0.5-0.5l0.5,0.4C-1749.8-4662.7-1750.5-4662.4-1751.2-4662.4L-1751.2-4662.4z
		 M-1751.3-4666.7c-0.3,0-0.6,0.1-0.8,0.4c-0.2,0.3-0.4,0.6-0.4,1h2.4v-0.1c0-0.3-0.1-0.7-0.3-1
		C-1750.7-4666.6-1751-4666.7-1751.3-4666.7L-1751.3-4666.7z M-1823.6-4651.1c0.3,0,0.5-0.1,0.8-0.3c0.2-0.2,0.3-0.4,0.4-0.7h0.8
		c0,0.3-0.1,0.6-0.3,0.8c-0.2,0.3-0.4,0.5-0.7,0.6c-0.3,0.1-0.6,0.2-0.9,0.2c-0.6,0-1.2-0.2-1.5-0.6c-0.4-0.5-0.6-1.1-0.6-1.8v-0.1
		c0-0.4,0.1-0.8,0.3-1.2c0.2-0.3,0.4-0.6,0.7-0.8c0.3-0.2,0.7-0.3,1.1-0.3c0.5,0,1,0.2,1.3,0.5c0.4,0.3,0.6,0.8,0.6,1.2h-0.8
		c0-0.3-0.1-0.6-0.3-0.8c-0.2-0.2-0.5-0.3-0.8-0.3c-0.4,0-0.7,0.1-1,0.4c-0.3,0.4-0.4,0.8-0.3,1.3v0.2c0,0.4,0.1,0.9,0.3,1.3
		C-1824.3-4651.2-1824-4651.1-1823.6-4651.1z M-1817.9-4650.5c-0.1-0.2-0.1-0.3-0.1-0.5c-0.3,0.4-0.8,0.6-1.4,0.6
		c-0.4,0-0.8-0.1-1.2-0.4c-0.3-0.3-0.5-0.6-0.5-1c0-0.5,0.2-0.9,0.6-1.2c0.5-0.3,1-0.4,1.6-0.4h0.8v-0.4c0-0.3-0.1-0.5-0.3-0.7
		c-0.2-0.2-0.5-0.3-0.8-0.2c-0.3,0-0.5,0.1-0.7,0.2c-0.2,0.1-0.3,0.3-0.3,0.5h-0.8c0-0.3,0.1-0.5,0.3-0.7c0.2-0.2,0.4-0.4,0.7-0.5
		c0.3-0.1,0.6-0.2,1-0.2c0.5,0,0.9,0.1,1.3,0.4c0.3,0.3,0.5,0.7,0.5,1.1v2.2c0,0.4,0,0.7,0.2,1v0.1H-1817.9z M-1819.2-4651.1
		c0.3,0,0.5-0.1,0.7-0.2c0.2-0.1,0.4-0.3,0.5-0.5v-1h-0.6c-1,0-1.5,0.3-1.5,0.9c0,0.2,0.1,0.5,0.3,0.6
		C-1819.7-4651.2-1819.5-4651.1-1819.2-4651.1z M-1815-4650.5h-0.8v-6.8h0.8V-4650.5z M-1811.8-4651.1c0.3,0,0.5-0.1,0.8-0.3
		c0.2-0.2,0.3-0.4,0.4-0.7h0.8c0,0.3-0.1,0.6-0.3,0.8c-0.2,0.3-0.4,0.5-0.7,0.6c-0.3,0.1-0.6,0.2-0.9,0.2c-0.6,0-1.2-0.2-1.5-0.6
		c-0.4-0.5-0.6-1.1-0.6-1.8v-0.1c0-0.4,0.1-0.8,0.3-1.2c0.2-0.3,0.4-0.6,0.7-0.8c0.3-0.2,0.7-0.3,1.1-0.3c0.5,0,1,0.2,1.3,0.5
		c0.4,0.3,0.6,0.8,0.6,1.2h-0.8c0-0.3-0.1-0.6-0.3-0.8c-0.2-0.2-0.5-0.3-0.8-0.3c-0.4,0-0.7,0.1-1,0.4c-0.3,0.4-0.4,0.8-0.3,1.3v0.2
		c0,0.4,0.1,0.9,0.3,1.3C-1812.6-4651.2-1812.2-4651.1-1811.8-4651.1L-1811.8-4651.1z M-1806.1-4651c-0.4,0.4-0.9,0.6-1.4,0.6
		c-0.4,0-0.9-0.1-1.2-0.4c-0.3-0.4-0.4-0.8-0.4-1.3v-3.1h0.8v3.1c0,0.7,0.3,1.1,0.9,1.1c0.5,0.1,1-0.2,1.2-0.7v-3.5h0.8v4.8h-0.8
		L-1806.1-4651z M-1803.2-4650.5h-0.8v-6.7h0.8V-4650.5z M-1802.1-4652.9c0-0.4,0.1-0.9,0.3-1.3c0.2-0.4,0.4-0.7,0.8-0.9
		c0.3-0.2,0.7-0.3,1.1-0.3c0.6,0,1.2,0.2,1.6,0.7c0.4,0.5,0.6,1.1,0.6,1.8v0.1c0,0.4-0.1,0.9-0.3,1.2c-0.2,0.4-0.4,0.7-0.8,0.9
		c-0.3,0.2-0.7,0.3-1.1,0.3c-0.6,0-1.2-0.2-1.6-0.7C-1801.9-4651.6-1802.1-4652.2-1802.1-4652.9L-1802.1-4652.9z M-1801.3-4652.8
		c0,0.5,0.1,0.9,0.4,1.3c0.4,0.5,1.2,0.6,1.7,0.2c0.1-0.1,0.2-0.1,0.2-0.2c0.3-0.4,0.4-0.9,0.4-1.4c0-0.5-0.1-0.9-0.4-1.3
		c-0.2-0.3-0.6-0.5-1-0.5c-0.4,0-0.7,0.2-1,0.5C-1801.2-4653.8-1801.3-4653.3-1801.3-4652.8L-1801.3-4652.8z M-1793.7-4655.3l0,0.5
		c0.4-0.4,0.9-0.6,1.4-0.6c0.6-0.1,1.1,0.2,1.4,0.8c0.2-0.2,0.4-0.4,0.6-0.6c0.3-0.1,0.6-0.2,0.9-0.2c1,0,1.6,0.6,1.6,1.7v3.2h-0.8
		v-3.1c0-0.3-0.1-0.5-0.2-0.8c-0.2-0.2-0.5-0.3-0.8-0.3c-0.3,0-0.5,0.1-0.8,0.3c-0.2,0.2-0.3,0.4-0.3,0.7v3.2h-0.8v-3.1
		c0.1-0.5-0.3-1-0.8-1c-0.1,0-0.2,0-0.3,0c-0.5,0-0.9,0.2-1.1,0.7v3.5h-0.8v-4.8L-1793.7-4655.3z M-1783.7-4650.5
		c-0.1-0.2-0.1-0.3-0.1-0.5c-0.3,0.4-0.8,0.6-1.4,0.6c-0.4,0-0.8-0.1-1.2-0.4c-0.3-0.3-0.5-0.6-0.4-1c0-0.5,0.2-0.9,0.6-1.2
		c0.5-0.3,1-0.4,1.6-0.4h0.8v-0.4c0-0.3-0.1-0.5-0.3-0.7c-0.2-0.2-0.5-0.3-0.8-0.3c-0.3,0-0.5,0.1-0.7,0.2c-0.2,0.1-0.3,0.3-0.3,0.5
		h-0.8c0-0.3,0.1-0.5,0.3-0.7c0.2-0.2,0.4-0.4,0.7-0.5c0.3-0.1,0.6-0.2,1-0.2c0.5,0,0.9,0.1,1.3,0.4c0.3,0.3,0.5,0.7,0.5,1.1v2.2
		c0,0.4,0,0.7,0.2,1v0.1H-1783.7z M-1785-4651.1c0.3,0,0.5-0.1,0.7-0.2c0.2-0.1,0.4-0.3,0.5-0.5v-1h-0.6c-1,0-1.5,0.3-1.5,0.9
		c0,0.2,0.1,0.5,0.3,0.6C-1785.5-4651.2-1785.3-4651.1-1785-4651.1z M-1780.6-4656.4v1.2h0.9v0.6h-0.9v3c0,0.2,0,0.3,0.1,0.4
		c0.1,0.1,0.3,0.2,0.4,0.1c0.1,0,0.3,0,0.4-0.1v0.7c-0.2,0.1-0.4,0.1-0.6,0.1c-0.3,0-0.6-0.1-0.8-0.3c-0.2-0.3-0.3-0.6-0.3-0.9v-2.9
		h-0.9v-0.6h0.9v-1.2L-1780.6-4656.4z M-1776.8-4650.4c-0.6,0-1.2-0.2-1.6-0.6c-0.4-0.5-0.6-1.1-0.6-1.7v-0.2c0-0.4,0.1-0.9,0.3-1.3
		c0.2-0.4,0.4-0.7,0.8-0.9c0.3-0.2,0.7-0.3,1.1-0.3c0.5,0,1.1,0.2,1.4,0.6c0.4,0.5,0.6,1.1,0.5,1.7v0.3h-3.2c0,0.4,0.1,0.8,0.4,1.1
		c0.3,0.3,0.6,0.4,1,0.4c0.3,0,0.5-0.1,0.7-0.2c0.2-0.1,0.4-0.3,0.5-0.5l0.5,0.4C-1775.4-4650.7-1776.1-4650.4-1776.8-4650.4
		L-1776.8-4650.4z M-1776.9-4654.7c-0.3,0-0.6,0.1-0.8,0.4c-0.2,0.3-0.4,0.6-0.4,1h2.4v-0.1c0-0.3-0.1-0.7-0.3-1
		C-1776.3-4654.6-1776.6-4654.7-1776.9-4654.7L-1776.9-4654.7z M-1773.3-4655.3l0,0.5c0.4-0.4,0.9-0.6,1.4-0.6
		c0.6-0.1,1.1,0.2,1.4,0.8c0.2-0.2,0.4-0.4,0.6-0.6c0.3-0.1,0.6-0.2,0.9-0.2c1,0,1.6,0.6,1.6,1.7v3.2h-0.8v-3.1
		c0-0.3-0.1-0.5-0.2-0.8c-0.2-0.2-0.5-0.3-0.8-0.3c-0.3,0-0.5,0.1-0.8,0.3c-0.2,0.2-0.3,0.4-0.3,0.7v3.2h-0.8v-3.1
		c0.1-0.5-0.3-1-0.8-1c-0.1,0-0.2,0-0.3,0c-0.5,0-0.9,0.2-1.1,0.7v3.5h-0.8v-4.8L-1773.3-4655.3z M-1763.2-4650.5
		c-0.1-0.2-0.1-0.3-0.1-0.5c-0.3,0.4-0.8,0.6-1.4,0.6c-0.4,0-0.8-0.1-1.2-0.4c-0.3-0.3-0.5-0.6-0.5-1c0-0.5,0.2-0.9,0.6-1.2
		c0.5-0.3,1-0.4,1.6-0.4h0.8v-0.4c0-0.3-0.1-0.5-0.3-0.7c-0.2-0.2-0.5-0.3-0.8-0.3c-0.3,0-0.5,0.1-0.7,0.2c-0.2,0.1-0.3,0.3-0.3,0.5
		h-0.8c0-0.3,0.1-0.5,0.3-0.7c0.2-0.2,0.4-0.4,0.7-0.5c0.3-0.1,0.6-0.2,1-0.2c0.5,0,0.9,0.1,1.3,0.4c0.3,0.3,0.5,0.7,0.5,1.1v2.2
		c0,0.4,0,0.7,0.2,1v0.1H-1763.2z M-1764.5-4651.1c0.3,0,0.5-0.1,0.7-0.2c0.2-0.1,0.4-0.3,0.5-0.5v-1h-0.6c-1,0-1.5,0.3-1.5,0.9
		c0,0.2,0.1,0.5,0.3,0.6C-1765-4651.2-1764.8-4651.1-1764.5-4651.1z M-1763.8-4657.2h1l-1.2,1.3h-0.7L-1763.8-4657.2z
		 M-1818.3-4657.2h1l-1.2,1.3h-0.7L-1818.3-4657.2z M-1760.1-4656.4v1.2h0.9v0.6h-0.9v3c0,0.2,0,0.3,0.1,0.4
		c0.1,0.1,0.3,0.2,0.4,0.1c0.1,0,0.3,0,0.4-0.1v0.7c-0.2,0.1-0.4,0.1-0.6,0.1c-0.3,0-0.6-0.1-0.8-0.3c-0.2-0.3-0.3-0.6-0.3-0.9v-2.9
		h-0.9v-0.6h0.9v-1.2L-1760.1-4656.4z M-1757.4-4650.5h-0.8v-4.8h0.8V-4650.5z M-1758.3-4656.5c0-0.1,0-0.2,0.1-0.3
		c0.1-0.1,0.2-0.1,0.4-0.1c0.1,0,0.3,0,0.4,0.1c0.1,0.1,0.1,0.2,0.1,0.3c0,0.1,0,0.2-0.1,0.3c-0.1,0.1-0.2,0.1-0.4,0.1
		c-0.1,0-0.3,0-0.4-0.1C-1758.2-4656.3-1758.3-4656.4-1758.3-4656.5L-1758.3-4656.5z M-1754.2-4651.1c0.3,0,0.5-0.1,0.8-0.3
		c0.2-0.2,0.3-0.4,0.4-0.7h0.8c0,0.3-0.1,0.6-0.3,0.8c-0.2,0.3-0.4,0.5-0.7,0.6c-0.3,0.1-0.6,0.2-0.9,0.2c-0.6,0-1.2-0.2-1.5-0.6
		c-0.4-0.5-0.6-1.1-0.6-1.8v-0.1c0-0.4,0.1-0.8,0.3-1.2c0.2-0.3,0.4-0.6,0.7-0.8c0.3-0.2,0.7-0.3,1.1-0.3c0.5,0,1,0.2,1.3,0.5
		c0.4,0.3,0.6,0.8,0.6,1.2h-0.8c0-0.3-0.1-0.6-0.3-0.8c-0.2-0.2-0.5-0.3-0.8-0.3c-0.4,0-0.7,0.1-1,0.4c-0.3,0.4-0.4,0.8-0.3,1.3v0.2
		c0,0.4,0.1,0.9,0.3,1.3C-1754.9-4651.2-1754.6-4651.1-1754.2-4651.1L-1754.2-4651.1z M-1751.6-4652.9c0-0.4,0.1-0.9,0.3-1.3
		c0.2-0.4,0.4-0.7,0.8-0.9c0.3-0.2,0.7-0.3,1.1-0.3c0.6,0,1.2,0.2,1.6,0.7c0.4,0.5,0.6,1.1,0.6,1.8v0.1c0,0.4-0.1,0.9-0.3,1.2
		c-0.2,0.4-0.4,0.7-0.8,0.9c-0.3,0.2-0.7,0.3-1.1,0.3c-0.6,0-1.2-0.2-1.6-0.7C-1751.4-4651.6-1751.6-4652.2-1751.6-4652.9
		L-1751.6-4652.9z M-1750.8-4652.8c0,0.5,0.1,0.9,0.4,1.3c0.4,0.5,1.2,0.6,1.7,0.2c0.1-0.1,0.2-0.1,0.2-0.2c0.3-0.4,0.4-0.9,0.4-1.4
		c0-0.5-0.1-0.9-0.4-1.3c-0.2-0.3-0.6-0.5-1-0.5c-0.4,0-0.7,0.2-1,0.5C-1750.7-4653.8-1750.8-4653.3-1750.8-4652.8L-1750.8-4652.8z"
		/>
	<path id="Trazado_373253" class="st1" d="M-2116.5-4816.5h61v115h-61V-4816.5z"/>
	<path id="Trazado_373297" class="st2" d="M-1816.5-4816.5h61v115h-61V-4816.5z"/>
	<path id="Trazado_373254" class="st3" d="M-2043.5-4786.5h154v25h-154V-4786.5z"/>
	<path id="Trazado_373255" class="st3" d="M-2043.5-4816.5h174v25h-174V-4816.5z"/>
	<path id="Trazado_373256" class="st3" d="M-2043.5-4756.5h132v25h-132V-4756.5z"/>
	<path id="Trazado_373257" class="st3" d="M-2043.5-4726.5h111v25h-111V-4726.5z"/>
	<path id="Trazado_373258" class="st4" d="M-1890.5-4786.5h62v25h-62V-4786.5z"/>
	<path id="Trazado_373298" class="st4" d="M-1870.5-4816.5h42v25h-42V-4816.5z"/>
	<path id="Trazado_373259" class="st4" d="M-1912.5-4756.5h84v25h-84V-4756.5z"/>
	<path id="Trazado_373260" class="st4" d="M-1933.5-4726.5h105v25h-105V-4726.5z"/>
	<path id="Trazado_373261" class="st0" d="M-2087.2-4763.2c0,0.4-0.1,0.7-0.3,1c-0.2,0.3-0.5,0.5-0.8,0.7c0.4,0.2,0.7,0.4,0.9,0.8
		c0.2,0.3,0.3,0.7,0.3,1.1c0,0.6-0.2,1.2-0.7,1.6c-0.5,0.4-1.2,0.6-1.9,0.6c-0.7,0-1.4-0.2-1.9-0.6c-0.5-0.4-0.7-1-0.7-1.6
		c0-0.4,0.1-0.8,0.3-1.1c0.2-0.3,0.5-0.6,0.9-0.8c-0.3-0.2-0.6-0.4-0.8-0.7c-0.2-0.3-0.3-0.7-0.3-1c0-0.6,0.2-1.2,0.7-1.6
		c0.5-0.4,1.2-0.6,1.8-0.6c0.7,0,1.3,0.2,1.8,0.6C-2087.4-4764.4-2087.2-4763.8-2087.2-4763.2z M-2088.6-4759.8
		c0-0.3-0.1-0.6-0.3-0.8c-0.2-0.2-0.5-0.3-0.8-0.3c-0.3,0-0.6,0.1-0.8,0.3c-0.2,0.2-0.3,0.5-0.3,0.8c0,0.3,0.1,0.6,0.3,0.8
		c0.2,0.2,0.5,0.3,0.8,0.3c0.3,0,0.6-0.1,0.8-0.3C-2088.7-4759.2-2088.6-4759.5-2088.6-4759.8z M-2088.7-4763.2
		c0-0.3-0.1-0.5-0.2-0.7c-0.2-0.2-0.4-0.3-0.7-0.3c-0.3,0-0.5,0.1-0.7,0.3c-0.2,0.2-0.3,0.5-0.2,0.7c0,0.3,0.1,0.5,0.2,0.8
		c0.2,0.2,0.4,0.3,0.7,0.3c0.3,0,0.5-0.1,0.7-0.3C-2088.8-4762.6-2088.7-4762.9-2088.7-4763.2z M-2081.4-4760.4h0.9v1.3h-0.9v1.7
		h-1.6v-1.7h-3.2l-0.1-1l3.3-5.2h1.6L-2081.4-4760.4z M-2084.7-4760.4h1.7v-2.8l-0.1,0.2L-2084.7-4760.4z"/>
	<path id="Trazado_373262" class="st0" d="M-2027.3-4804.1c0,0.8-0.4,1.5-0.9,2c-0.6,0.5-1.4,0.8-2.2,0.7c-0.9,0-1.8-0.3-2.4-1
		c-0.6-0.8-0.9-1.8-0.9-2.8v-0.5c0-0.7,0.1-1.4,0.4-2c0.2-0.5,0.6-1,1.1-1.3c0.5-0.3,1.1-0.5,1.7-0.5c0.8,0,1.6,0.2,2.2,0.7
		c0.6,0.5,0.9,1.3,1,2h-1.6c0-0.4-0.1-0.8-0.4-1.1c-0.3-0.2-0.7-0.4-1.1-0.3c-0.5,0-0.9,0.2-1.2,0.6c-0.3,0.5-0.4,1.2-0.4,1.8v0.6
		c0,0.6,0.1,1.3,0.4,1.9c0.3,0.4,0.7,0.6,1.2,0.6c0.4,0,0.8-0.1,1.1-0.3c0.3-0.3,0.4-0.7,0.4-1.1H-2027.3z M-2024.2-4801.5h-1v-3.8
		l-1.2,0.4v-0.8l2.1-0.7h0.1V-4801.5z"/>
	<path id="Trazado_373263" class="st0" d="M-2006.3-4804.1c0,0.8-0.4,1.5-0.9,2c-0.6,0.5-1.4,0.8-2.2,0.7c-0.9,0-1.8-0.3-2.4-1
		c-0.6-0.8-0.9-1.8-0.9-2.8v-0.5c0-0.7,0.1-1.4,0.4-2c0.2-0.5,0.6-1,1.1-1.3c0.5-0.3,1.1-0.5,1.7-0.5c0.8,0,1.6,0.2,2.2,0.7
		c0.6,0.5,0.9,1.3,1,2h-1.6c0-0.4-0.1-0.8-0.4-1.1c-0.3-0.2-0.7-0.4-1.1-0.3c-0.5,0-0.9,0.2-1.2,0.6c-0.3,0.5-0.4,1.2-0.4,1.8v0.6
		c0,0.6,0.1,1.3,0.4,1.9c0.3,0.4,0.7,0.6,1.2,0.6c0.4,0,0.8-0.1,1.1-0.3c0.3-0.3,0.4-0.7,0.4-1.1H-2006.3z M-2002.2-4801.5h-3.4
		v-0.7l1.6-1.7c0.2-0.2,0.3-0.4,0.5-0.6c0.1-0.2,0.2-0.3,0.2-0.5c0-0.2,0-0.4-0.2-0.5c-0.1-0.1-0.3-0.2-0.5-0.2
		c-0.2,0-0.4,0.1-0.5,0.2c-0.1,0.2-0.2,0.4-0.2,0.6h-1c0-0.3,0.1-0.6,0.2-0.8c0.1-0.3,0.4-0.5,0.6-0.6c0.3-0.1,0.6-0.2,0.9-0.2
		c0.4,0,0.9,0.1,1.2,0.4c0.3,0.3,0.4,0.6,0.4,1c0,0.3-0.1,0.5-0.2,0.8c-0.2,0.3-0.4,0.6-0.7,0.9l-1.1,1.2h2.1V-4801.5z"/>
	<path id="Trazado_373264" class="st0" d="M-1985.3-4804.1c0,0.8-0.4,1.5-0.9,2c-0.6,0.5-1.4,0.8-2.2,0.7c-0.9,0-1.8-0.3-2.4-1
		c-0.6-0.8-0.9-1.8-0.9-2.8v-0.5c0-0.7,0.1-1.4,0.4-2c0.2-0.5,0.6-1,1.1-1.3c0.5-0.3,1.1-0.5,1.7-0.5c0.8,0,1.6,0.2,2.2,0.7
		c0.6,0.5,0.9,1.3,1,2h-1.6c0-0.4-0.1-0.8-0.4-1.1c-0.3-0.2-0.7-0.4-1.1-0.3c-0.5,0-0.9,0.2-1.2,0.6c-0.3,0.5-0.4,1.2-0.4,1.8v0.6
		c0,0.6,0.1,1.3,0.4,1.9c0.3,0.4,0.7,0.6,1.2,0.6c0.4,0,0.8-0.1,1.1-0.3c0.3-0.3,0.4-0.7,0.4-1.1H-1985.3z M-1983.6-4804.4h0.5
		c0.2,0,0.4-0.1,0.6-0.2c0.1-0.1,0.2-0.3,0.2-0.5c0-0.2-0.1-0.3-0.2-0.5c-0.1-0.1-0.3-0.2-0.5-0.2c-0.2,0-0.3,0-0.5,0.2
		c-0.1,0.1-0.2,0.2-0.2,0.4h-1c0-0.2,0.1-0.5,0.2-0.7c0.1-0.2,0.4-0.4,0.6-0.5c0.3-0.1,0.5-0.2,0.8-0.2c0.4,0,0.9,0.1,1.2,0.4
		c0.3,0.3,0.5,0.6,0.4,1c0,0.2-0.1,0.4-0.2,0.6c-0.1,0.2-0.3,0.3-0.5,0.4c0.3,0.1,0.5,0.2,0.6,0.5c0.1,0.2,0.2,0.5,0.2,0.7
		c0,0.4-0.2,0.8-0.5,1.1c-0.4,0.3-0.8,0.4-1.3,0.4c-0.4,0-0.9-0.1-1.2-0.4c-0.3-0.3-0.5-0.6-0.5-1h1c0,0.2,0.1,0.3,0.2,0.5
		c0.3,0.2,0.8,0.2,1.1,0c0.1-0.1,0.2-0.3,0.2-0.5c0-0.5-0.3-0.7-0.8-0.7h-0.5L-1983.6-4804.4z"/>
	<path id="Trazado_373265" class="st0" d="M-1964.3-4804.1c0,0.8-0.4,1.5-0.9,2c-0.6,0.5-1.4,0.8-2.2,0.7c-0.9,0-1.8-0.3-2.4-1
		c-0.6-0.8-0.9-1.8-0.9-2.8v-0.5c0-0.7,0.1-1.4,0.4-2c0.2-0.5,0.6-1,1.1-1.3c0.5-0.3,1.1-0.5,1.7-0.5c0.8,0,1.6,0.2,2.2,0.7
		c0.6,0.5,0.9,1.3,1,2h-1.6c0-0.4-0.1-0.8-0.4-1.1c-0.3-0.2-0.7-0.4-1.1-0.3c-0.5,0-0.9,0.2-1.2,0.6c-0.3,0.5-0.4,1.2-0.4,1.8v0.6
		c0,0.6,0.1,1.3,0.4,1.9c0.3,0.4,0.7,0.6,1.2,0.6c0.4,0,0.8-0.1,1.1-0.3c0.3-0.3,0.4-0.7,0.4-1.1H-1964.3z M-1960.7-4803.4h0.6v0.8
		h-0.6v1.1h-1v-1.1h-2l0-0.6l2.1-3.3h1L-1960.7-4803.4z M-1962.7-4803.4h1.1v-1.8l-0.1,0.1L-1962.7-4803.4z"/>
	<path id="Trazado_373266" class="st0" d="M-1943.3-4804.1c0,0.8-0.4,1.5-0.9,2c-0.6,0.5-1.4,0.8-2.2,0.7c-0.9,0-1.8-0.3-2.4-1
		c-0.6-0.8-0.9-1.8-0.9-2.8v-0.5c0-0.7,0.1-1.4,0.4-2c0.2-0.5,0.6-1,1.1-1.3c0.5-0.3,1.1-0.5,1.7-0.5c0.8,0,1.6,0.2,2.2,0.7
		c0.6,0.5,0.9,1.3,1,2h-1.6c0-0.4-0.1-0.8-0.4-1.1c-0.3-0.2-0.7-0.4-1.1-0.3c-0.5,0-0.9,0.2-1.2,0.6c-0.3,0.5-0.4,1.2-0.4,1.8v0.6
		c0,0.6,0.1,1.3,0.4,1.9c0.3,0.4,0.7,0.6,1.2,0.6c0.4,0,0.8-0.1,1.1-0.3c0.3-0.3,0.4-0.7,0.4-1.1H-1943.3z M-1942.4-4803.9l0.3-2.5
		h2.8v0.8h-2l-0.1,1.1c0.2-0.1,0.5-0.2,0.7-0.2c0.4,0,0.8,0.1,1.1,0.4c0.3,0.3,0.4,0.8,0.4,1.2c0,0.3-0.1,0.6-0.2,0.9
		c-0.1,0.2-0.3,0.5-0.6,0.6c-0.3,0.1-0.6,0.2-0.9,0.2c-0.3,0-0.6-0.1-0.8-0.2c-0.2-0.1-0.5-0.3-0.6-0.5c-0.2-0.2-0.2-0.5-0.2-0.8h1
		c0,0.2,0.1,0.4,0.2,0.5c0.1,0.1,0.3,0.2,0.5,0.2c0.2,0,0.4-0.1,0.5-0.2c0.1-0.2,0.2-0.4,0.2-0.7c0-0.2-0.1-0.5-0.2-0.7
		c-0.2-0.2-0.4-0.2-0.6-0.2c-0.2,0-0.4,0.1-0.6,0.2l-0.1,0.1L-1942.4-4803.9z"/>
	<path id="Trazado_373267" class="st0" d="M-1922.3-4804.1c0,0.8-0.4,1.5-0.9,2c-0.6,0.5-1.4,0.8-2.2,0.7c-0.9,0-1.8-0.3-2.4-1
		c-0.6-0.8-0.9-1.8-0.9-2.8v-0.5c0-0.7,0.1-1.4,0.4-2c0.2-0.5,0.6-1,1.1-1.3c0.5-0.3,1.1-0.5,1.7-0.5c0.8,0,1.6,0.2,2.2,0.7
		c0.6,0.5,0.9,1.3,1,2h-1.6c0-0.4-0.1-0.8-0.4-1.1c-0.3-0.2-0.7-0.4-1.1-0.3c-0.5,0-0.9,0.2-1.2,0.6c-0.3,0.5-0.4,1.2-0.4,1.8v0.6
		c0,0.6,0.1,1.3,0.4,1.9c0.3,0.4,0.7,0.6,1.2,0.6c0.4,0,0.8-0.1,1.1-0.3c0.3-0.3,0.4-0.7,0.4-1.1H-1922.3z M-1918.9-4806.5v0.8h-0.1
		c-0.4,0-0.8,0.1-1.1,0.3c-0.3,0.2-0.5,0.6-0.5,0.9c0.3-0.3,0.6-0.4,1-0.4c0.4,0,0.8,0.2,1,0.5c0.3,0.3,0.4,0.8,0.4,1.2
		c0,0.3-0.1,0.6-0.2,0.9c-0.1,0.3-0.3,0.5-0.6,0.6c-0.3,0.1-0.6,0.2-0.9,0.2c-0.5,0-1-0.2-1.3-0.5c-0.3-0.4-0.5-0.9-0.5-1.5v-0.4
		c0-0.5,0.1-1,0.3-1.4c0.2-0.4,0.5-0.7,0.9-1c0.4-0.2,0.9-0.4,1.3-0.3L-1918.9-4806.5z M-1919.9-4804c-0.2,0-0.3,0-0.4,0.1
		c-0.1,0.1-0.2,0.2-0.3,0.3v0.3c0,0.3,0.1,0.5,0.2,0.8c0.1,0.2,0.3,0.3,0.5,0.3c0.2,0,0.4-0.1,0.5-0.3c0.1-0.2,0.2-0.4,0.2-0.6
		c0-0.2-0.1-0.5-0.2-0.7C-1919.5-4803.9-1919.7-4804-1919.9-4804L-1919.9-4804z"/>
	<path id="Trazado_373268" class="st0" d="M-1901.3-4804.1c0,0.8-0.4,1.5-0.9,2c-0.6,0.5-1.4,0.8-2.2,0.7c-0.9,0-1.8-0.3-2.4-1
		c-0.6-0.8-0.9-1.8-0.9-2.8v-0.5c0-0.7,0.1-1.4,0.4-2c0.2-0.5,0.6-1,1.1-1.3c0.5-0.3,1.1-0.5,1.7-0.5c0.8,0,1.6,0.2,2.2,0.7
		c0.6,0.5,0.9,1.3,1,2h-1.6c0-0.4-0.1-0.8-0.4-1.1c-0.3-0.2-0.7-0.4-1.1-0.3c-0.5,0-0.9,0.2-1.2,0.6c-0.3,0.5-0.4,1.2-0.4,1.8v0.6
		c0,0.6,0.1,1.3,0.4,1.9c0.3,0.4,0.7,0.6,1.2,0.6c0.4,0,0.8-0.1,1.1-0.3c0.3-0.3,0.4-0.7,0.4-1.1H-1901.3z M-1897.2-4805.9l-1.9,4.4
		h-1l1.9-4.2h-2.5v-0.8h3.5L-1897.2-4805.9z"/>
	<path id="Trazado_373269" class="st0" d="M-1880.3-4804.1c0,0.8-0.4,1.5-0.9,2c-0.6,0.5-1.4,0.8-2.2,0.7c-0.9,0-1.8-0.3-2.4-1
		c-0.6-0.8-0.9-1.8-0.9-2.8v-0.5c0-0.7,0.1-1.4,0.4-2c0.2-0.5,0.6-1,1.1-1.3c0.5-0.3,1.1-0.5,1.7-0.5c0.8,0,1.6,0.2,2.2,0.7
		c0.6,0.5,0.9,1.3,1,2h-1.6c0-0.4-0.1-0.8-0.4-1.1c-0.3-0.2-0.7-0.4-1.1-0.3c-0.5,0-0.9,0.2-1.2,0.6c-0.3,0.5-0.4,1.2-0.4,1.8v0.6
		c0,0.6,0.1,1.3,0.4,1.9c0.3,0.4,0.7,0.6,1.2,0.6c0.4,0,0.8-0.1,1.1-0.3c0.3-0.3,0.4-0.7,0.4-1.1H-1880.3z M-1876.3-4805.1
		c0,0.2-0.1,0.5-0.2,0.6c-0.1,0.2-0.3,0.3-0.5,0.4c0.2,0.1,0.4,0.3,0.6,0.5c0.1,0.2,0.2,0.5,0.2,0.7c0,0.4-0.1,0.8-0.5,1
		c-0.3,0.3-0.8,0.4-1.2,0.4c-0.4,0-0.9-0.1-1.2-0.4c-0.3-0.3-0.5-0.6-0.5-1c0-0.3,0.1-0.5,0.2-0.7c0.1-0.2,0.3-0.4,0.6-0.5
		c-0.2-0.1-0.4-0.3-0.5-0.4c-0.1-0.2-0.2-0.4-0.2-0.6c0-0.4,0.1-0.8,0.4-1c0.3-0.3,0.7-0.4,1.2-0.4c0.4,0,0.8,0.1,1.2,0.4
		C-1876.5-4805.9-1876.3-4805.5-1876.3-4805.1L-1876.3-4805.1z M-1877.2-4802.9c0-0.2-0.1-0.4-0.2-0.5c-0.3-0.3-0.7-0.3-1,0
		c-0.2,0.3-0.2,0.7,0,1c0.3,0.3,0.7,0.3,1,0C-1877.3-4802.6-1877.2-4802.7-1877.2-4802.9L-1877.2-4802.9z M-1877.3-4805.1
		c0-0.2,0-0.3-0.2-0.5c-0.2-0.2-0.6-0.2-0.9,0c-0.1,0.1-0.2,0.3-0.2,0.5c0,0.2,0,0.3,0.2,0.5c0.2,0.2,0.6,0.2,0.9,0c0,0,0,0,0,0
		C-1877.4-4804.8-1877.3-4804.9-1877.3-4805.1L-1877.3-4805.1z"/>
	<path id="Trazado_373299" class="st0" d="M-1861.7-4801.5h-1.6v-8.2h1.6V-4801.5z M-1858.3-4801.5h-1v-3.8l-1.2,0.4v-0.8l2.1-0.7
		h0.1V-4801.5z"/>
	<path id="Trazado_373300" class="st0" d="M-1841.7-4801.5h-1.6v-8.2h1.6V-4801.5z M-1837.3-4801.5h-3.4v-0.7l1.6-1.7
		c0.2-0.2,0.3-0.4,0.5-0.6c0.1-0.2,0.2-0.3,0.2-0.5c0-0.2,0-0.4-0.2-0.5c-0.1-0.1-0.3-0.2-0.5-0.2c-0.2,0-0.4,0.1-0.5,0.2
		c-0.1,0.2-0.2,0.4-0.2,0.6h-1c0-0.3,0.1-0.6,0.2-0.8c0.1-0.3,0.4-0.5,0.6-0.6c0.3-0.1,0.6-0.2,0.9-0.2c0.4,0,0.9,0.1,1.2,0.4
		c0.3,0.3,0.4,0.6,0.4,1c0,0.3-0.1,0.5-0.2,0.8c-0.2,0.3-0.4,0.6-0.7,0.9l-1.1,1.2h2.1V-4801.5z"/>
	<path id="Trazado_373270" class="st0" d="M-2027.3-4774.1c0,0.8-0.4,1.5-0.9,2c-0.6,0.5-1.4,0.8-2.2,0.7c-0.9,0-1.8-0.3-2.4-1
		c-0.6-0.8-0.9-1.8-0.9-2.8v-0.5c0-0.7,0.1-1.4,0.4-2c0.2-0.5,0.6-1,1.1-1.3c0.5-0.3,1.1-0.5,1.7-0.5c0.8,0,1.6,0.2,2.2,0.7
		c0.6,0.5,0.9,1.3,1,2h-1.6c0-0.4-0.1-0.8-0.4-1.1c-0.3-0.2-0.7-0.4-1.1-0.3c-0.5,0-0.9,0.2-1.2,0.6c-0.3,0.5-0.4,1.2-0.4,1.8v0.6
		c0,0.6,0.1,1.3,0.4,1.9c0.3,0.4,0.7,0.6,1.2,0.6c0.4,0,0.8-0.1,1.1-0.3c0.3-0.3,0.4-0.7,0.4-1.1H-2027.3z M-2024.2-4771.5h-1v-3.8
		l-1.2,0.4v-0.8l2.1-0.7h0.1V-4771.5z"/>
	<path id="Trazado_373271" class="st0" d="M-2027.3-4744.1c0,0.8-0.4,1.5-0.9,2c-0.6,0.5-1.4,0.8-2.2,0.7c-0.9,0-1.8-0.3-2.4-1
		c-0.6-0.8-0.9-1.8-0.9-2.8v-0.5c0-0.7,0.1-1.4,0.4-2c0.2-0.5,0.6-1,1.1-1.3c0.5-0.3,1.1-0.5,1.7-0.5c0.8,0,1.6,0.2,2.2,0.7
		c0.6,0.5,0.9,1.3,1,2h-1.6c0-0.4-0.1-0.8-0.4-1.1c-0.3-0.2-0.7-0.4-1.1-0.3c-0.5,0-0.9,0.2-1.2,0.6c-0.3,0.5-0.4,1.2-0.4,1.8v0.6
		c0,0.6,0.1,1.3,0.4,1.9c0.3,0.4,0.7,0.6,1.2,0.6c0.4,0,0.8-0.1,1.1-0.3c0.3-0.3,0.4-0.7,0.4-1.1H-2027.3z M-2024.2-4741.5h-1v-3.8
		l-1.2,0.4v-0.8l2.1-0.7h0.1V-4741.5z"/>
	<path id="Trazado_373272" class="st0" d="M-2027.3-4714.1c0,0.8-0.4,1.5-0.9,2c-0.6,0.5-1.4,0.8-2.2,0.7c-0.9,0-1.8-0.3-2.4-1
		c-0.6-0.8-0.9-1.8-0.9-2.8v-0.5c0-0.7,0.1-1.4,0.4-2c0.2-0.5,0.6-1,1.1-1.3c0.5-0.3,1.1-0.5,1.7-0.5c0.8,0,1.6,0.2,2.2,0.7
		c0.6,0.5,0.9,1.3,1,2h-1.6c0-0.4-0.1-0.8-0.4-1.1c-0.3-0.2-0.7-0.4-1.1-0.3c-0.5,0-0.9,0.2-1.2,0.6c-0.3,0.5-0.4,1.2-0.4,1.8v0.6
		c0,0.6,0.1,1.3,0.4,1.9c0.3,0.4,0.7,0.6,1.2,0.6c0.4,0,0.8-0.1,1.1-0.3c0.3-0.3,0.4-0.7,0.4-1.1H-2027.3z M-2024.2-4711.5h-1v-3.8
		l-1.2,0.4v-0.8l2.1-0.7h0.1V-4711.5z"/>
	<path id="Trazado_373273" class="st0" d="M-2006.3-4774.1c0,0.8-0.4,1.5-0.9,2c-0.6,0.5-1.4,0.8-2.2,0.7c-0.9,0-1.8-0.3-2.4-1
		c-0.6-0.8-0.9-1.8-0.9-2.8v-0.5c0-0.7,0.1-1.4,0.4-2c0.2-0.5,0.6-1,1.1-1.3c0.5-0.3,1.1-0.5,1.7-0.5c0.8,0,1.6,0.2,2.2,0.7
		c0.6,0.5,0.9,1.3,1,2h-1.6c0-0.4-0.1-0.8-0.4-1.1c-0.3-0.2-0.7-0.4-1.1-0.3c-0.5,0-0.9,0.2-1.2,0.6c-0.3,0.5-0.4,1.2-0.4,1.8v0.6
		c0,0.6,0.1,1.3,0.4,1.9c0.3,0.4,0.7,0.6,1.2,0.6c0.4,0,0.8-0.1,1.1-0.3c0.3-0.3,0.4-0.7,0.4-1.1H-2006.3z M-2002.2-4771.5h-3.4
		v-0.7l1.6-1.7c0.2-0.2,0.3-0.4,0.5-0.6c0.1-0.2,0.2-0.3,0.2-0.5c0-0.2,0-0.4-0.2-0.5c-0.1-0.1-0.3-0.2-0.5-0.2
		c-0.2,0-0.4,0.1-0.5,0.2c-0.1,0.2-0.2,0.4-0.2,0.6h-1c0-0.3,0.1-0.6,0.2-0.8c0.1-0.3,0.4-0.5,0.6-0.6c0.3-0.1,0.6-0.2,0.9-0.2
		c0.4,0,0.9,0.1,1.2,0.4c0.3,0.3,0.4,0.6,0.4,1c0,0.3-0.1,0.5-0.2,0.8c-0.2,0.3-0.4,0.6-0.7,0.9l-1.1,1.2h2.1V-4771.5z"/>
	<path id="Trazado_373274" class="st0" d="M-2006.3-4744.1c0,0.8-0.4,1.5-0.9,2c-0.6,0.5-1.4,0.8-2.2,0.7c-0.9,0-1.8-0.3-2.4-1
		c-0.6-0.8-0.9-1.8-0.9-2.8v-0.5c0-0.7,0.1-1.4,0.4-2c0.2-0.5,0.6-1,1.1-1.3c0.5-0.3,1.1-0.5,1.7-0.5c0.8,0,1.6,0.2,2.2,0.7
		c0.6,0.5,0.9,1.3,1,2h-1.6c0-0.4-0.1-0.8-0.4-1.1c-0.3-0.2-0.7-0.4-1.1-0.3c-0.5,0-0.9,0.2-1.2,0.6c-0.3,0.5-0.4,1.2-0.4,1.8v0.6
		c0,0.6,0.1,1.3,0.4,1.9c0.3,0.4,0.7,0.6,1.2,0.6c0.4,0,0.8-0.1,1.1-0.3c0.3-0.3,0.4-0.7,0.4-1.1H-2006.3z M-2002.2-4741.5h-3.4
		v-0.7l1.6-1.7c0.2-0.2,0.3-0.4,0.5-0.6c0.1-0.2,0.2-0.3,0.2-0.5c0-0.2,0-0.4-0.2-0.5c-0.1-0.1-0.3-0.2-0.5-0.2
		c-0.2,0-0.4,0.1-0.5,0.2c-0.1,0.2-0.2,0.4-0.2,0.6h-1c0-0.3,0.1-0.6,0.2-0.8c0.1-0.3,0.4-0.5,0.6-0.6c0.3-0.1,0.6-0.2,0.9-0.2
		c0.4,0,0.9,0.1,1.2,0.4c0.3,0.3,0.4,0.6,0.4,1c0,0.3-0.1,0.5-0.2,0.8c-0.2,0.3-0.4,0.6-0.7,0.9l-1.1,1.2h2.1V-4741.5z"/>
	<path id="Trazado_373275" class="st0" d="M-2006.3-4714.1c0,0.8-0.4,1.5-0.9,2c-0.6,0.5-1.4,0.8-2.2,0.7c-0.9,0-1.8-0.3-2.4-1
		c-0.6-0.8-0.9-1.8-0.9-2.8v-0.5c0-0.7,0.1-1.4,0.4-2c0.2-0.5,0.6-1,1.1-1.3c0.5-0.3,1.1-0.5,1.7-0.5c0.8,0,1.6,0.2,2.2,0.7
		c0.6,0.5,0.9,1.3,1,2h-1.6c0-0.4-0.1-0.8-0.4-1.1c-0.3-0.2-0.7-0.4-1.1-0.3c-0.5,0-0.9,0.2-1.2,0.6c-0.3,0.5-0.4,1.2-0.4,1.8v0.6
		c0,0.6,0.1,1.3,0.4,1.9c0.3,0.4,0.7,0.6,1.2,0.6c0.4,0,0.8-0.1,1.1-0.3c0.3-0.3,0.4-0.7,0.4-1.1H-2006.3z M-2002.2-4711.5h-3.4
		v-0.7l1.6-1.7c0.2-0.2,0.3-0.4,0.5-0.6c0.1-0.2,0.2-0.3,0.2-0.5c0-0.2,0-0.4-0.2-0.5c-0.1-0.1-0.3-0.2-0.5-0.2
		c-0.2,0-0.4,0.1-0.5,0.2c-0.1,0.2-0.2,0.4-0.2,0.6h-1c0-0.3,0.1-0.6,0.2-0.8c0.1-0.3,0.4-0.5,0.6-0.6c0.3-0.1,0.6-0.2,0.9-0.2
		c0.4,0,0.9,0.1,1.2,0.4c0.3,0.3,0.4,0.6,0.4,1c0,0.3-0.1,0.5-0.2,0.8c-0.2,0.3-0.4,0.6-0.7,0.9l-1.1,1.2h2.1V-4711.5z"/>
	<path id="Trazado_373276" class="st0" d="M-1985.3-4774.1c0,0.8-0.4,1.5-0.9,2c-0.6,0.5-1.4,0.8-2.2,0.7c-0.9,0-1.8-0.3-2.4-1
		c-0.6-0.8-0.9-1.8-0.9-2.8v-0.5c0-0.7,0.1-1.4,0.4-2c0.2-0.5,0.6-1,1.1-1.3c0.5-0.3,1.1-0.5,1.7-0.5c0.8,0,1.6,0.2,2.2,0.7
		c0.6,0.5,0.9,1.3,1,2h-1.6c0-0.4-0.1-0.8-0.4-1.1c-0.3-0.2-0.7-0.4-1.1-0.3c-0.5,0-0.9,0.2-1.2,0.6c-0.3,0.5-0.4,1.2-0.4,1.8v0.6
		c0,0.6,0.1,1.3,0.4,1.9c0.3,0.4,0.7,0.6,1.2,0.6c0.4,0,0.8-0.1,1.1-0.3c0.3-0.3,0.4-0.7,0.4-1.1H-1985.3z M-1983.6-4774.4h0.5
		c0.2,0,0.4-0.1,0.6-0.2c0.1-0.1,0.2-0.3,0.2-0.5c0-0.2-0.1-0.3-0.2-0.5c-0.1-0.1-0.3-0.2-0.5-0.2c-0.2,0-0.3,0-0.5,0.2
		c-0.1,0.1-0.2,0.2-0.2,0.4h-1c0-0.2,0.1-0.5,0.2-0.7c0.1-0.2,0.4-0.4,0.6-0.5c0.3-0.1,0.5-0.2,0.8-0.2c0.4,0,0.9,0.1,1.2,0.4
		c0.3,0.3,0.5,0.6,0.4,1c0,0.2-0.1,0.4-0.2,0.6c-0.1,0.2-0.3,0.3-0.5,0.4c0.3,0.1,0.5,0.2,0.6,0.5c0.1,0.2,0.2,0.5,0.2,0.7
		c0,0.4-0.2,0.8-0.5,1.1c-0.4,0.3-0.8,0.4-1.3,0.4c-0.4,0-0.9-0.1-1.2-0.4c-0.3-0.3-0.5-0.6-0.5-1h1c0,0.2,0.1,0.3,0.2,0.5
		c0.3,0.2,0.8,0.2,1.1,0c0.1-0.1,0.2-0.3,0.2-0.5c0-0.5-0.3-0.7-0.8-0.7h-0.5L-1983.6-4774.4z"/>
	<path id="Trazado_373277" class="st0" d="M-1985.3-4744.1c0,0.8-0.4,1.5-0.9,2c-0.6,0.5-1.4,0.8-2.2,0.7c-0.9,0-1.8-0.3-2.4-1
		c-0.6-0.8-0.9-1.8-0.9-2.8v-0.5c0-0.7,0.1-1.4,0.4-2c0.2-0.5,0.6-1,1.1-1.3c0.5-0.3,1.1-0.5,1.7-0.5c0.8,0,1.6,0.2,2.2,0.7
		c0.6,0.5,0.9,1.3,1,2h-1.6c0-0.4-0.1-0.8-0.4-1.1c-0.3-0.2-0.7-0.4-1.1-0.3c-0.5,0-0.9,0.2-1.2,0.6c-0.3,0.5-0.4,1.2-0.4,1.8v0.6
		c0,0.6,0.1,1.3,0.4,1.9c0.3,0.4,0.7,0.6,1.2,0.6c0.4,0,0.8-0.1,1.1-0.3c0.3-0.3,0.4-0.7,0.4-1.1H-1985.3z M-1983.6-4744.4h0.5
		c0.2,0,0.4-0.1,0.6-0.2c0.1-0.1,0.2-0.3,0.2-0.5c0-0.2-0.1-0.3-0.2-0.5c-0.1-0.1-0.3-0.2-0.5-0.2c-0.2,0-0.3,0-0.5,0.2
		c-0.1,0.1-0.2,0.2-0.2,0.4h-1c0-0.2,0.1-0.5,0.2-0.7c0.1-0.2,0.4-0.4,0.6-0.5c0.3-0.1,0.5-0.2,0.8-0.2c0.4,0,0.9,0.1,1.2,0.4
		c0.3,0.3,0.5,0.6,0.4,1c0,0.2-0.1,0.4-0.2,0.6c-0.1,0.2-0.3,0.3-0.5,0.4c0.3,0.1,0.5,0.2,0.6,0.5c0.1,0.2,0.2,0.5,0.2,0.7
		c0,0.4-0.2,0.8-0.5,1.1c-0.4,0.3-0.8,0.4-1.3,0.4c-0.4,0-0.9-0.1-1.2-0.4c-0.3-0.3-0.5-0.6-0.5-1h1c0,0.2,0.1,0.3,0.2,0.5
		c0.3,0.2,0.8,0.2,1.1,0c0.1-0.1,0.2-0.3,0.2-0.5c0-0.5-0.3-0.7-0.8-0.7h-0.5L-1983.6-4744.4z"/>
	<path id="Trazado_373278" class="st0" d="M-1985.3-4714.1c0,0.8-0.4,1.5-0.9,2c-0.6,0.5-1.4,0.8-2.2,0.7c-0.9,0-1.8-0.3-2.4-1
		c-0.6-0.8-0.9-1.8-0.9-2.8v-0.5c0-0.7,0.1-1.4,0.4-2c0.2-0.5,0.6-1,1.1-1.3c0.5-0.3,1.1-0.5,1.7-0.5c0.8,0,1.6,0.2,2.2,0.7
		c0.6,0.5,0.9,1.3,1,2h-1.6c0-0.4-0.1-0.8-0.4-1.1c-0.3-0.2-0.7-0.4-1.1-0.3c-0.5,0-0.9,0.2-1.2,0.6c-0.3,0.5-0.4,1.2-0.4,1.8v0.6
		c0,0.6,0.1,1.3,0.4,1.9c0.3,0.4,0.7,0.6,1.2,0.6c0.4,0,0.8-0.1,1.1-0.3c0.3-0.3,0.4-0.7,0.4-1.1H-1985.3z M-1983.6-4714.4h0.5
		c0.2,0,0.4-0.1,0.6-0.2c0.1-0.1,0.2-0.3,0.2-0.5c0-0.2-0.1-0.3-0.2-0.5c-0.1-0.1-0.3-0.2-0.5-0.2c-0.2,0-0.3,0-0.5,0.2
		c-0.1,0.1-0.2,0.2-0.2,0.4h-1c0-0.2,0.1-0.5,0.2-0.7c0.1-0.2,0.4-0.4,0.6-0.5c0.3-0.1,0.5-0.2,0.8-0.2c0.4,0,0.9,0.1,1.2,0.4
		c0.3,0.3,0.5,0.6,0.4,1c0,0.2-0.1,0.4-0.2,0.6c-0.1,0.2-0.3,0.3-0.5,0.4c0.3,0.1,0.5,0.2,0.6,0.5c0.1,0.2,0.2,0.5,0.2,0.7
		c0,0.4-0.2,0.8-0.5,1.1c-0.4,0.3-0.8,0.4-1.3,0.4c-0.4,0-0.9-0.1-1.2-0.4c-0.3-0.3-0.5-0.6-0.5-1h1c0,0.2,0.1,0.3,0.2,0.5
		c0.3,0.2,0.8,0.2,1.1,0c0.1-0.1,0.2-0.3,0.2-0.5c0-0.5-0.3-0.7-0.8-0.7h-0.5L-1983.6-4714.4z"/>
	<path id="Trazado_373279" class="st0" d="M-1964.3-4774.1c0,0.8-0.4,1.5-0.9,2c-0.6,0.5-1.4,0.8-2.2,0.7c-0.9,0-1.8-0.3-2.4-1
		c-0.6-0.8-0.9-1.8-0.9-2.8v-0.5c0-0.7,0.1-1.4,0.4-2c0.2-0.5,0.6-1,1.1-1.3c0.5-0.3,1.1-0.5,1.7-0.5c0.8,0,1.6,0.2,2.2,0.7
		c0.6,0.5,0.9,1.3,1,2h-1.6c0-0.4-0.1-0.8-0.4-1.1c-0.3-0.2-0.7-0.4-1.1-0.3c-0.5,0-0.9,0.2-1.2,0.6c-0.3,0.5-0.4,1.2-0.4,1.8v0.6
		c0,0.6,0.1,1.3,0.4,1.9c0.3,0.4,0.7,0.6,1.2,0.6c0.4,0,0.8-0.1,1.1-0.3c0.3-0.3,0.4-0.7,0.4-1.1H-1964.3z M-1960.7-4773.4h0.6v0.8
		h-0.6v1.1h-1v-1.1h-2l0-0.6l2.1-3.3h1L-1960.7-4773.4z M-1962.7-4773.4h1.1v-1.8l-0.1,0.1L-1962.7-4773.4z"/>
	<path id="Trazado_373280" class="st0" d="M-1964.3-4744.1c0,0.8-0.4,1.5-0.9,2c-0.6,0.5-1.4,0.8-2.2,0.7c-0.9,0-1.8-0.3-2.4-1
		c-0.6-0.8-0.9-1.8-0.9-2.8v-0.5c0-0.7,0.1-1.4,0.4-2c0.2-0.5,0.6-1,1.1-1.3c0.5-0.3,1.1-0.5,1.7-0.5c0.8,0,1.6,0.2,2.2,0.7
		c0.6,0.5,0.9,1.3,1,2h-1.6c0-0.4-0.1-0.8-0.4-1.1c-0.3-0.2-0.7-0.4-1.1-0.3c-0.5,0-0.9,0.2-1.2,0.6c-0.3,0.5-0.4,1.2-0.4,1.8v0.6
		c0,0.6,0.1,1.3,0.4,1.9c0.3,0.4,0.7,0.6,1.2,0.6c0.4,0,0.8-0.1,1.1-0.3c0.3-0.3,0.4-0.7,0.4-1.1H-1964.3z M-1960.7-4743.4h0.6v0.8
		h-0.6v1.1h-1v-1.1h-2l0-0.6l2.1-3.3h1L-1960.7-4743.4z M-1962.7-4743.4h1.1v-1.8l-0.1,0.1L-1962.7-4743.4z"/>
	<path id="Trazado_373281" class="st0" d="M-1964.3-4714.1c0,0.8-0.4,1.5-0.9,2c-0.6,0.5-1.4,0.8-2.2,0.7c-0.9,0-1.8-0.3-2.4-1
		c-0.6-0.8-0.9-1.8-0.9-2.8v-0.5c0-0.7,0.1-1.4,0.4-2c0.2-0.5,0.6-1,1.1-1.3c0.5-0.3,1.1-0.5,1.7-0.5c0.8,0,1.6,0.2,2.2,0.7
		c0.6,0.5,0.9,1.3,1,2h-1.6c0-0.4-0.1-0.8-0.4-1.1c-0.3-0.2-0.7-0.4-1.1-0.3c-0.5,0-0.9,0.2-1.2,0.6c-0.3,0.5-0.4,1.2-0.4,1.8v0.6
		c0,0.6,0.1,1.3,0.4,1.9c0.3,0.4,0.7,0.6,1.2,0.6c0.4,0,0.8-0.1,1.1-0.3c0.3-0.3,0.4-0.7,0.4-1.1H-1964.3z M-1960.7-4713.4h0.6v0.8
		h-0.6v1.1h-1v-1.1h-2l0-0.6l2.1-3.3h1L-1960.7-4713.4z M-1962.7-4713.4h1.1v-1.8l-0.1,0.1L-1962.7-4713.4z"/>
	<path id="Trazado_373282" class="st0" d="M-1943.3-4774.1c0,0.8-0.4,1.5-0.9,2c-0.6,0.5-1.4,0.8-2.2,0.7c-0.9,0-1.8-0.3-2.4-1
		c-0.6-0.8-0.9-1.8-0.9-2.8v-0.5c0-0.7,0.1-1.4,0.4-2c0.2-0.5,0.6-1,1.1-1.3c0.5-0.3,1.1-0.5,1.7-0.5c0.8,0,1.6,0.2,2.2,0.7
		c0.6,0.5,0.9,1.3,1,2h-1.6c0-0.4-0.1-0.8-0.4-1.1c-0.3-0.2-0.7-0.4-1.1-0.3c-0.5,0-0.9,0.2-1.2,0.6c-0.3,0.5-0.4,1.2-0.4,1.8v0.6
		c0,0.6,0.1,1.3,0.4,1.9c0.3,0.4,0.7,0.6,1.2,0.6c0.4,0,0.8-0.1,1.1-0.3c0.3-0.3,0.4-0.7,0.4-1.1H-1943.3z M-1942.4-4773.9l0.3-2.5
		h2.8v0.8h-2l-0.1,1.1c0.2-0.1,0.5-0.2,0.7-0.2c0.4,0,0.8,0.1,1.1,0.4c0.3,0.3,0.4,0.8,0.4,1.2c0,0.3-0.1,0.6-0.2,0.9
		c-0.1,0.2-0.3,0.5-0.6,0.6c-0.3,0.1-0.6,0.2-0.9,0.2c-0.3,0-0.6-0.1-0.8-0.2c-0.2-0.1-0.5-0.3-0.6-0.5c-0.2-0.2-0.2-0.5-0.2-0.8h1
		c0,0.2,0.1,0.4,0.2,0.5c0.1,0.1,0.3,0.2,0.5,0.2c0.2,0,0.4-0.1,0.5-0.2c0.1-0.2,0.2-0.4,0.2-0.7c0-0.2-0.1-0.5-0.2-0.7
		c-0.2-0.2-0.4-0.2-0.6-0.2c-0.2,0-0.4,0.1-0.6,0.2l-0.1,0.1L-1942.4-4773.9z"/>
	<path id="Trazado_373283" class="st0" d="M-1943.3-4744.1c0,0.8-0.4,1.5-0.9,2c-0.6,0.5-1.4,0.8-2.2,0.7c-0.9,0-1.8-0.3-2.4-1
		c-0.6-0.8-0.9-1.8-0.9-2.8v-0.5c0-0.7,0.1-1.4,0.4-2c0.2-0.5,0.6-1,1.1-1.3c0.5-0.3,1.1-0.5,1.7-0.5c0.8,0,1.6,0.2,2.2,0.7
		c0.6,0.5,0.9,1.3,1,2h-1.6c0-0.4-0.1-0.8-0.4-1.1c-0.3-0.2-0.7-0.4-1.1-0.3c-0.5,0-0.9,0.2-1.2,0.6c-0.3,0.5-0.4,1.2-0.4,1.8v0.6
		c0,0.6,0.1,1.3,0.4,1.9c0.3,0.4,0.7,0.6,1.2,0.6c0.4,0,0.8-0.1,1.1-0.3c0.3-0.3,0.4-0.7,0.4-1.1H-1943.3z M-1942.4-4743.9l0.3-2.5
		h2.8v0.8h-2l-0.1,1.1c0.2-0.1,0.5-0.2,0.7-0.2c0.4,0,0.8,0.1,1.1,0.4c0.3,0.3,0.4,0.8,0.4,1.2c0,0.3-0.1,0.6-0.2,0.9
		c-0.1,0.2-0.3,0.5-0.6,0.6c-0.3,0.1-0.6,0.2-0.9,0.2c-0.3,0-0.6-0.1-0.8-0.2c-0.2-0.1-0.5-0.3-0.6-0.5c-0.2-0.2-0.2-0.5-0.2-0.8h1
		c0,0.2,0.1,0.4,0.2,0.5c0.1,0.1,0.3,0.2,0.5,0.2c0.2,0,0.4-0.1,0.5-0.2c0.1-0.2,0.2-0.4,0.2-0.7c0-0.2-0.1-0.5-0.2-0.7
		c-0.2-0.2-0.4-0.2-0.6-0.2c-0.2,0-0.4,0.1-0.6,0.2l-0.1,0.1L-1942.4-4743.9z"/>
	<path id="Trazado_373284" class="st0" d="M-1943.3-4714.1c0,0.8-0.4,1.5-0.9,2c-0.6,0.5-1.4,0.8-2.2,0.7c-0.9,0-1.8-0.3-2.4-1
		c-0.6-0.8-0.9-1.8-0.9-2.8v-0.5c0-0.7,0.1-1.4,0.4-2c0.2-0.5,0.6-1,1.1-1.3c0.5-0.3,1.1-0.5,1.7-0.5c0.8,0,1.6,0.2,2.2,0.7
		c0.6,0.5,0.9,1.3,1,2h-1.6c0-0.4-0.1-0.8-0.4-1.1c-0.3-0.2-0.7-0.4-1.1-0.3c-0.5,0-0.9,0.2-1.2,0.6c-0.3,0.5-0.4,1.2-0.4,1.8v0.6
		c0,0.6,0.1,1.3,0.4,1.9c0.3,0.4,0.7,0.6,1.2,0.6c0.4,0,0.8-0.1,1.1-0.3c0.3-0.3,0.4-0.7,0.4-1.1H-1943.3z M-1942.4-4713.9l0.3-2.5
		h2.8v0.8h-2l-0.1,1.1c0.2-0.1,0.5-0.2,0.7-0.2c0.4,0,0.8,0.1,1.1,0.4c0.3,0.3,0.4,0.8,0.4,1.2c0,0.3-0.1,0.6-0.2,0.9
		c-0.1,0.2-0.3,0.5-0.6,0.6c-0.3,0.1-0.6,0.2-0.9,0.2c-0.3,0-0.6-0.1-0.8-0.2c-0.2-0.1-0.5-0.3-0.6-0.5c-0.2-0.2-0.2-0.5-0.2-0.8h1
		c0,0.2,0.1,0.4,0.2,0.5c0.1,0.1,0.3,0.2,0.5,0.2c0.2,0,0.4-0.1,0.5-0.2c0.1-0.2,0.2-0.4,0.2-0.7c0-0.2-0.1-0.5-0.2-0.7
		c-0.2-0.2-0.4-0.2-0.6-0.2c-0.2,0-0.4,0.1-0.6,0.2l-0.1,0.1L-1942.4-4713.9z"/>
	<path id="Trazado_373285" class="st0" d="M-1922.3-4774.1c0,0.8-0.4,1.5-0.9,2c-0.6,0.5-1.4,0.8-2.2,0.7c-0.9,0-1.8-0.3-2.4-1
		c-0.6-0.8-0.9-1.8-0.9-2.8v-0.5c0-0.7,0.1-1.4,0.4-2c0.2-0.5,0.6-1,1.1-1.3c0.5-0.3,1.1-0.5,1.7-0.5c0.8,0,1.6,0.2,2.2,0.7
		c0.6,0.5,0.9,1.3,1,2h-1.6c0-0.4-0.1-0.8-0.4-1.1c-0.3-0.2-0.7-0.4-1.1-0.3c-0.5,0-0.9,0.2-1.2,0.6c-0.3,0.5-0.4,1.2-0.4,1.8v0.6
		c0,0.6,0.1,1.3,0.4,1.9c0.3,0.4,0.7,0.6,1.2,0.6c0.4,0,0.8-0.1,1.1-0.3c0.3-0.3,0.4-0.7,0.4-1.1H-1922.3z M-1918.9-4776.5v0.8h-0.1
		c-0.4,0-0.8,0.1-1.1,0.3c-0.3,0.2-0.5,0.6-0.5,0.9c0.3-0.3,0.6-0.4,1-0.4c0.4,0,0.8,0.2,1,0.5c0.3,0.3,0.4,0.8,0.4,1.2
		c0,0.3-0.1,0.6-0.2,0.9c-0.1,0.3-0.3,0.5-0.6,0.6c-0.3,0.1-0.6,0.2-0.9,0.2c-0.5,0-1-0.2-1.3-0.5c-0.3-0.4-0.5-0.9-0.5-1.5v-0.4
		c0-0.5,0.1-1,0.3-1.4c0.2-0.4,0.5-0.7,0.9-1c0.4-0.2,0.9-0.4,1.3-0.3L-1918.9-4776.5z M-1919.9-4774c-0.2,0-0.3,0-0.4,0.1
		c-0.1,0.1-0.2,0.2-0.3,0.3v0.3c0,0.3,0.1,0.5,0.2,0.8c0.1,0.2,0.3,0.3,0.5,0.3c0.2,0,0.4-0.1,0.5-0.3c0.1-0.2,0.2-0.4,0.2-0.6
		c0-0.2-0.1-0.5-0.2-0.7C-1919.5-4773.9-1919.7-4774-1919.9-4774L-1919.9-4774z"/>
	<path id="Trazado_373286" class="st0" d="M-1922.3-4744.1c0,0.8-0.4,1.5-0.9,2c-0.6,0.5-1.4,0.8-2.2,0.7c-0.9,0-1.8-0.3-2.4-1
		c-0.6-0.8-0.9-1.8-0.9-2.8v-0.5c0-0.7,0.1-1.4,0.4-2c0.2-0.5,0.6-1,1.1-1.3c0.5-0.3,1.1-0.5,1.7-0.5c0.8,0,1.6,0.2,2.2,0.7
		c0.6,0.5,0.9,1.3,1,2h-1.6c0-0.4-0.1-0.8-0.4-1.1c-0.3-0.2-0.7-0.4-1.1-0.3c-0.5,0-0.9,0.2-1.2,0.6c-0.3,0.5-0.4,1.2-0.4,1.8v0.6
		c0,0.6,0.1,1.3,0.4,1.9c0.3,0.4,0.7,0.6,1.2,0.6c0.4,0,0.8-0.1,1.1-0.3c0.3-0.3,0.4-0.7,0.4-1.1H-1922.3z M-1918.9-4746.5v0.8h-0.1
		c-0.4,0-0.8,0.1-1.1,0.3c-0.3,0.2-0.5,0.6-0.5,0.9c0.3-0.3,0.6-0.4,1-0.4c0.4,0,0.8,0.2,1,0.5c0.3,0.3,0.4,0.8,0.4,1.2
		c0,0.3-0.1,0.6-0.2,0.9c-0.1,0.3-0.3,0.5-0.6,0.6c-0.3,0.1-0.6,0.2-0.9,0.2c-0.5,0-1-0.2-1.3-0.5c-0.3-0.4-0.5-0.9-0.5-1.5v-0.4
		c0-0.5,0.1-1,0.3-1.4c0.2-0.4,0.5-0.7,0.9-1c0.4-0.2,0.9-0.4,1.3-0.3L-1918.9-4746.5z M-1919.9-4744c-0.2,0-0.3,0-0.4,0.1
		c-0.1,0.1-0.2,0.2-0.3,0.3v0.3c0,0.3,0.1,0.5,0.2,0.8c0.1,0.2,0.3,0.3,0.5,0.3c0.2,0,0.4-0.1,0.5-0.3c0.1-0.2,0.2-0.4,0.2-0.6
		c0-0.2-0.1-0.5-0.2-0.7C-1919.5-4743.9-1919.7-4744-1919.9-4744L-1919.9-4744z"/>
	<path id="Trazado_373287" class="st0" d="M-1901.3-4774.1c0,0.8-0.4,1.5-0.9,2c-0.6,0.5-1.4,0.8-2.2,0.7c-0.9,0-1.8-0.3-2.4-1
		c-0.6-0.8-0.9-1.8-0.9-2.8v-0.5c0-0.7,0.1-1.4,0.4-2c0.2-0.5,0.6-1,1.1-1.3c0.5-0.3,1.1-0.5,1.7-0.5c0.8,0,1.6,0.2,2.2,0.7
		c0.6,0.5,0.9,1.3,1,2h-1.6c0-0.4-0.1-0.8-0.4-1.1c-0.3-0.2-0.7-0.4-1.1-0.3c-0.5,0-0.9,0.2-1.2,0.6c-0.3,0.5-0.4,1.2-0.4,1.8v0.6
		c0,0.6,0.1,1.3,0.4,1.9c0.3,0.4,0.7,0.6,1.2,0.6c0.4,0,0.8-0.1,1.1-0.3c0.3-0.3,0.4-0.7,0.4-1.1H-1901.3z M-1897.2-4775.9l-1.9,4.4
		h-1l1.9-4.2h-2.5v-0.8h3.5L-1897.2-4775.9z"/>
	<path id="Trazado_373288" class="st0" d="M-1882.7-4771.5h-1.6v-8.2h1.6V-4771.5z M-1879.3-4771.5h-1v-3.8l-1.2,0.4v-0.8l2.1-0.7
		h0.1V-4771.5z"/>
	<path id="Trazado_373289" class="st0" d="M-1903.7-4740.5h-1.6v-8.2h1.6V-4740.5z M-1900.3-4740.5h-1v-3.8l-1.2,0.4v-0.8l2.1-0.7
		h0.1V-4740.5z"/>
	<path id="Trazado_373290" class="st0" d="M-1925.7-4711.5h-1.6v-8.2h1.6V-4711.5z M-1922.3-4711.5h-1v-3.8l-1.2,0.4v-0.8l2.1-0.7
		h0.1V-4711.5z"/>
	<path id="Trazado_373301" class="st0" d="M-1861.7-4771.5h-1.6v-8.2h1.6V-4771.5z M-1857.3-4771.5h-3.4v-0.7l1.6-1.7
		c0.2-0.2,0.3-0.4,0.5-0.6c0.1-0.2,0.2-0.3,0.2-0.5c0-0.2,0-0.4-0.2-0.5c-0.1-0.1-0.3-0.2-0.5-0.2c-0.2,0-0.4,0.1-0.5,0.2
		c-0.1,0.2-0.2,0.4-0.2,0.6h-1c0-0.3,0.1-0.6,0.2-0.8c0.1-0.3,0.4-0.5,0.6-0.6c0.3-0.1,0.6-0.2,0.9-0.2c0.4,0,0.9,0.1,1.2,0.4
		c0.3,0.3,0.4,0.6,0.4,1c0,0.3-0.1,0.5-0.2,0.8c-0.2,0.3-0.4,0.6-0.7,0.9l-1.1,1.2h2.1V-4771.5z"/>
	<path id="Trazado_373291" class="st0" d="M-1882.7-4740.5h-1.6v-8.2h1.6V-4740.5z M-1878.3-4740.5h-3.4v-0.7l1.6-1.7
		c0.2-0.2,0.3-0.4,0.5-0.6c0.1-0.2,0.2-0.3,0.2-0.5c0-0.2,0-0.4-0.2-0.5c-0.1-0.1-0.3-0.2-0.5-0.2c-0.2,0-0.4,0.1-0.5,0.2
		c-0.1,0.2-0.2,0.4-0.2,0.6h-1c0-0.3,0.1-0.6,0.2-0.8c0.1-0.3,0.4-0.5,0.6-0.6c0.3-0.1,0.6-0.2,0.9-0.2c0.4,0,0.9,0.1,1.2,0.4
		c0.3,0.3,0.4,0.6,0.4,1c0,0.3-0.1,0.5-0.2,0.8c-0.2,0.3-0.4,0.6-0.7,0.9l-1.1,1.2h2.1V-4740.5z"/>
	<path id="Trazado_373292" class="st0" d="M-1904.7-4711.5h-1.6v-8.2h1.6V-4711.5z M-1900.3-4711.5h-3.4v-0.7l1.6-1.7
		c0.2-0.2,0.3-0.4,0.5-0.6c0.1-0.2,0.2-0.3,0.2-0.5c0-0.2,0-0.4-0.2-0.5c-0.1-0.1-0.3-0.2-0.5-0.2c-0.2,0-0.4,0.1-0.5,0.2
		c-0.1,0.2-0.2,0.4-0.2,0.6h-1c0-0.3,0.1-0.6,0.2-0.8c0.1-0.3,0.4-0.5,0.6-0.6c0.3-0.1,0.6-0.2,0.9-0.2c0.4,0,0.9,0.1,1.2,0.4
		c0.3,0.3,0.4,0.6,0.4,1c0,0.3-0.1,0.5-0.2,0.8c-0.2,0.3-0.4,0.6-0.7,0.9l-1.1,1.2h2.1V-4711.5z"/>
	<path id="Trazado_373302" class="st0" d="M-1841.7-4771.5h-1.6v-8.2h1.6V-4771.5z M-1839.7-4774.4h0.5c0.2,0,0.4-0.1,0.6-0.2
		c0.1-0.1,0.2-0.3,0.2-0.5c0-0.2-0.1-0.3-0.2-0.5c-0.1-0.1-0.3-0.2-0.5-0.2c-0.2,0-0.3,0-0.5,0.2c-0.1,0.1-0.2,0.2-0.2,0.4h-1
		c0-0.2,0.1-0.5,0.2-0.7c0.1-0.2,0.4-0.4,0.6-0.5c0.3-0.1,0.5-0.2,0.8-0.2c0.4,0,0.9,0.1,1.2,0.4c0.3,0.3,0.5,0.6,0.4,1
		c0,0.2-0.1,0.4-0.2,0.6c-0.1,0.2-0.3,0.3-0.5,0.4c0.3,0.1,0.5,0.2,0.6,0.5c0.1,0.2,0.2,0.5,0.2,0.7c0,0.4-0.2,0.8-0.5,1.1
		c-0.4,0.3-0.8,0.4-1.3,0.4c-0.4,0-0.9-0.1-1.2-0.4c-0.3-0.3-0.5-0.6-0.5-1h1c0,0.2,0.1,0.3,0.2,0.5c0.3,0.2,0.8,0.2,1.1,0
		c0.1-0.1,0.2-0.3,0.2-0.5c0-0.5-0.3-0.7-0.8-0.7h-0.5V-4774.4z"/>
	<path id="Trazado_373303" class="st0" d="M-1862.7-4740.5h-1.6v-8.2h1.6V-4740.5z M-1860.7-4743.4h0.5c0.2,0,0.4-0.1,0.6-0.2
		c0.1-0.1,0.2-0.3,0.2-0.5c0-0.2-0.1-0.3-0.2-0.5c-0.1-0.1-0.3-0.2-0.5-0.2c-0.2,0-0.3,0-0.5,0.2c-0.1,0.1-0.2,0.2-0.2,0.4h-1
		c0-0.2,0.1-0.5,0.2-0.7c0.1-0.2,0.4-0.4,0.6-0.5c0.3-0.1,0.5-0.2,0.8-0.2c0.4,0,0.9,0.1,1.2,0.4c0.3,0.3,0.5,0.6,0.4,1
		c0,0.2-0.1,0.4-0.2,0.6c-0.1,0.2-0.3,0.3-0.5,0.4c0.3,0.1,0.5,0.2,0.6,0.5c0.1,0.2,0.2,0.5,0.2,0.7c0,0.4-0.2,0.8-0.5,1.1
		c-0.4,0.3-0.8,0.4-1.3,0.4c-0.4,0-0.9-0.1-1.2-0.4c-0.3-0.3-0.5-0.6-0.5-1h1c0,0.2,0.1,0.3,0.2,0.5c0.3,0.2,0.8,0.2,1.1,0
		c0.1-0.1,0.2-0.3,0.2-0.5c0-0.5-0.3-0.7-0.8-0.7h-0.5V-4743.4z"/>
	<path id="Trazado_373293" class="st0" d="M-1884.7-4711.5h-1.6v-8.2h1.6V-4711.5z M-1882.7-4714.4h0.5c0.2,0,0.4-0.1,0.6-0.2
		c0.1-0.1,0.2-0.3,0.2-0.5c0-0.2-0.1-0.3-0.2-0.5c-0.1-0.1-0.3-0.2-0.5-0.2c-0.2,0-0.3,0-0.5,0.2c-0.1,0.1-0.2,0.2-0.2,0.4h-1
		c0-0.2,0.1-0.5,0.2-0.7c0.1-0.2,0.4-0.4,0.6-0.5c0.3-0.1,0.5-0.2,0.8-0.2c0.4,0,0.9,0.1,1.2,0.4c0.3,0.3,0.5,0.6,0.4,1
		c0,0.2-0.1,0.4-0.2,0.6c-0.1,0.2-0.3,0.3-0.5,0.4c0.3,0.1,0.5,0.2,0.6,0.5c0.1,0.2,0.2,0.5,0.2,0.7c0,0.4-0.2,0.8-0.5,1.1
		c-0.4,0.3-0.8,0.4-1.3,0.4c-0.4,0-0.9-0.1-1.2-0.4c-0.3-0.3-0.5-0.6-0.5-1h1c0,0.2,0.1,0.3,0.2,0.5c0.3,0.2,0.8,0.2,1.1,0
		c0.1-0.1,0.2-0.3,0.2-0.5c0-0.5-0.3-0.7-0.8-0.7h-0.5V-4714.4z"/>
	<path id="Trazado_373304" class="st0" d="M-1840.7-4740.5h-1.6v-8.2h1.6V-4740.5z M-1836.8-4742.4h0.6v0.8h-0.6v1.1h-1v-1.1h-2
		l0-0.6l2.1-3.3h1L-1836.8-4742.4z M-1838.9-4742.4h1.1v-1.8l-0.1,0.1L-1838.9-4742.4z"/>
	<path id="Trazado_373305" class="st0" d="M-1862.7-4711.5h-1.6v-8.2h1.6V-4711.5z M-1858.8-4713.4h0.6v0.8h-0.6v1.1h-1v-1.1h-2
		l0-0.6l2.1-3.3h1L-1858.8-4713.4z M-1860.9-4713.4h1.1v-1.8l-0.1,0.1L-1860.9-4713.4z"/>
	<path id="Trazado_373306" class="st0" d="M-1841.7-4711.5h-1.6v-8.2h1.6V-4711.5z M-1840.6-4713.9l0.3-2.5h2.8v0.8h-2l-0.1,1.1
		c0.2-0.1,0.5-0.2,0.7-0.2c0.4,0,0.8,0.1,1.1,0.4c0.3,0.3,0.4,0.8,0.4,1.2c0,0.3-0.1,0.6-0.2,0.9c-0.1,0.2-0.3,0.5-0.6,0.6
		c-0.3,0.1-0.6,0.2-0.9,0.2c-0.3,0-0.6-0.1-0.8-0.2c-0.2-0.1-0.5-0.3-0.6-0.5c-0.2-0.2-0.2-0.5-0.2-0.8h1c0,0.2,0.1,0.4,0.2,0.5
		c0.1,0.1,0.3,0.2,0.5,0.2c0.2,0,0.4-0.1,0.5-0.2c0.1-0.2,0.2-0.4,0.2-0.7c0-0.2-0.1-0.5-0.2-0.6c-0.2-0.2-0.4-0.2-0.6-0.2
		c-0.2,0-0.4,0.1-0.6,0.2l-0.1,0.1L-1840.6-4713.9z"/>
	<path id="Trazado_373307" class="st0" d="M-1782.3-4760.1c0,0.8-0.4,1.5-0.9,2c-0.6,0.5-1.4,0.8-2.2,0.7c-0.9,0-1.8-0.3-2.4-1
		c-0.6-0.8-0.9-1.8-0.9-2.8v-0.5c0-0.7,0.1-1.4,0.4-2c0.2-0.5,0.6-1,1.1-1.3c0.5-0.3,1.1-0.5,1.7-0.5c0.8,0,1.6,0.2,2.2,0.7
		c0.6,0.5,0.9,1.3,1,2h-1.6c0-0.4-0.1-0.8-0.4-1.1c-0.3-0.2-0.7-0.4-1.1-0.3c-0.5,0-0.9,0.2-1.2,0.6c-0.3,0.5-0.4,1.2-0.4,1.8v0.6
		c0,0.6,0.1,1.3,0.4,1.9c0.3,0.4,0.7,0.6,1.2,0.6c0.4,0,0.8-0.1,1.1-0.3c0.3-0.3,0.4-0.7,0.4-1.1H-1782.3z"/>
	<g id="Grupo_593754" transform="translate(-3142.007 -8819)">
		<line id="Lnea_1974" class="st5" x1="1025.5" y1="4121.5" x2="1025.5" y2="4127.5"/>
		<line id="Lnea_1975" class="st5" x1="1207.5" y1="4121.5" x2="1207.5" y2="4127.5"/>
		<line id="Lnea_1977" class="st5" x1="1117.5" y1="4127.5" x2="1117.5" y2="4134.5"/>
		<line id="Lnea_1976" class="st6" x1="1025.5" y1="4127.5" x2="1207.5" y2="4127.5"/>
	</g>
	<g id="Grupo_593760" transform="translate(-2957.007 -8819)">
		<line id="Lnea_1974-2" class="st5" x1="1025.5" y1="4121.5" x2="1025.5" y2="4127.5"/>
		<line id="Lnea_1975-2" class="st5" x1="1128.5" y1="4121.5" x2="1128.5" y2="4127.5"/>
		<line id="Lnea_1977-2" class="st5" x1="1077.5" y1="4127.5" x2="1077.5" y2="4134.5"/>
		<path id="Trazado_309086" class="st6" d="M1025.5,4127.5h103"/>
	</g>
	<g id="Grupo_593761" transform="translate(-2842.007 -8819)">
		<line id="Lnea_1974-3" class="st5" x1="1025.5" y1="4121.5" x2="1025.5" y2="4127.5"/>
		<line id="Lnea_1975-3" class="st5" x1="1086.5" y1="4121.5" x2="1086.5" y2="4127.5"/>
		<line id="Lnea_1977-3" class="st5" x1="1056.5" y1="4127.5" x2="1056.5" y2="4134.5"/>
		<path id="Trazado_309086-2" class="st6" d="M1025.5,4127.5h61"/>
	</g>
</g>
</svg>
