<svg id="Grupo_598782" data-name="Grupo 598782" xmlns="http://www.w3.org/2000/svg" xmlns:xlink="http://www.w3.org/1999/xlink" width="85" height="51.055" viewBox="0 0 85 51.055">
  <defs>
    <clipPath id="clip-path">
      <rect id="Rectángulo_38862" data-name="Rectángulo 38862" width="85" height="51.055" fill="#d66054"/>
    </clipPath>
  </defs>
  <g id="Grupo_145432" data-name="Grupo 145432" clip-path="url(#clip-path)">
    <path id="Trazado_151125" data-name="Trazado 151125" d="M13.622,34.553A7.832,7.832,0,1,0,5.79,26.721a7.842,7.842,0,0,0,7.832,7.832m0-13.487a5.655,5.655,0,1,1-5.655,5.655,5.661,5.661,0,0,1,5.655-5.655" transform="translate(52.698 16.503)" fill="#d66054"/>
    <path id="Trazado_151126" data-name="Trazado 151126" d="M40.141,34.553a7.832,7.832,0,1,0-7.832-7.832,7.842,7.842,0,0,0,7.832,7.832m0-13.487a5.655,5.655,0,1,1-5.655,5.655,5.661,5.661,0,0,1,5.655-5.655" transform="translate(-23.508 16.503)" fill="#d66054"/>
    <path id="Trazado_151127" data-name="Trazado 151127" d="M31.054,41.549h8.8a1.089,1.089,0,1,0,0-2.177H32.142V19.97L37.111,5.34H56.644V39.371h-3.3a1.089,1.089,0,1,0,0,2.177h4.392a1.088,1.088,0,0,0,1.089-1.089V4.252a1.088,1.088,0,0,0-1.089-1.089H36.33A1.088,1.088,0,0,0,35.3,3.9L30.023,19.441a1.055,1.055,0,0,0-.058.349V40.46a1.088,1.088,0,0,0,1.089,1.089" transform="translate(-29.965 2.764)" fill="#d66054"/>
    <path id="Trazado_151128" data-name="Trazado 151128" d="M14.076,24.665H45.886a1.089,1.089,0,0,0,0-2.177H14.076a1.089,1.089,0,1,0,0,2.177" transform="translate(13.692 19.647)" fill="#d66054"/>
    <path id="Trazado_151129" data-name="Trazado 151129" d="M35.592,20.878H53.768a1.088,1.088,0,0,0,1.089-1.089V4.252a1.089,1.089,0,1,0-2.177,0V18.7H35.592a1.089,1.089,0,1,0,0,2.177" transform="translate(-34.503 2.764)" fill="#d66054"/>
    <path id="Trazado_151130" data-name="Trazado 151130" d="M42.4,24.416H44.23a4.68,4.68,0,0,0,0-9.361H42.4a1.088,1.088,0,0,0-1.089,1.089v7.184A1.088,1.088,0,0,0,42.4,24.416m1.832-7.184a2.5,2.5,0,0,1,0,5.006h-.744V17.232Z" transform="translate(-41.309 13.153)" fill="#d66054"/>
    <path id="Trazado_151131" data-name="Trazado 151131" d="M11.694,21.066H47.969a1.089,1.089,0,0,0,0-2.177H11.694a1.089,1.089,0,1,0,0,2.177" transform="translate(16.074 16.503)" fill="#d66054"/>
    <path id="Trazado_151132" data-name="Trazado 151132" d="M10.109,27.809H20.958a1.087,1.087,0,0,0,1.087-1.089V19.978a1.087,1.087,0,0,0-1.087-1.089H1.088a1.089,1.089,0,0,0,0,2.177H19.869v4.566h-9.76a1.089,1.089,0,0,0,0,2.177" transform="translate(62.954 16.503)" fill="#d66054"/>
    <path id="Trazado_151133" data-name="Trazado 151133" d="M1.089,28.264h28.26a1.089,1.089,0,0,0,0-2.177H1.089a1.089,1.089,0,0,0,0,2.177" transform="translate(54.563 22.792)" fill="#d66054"/>
    <path id="Trazado_151134" data-name="Trazado 151134" d="M30.019,28.264h3.266a1.089,1.089,0,0,0,0-2.177H30.019a1.089,1.089,0,0,0,0,2.177" transform="translate(-3.578 22.792)" fill="#d66054"/>
    <path id="Trazado_151135" data-name="Trazado 151135" d="M21.949,28.264h7.56a1.089,1.089,0,0,0,0-2.177h-7.56a1.089,1.089,0,0,0,0,2.177" transform="translate(15.318 22.792)" fill="#d66054"/>
    <path id="Trazado_151136" data-name="Trazado 151136" d="M16.172,28.264h3.266a1.089,1.089,0,0,0,0-2.177H16.172a1.089,1.089,0,0,0,0,2.177" transform="translate(36.214 22.792)" fill="#d66054"/>
    <path id="Trazado_151137" data-name="Trazado 151137" d="M31.761,28.264H57.115a1.089,1.089,0,0,0,0-2.177H31.761a1.089,1.089,0,0,0,0,2.177" transform="translate(-30.672 22.792)" fill="#d66054"/>
    <path id="Trazado_151138" data-name="Trazado 151138" d="M44.085,13.677a1.089,1.089,0,0,0,.77-1.859L39.141,6.1a1.089,1.089,0,0,0-1.54,1.54l5.715,5.715a1.09,1.09,0,0,0,.77.319" transform="translate(-30.027 5.054)" fill="#d66054"/>
    <path id="Trazado_151139" data-name="Trazado 151139" d="M2.118,29.317H23.095a1.09,1.09,0,0,0,1.09-1.089V10.534a1.09,1.09,0,0,0-1.09-1.089H2.118a1.088,1.088,0,0,0-1.089,1.089V28.228a1.088,1.088,0,0,0,1.089,1.089M22.008,27.14H3.206V11.62h18.8Z" transform="translate(58.887 8.252)" fill="#d66054"/>
    <path id="Trazado_151140" data-name="Trazado 151140" d="M15.775,29.317H36.754a1.088,1.088,0,0,0,1.089-1.089V10.534a1.088,1.088,0,0,0-1.089-1.089H15.775a1.088,1.088,0,0,0-1.089,1.089V28.228a1.088,1.088,0,0,0,1.089,1.089M35.665,27.14h-18.8V11.62h18.8Z" transform="translate(19.641 8.252)" fill="#d66054"/>
    <path id="Trazado_151141" data-name="Trazado 151141" d="M9.142,19.874H30.121a1.09,1.09,0,0,0,1.089-1.089V1.089A1.089,1.089,0,0,0,30.121,0H9.142A1.088,1.088,0,0,0,8.053,1.089v17.7a1.088,1.088,0,0,0,1.089,1.089M29.032,17.7H10.23V2.177h18.8Z" transform="translate(38.702 0.001)" fill="#d66054"/>
    <path id="Trazado_151142" data-name="Trazado 151142" d="M6.725,17a1.089,1.089,0,0,0,.77-1.859l-1.4-1.4a1.09,1.09,0,0,0-1.54,0L3.177,15.125a1.089,1.089,0,1,0,1.54,1.54l.613-.615.626.626a1.087,1.087,0,0,0,.77.319" transform="translate(71.831 11.727)" fill="#d66054"/>
    <path id="Trazado_151143" data-name="Trazado 151143" d="M4.692,21.778A1.088,1.088,0,0,0,5.78,20.69V14.511a1.089,1.089,0,1,0-2.177,0V20.69a1.088,1.088,0,0,0,1.089,1.089" transform="translate(72.469 11.727)" fill="#d66054"/>
    <path id="Trazado_151144" data-name="Trazado 151144" d="M9.655,16.989a1.089,1.089,0,0,0,.772-1.859l-1.4-1.4a1.121,1.121,0,0,0-1.54,0L6.108,15.119a1.088,1.088,0,1,0,1.538,1.54l.615-.615.626.626a1.086,1.086,0,0,0,.768.319" transform="translate(63.408 11.732)" fill="#d66054"/>
    <path id="Trazado_151145" data-name="Trazado 151145" d="M7.623,21.778A1.088,1.088,0,0,0,8.711,20.69V14.511a1.089,1.089,0,1,0-2.177,0V20.69a1.088,1.088,0,0,0,1.089,1.089" transform="translate(64.046 11.727)" fill="#d66054"/>
    <path id="Trazado_151146" data-name="Trazado 151146" d="M20.382,16.989a1.089,1.089,0,0,0,.77-1.859l-1.4-1.4a1.119,1.119,0,0,0-1.538,0l-1.385,1.385a1.089,1.089,0,1,0,1.54,1.54l.613-.615.626.626a1.087,1.087,0,0,0,.77.319" transform="translate(32.586 11.732)" fill="#d66054"/>
    <path id="Trazado_151147" data-name="Trazado 151147" d="M18.348,21.778a1.088,1.088,0,0,0,1.089-1.089V14.511a1.089,1.089,0,1,0-2.177,0V20.69a1.088,1.088,0,0,0,1.089,1.089" transform="translate(33.226 11.727)" fill="#d66054"/>
    <path id="Trazado_151148" data-name="Trazado 151148" d="M23.31,16.989a1.089,1.089,0,0,0,.772-1.859l-1.394-1.4a1.125,1.125,0,0,0-1.54,0l-1.385,1.385a1.089,1.089,0,0,0,1.54,1.54l.615-.615.624.626a1.086,1.086,0,0,0,.768.319" transform="translate(24.164 11.733)" fill="#d66054"/>
    <path id="Trazado_151149" data-name="Trazado 151149" d="M21.28,21.778a1.088,1.088,0,0,0,1.089-1.089V14.511a1.089,1.089,0,1,0-2.177,0V20.69a1.088,1.088,0,0,0,1.089,1.089" transform="translate(24.801 11.727)" fill="#d66054"/>
    <path id="Trazado_151150" data-name="Trazado 151150" d="M13.749,7.549a1.089,1.089,0,0,0,.77-1.859L13.124,4.3a1.087,1.087,0,0,0-1.538,0L10.2,5.679a1.089,1.089,0,1,0,1.54,1.54l.613-.615.626.626a1.09,1.09,0,0,0,.77.319" transform="translate(51.647 3.476)" fill="#d66054"/>
    <path id="Trazado_151151" data-name="Trazado 151151" d="M11.715,12.334A1.088,1.088,0,0,0,12.8,11.246V5.067a1.089,1.089,0,1,0-2.177,0v6.179a1.088,1.088,0,0,0,1.089,1.089" transform="translate(52.287 3.476)" fill="#d66054"/>
    <path id="Trazado_151152" data-name="Trazado 151152" d="M16.68,7.549a1.089,1.089,0,0,0,.77-1.859L16.055,4.3a1.089,1.089,0,0,0-1.54,0L13.132,5.679a1.089,1.089,0,0,0,1.54,1.54l.613-.615.626.626a1.09,1.09,0,0,0,.77.319" transform="translate(43.224 3.476)" fill="#d66054"/>
    <path id="Trazado_151153" data-name="Trazado 151153" d="M14.647,12.334a1.088,1.088,0,0,0,1.089-1.089V5.067a1.089,1.089,0,1,0-2.177,0v6.179a1.088,1.088,0,0,0,1.089,1.089" transform="translate(43.862 3.476)" fill="#d66054"/>
  </g>
</svg>
